<?xml version="1.0" encoding="UTF-8" standalone="no"?>
<!-- Created with Inkscape (http://www.inkscape.org/) -->

<svg
   version="1.1"
   id="svg1"
   width="144"
   height="172"
   viewBox="0 0 144 172"
   sodipodi:docname="BaMM_PEAKS037311_ATF3_Q60765_MACS2partitions.svg"
   inkscape:version="1.4.3 (0d15f75042, 2025-12-25)"
   xmlns:inkscape="http://www.inkscape.org/namespaces/inkscape"
   xmlns:sodipodi="http://sodipodi.sourceforge.net/DTD/sodipodi-0.dtd"
   xmlns="http://www.w3.org/2000/svg"
   xmlns:svg="http://www.w3.org/2000/svg">
  <defs
     id="defs1">
    <clipPath
       clipPathUnits="userSpaceOnUse"
       id="clipPath3">
      <path
         d="m 44.281001,63.000002 h 7.719 v 1 h -7.719 z"
         id="path3" />
    </clipPath>
    <clipPath
       clipPathUnits="userSpaceOnUse"
       id="clipPath5">
      <path
         d="m 44.281001,62.000002 h 7.719 v 2 h -7.719 z"
         id="path5" />
    </clipPath>
    <clipPath
       clipPathUnits="userSpaceOnUse"
       id="clipPath7">
      <path
         d="m 44.281001,61.000002 h 7.719 v 2 h -7.719 z"
         id="path7" />
    </clipPath>
    <clipPath
       clipPathUnits="userSpaceOnUse"
       id="clipPath10">
      <path
         d="m 44.281001,59.000001 h 7.719 v 3.000001 h -7.719 z"
         id="path10" />
    </clipPath>
    <clipPath
       clipPathUnits="userSpaceOnUse"
       id="clipPath40">
      <path
         d="m 44.281001,95.000002 h 7.719 v 0.922 h -7.719 z"
         id="path40" />
    </clipPath>
    <clipPath
       clipPathUnits="userSpaceOnUse"
       id="clipPath42">
      <path
         d="m 44.281001,94.000002 h 7.719 v 1.922 h -7.719 z"
         id="path42" />
    </clipPath>
    <clipPath
       clipPathUnits="userSpaceOnUse"
       id="clipPath44">
      <path
         d="m 44.281001,92.000002 h 7.719 v 3 h -7.719 z"
         id="path44" />
    </clipPath>
    <clipPath
       clipPathUnits="userSpaceOnUse"
       id="clipPath47">
      <path
         d="m 44.281001,90.000002 h 7.719 v 3 h -7.719 z"
         id="path47" />
    </clipPath>
    <clipPath
       clipPathUnits="userSpaceOnUse"
       id="clipPath78">
      <path
         d="M 44.281001,95.000002 H 113.32 v 0.922 H 44.281001 Z"
         id="path78" />
    </clipPath>
  </defs>
  <sodipodi:namedview
     id="namedview1"
     pagecolor="#ffffff"
     bordercolor="#000000"
     borderopacity="0.25"
     inkscape:showpageshadow="2"
     inkscape:pageopacity="0.0"
     inkscape:pagecheckerboard="0"
     inkscape:deskcolor="#d1d1d1"
     inkscape:zoom="2.0277327"
     inkscape:cx="75.207151"
     inkscape:cy="119.34512"
     inkscape:window-width="1241"
     inkscape:window-height="1028"
     inkscape:window-x="0"
     inkscape:window-y="0"
     inkscape:window-maximized="1"
     inkscape:current-layer="g1" />
  <g
     id="g1"
     inkscape:groupmode="layer"
     inkscape:label="1">
    <g
       id="g78"
       transform="matrix(1.3036111,0,0,1.3036111,-64.966939,-35.857219)">
      <path
         id="path2"
         d="m 44.281,63.488 h 7.594 -3.039 v 0.028 h -1.52 v -0.028 z"
         style="fill:#ff0000;fill-opacity:1;fill-rule:nonzero;stroke:none"
         transform="scale(1.3333333)"
         clip-path="url(#clipPath3)" />
      <path
         id="path4"
         d="m 51.875,63.199 -0.039,0.012 -0.043,0.016 -0.047,0.011 -0.051,0.012 -0.054,0.012 -0.059,0.011 -0.062,0.012 -0.067,0.012 -0.07,0.012 -0.071,0.007 -0.156,0.024 -0.082,0.008 -0.086,0.011 -0.086,0.008 -0.093,0.012 -0.094,0.008 -0.195,0.015 -0.102,0.008 -0.211,0.016 -0.109,0.008 -0.11,0.004 -0.113,0.007 -0.113,0.004 -0.117,0.008 -0.118,0.004 -0.484,0.016 -0.125,0.003 h -0.125 l -0.125,0.004 h -0.379 l -0.125,0.004 -0.156,-0.004 H 47.695 L 47.539,63.48 47.082,63.469 46.785,63.461 46.641,63.453 46.5,63.445 46.359,63.441 46.223,63.434 46.09,63.422 45.957,63.414 45.832,63.406 45.707,63.395 45.473,63.371 45.363,63.359 45.258,63.348 45.156,63.336 45.059,63.324 44.969,63.312 44.883,63.297 44.801,63.281 44.727,63.27 44.656,63.254 44.59,63.238 44.531,63.223 44.48,63.207 44.434,63.191 44.395,63.176 44.359,63.16 44.332,63.145 44.309,63.129 44.293,63.113 44.281,63.094 v -0.032 l 0.012,-0.015 0.016,-0.016 0.023,-0.015 0.027,-0.02 0.036,-0.016 0.039,-0.015 0.046,-0.016 0.051,-0.015 0.059,-0.016 0.066,-0.012 0.071,-0.015 0.074,-0.016 0.082,-0.012 0.086,-0.015 0.09,-0.012 0.097,-0.016 0.102,-0.011 0.105,-0.012 0.11,-0.012 0.117,-0.012 0.117,-0.007 0.125,-0.012 0.125,-0.008 0.133,-0.012 0.133,-0.007 0.136,-0.008 0.282,-0.016 0.144,-0.004 0.149,-0.008 0.148,-0.003 0.457,-0.012 h 0.156 l 0.157,-0.004 h 0.566 l 0.125,0.004 h 0.25 l 0.25,0.008 0.484,0.015 0.235,0.008 0.113,0.008 0.113,0.004 0.219,0.015 0.105,0.004 0.106,0.008 0.102,0.008 0.097,0.012 0.098,0.007 0.187,0.016 0.086,0.012 0.086,0.008 0.082,0.011 0.078,0.012 0.078,0.008 0.141,0.023 0.067,0.012 0.062,0.012 0.059,0.011 0.054,0.012 0.051,0.012 0.047,0.012 0.043,0.011 0.039,0.012 H 50.598 L 50.555,62.945 50.512,62.938 50.465,62.926 50.418,62.922 50.367,62.914 50.203,62.891 50.141,62.883 50.078,62.879 50.016,62.871 49.949,62.863 49.883,62.859 49.812,62.852 49.742,62.848 49.668,62.844 49.594,62.836 49.52,62.832 49.363,62.824 49.035,62.809 48.949,62.805 H 48.863 L 48.777,62.801 H 48.691 L 48.605,62.797 H 48.43 l -0.09,-0.004 h -0.285 l -0.11,0.004 h -0.218 l -0.106,0.004 h -0.109 l -0.106,0.004 -0.101,0.004 -0.106,0.003 -0.101,0.004 -0.098,0.004 -0.098,0.008 -0.097,0.004 -0.094,0.008 -0.09,0.004 -0.09,0.008 -0.172,0.015 -0.156,0.016 -0.074,0.008 -0.07,0.007 -0.067,0.008 -0.066,0.012 -0.059,0.008 -0.058,0.012 -0.051,0.007 -0.051,0.012 -0.043,0.012 -0.043,0.008 -0.07,0.023 -0.028,0.012 -0.023,0.011 -0.02,0.012 -0.015,0.012 -0.012,0.008 -0.008,0.023 0.008,0.024 0.012,0.011 0.015,0.012 0.02,0.012 0.023,0.011 0.028,0.012 0.035,0.008 0.035,0.012 0.086,0.023 0.051,0.008 0.051,0.012 0.058,0.007 0.059,0.012 0.133,0.016 0.07,0.012 0.074,0.007 0.156,0.016 0.172,0.016 0.09,0.003 0.09,0.008 0.094,0.004 0.097,0.008 0.196,0.008 0.101,0.008 h 0.106 l 0.101,0.004 0.106,0.003 0.109,0.004 h 0.106 l 0.109,0.004 h 0.68 l 0.089,-0.004 h 0.086 l 0.086,-0.004 h 0.086 l 0.172,-0.007 h 0.082 l 0.246,-0.012 0.157,-0.008 0.074,-0.008 0.148,-0.008 0.07,-0.007 0.071,-0.004 0.066,-0.008 0.067,-0.004 0.125,-0.016 0.062,-0.003 0.164,-0.024 0.051,-0.008 0.094,-0.015 0.043,-0.008 0.043,-0.016 z"
         style="fill:#0000ff;fill-opacity:1;fill-rule:nonzero;stroke:none"
         transform="scale(1.3333333)"
         clip-path="url(#clipPath5)" />
      <path
         id="path6"
         d="m 51.875,62.121 -0.039,0.024 -0.043,0.023 -0.047,0.023 -0.051,0.024 -0.054,0.023 -0.059,0.024 -0.062,0.023 -0.067,0.02 -0.07,0.023 -0.071,0.02 -0.156,0.039 -0.082,0.019 -0.172,0.039 -0.093,0.016 -0.094,0.019 -0.195,0.032 -0.102,0.015 -0.106,0.016 -0.105,0.012 -0.109,0.011 -0.11,0.016 -0.113,0.012 -0.113,0.008 -0.117,0.011 -0.118,0.008 -0.121,0.012 -0.121,0.008 -0.121,0.004 -0.121,0.007 -0.625,0.02 h -0.41 L 47.852,62.668 H 47.695 L 47.539,62.66 47.387,62.656 47.082,62.641 46.934,62.633 46.785,62.621 46.641,62.609 46.5,62.598 46.359,62.582 46.223,62.566 45.957,62.535 45.707,62.496 45.59,62.477 45.473,62.453 45.363,62.434 45.258,62.41 45.156,62.383 45.059,62.359 44.969,62.336 44.883,62.309 44.801,62.281 44.727,62.254 44.656,62.227 44.59,62.195 44.531,62.168 44.48,62.137 44.434,62.105 44.395,62.078 44.359,62.047 44.332,62.016 44.309,61.984 44.293,61.953 44.281,61.922 v -0.063 l 0.012,-0.031 0.016,-0.031 0.023,-0.031 0.027,-0.032 0.036,-0.031 0.039,-0.031 0.046,-0.031 0.051,-0.028 0.059,-0.031 0.066,-0.027 0.071,-0.028 0.074,-0.027 0.082,-0.027 0.086,-0.028 0.09,-0.027 0.097,-0.023 0.102,-0.024 0.105,-0.023 0.11,-0.024 0.234,-0.039 0.25,-0.039 0.133,-0.019 0.133,-0.016 0.136,-0.016 0.141,-0.011 0.141,-0.016 0.144,-0.012 0.149,-0.008 0.148,-0.011 0.305,-0.016 0.152,-0.004 0.313,-0.008 h 0.156 l 0.156,-0.004 0.125,0.004 h 0.254 l 0.375,0.012 0.125,0.008 0.121,0.004 0.363,0.023 0.118,0.012 0.117,0.008 0.226,0.023 0.219,0.024 0.211,0.031 0.102,0.012 0.097,0.019 0.098,0.016 0.094,0.015 0.093,0.02 0.086,0.016 0.086,0.019 0.082,0.02 0.156,0.039 0.071,0.023 0.07,0.02 0.067,0.023 0.062,0.024 0.059,0.019 0.054,0.023 0.051,0.024 0.047,0.023 0.043,0.024 0.039,0.027 H 50.598 L 50.555,61.629 50.512,61.613 50.418,61.582 50.367,61.57 50.258,61.539 50.203,61.527 50.141,61.516 50.078,61.5 50.016,61.488 49.883,61.465 49.812,61.453 49.742,61.445 49.594,61.422 49.52,61.414 49.363,61.398 49.117,61.375 49.035,61.371 48.949,61.367 48.863,61.359 48.605,61.348 H 48.516 L 48.43,61.344 h -0.485 l -0.109,0.004 h -0.109 l -0.106,0.004 -0.109,0.007 -0.106,0.004 -0.101,0.008 -0.106,0.008 -0.101,0.008 -0.098,0.008 -0.098,0.011 -0.097,0.008 -0.094,0.012 -0.09,0.012 -0.09,0.015 -0.086,0.012 -0.086,0.015 -0.156,0.032 -0.074,0.015 -0.07,0.016 -0.067,0.019 -0.066,0.016 -0.117,0.039 -0.102,0.039 -0.086,0.039 -0.035,0.02 -0.035,0.023 -0.028,0.02 -0.043,0.043 -0.015,0.023 -0.012,0.02 -0.008,0.047 0.004,0.019 0.004,0.024 0.012,0.023 0.015,0.02 0.02,0.023 0.023,0.02 0.028,0.023 0.07,0.039 0.043,0.023 0.043,0.02 0.102,0.039 0.058,0.02 0.059,0.015 0.066,0.02 0.067,0.015 0.07,0.02 0.074,0.016 0.156,0.031 0.086,0.011 0.086,0.016 0.18,0.024 0.094,0.011 0.097,0.012 0.098,0.008 0.098,0.012 0.101,0.007 0.106,0.008 0.101,0.004 0.106,0.008 0.109,0.004 0.106,0.004 0.218,0.008 h 0.395 l 0.09,-0.004 h 0.086 l 0.089,-0.004 0.43,-0.02 0.164,-0.015 0.082,-0.004 0.082,-0.008 0.078,-0.008 0.079,-0.012 0.148,-0.015 0.074,-0.012 0.141,-0.024 0.133,-0.023 0.187,-0.035 0.055,-0.016 0.054,-0.011 0.055,-0.016 0.051,-0.016 0.094,-0.031 0.043,-0.016 0.043,-0.027 z"
         style="fill:#ffa500;fill-opacity:1;fill-rule:nonzero;stroke:none"
         transform="scale(1.3333333)"
         clip-path="url(#clipPath7)" />
      <path
         id="path8"
         d="m 51.875,62.047 h -3.797 v 0.156 h 2.277 v 0.469 h 1.52 z"
         style="fill:#ffa500;fill-opacity:1;fill-rule:nonzero;stroke:none"
         transform="scale(1.3333333)" />
      <path
         id="path9"
         d="m 44.281,61.105 3.035,-1.847 h 1.52 l 3.039,1.847 h -1.52 l -2.277,-1.386 -2.277,1.386 z"
         style="fill:#00ff00;fill-opacity:1;fill-rule:nonzero;stroke:none"
         transform="scale(1.3333333)"
         clip-path="url(#clipPath10)" />
      <path
         id="path11"
         d="m 45.949,60.551 0.305,-0.184 h 3.644 l 0.305,0.184 z"
         style="fill:#00ff00;fill-opacity:1;fill-rule:nonzero;stroke:none"
         transform="scale(1.3333333)" />
      <path
         id="path12"
         d="m 51.949,44.293 h 7.598 v 1.922 h -3.039 v 17.301 h -1.52 V 46.215 h -3.039 z"
         style="fill:#ff0000;fill-opacity:1;fill-rule:nonzero;stroke:none"
         transform="scale(1.3333333)" />
      <path
         id="path13"
         d="m 59.621,62.02 h 7.594 v 0.148 H 64.18 v 1.348 h -1.52 v -1.348 h -3.039 z"
         style="fill:#ff0000;fill-opacity:1;fill-rule:nonzero;stroke:none"
         transform="scale(1.3333333)" />
      <path
         id="path14"
         d="m 67.215,57.383 -0.039,0.207 -0.043,0.199 -0.047,0.199 -0.051,0.196 -0.055,0.195 -0.058,0.187 -0.063,0.188 -0.062,0.184 -0.07,0.179 -0.075,0.176 -0.074,0.172 -0.078,0.168 -0.082,0.164 -0.086,0.156 -0.09,0.156 -0.09,0.149 -0.093,0.14 -0.098,0.141 -0.098,0.133 -0.101,0.125 -0.106,0.121 -0.105,0.117 -0.11,0.11 -0.113,0.105 -0.109,0.098 -0.117,0.09 -0.114,0.085 -0.121,0.079 -0.117,0.07 -0.121,0.066 -0.121,0.059 -0.125,0.051 -0.121,0.047 -0.125,0.039 -0.125,0.031 -0.125,0.023 -0.129,0.016 -0.125,0.012 -0.125,0.004 -0.156,-0.004 -0.157,-0.02 L 63.039,61.973 62.883,61.934 62.73,61.887 62.578,61.828 62.426,61.758 62.277,61.68 62.129,61.59 61.984,61.492 61.84,61.383 61.703,61.266 61.562,61.137 61.43,61 61.301,60.855 61.172,60.699 61.051,60.535 60.93,60.363 60.816,60.184 60.703,59.996 60.598,59.805 60.496,59.602 60.402,59.391 60.309,59.176 60.223,58.957 60.141,58.73 l -0.075,-0.234 -0.07,-0.234 -0.062,-0.242 -0.059,-0.247 -0.055,-0.25 -0.086,-0.507 -0.035,-0.258 -0.027,-0.262 -0.02,-0.262 -0.015,-0.265 -0.012,-0.266 -0.004,-0.262 0.004,-0.265 0.012,-0.266 0.015,-0.262 0.02,-0.265 0.027,-0.258 0.035,-0.258 0.043,-0.258 0.043,-0.254 0.055,-0.25 0.059,-0.246 0.062,-0.238 0.07,-0.238 0.075,-0.231 0.082,-0.23 0.086,-0.219 0.093,-0.215 0.094,-0.211 0.102,-0.199 0.105,-0.195 0.113,-0.188 0.114,-0.179 0.121,-0.172 0.121,-0.164 0.129,-0.153 0.129,-0.148 0.132,-0.137 0.141,-0.129 0.137,-0.117 0.144,-0.109 0.145,-0.098 0.148,-0.09 0.149,-0.078 0.152,-0.07 0.152,-0.059 0.153,-0.047 0.156,-0.035 0.156,-0.027 0.157,-0.016 0.156,-0.008 0.125,0.004 0.125,0.012 0.129,0.016 0.125,0.027 0.125,0.031 0.125,0.035 0.121,0.047 0.125,0.051 0.121,0.059 0.121,0.066 0.117,0.07 0.121,0.078 0.114,0.086 0.117,0.094 0.109,0.098 0.113,0.101 0.11,0.11 0.105,0.117 0.106,0.121 0.101,0.129 0.098,0.133 0.098,0.136 0.093,0.145 0.09,0.148 0.09,0.153 0.086,0.16 0.082,0.16 0.078,0.168 0.074,0.172 0.075,0.176 0.07,0.179 0.062,0.184 0.063,0.187 0.058,0.192 0.055,0.191 0.051,0.196 0.047,0.199 0.043,0.203 0.039,0.203 h -1.277 l -0.04,-0.246 -0.043,-0.129 -0.046,-0.129 -0.047,-0.125 -0.051,-0.125 -0.055,-0.121 -0.054,-0.117 -0.059,-0.113 -0.059,-0.11 -0.062,-0.109 -0.063,-0.102 -0.066,-0.101 -0.066,-0.098 -0.071,-0.094 -0.074,-0.089 -0.07,-0.083 -0.074,-0.082 -0.079,-0.078 -0.156,-0.14 -0.078,-0.063 -0.082,-0.058 -0.082,-0.055 -0.086,-0.051 -0.082,-0.047 -0.086,-0.043 -0.086,-0.035 -0.086,-0.031 -0.09,-0.027 -0.172,-0.04 -0.089,-0.011 -0.09,-0.008 h -0.086 l -0.11,0.004 -0.109,0.008 -0.109,0.019 -0.11,0.028 -0.109,0.031 -0.106,0.043 -0.105,0.047 -0.105,0.054 -0.102,0.063 -0.102,0.07 -0.101,0.074 -0.098,0.086 -0.094,0.09 -0.093,0.094 -0.094,0.101 -0.09,0.11 -0.086,0.113 -0.082,0.121 -0.082,0.125 -0.074,0.133 -0.074,0.137 -0.075,0.14 -0.066,0.145 -0.062,0.152 -0.063,0.156 -0.055,0.157 -0.054,0.164 -0.047,0.164 -0.047,0.172 -0.078,0.343 -0.031,0.18 -0.028,0.176 -0.023,0.184 -0.02,0.183 -0.015,0.184 -0.012,0.183 -0.008,0.184 v 0.371 l 0.008,0.187 0.012,0.184 0.015,0.184 0.02,0.179 0.023,0.184 0.028,0.18 0.031,0.175 0.039,0.176 0.039,0.172 0.094,0.336 0.109,0.32 0.125,0.305 0.066,0.145 0.075,0.14 0.074,0.137 0.074,0.133 0.082,0.125 0.082,0.121 0.086,0.113 0.09,0.109 0.094,0.102 0.093,0.098 0.094,0.09 0.098,0.082 0.101,0.074 0.102,0.07 0.102,0.063 0.105,0.054 0.105,0.047 0.106,0.043 0.109,0.031 0.11,0.028 0.109,0.019 0.109,0.012 0.11,0.004 0.086,-0.004 0.09,-0.008 0.089,-0.012 0.086,-0.015 0.086,-0.024 0.09,-0.027 0.086,-0.031 0.086,-0.035 0.086,-0.043 0.082,-0.043 0.086,-0.051 0.082,-0.055 0.082,-0.062 0.078,-0.063 0.078,-0.066 0.078,-0.074 0.079,-0.079 0.074,-0.078 0.07,-0.086 0.074,-0.089 0.071,-0.094 0.132,-0.196 0.125,-0.21 0.118,-0.227 0.054,-0.117 0.055,-0.121 0.051,-0.121 0.047,-0.125 0.046,-0.129 0.043,-0.133 0.04,-0.246 z"
         style="fill:#ffa500;fill-opacity:1;fill-rule:nonzero;stroke:none"
         transform="scale(1.3333333)" />
      <path
         id="path15"
         d="m 67.215,56.758 h -3.797 v 1.312 h 2.281 v 3.95 h 1.516 z"
         style="fill:#ffa500;fill-opacity:1;fill-rule:nonzero;stroke:none"
         transform="scale(1.3333333)" />
      <path
         id="path16"
         d="m 67.293,63.516 3.039,-19.223 h 1.52 l 3.035,19.223 h -1.52 L 71.09,49.098 68.812,63.516 Z"
         style="fill:#00ff00;fill-opacity:1;fill-rule:nonzero;stroke:none"
         transform="scale(1.3333333)" />
      <path
         id="path17"
         d="m 68.965,57.746 0.305,-1.922 h 3.644 l 0.305,1.922 z"
         style="fill:#00ff00;fill-opacity:1;fill-rule:nonzero;stroke:none"
         transform="scale(1.3333333)" />
      <path
         id="path18"
         d="m 82.559,63.191 -0.039,0.016 -0.043,0.012 -0.047,0.015 -0.051,0.012 -0.055,0.016 -0.058,0.011 -0.063,0.012 -0.066,0.016 -0.067,0.011 -0.148,0.024 -0.164,0.023 -0.172,0.024 -0.09,0.008 -0.098,0.011 -0.093,0.008 -0.102,0.012 -0.101,0.008 -0.211,0.015 -0.219,0.016 -0.113,0.008 -0.114,0.004 -0.117,0.007 -0.117,0.004 -0.121,0.004 -0.117,0.008 -0.125,0.004 -0.121,0.004 h -0.125 l -0.25,0.008 h -0.25 l -0.125,0.004 H 78.691 L 78.535,63.512 H 78.379 L 78.227,63.508 78.07,63.504 77.918,63.5 77.77,63.496 77.617,63.492 77.473,63.484 77.324,63.477 77.043,63.461 76.906,63.453 76.773,63.441 76.641,63.434 76.391,63.41 76.156,63.387 76.047,63.375 75.941,63.359 75.84,63.348 75.742,63.332 75.652,63.316 75.566,63.301 75.484,63.285 75.41,63.27 l -0.07,-0.016 -0.067,-0.02 -0.054,-0.015 -0.055,-0.02 -0.047,-0.015 -0.039,-0.02 -0.035,-0.016 -0.027,-0.019 -0.024,-0.02 -0.015,-0.015 -0.008,-0.02 -0.004,-0.019 0.004,-0.016 0.008,-0.019 0.015,-0.02 0.024,-0.016 0.027,-0.019 0.035,-0.02 0.039,-0.015 0.047,-0.02 0.055,-0.015 0.054,-0.02 0.067,-0.016 0.07,-0.015 0.074,-0.016 0.082,-0.016 0.086,-0.015 0.09,-0.016 0.098,-0.015 0.101,-0.012 0.106,-0.016 0.109,-0.011 0.117,-0.012 0.118,-0.016 0.125,-0.008 0.125,-0.011 0.132,-0.012 0.133,-0.008 0.137,-0.012 0.281,-0.015 0.149,-0.004 0.144,-0.008 0.153,-0.004 0.148,-0.008 0.152,-0.004 h 0.157 l 0.152,-0.003 0.156,-0.004 h 0.567 l 0.125,0.004 h 0.125 l 0.125,0.003 h 0.125 l 0.125,0.004 0.121,0.004 0.125,0.004 0.117,0.004 0.121,0.008 0.234,0.008 0.227,0.015 0.219,0.016 0.211,0.016 0.203,0.015 0.093,0.012 0.098,0.008 0.09,0.011 0.172,0.024 0.164,0.023 0.148,0.024 0.133,0.023 0.063,0.016 0.058,0.012 0.055,0.011 0.051,0.016 0.047,0.012 0.043,0.015 0.039,0.016 H 81.281 L 81.238,62.902 81.152,62.887 81.102,62.875 81,62.859 80.945,62.852 80.887,62.844 80.824,62.836 80.766,62.828 80.633,62.812 80.566,62.809 80.426,62.793 80.277,62.785 80.203,62.777 80.047,62.77 79.965,62.762 79.801,62.754 H 79.719 L 79.633,62.75 79.551,62.746 79.465,62.742 h -0.09 l -0.086,-0.004 h -0.176 l -0.086,-0.004 h -0.289 l -0.109,0.004 h -0.215 l -0.109,0.004 -0.106,0.004 h -0.105 l -0.106,0.004 -0.105,0.008 -0.102,0.004 -0.097,0.004 -0.098,0.007 -0.098,0.004 -0.093,0.008 -0.18,0.016 -0.086,0.008 -0.164,0.015 -0.078,0.008 -0.075,0.012 -0.07,0.008 -0.133,0.023 -0.058,0.008 -0.059,0.012 -0.101,0.023 -0.086,0.023 -0.035,0.012 -0.032,0.016 -0.031,0.011 -0.023,0.012 -0.02,0.012 -0.016,0.012 -0.011,0.015 -0.008,0.024 0.004,0.015 0.004,0.012 0.027,0.027 0.02,0.012 0.023,0.012 0.063,0.023 0.035,0.012 0.043,0.016 0.043,0.011 0.05,0.012 0.051,0.008 0.117,0.023 0.067,0.012 0.066,0.008 0.07,0.012 0.075,0.007 0.078,0.012 0.164,0.016 0.086,0.007 0.18,0.016 0.093,0.004 0.196,0.016 0.097,0.004 0.102,0.003 0.422,0.016 h 0.109 l 0.106,0.004 h 0.683 l 0.086,-0.004 h 0.086 l 0.09,-0.004 h 0.086 l 0.082,-0.004 0.086,-0.004 0.328,-0.015 0.156,-0.008 0.074,-0.008 0.075,-0.004 0.074,-0.008 0.07,-0.004 0.07,-0.007 0.133,-0.016 0.067,-0.004 0.058,-0.008 0.063,-0.007 0.058,-0.008 0.055,-0.008 0.051,-0.012 0.101,-0.015 0.043,-0.008 0.043,-0.012 0.043,-0.016 z"
         style="fill:#ffa500;fill-opacity:1;fill-rule:nonzero;stroke:none"
         transform="scale(1.3333333)" />
      <path
         id="path19"
         d="m 82.559,63.148 h -3.797 v 0.09 h 2.277 v 0.278 h 1.52 z"
         style="fill:#ffa500;fill-opacity:1;fill-rule:nonzero;stroke:none"
         transform="scale(1.3333333)" />
      <path
         id="path20"
         d="m 74.965,61.012 h 7.594 v 0.16 H 79.52 v 1.426 h -1.516 v -1.426 h -3.039 z"
         style="fill:#ff0000;fill-opacity:1;fill-rule:nonzero;stroke:none"
         transform="scale(1.3333333)" />
      <path
         id="path21"
         d="m 82.559,59.738 -0.039,0.055 -0.043,0.055 -0.047,0.054 -0.051,0.055 -0.055,0.055 -0.058,0.05 -0.063,0.051 -0.133,0.102 -0.148,0.094 -0.164,0.093 -0.172,0.086 -0.09,0.039 -0.098,0.039 -0.093,0.039 -0.203,0.071 -0.106,0.035 -0.105,0.031 -0.11,0.031 -0.109,0.028 -0.113,0.027 -0.114,0.024 -0.234,0.046 -0.121,0.02 -0.117,0.016 -0.125,0.019 -0.121,0.012 -0.25,0.023 -0.25,0.016 -0.25,0.008 H 78.691 L 78.535,61.008 78.379,61 78.227,60.988 78.07,60.977 77.918,60.961 77.77,60.941 77.617,60.918 77.473,60.895 77.324,60.867 77.184,60.84 77.043,60.805 76.906,60.77 76.641,60.691 76.391,60.605 76.273,60.559 76.156,60.508 76.047,60.457 75.941,60.402 75.84,60.348 75.742,60.289 75.652,60.23 75.566,60.168 75.484,60.105 75.41,60.043 75.34,59.977 75.273,59.91 l -0.054,-0.066 -0.055,-0.071 -0.047,-0.066 -0.039,-0.074 -0.035,-0.071 -0.027,-0.07 -0.024,-0.074 -0.015,-0.07 -0.008,-0.075 -0.004,-0.074 0.004,-0.07 0.008,-0.074 0.015,-0.071 0.024,-0.074 0.027,-0.07 0.035,-0.074 0.039,-0.071 0.047,-0.066 0.055,-0.07 0.054,-0.067 0.067,-0.066 0.07,-0.067 0.074,-0.062 0.082,-0.063 0.086,-0.062 0.09,-0.059 0.098,-0.058 0.101,-0.055 0.106,-0.055 0.109,-0.05 0.117,-0.051 0.118,-0.047 0.25,-0.086 0.132,-0.043 0.133,-0.035 0.137,-0.035 0.141,-0.036 0.14,-0.027 0.149,-0.027 0.144,-0.024 0.153,-0.023 0.148,-0.02 0.152,-0.015 0.157,-0.012 0.152,-0.012 0.156,-0.007 0.156,-0.004 h 0.286 l 0.25,0.007 0.25,0.016 0.25,0.024 0.121,0.011 0.125,0.016 0.117,0.019 0.121,0.02 0.234,0.047 0.114,0.023 0.113,0.028 0.109,0.027 0.11,0.031 0.105,0.031 0.106,0.036 0.203,0.07 0.093,0.039 0.098,0.039 0.09,0.039 0.172,0.086 0.164,0.094 0.148,0.094 0.133,0.101 0.063,0.051 0.058,0.051 0.055,0.054 0.051,0.055 0.047,0.055 0.043,0.054 0.039,0.055 H 81.281 L 81.238,58.598 81.152,58.527 81.051,58.457 81,58.426 l -0.055,-0.031 -0.058,-0.032 -0.063,-0.031 -0.058,-0.031 -0.2,-0.082 -0.07,-0.028 -0.07,-0.023 -0.149,-0.047 -0.074,-0.019 -0.156,-0.04 -0.082,-0.015 -0.082,-0.02 -0.082,-0.015 -0.082,-0.012 -0.086,-0.012 -0.082,-0.011 -0.086,-0.012 -0.09,-0.008 -0.086,-0.008 -0.086,-0.004 -0.09,-0.007 h -0.086 l -0.089,-0.004 h -0.2 l -0.218,0.007 -0.106,0.008 -0.109,0.008 -0.106,0.012 -0.316,0.047 -0.102,0.019 -0.097,0.02 -0.196,0.047 -0.093,0.027 -0.09,0.027 -0.09,0.032 -0.086,0.031 -0.082,0.031 -0.082,0.035 -0.078,0.039 -0.075,0.035 -0.07,0.039 -0.066,0.04 -0.067,0.042 -0.117,0.086 -0.051,0.047 -0.05,0.043 -0.086,0.094 -0.035,0.051 -0.032,0.047 -0.031,0.05 -0.023,0.051 -0.02,0.047 -0.016,0.051 -0.011,0.051 -0.008,0.101 0.004,0.055 0.004,0.051 0.011,0.05 0.016,0.051 0.02,0.047 0.023,0.051 0.031,0.051 0.032,0.047 0.035,0.05 0.086,0.094 0.05,0.043 0.051,0.047 0.117,0.086 0.067,0.043 0.066,0.039 0.07,0.039 0.075,0.035 0.078,0.039 0.082,0.035 0.082,0.032 0.086,0.031 0.09,0.031 0.09,0.027 0.093,0.028 0.196,0.047 0.097,0.019 0.102,0.02 0.316,0.047 0.106,0.011 0.109,0.008 0.106,0.008 0.218,0.008 h 0.2 l 0.089,-0.004 h 0.086 l 0.09,-0.008 0.086,-0.004 0.086,-0.008 0.09,-0.007 0.086,-0.012 0.082,-0.012 0.086,-0.012 0.082,-0.011 0.082,-0.016 0.082,-0.02 0.082,-0.015 0.156,-0.039 0.074,-0.02 0.149,-0.047 0.07,-0.023 0.07,-0.027 0.2,-0.082 0.058,-0.032 0.063,-0.031 0.058,-0.031 0.055,-0.031 0.051,-0.032 0.101,-0.07 0.086,-0.07 0.043,-0.067 z"
         style="fill:#0000ff;fill-opacity:1;fill-rule:nonzero;stroke:none"
         transform="scale(1.3333333)" />
      <path
         id="path22"
         d="m 82.637,63.293 h 7.593 v 0.023 h -3.039 v 0.2 h -1.519 v -0.2 h -3.035 z"
         style="fill:#ff0000;fill-opacity:1;fill-rule:nonzero;stroke:none"
         transform="scale(1.3333333)" />
      <path
         id="path23"
         d="m 90.23,63.195 -0.039,0.004 -0.043,0.004 -0.046,0.004 -0.051,0.004 -0.055,0.004 -0.058,0.004 -0.063,0.004 -0.066,0.004 -0.141,0.007 -0.156,0.008 -0.082,0.004 -0.172,0.008 -0.094,0.004 H 89.07 l -0.195,0.008 -0.102,0.004 h -0.105 l -0.106,0.003 -0.109,0.004 H 88.344 L 88.23,63.281 H 88.117 L 88,63.285 h -0.117 l -0.121,0.004 H 87.52 l -0.122,0.004 H 85.742 L 85.59,63.289 h -0.301 l -0.148,-0.004 h -0.145 l -0.281,-0.008 h -0.137 l -0.266,-0.007 -0.25,-0.008 -0.234,-0.008 -0.109,-0.004 -0.106,-0.004 -0.101,-0.004 -0.098,-0.004 -0.09,-0.004 -0.086,-0.007 -0.082,-0.004 -0.074,-0.004 -0.07,-0.004 -0.067,-0.008 -0.058,-0.004 -0.051,-0.008 -0.047,-0.004 -0.039,-0.003 -0.035,-0.008 -0.027,-0.004 -0.024,-0.008 -0.016,-0.004 -0.011,-0.012 0.004,-0.007 0.023,-0.012 0.024,-0.004 0.027,-0.004 0.035,-0.008 0.039,-0.004 0.047,-0.008 0.051,-0.003 0.058,-0.008 0.067,-0.004 0.07,-0.004 0.074,-0.004 0.082,-0.008 0.086,-0.004 0.09,-0.004 0.098,-0.004 0.101,-0.003 0.106,-0.008 0.109,-0.004 0.234,-0.008 h 0.126 l 0.124,-0.004 0.266,-0.008 0.137,-0.004 h 0.14 l 0.141,-0.003 h 0.145 l 0.148,-0.004 h 0.149 l 0.152,-0.004 h 0.305 l 0.156,-0.004 h 0.847 l 0.125,0.004 h 0.497 l 0.121,0.004 h 0.121 l 0.121,0.004 h 0.234 l 0.227,0.007 h 0.109 l 0.109,0.004 h 0.106 l 0.105,0.004 0.102,0.004 h 0.098 l 0.097,0.004 0.188,0.008 0.172,0.008 0.082,0.003 h 0.078 l 0.078,0.004 0.141,0.008 0.066,0.004 0.063,0.004 0.058,0.004 0.055,0.008 0.051,0.004 0.046,0.004 0.043,0.003 0.039,0.004 H 88.953 L 88.867,63.102 88.82,63.098 h -0.047 l -0.05,-0.004 -0.055,-0.004 h -0.055 l -0.054,-0.004 -0.063,-0.004 h -0.062 l -0.063,-0.004 h -0.066 l -0.067,-0.004 -0.07,-0.004 h -0.07 l -0.075,-0.004 h -0.148 l -0.078,-0.004 h -0.078 l -0.082,-0.003 h -0.246 l -0.086,-0.004 h -0.344 l -0.09,-0.004 h -0.68 l -0.109,0.004 h -0.32 l -0.102,0.004 h -0.207 l -0.098,0.003 h -0.097 l -0.098,0.004 h -0.094 l -0.089,0.004 h -0.09 l -0.172,0.008 h -0.078 l -0.078,0.004 -0.075,0.004 -0.07,0.004 h -0.066 l -0.067,0.004 -0.117,0.008 -0.102,0.007 -0.085,0.008 -0.071,0.008 -0.027,0.004 -0.024,0.004 -0.019,0.004 -0.016,0.004 -0.011,0.004 -0.008,0.007 0.008,0.008 0.011,0.004 0.016,0.004 0.019,0.004 0.024,0.004 0.027,0.004 0.071,0.008 0.085,0.007 0.102,0.008 0.059,0.004 h 0.058 l 0.133,0.008 0.07,0.004 0.075,0.004 h 0.078 l 0.078,0.004 0.086,0.003 h 0.086 l 0.09,0.004 h 0.089 l 0.094,0.004 0.098,0.004 h 0.195 l 0.102,0.004 h 0.207 l 0.105,0.004 h 1.352 l 0.086,-0.004 h 0.25 l 0.082,-0.004 h 0.082 l 0.078,-0.004 h 0.152 l 0.074,-0.004 h 0.075 l 0.07,-0.004 h 0.07 l 0.067,-0.003 h 0.066 l 0.125,-0.008 h 0.063 l 0.054,-0.004 h 0.055 l 0.055,-0.004 0.05,-0.004 0.047,-0.004 h 0.047 l 0.086,-0.008 z"
         style="fill:#0000ff;fill-opacity:1;fill-rule:nonzero;stroke:none"
         transform="scale(1.3333333)" />
      <path
         id="path24"
         d="m 82.637,63.008 3.035,-0.645 h 1.519 l 3.039,0.645 h -1.519 l -2.277,-0.485 -2.278,0.485 z"
         style="fill:#00ff00;fill-opacity:1;fill-rule:nonzero;stroke:none"
         transform="scale(1.3333333)" />
      <path
         id="path25"
         d="m 84.305,62.816 0.304,-0.066 h 3.645 l 0.305,0.066 z"
         style="fill:#00ff00;fill-opacity:1;fill-rule:nonzero;stroke:none"
         transform="scale(1.3333333)" />
      <path
         id="path26"
         d="m 90.23,62.043 -0.039,0.016 -0.043,0.011 -0.046,0.016 -0.051,0.012 -0.055,0.015 -0.058,0.012 -0.063,0.012 -0.066,0.015 -0.141,0.024 -0.156,0.023 -0.082,0.012 -0.086,0.012 -0.086,0.007 -0.094,0.012 -0.094,0.008 -0.097,0.012 -0.098,0.008 -0.102,0.007 -0.105,0.012 -0.106,0.008 -0.109,0.008 -0.109,0.004 -0.227,0.015 -0.117,0.004 -0.117,0.008 -0.485,0.016 -0.125,0.003 h -0.125 l -0.125,0.004 h -0.125 l -0.125,0.004 H 86.207 L 85.895,62.355 H 85.742 L 85.59,62.352 85.438,62.344 85.289,62.34 85.141,62.332 84.996,62.328 84.715,62.312 84.578,62.301 84.445,62.293 84.312,62.281 84.188,62.273 84.062,62.262 83.828,62.238 83.719,62.223 83.613,62.211 83.512,62.195 83.414,62.184 83.324,62.168 83.238,62.152 83.156,62.137 83.082,62.121 83.012,62.105 82.945,62.086 82.887,62.07 82.836,62.055 82.789,62.035 82.75,62.02 82.715,62 l -0.027,-0.016 -0.024,-0.019 -0.016,-0.02 -0.007,-0.015 -0.004,-0.02 0.004,-0.019 0.007,-0.016 0.016,-0.02 0.024,-0.019 0.027,-0.016 0.035,-0.019 0.039,-0.016 0.047,-0.019 0.051,-0.016 0.058,-0.02 0.067,-0.015 0.07,-0.016 0.074,-0.015 0.082,-0.016 0.086,-0.016 0.09,-0.015 0.098,-0.012 0.101,-0.016 0.106,-0.011 0.109,-0.016 0.234,-0.023 0.126,-0.012 0.124,-0.008 0.133,-0.012 0.133,-0.007 0.137,-0.012 0.281,-0.016 0.145,-0.004 0.148,-0.008 0.149,-0.003 0.152,-0.008 0.305,-0.008 h 0.156 l 0.156,-0.004 h 0.566 l 0.125,0.004 h 0.125 l 0.125,0.004 h 0.125 l 0.125,0.004 0.485,0.015 0.117,0.008 0.117,0.004 0.227,0.016 0.109,0.004 0.109,0.007 0.106,0.008 0.105,0.012 0.102,0.008 0.098,0.008 0.097,0.011 0.094,0.008 0.094,0.012 0.086,0.008 0.086,0.011 0.082,0.012 0.156,0.024 0.141,0.023 0.066,0.016 0.063,0.011 0.058,0.012 0.055,0.016 0.051,0.011 0.046,0.016 0.043,0.012 0.039,0.015 h -1.277 l -0.043,-0.019 -0.043,-0.008 -0.094,-0.016 -0.05,-0.011 -0.164,-0.024 -0.125,-0.015 -0.063,-0.004 -0.133,-0.016 -0.07,-0.008 -0.07,-0.004 -0.075,-0.007 -0.148,-0.008 -0.078,-0.008 -0.078,-0.004 -0.328,-0.016 -0.086,-0.004 h -0.086 l -0.172,-0.007 h -0.086 l -0.09,-0.004 h -0.68 l -0.109,0.004 h -0.105 l -0.11,0.004 -0.105,0.003 -0.102,0.004 -0.105,0.004 -0.102,0.004 -0.098,0.008 -0.097,0.004 -0.098,0.008 -0.094,0.004 -0.179,0.015 -0.172,0.016 -0.078,0.008 -0.078,0.011 -0.075,0.008 -0.07,0.012 -0.066,0.008 -0.067,0.011 -0.058,0.012 -0.059,0.008 -0.102,0.023 -0.085,0.024 -0.071,0.023 -0.027,0.016 -0.024,0.012 -0.019,0.011 -0.016,0.012 -0.011,0.012 -0.004,0.015 -0.004,0.012 0.008,0.024 0.011,0.015 0.016,0.012 0.019,0.012 0.024,0.011 0.027,0.016 0.071,0.023 0.085,0.024 0.102,0.023 0.059,0.008 0.058,0.012 0.067,0.012 0.066,0.007 0.07,0.012 0.075,0.008 0.078,0.012 0.078,0.007 0.172,0.016 0.179,0.016 0.094,0.004 0.098,0.007 0.097,0.004 0.098,0.008 0.102,0.004 0.105,0.004 0.102,0.004 0.105,0.004 0.11,0.004 h 0.105 l 0.109,0.004 h 0.594 l 0.086,-0.004 h 0.176 l 0.172,-0.008 h 0.086 l 0.086,-0.004 0.328,-0.016 0.078,-0.004 0.078,-0.007 0.148,-0.008 0.075,-0.008 0.07,-0.004 0.07,-0.008 0.133,-0.015 0.063,-0.004 0.125,-0.016 0.164,-0.023 0.05,-0.012 0.094,-0.016 0.043,-0.008 0.043,-0.019 z"
         style="fill:#ffa500;fill-opacity:1;fill-rule:nonzero;stroke:none"
         transform="scale(1.3333333)" />
      <path
         id="path27"
         d="m 90.23,62 h -3.796 v 0.09 h 2.277 v 0.273 h 1.519 z"
         style="fill:#ffa500;fill-opacity:1;fill-rule:nonzero;stroke:none"
         transform="scale(1.3333333)" />
      <path
         id="path28"
         d="m 90.309,63.516 3.035,-0.246 h 1.519 l 3.039,0.246 h -1.519 l -2.278,-0.184 -2.281,0.184 z"
         style="fill:#00ff00;fill-opacity:1;fill-rule:nonzero;stroke:none"
         transform="scale(1.3333333)" />
      <path
         id="path29"
         d="m 91.977,63.441 0.304,-0.023 h 3.645 l 0.304,0.023 z"
         style="fill:#00ff00;fill-opacity:1;fill-rule:nonzero;stroke:none"
         transform="scale(1.3333333)" />
      <path
         id="path30"
         d="m 97.902,63.137 -0.039,0.008 -0.043,0.003 -0.05,0.008 -0.051,0.004 -0.055,0.004 -0.059,0.008 -0.058,0.004 -0.067,0.008 -0.14,0.007 -0.078,0.004 -0.078,0.008 -0.082,0.004 -0.086,0.004 -0.18,0.008 -0.094,0.004 -0.195,0.007 -0.102,0.004 -0.211,0.008 -0.218,0.008 h -0.114 l -0.117,0.004 -0.113,0.004 h -0.117 l -0.121,0.004 h -0.122 l -0.121,0.004 H 94.945 L 94.82,63.27 H 93.566 L 93.414,63.266 H 93.262 L 93.109,63.262 H 92.961 L 92.812,63.258 92.668,63.254 H 92.527 L 92.387,63.25 92.113,63.242 91.855,63.234 91.734,63.227 91.613,63.223 91.5,63.219 91.391,63.211 91.285,63.207 91.184,63.199 91.086,63.195 90.996,63.188 90.906,63.184 90.75,63.168 90.684,63.164 90.617,63.156 90.559,63.148 90.508,63.141 90.461,63.133 90.418,63.125 90.387,63.121 90.355,63.113 90.336,63.105 90.32,63.098 90.309,63.09 v -0.016 l 0.011,-0.008 0.016,-0.007 0.019,-0.008 0.063,-0.016 0.043,-0.008 0.047,-0.007 0.051,-0.004 0.058,-0.008 0.133,-0.016 0.078,-0.004 0.078,-0.008 0.09,-0.007 0.09,-0.004 0.098,-0.008 0.101,-0.004 0.106,-0.008 0.109,-0.004 0.113,-0.004 0.121,-0.007 0.121,-0.004 0.258,-0.008 0.274,-0.008 0.281,-0.008 h 0.144 l 0.297,-0.008 h 0.153 l 0.152,-0.003 h 0.465 l 0.156,-0.004 h 0.41 l 0.125,0.004 h 0.375 l 0.125,0.003 h 0.242 l 0.122,0.004 h 0.121 l 0.117,0.004 0.113,0.004 h 0.117 l 0.114,0.004 0.218,0.008 h 0.106 l 0.105,0.004 0.102,0.004 0.195,0.008 0.094,0.003 0.09,0.004 0.09,0.008 0.086,0.004 0.082,0.004 0.156,0.008 0.07,0.008 0.07,0.003 0.067,0.004 0.058,0.008 0.059,0.004 0.055,0.008 0.051,0.004 0.05,0.008 0.043,0.004 0.039,0.007 h -1.277 l -0.043,-0.007 -0.043,-0.004 -0.094,-0.008 -0.05,-0.004 -0.11,-0.008 -0.058,-0.004 H 96.168 L 96.043,62.984 95.977,62.98 H 95.91 l -0.14,-0.007 h -0.075 l -0.074,-0.004 -0.078,-0.004 h -0.074 l -0.082,-0.004 h -0.078 l -0.082,-0.004 h -0.165 l -0.085,-0.004 h -0.258 l -0.086,-0.004 h -0.879 l -0.106,0.004 h -0.214 l -0.106,0.004 h -0.101 l -0.102,0.004 h -0.102 l -0.097,0.004 h -0.094 l -0.187,0.008 -0.172,0.007 h -0.086 l -0.157,0.008 -0.074,0.004 -0.14,0.008 -0.063,0.008 -0.117,0.008 -0.102,0.007 -0.046,0.008 -0.04,0.004 -0.07,0.008 -0.027,0.008 -0.024,0.004 -0.019,0.004 -0.016,0.007 -0.012,0.004 -0.007,0.004 v 0.012 l 0.007,0.008 0.012,0.004 0.016,0.004 0.019,0.007 0.024,0.004 0.027,0.004 0.035,0.008 0.035,0.004 0.04,0.004 0.046,0.004 0.051,0.008 0.051,0.003 0.117,0.008 0.063,0.004 0.14,0.008 0.074,0.004 0.157,0.008 0.258,0.011 h 0.093 l 0.188,0.008 h 0.097 l 0.204,0.008 h 0.207 l 0.105,0.004 h 0.324 l 0.11,0.004 h 0.484 l 0.086,-0.004 h 0.348 l 0.086,-0.004 h 0.168 l 0.082,-0.004 h 0.082 l 0.078,-0.004 h 0.082 l 0.074,-0.004 h 0.078 l 0.149,-0.007 h 0.07 l 0.07,-0.004 0.067,-0.004 h 0.066 l 0.125,-0.008 0.117,-0.008 h 0.055 l 0.055,-0.004 0.05,-0.004 0.094,-0.008 0.043,-0.003 0.043,-0.008 z"
         style="fill:#0000ff;fill-opacity:1;fill-rule:nonzero;stroke:none"
         transform="scale(1.3333333)" />
      <path
         id="path31"
         d="m 90.309,46.848 h 7.593 v 1.605 H 94.863 V 62.891 H 93.344 V 48.453 h -3.035 z"
         style="fill:#ff0000;fill-opacity:1;fill-rule:nonzero;stroke:none"
         transform="scale(1.3333333)" />
      <path
         id="path32"
         d="m 105.57,56.742 -0.039,0.297 -0.043,0.297 -0.047,0.289 -0.05,0.289 -0.055,0.281 -0.059,0.278 -0.062,0.273 -0.063,0.27 -0.07,0.261 -0.148,0.508 -0.079,0.242 -0.082,0.239 -0.085,0.23 -0.09,0.227 -0.09,0.215 -0.094,0.21 -0.098,0.204 -0.097,0.191 -0.102,0.187 -0.105,0.176 -0.106,0.172 -0.109,0.16 -0.113,0.153 -0.11,0.14 -0.117,0.133 -0.113,0.125 -0.121,0.113 -0.118,0.106 -0.121,0.097 -0.121,0.086 -0.125,0.075 -0.121,0.066 -0.125,0.055 -0.125,0.047 -0.125,0.035 -0.129,0.023 -0.125,0.016 -0.125,0.008 -0.156,-0.008 -0.156,-0.024 -0.156,-0.039 -0.157,-0.054 -0.152,-0.071 -0.152,-0.086 -0.153,-0.101 -0.148,-0.113 -0.149,-0.129 -0.144,-0.145 -0.145,-0.16 -0.136,-0.172 -0.141,-0.187 -0.133,-0.2 -0.129,-0.215 -0.129,-0.226 -0.121,-0.238 -0.121,-0.25 -0.113,-0.262 -0.11,-0.274 -0.109,-0.285 -0.101,-0.297 -0.094,-0.304 -0.094,-0.313 -0.086,-0.324 -0.078,-0.332 -0.078,-0.336 -0.07,-0.348 -0.063,-0.351 -0.059,-0.36 -0.054,-0.367 -0.043,-0.367 -0.043,-0.375 -0.035,-0.379 -0.028,-0.379 -0.019,-0.383 -0.016,-0.386 -0.012,-0.387 -0.003,-0.387 0.003,-0.386 0.012,-0.387 0.016,-0.383 0.019,-0.383 0.028,-0.383 0.035,-0.378 0.086,-0.743 0.054,-0.363 0.059,-0.359 0.063,-0.356 0.07,-0.343 0.078,-0.34 0.078,-0.332 0.086,-0.325 0.094,-0.312 0.094,-0.305 0.101,-0.293 0.109,-0.285 0.11,-0.273 0.113,-0.262 0.121,-0.254 0.121,-0.238 0.129,-0.227 0.129,-0.211 0.133,-0.203 0.141,-0.183 0.136,-0.176 0.145,-0.157 0.144,-0.144 0.149,-0.133 0.148,-0.113 0.153,-0.102 0.152,-0.086 0.152,-0.066 0.157,-0.055 0.156,-0.039 0.156,-0.023 0.156,-0.008 0.125,0.004 0.125,0.015 0.129,0.024 0.125,0.039 0.125,0.043 0.125,0.059 0.121,0.062 0.125,0.078 0.121,0.086 0.121,0.094 0.118,0.105 0.121,0.114 0.113,0.125 0.117,0.132 0.11,0.145 0.113,0.152 0.109,0.16 0.106,0.168 0.105,0.176 0.102,0.188 0.097,0.195 0.098,0.199 0.094,0.211 0.09,0.219 0.09,0.223 0.085,0.23 0.082,0.238 0.079,0.246 0.074,0.25 0.074,0.258 0.07,0.262 0.063,0.266 0.062,0.273 0.059,0.277 0.055,0.286 0.05,0.285 0.047,0.293 0.043,0.293 0.039,0.296 h -1.277 l -0.039,-0.359 -0.043,-0.191 -0.047,-0.188 -0.047,-0.183 -0.051,-0.18 -0.054,-0.176 -0.055,-0.168 -0.059,-0.168 -0.058,-0.164 -0.063,-0.156 -0.062,-0.152 -0.067,-0.145 -0.066,-0.141 -0.07,-0.136 -0.074,-0.129 -0.071,-0.125 -0.074,-0.121 -0.078,-0.11 -0.078,-0.105 -0.078,-0.102 -0.079,-0.093 -0.082,-0.086 -0.082,-0.082 -0.086,-0.071 -0.082,-0.07 -0.086,-0.059 -0.085,-0.054 -0.086,-0.043 -0.09,-0.039 -0.086,-0.036 -0.086,-0.023 -0.09,-0.016 -0.09,-0.011 -0.086,-0.004 -0.109,0.004 -0.109,0.015 -0.11,0.028 -0.109,0.039 -0.11,0.05 -0.105,0.059 -0.106,0.07 -0.105,0.082 -0.102,0.09 -0.101,0.102 -0.102,0.109 -0.097,0.121 -0.094,0.133 -0.094,0.141 -0.094,0.148 -0.089,0.156 -0.086,0.168 -0.082,0.176 -0.082,0.184 -0.075,0.191 -0.074,0.199 -0.074,0.207 -0.066,0.215 -0.063,0.219 -0.063,0.227 -0.054,0.23 -0.055,0.238 -0.047,0.243 -0.047,0.246 -0.039,0.25 -0.039,0.257 -0.031,0.258 -0.027,0.262 -0.024,0.266 -0.019,0.265 -0.016,0.27 -0.012,0.269 -0.007,0.27 v 0.543 l 0.007,0.269 0.012,0.27 0.016,0.265 0.019,0.27 0.024,0.262 0.027,0.261 0.031,0.262 0.039,0.254 0.039,0.25 0.047,0.25 0.047,0.242 0.109,0.469 0.063,0.227 0.063,0.218 0.066,0.211 0.074,0.207 0.074,0.199 0.075,0.192 0.082,0.184 0.082,0.175 0.086,0.168 0.089,0.16 0.094,0.149 0.094,0.14 0.094,0.129 0.097,0.121 0.102,0.114 0.101,0.101 0.102,0.09 0.105,0.082 0.106,0.067 0.105,0.062 0.11,0.047 0.109,0.039 0.11,0.027 0.109,0.016 0.109,0.008 0.086,-0.004 0.09,-0.012 0.09,-0.019 0.086,-0.024 0.086,-0.031 0.09,-0.039 0.086,-0.047 0.085,-0.055 0.086,-0.058 0.082,-0.067 0.086,-0.074 0.082,-0.078 0.082,-0.09 0.079,-0.094 0.078,-0.097 0.078,-0.106 0.078,-0.113 0.074,-0.117 0.071,-0.125 0.074,-0.129 0.07,-0.137 0.066,-0.14 0.067,-0.149 0.062,-0.152 0.063,-0.156 0.058,-0.161 0.059,-0.168 0.055,-0.171 0.054,-0.176 0.051,-0.18 0.047,-0.184 0.047,-0.187 0.043,-0.191 0.039,-0.36 z"
         style="fill:#0000ff;fill-opacity:1;fill-rule:nonzero;stroke:none"
         transform="scale(1.3333333)" />
      <path
         id="path33"
         d="m 105.648,63.355 h 7.594 v 0.016 h -3.035 v 0.145 h -1.519 v -0.145 h -3.04 z"
         style="fill:#ff0000;fill-opacity:1;fill-rule:nonzero;stroke:none"
         transform="scale(1.3333333)" />
      <path
         id="path34"
         d="m 113.242,63.289 -0.039,0.004 -0.043,0.004 -0.047,0.004 h -0.051 l -0.054,0.004 -0.059,0.004 h -0.062 l -0.133,0.007 h -0.074 l -0.075,0.004 h -0.078 l -0.082,0.004 -0.086,0.004 h -0.089 l -0.09,0.004 h -0.094 l -0.098,0.004 h -0.203 l -0.101,0.004 h -0.11 l -0.105,0.004 h -0.227 l -0.113,0.004 h -0.234 l -0.118,0.004 h -0.613 l -0.125,0.003 h -0.973 l -0.156,-0.003 h -0.605 l -0.149,-0.004 h -0.289 l -0.14,-0.004 h -0.137 l -0.133,-0.004 h -0.129 l -0.129,-0.004 h -0.121 l -0.121,-0.004 -0.113,-0.004 h -0.114 l -0.105,-0.004 -0.102,-0.004 h -0.093 l -0.094,-0.004 -0.086,-0.004 -0.082,-0.003 -0.074,-0.004 h -0.071 l -0.062,-0.004 -0.059,-0.004 -0.054,-0.004 -0.047,-0.004 -0.039,-0.004 -0.035,-0.004 -0.028,-0.004 -0.023,-0.004 h -0.016 l -0.008,-0.003 -0.004,-0.004 0.004,-0.004 0.008,-0.004 0.016,-0.004 0.023,-0.004 0.028,-0.004 0.035,-0.004 0.039,-0.004 0.047,-0.004 0.054,-0.004 h 0.059 l 0.062,-0.003 0.071,-0.004 0.074,-0.004 0.082,-0.004 h 0.086 l 0.187,-0.008 0.102,-0.004 h 0.105 l 0.227,-0.008 h 0.121 l 0.121,-0.004 h 0.129 l 0.129,-0.003 h 0.133 l 0.137,-0.004 h 0.14 l 0.145,-0.004 h 0.293 l 0.148,-0.004 h 2.082 l 0.121,0.004 h 0.356 l 0.117,0.004 h 0.226 l 0.114,0.004 h 0.215 l 0.101,0.003 h 0.102 l 0.101,0.004 h 0.098 l 0.094,0.004 h 0.09 l 0.089,0.004 h 0.086 l 0.082,0.004 0.078,0.004 h 0.075 l 0.074,0.004 h 0.066 l 0.067,0.004 0.062,0.004 h 0.059 l 0.054,0.004 0.051,0.003 h 0.047 l 0.043,0.004 0.039,0.004 h -1.277 l -0.039,-0.004 h -0.043 l -0.047,-0.004 h -0.051 l -0.051,-0.003 h -0.05 l -0.055,-0.004 h -0.117 l -0.063,-0.004 h -0.062 l -0.067,-0.004 h -0.211 l -0.07,-0.004 h -0.152 l -0.078,-0.004 h -0.321 l -0.086,-0.004 h -1.73 l -0.102,0.004 h -0.3 l -0.098,0.004 h -0.184 l -0.09,0.004 h -0.086 l -0.082,0.004 h -0.16 l -0.074,0.004 h -0.07 l -0.067,0.004 h -0.062 l -0.063,0.003 -0.054,0.004 h -0.055 l -0.047,0.004 h -0.047 l -0.078,0.008 h -0.031 l -0.027,0.004 h -0.028 l -0.019,0.004 -0.016,0.004 h -0.008 l -0.008,0.004 -0.004,0.004 h 0.004 l 0.016,0.007 h 0.016 l 0.019,0.004 0.028,0.004 h 0.027 l 0.031,0.004 h 0.039 l 0.039,0.004 0.047,0.004 h 0.047 l 0.055,0.004 h 0.054 l 0.063,0.004 h 0.062 l 0.067,0.004 h 0.07 l 0.074,0.004 h 0.078 l 0.082,0.003 h 0.082 l 0.086,0.004 h 0.18 l 0.094,0.004 h 0.195 l 0.102,0.004 h 0.519 l 0.11,0.004 h 0.964 l 0.086,-0.004 h 0.422 l 0.078,-0.004 h 0.239 l 0.078,-0.004 h 0.219 l 0.066,-0.004 h 0.07 l 0.067,-0.003 h 0.125 l 0.058,-0.004 h 0.114 l 0.05,-0.004 h 0.051 l 0.051,-0.004 h 0.047 l 0.043,-0.004 0.039,-0.004 z"
         style="fill:#0000ff;fill-opacity:1;fill-rule:nonzero;stroke:none"
         transform="scale(1.3333333)" />
      <path
         id="path35"
         d="m 113.242,63.086 -0.039,0.004 -0.043,0.004 -0.047,0.004 -0.051,0.004 -0.054,0.003 -0.059,0.004 -0.062,0.004 -0.133,0.008 h -0.074 l -0.075,0.004 -0.078,0.004 -0.082,0.004 -0.086,0.004 h -0.089 l -0.09,0.004 -0.094,0.004 h -0.098 l -0.203,0.007 h -0.101 l -0.11,0.004 h -0.105 l -0.114,0.004 h -0.113 l -0.113,0.004 h -0.117 l -0.117,0.004 h -0.239 l -0.121,0.004 h -0.625 l -0.125,0.004 h -0.41 l -0.156,-0.004 h -0.617 l -0.149,-0.004 h -0.297 l -0.144,-0.004 h -0.145 l -0.14,-0.004 -0.137,-0.004 h -0.133 l -0.258,-0.008 -0.121,-0.003 h -0.121 l -0.227,-0.008 -0.105,-0.004 -0.102,-0.004 -0.187,-0.008 -0.086,-0.004 -0.082,-0.004 -0.074,-0.004 -0.071,-0.007 -0.062,-0.004 -0.059,-0.004 -0.054,-0.004 -0.047,-0.004 -0.039,-0.008 -0.035,-0.004 -0.028,-0.004 -0.023,-0.004 -0.024,-0.011 -0.004,-0.004 0.012,-0.012 0.016,-0.004 0.023,-0.004 0.028,-0.004 0.035,-0.007 0.039,-0.004 0.047,-0.004 0.054,-0.004 0.059,-0.004 0.062,-0.008 0.071,-0.004 0.074,-0.004 0.082,-0.004 0.086,-0.004 0.187,-0.007 0.102,-0.004 0.105,-0.004 0.227,-0.008 0.121,-0.004 h 0.121 l 0.258,-0.008 h 0.133 l 0.137,-0.004 0.14,-0.003 h 0.145 l 0.144,-0.004 h 0.297 l 0.149,-0.004 h 0.308 l 0.156,-0.004 h 0.844 l 0.129,0.004 h 0.496 l 0.121,0.004 h 0.239 l 0.117,0.004 h 0.23 l 0.113,0.003 h 0.114 l 0.105,0.004 0.11,0.004 h 0.101 l 0.102,0.004 h 0.101 l 0.098,0.004 0.094,0.004 h 0.09 l 0.089,0.004 0.086,0.004 0.082,0.004 0.078,0.004 h 0.075 l 0.074,0.003 0.133,0.008 0.062,0.004 0.059,0.004 0.054,0.004 0.051,0.004 0.047,0.004 0.043,0.004 0.039,0.004 h -1.277 l -0.039,-0.008 h -0.043 l -0.047,-0.004 h -0.051 l -0.101,-0.008 h -0.055 l -0.059,-0.004 h -0.058 l -0.063,-0.004 h -0.062 l -0.067,-0.004 h -0.07 l -0.066,-0.004 h -0.075 l -0.07,-0.003 h -0.152 l -0.078,-0.004 h -0.161 l -0.078,-0.004 h -0.336 l -0.086,-0.004 h -1.265 l -0.106,0.004 h -0.207 l -0.101,0.004 h -0.199 l -0.098,0.004 h -0.094 l -0.09,0.003 h -0.09 l -0.086,0.004 h -0.082 l -0.082,0.004 -0.078,0.004 h -0.074 l -0.07,0.004 -0.067,0.004 h -0.062 l -0.063,0.004 -0.109,0.008 h -0.047 l -0.047,0.004 -0.078,0.007 -0.031,0.004 -0.027,0.004 h -0.028 l -0.019,0.004 -0.016,0.004 -0.016,0.008 -0.004,0.004 0.004,0.004 0.016,0.007 h 0.016 l 0.019,0.004 0.055,0.008 0.031,0.004 0.078,0.008 h 0.047 l 0.047,0.004 0.109,0.008 0.063,0.004 h 0.062 l 0.067,0.003 0.07,0.004 h 0.074 l 0.078,0.004 0.082,0.004 h 0.082 l 0.086,0.004 h 0.09 l 0.09,0.004 h 0.094 l 0.098,0.004 h 0.199 l 0.101,0.004 h 0.313 l 0.105,0.004 h 1.16 l 0.086,-0.004 h 0.254 l 0.082,-0.004 h 0.16 l 0.079,-0.004 h 0.156 l 0.074,-0.004 h 0.145 l 0.066,-0.004 h 0.07 l 0.067,-0.004 h 0.062 l 0.063,-0.004 h 0.058 l 0.059,-0.004 0.055,-0.003 h 0.05 l 0.051,-0.004 h 0.051 l 0.047,-0.004 0.043,-0.004 0.039,-0.004 z"
         style="fill:#ffa500;fill-opacity:1;fill-rule:nonzero;stroke:none"
         transform="scale(1.3333333)" />
      <path
         id="path36"
         d="m 113.242,63.074 h -3.797 v 0.028 h 2.278 v 0.074 h 1.519 z"
         style="fill:#ffa500;fill-opacity:1;fill-rule:nonzero;stroke:none"
         transform="scale(1.3333333)" />
      <path
         id="path37"
         d="m 105.648,62.926 3.04,-15.977 h 1.519 l 3.035,15.977 h -1.519 l -2.278,-11.985 -2.277,11.985 z"
         style="fill:#00ff00;fill-opacity:1;fill-rule:nonzero;stroke:none"
         transform="scale(1.3333333)" />
      <path
         id="path38"
         d="m 107.32,58.133 0.305,-1.598 h 3.645 l 0.304,1.598 z"
         style="fill:#00ff00;fill-opacity:1;fill-rule:nonzero;stroke:none"
         transform="scale(1.3333333)" />
      <path
         id="path39"
         d="m 44.281,95.863 h 7.594 v 0.004 h -3.039 v 0.055 h -1.52 v -0.055 h -3.035 z"
         style="fill:#ff0000;fill-opacity:1;fill-rule:nonzero;stroke:none"
         transform="scale(1.3333333)"
         clip-path="url(#clipPath40)" />
      <path
         id="path41"
         d="m 51.875,95.273 -0.039,0.024 -0.043,0.027 -0.047,0.024 -0.051,0.027 -0.054,0.023 -0.059,0.024 -0.062,0.023 -0.067,0.024 -0.141,0.047 -0.078,0.023 -0.078,0.02 -0.082,0.019 -0.086,0.024 -0.086,0.019 -0.093,0.016 -0.094,0.019 -0.098,0.02 -0.097,0.015 -0.102,0.016 -0.211,0.031 -0.109,0.012 -0.11,0.016 -0.226,0.023 -0.117,0.012 -0.118,0.008 -0.121,0.011 -0.242,0.016 -0.121,0.004 -0.125,0.008 -0.375,0.011 h -0.125 l -0.129,0.004 H 48.008 L 47.539,95.852 47.387,95.848 47.234,95.84 47.082,95.828 46.934,95.82 46.785,95.809 46.641,95.797 46.359,95.766 46.223,95.75 46.09,95.734 45.957,95.715 45.707,95.676 45.473,95.629 45.363,95.605 45.258,95.582 45.156,95.555 45.059,95.527 44.969,95.5 44.883,95.473 44.801,95.445 44.727,95.414 44.656,95.383 44.59,95.352 44.531,95.32 44.48,95.289 44.434,95.258 44.395,95.227 44.359,95.191 44.332,95.16 44.309,95.125 44.293,95.094 44.281,95.059 v -0.067 l 0.012,-0.035 0.016,-0.035 0.023,-0.031 0.027,-0.036 0.036,-0.031 0.039,-0.031 0.046,-0.035 0.051,-0.031 0.059,-0.032 0.066,-0.031 0.071,-0.027 0.074,-0.032 0.082,-0.027 0.086,-0.031 0.09,-0.027 0.097,-0.024 0.102,-0.027 0.105,-0.024 0.11,-0.023 0.234,-0.047 0.25,-0.039 0.266,-0.039 0.136,-0.016 0.141,-0.015 0.141,-0.012 0.144,-0.012 0.297,-0.023 0.305,-0.016 0.152,-0.004 0.156,-0.008 0.157,-0.003 h 0.566 l 0.625,0.019 0.484,0.031 0.235,0.024 0.226,0.023 0.11,0.012 0.109,0.015 0.211,0.032 0.102,0.015 0.097,0.016 0.098,0.02 0.094,0.015 0.093,0.02 0.172,0.039 0.082,0.023 0.078,0.02 0.078,0.023 0.071,0.02 0.07,0.023 0.067,0.024 0.062,0.023 0.059,0.023 0.054,0.028 0.051,0.023 0.047,0.028 0.043,0.023 0.039,0.027 H 50.598 L 50.555,94.746 50.512,94.73 50.465,94.711 50.418,94.695 50.367,94.68 50.312,94.664 50.258,94.652 50.203,94.637 50.141,94.621 50.078,94.609 50.016,94.594 49.883,94.57 49.742,94.547 49.668,94.535 49.594,94.527 49.52,94.516 49.441,94.508 49.363,94.496 49.199,94.48 49.117,94.477 49.035,94.469 48.949,94.465 48.863,94.457 48.605,94.445 48.516,94.441 H 48.43 l -0.09,-0.003 h -0.285 l -0.11,0.003 h -0.109 l -0.109,0.004 -0.106,0.004 -0.109,0.004 -0.106,0.008 -0.101,0.008 -0.106,0.008 -0.101,0.007 -0.098,0.012 -0.098,0.008 -0.097,0.012 -0.094,0.011 -0.09,0.016 -0.09,0.012 -0.172,0.031 -0.156,0.031 -0.074,0.02 -0.07,0.015 -0.133,0.039 -0.117,0.039 -0.051,0.024 -0.051,0.019 -0.043,0.02 -0.043,0.023 -0.07,0.047 -0.028,0.02 -0.023,0.023 -0.02,0.024 -0.015,0.023 -0.012,0.024 -0.008,0.046 0.008,0.047 0.012,0.024 0.015,0.023 0.02,0.024 0.023,0.023 0.028,0.024 0.07,0.046 0.043,0.02 0.043,0.023 0.102,0.039 0.058,0.024 0.059,0.019 0.066,0.02 0.067,0.016 0.07,0.019 0.074,0.016 0.078,0.019 0.078,0.016 0.086,0.015 0.086,0.012 0.09,0.016 0.09,0.012 0.094,0.011 0.293,0.035 0.101,0.008 0.106,0.008 0.101,0.008 0.106,0.004 0.109,0.008 0.106,0.003 h 0.109 l 0.109,0.004 h 0.11 l 0.109,0.004 0.09,-0.004 h 0.176 l 0.086,-0.004 h 0.089 l 0.172,-0.007 0.086,-0.008 0.172,-0.008 0.328,-0.031 0.157,-0.016 0.148,-0.023 0.074,-0.008 0.141,-0.024 0.066,-0.011 0.067,-0.016 0.062,-0.012 0.063,-0.015 0.062,-0.012 0.164,-0.047 0.051,-0.015 0.094,-0.032 0.043,-0.015 0.043,-0.032 z"
         style="fill:#0000ff;fill-opacity:1;fill-rule:nonzero;stroke:none"
         transform="scale(1.3333333)"
         clip-path="url(#clipPath42)" />
      <path
         id="path43"
         d="m 44.281,94.188 3.035,-1.911 h 1.52 l 3.039,1.911 h -1.52 l -2.277,-1.434 -2.277,1.434 z"
         style="fill:#00ff00;fill-opacity:1;fill-rule:nonzero;stroke:none"
         transform="scale(1.3333333)"
         clip-path="url(#clipPath44)" />
      <path
         id="path45"
         d="m 45.949,93.613 0.305,-0.191 h 3.644 l 0.305,0.191 z"
         style="fill:#00ff00;fill-opacity:1;fill-rule:nonzero;stroke:none"
         transform="scale(1.3333333)" />
      <path
         id="path46"
         d="m 51.875,91.508 -0.039,0.035 -0.043,0.035 -0.047,0.031 -0.051,0.032 -0.054,0.035 -0.059,0.031 -0.062,0.031 -0.067,0.028 -0.141,0.062 -0.156,0.055 -0.082,0.027 -0.086,0.028 -0.086,0.023 -0.093,0.023 -0.094,0.028 -0.098,0.019 -0.097,0.024 -0.102,0.019 -0.106,0.024 -0.105,0.019 -0.109,0.016 -0.11,0.019 -0.226,0.032 -0.117,0.011 -0.118,0.016 -0.121,0.012 -0.121,0.007 -0.121,0.012 -0.121,0.008 -0.25,0.016 -0.375,0.011 h -0.41 L 47.539,92.266 47.387,92.258 47.082,92.234 46.934,92.223 46.785,92.207 46.641,92.191 46.359,92.152 46.223,92.133 45.957,92.086 45.707,92.031 45.59,92.004 45.473,91.973 45.363,91.941 45.258,91.91 45.156,91.879 45.059,91.844 44.969,91.809 44.883,91.77 44.801,91.734 44.727,91.695 44.656,91.656 44.59,91.613 44.531,91.574 44.48,91.531 44.434,91.492 44.395,91.449 44.359,91.406 44.332,91.363 44.309,91.32 44.293,91.273 44.281,91.23 v -0.085 l 0.012,-0.047 0.016,-0.043 0.023,-0.043 0.027,-0.043 0.036,-0.043 0.039,-0.043 0.046,-0.043 0.051,-0.039 0.059,-0.043 0.066,-0.039 0.071,-0.039 0.074,-0.039 0.082,-0.039 0.086,-0.036 0.09,-0.035 0.097,-0.035 0.102,-0.035 0.105,-0.031 0.11,-0.032 0.117,-0.027 0.117,-0.031 0.125,-0.028 0.125,-0.023 0.266,-0.047 0.136,-0.023 0.141,-0.02 0.141,-0.015 0.144,-0.02 0.149,-0.012 0.148,-0.015 0.152,-0.012 0.305,-0.016 0.156,-0.007 0.157,-0.004 h 0.156 l 0.156,-0.004 h 0.125 l 0.129,0.004 0.375,0.011 0.25,0.016 0.242,0.016 0.242,0.023 0.118,0.012 0.117,0.015 0.226,0.032 0.11,0.015 0.109,0.02 0.211,0.039 0.102,0.023 0.097,0.02 0.098,0.023 0.187,0.047 0.172,0.055 0.082,0.027 0.156,0.055 0.071,0.031 0.07,0.027 0.067,0.032 0.062,0.031 0.059,0.031 0.054,0.031 0.051,0.036 0.047,0.031 0.043,0.035 0.039,0.031 H 50.598 L 50.555,90.824 50.512,90.801 50.465,90.781 50.418,90.758 50.367,90.738 50.203,90.68 50.141,90.664 50.078,90.645 50.016,90.629 49.949,90.609 49.883,90.594 49.742,90.562 49.668,90.551 49.594,90.535 49.52,90.523 49.363,90.5 49.281,90.488 49.117,90.473 49.035,90.461 48.949,90.453 48.863,90.449 48.777,90.441 48.605,90.434 48.516,90.43 48.43,90.426 h -0.09 l -0.086,-0.004 h -0.199 l -0.328,0.012 -0.106,0.004 -0.109,0.007 -0.106,0.008 -0.101,0.008 -0.106,0.012 -0.101,0.011 -0.098,0.012 -0.098,0.016 -0.097,0.011 -0.094,0.016 -0.09,0.02 -0.09,0.015 -0.172,0.039 -0.078,0.024 -0.078,0.019 -0.074,0.024 -0.07,0.023 -0.067,0.024 -0.066,0.027 -0.059,0.023 -0.058,0.028 -0.102,0.054 -0.086,0.055 -0.035,0.031 -0.035,0.028 -0.028,0.031 -0.023,0.031 -0.02,0.027 -0.015,0.032 -0.012,0.031 -0.008,0.063 0.008,0.062 0.012,0.027 0.015,0.032 0.02,0.031 0.023,0.031 0.028,0.027 0.035,0.032 0.035,0.027 0.043,0.031 0.043,0.028 0.102,0.054 0.058,0.024 0.059,0.027 0.066,0.024 0.067,0.027 0.07,0.023 0.074,0.02 0.078,0.023 0.078,0.02 0.172,0.039 0.09,0.019 0.09,0.016 0.094,0.016 0.195,0.031 0.098,0.012 0.101,0.011 0.106,0.008 0.101,0.012 0.106,0.008 0.109,0.008 0.106,0.003 0.218,0.008 h 0.485 l 0.086,-0.004 0.089,-0.004 0.086,-0.003 0.086,-0.008 0.086,-0.004 0.172,-0.016 0.164,-0.015 0.164,-0.024 0.078,-0.008 0.079,-0.015 0.148,-0.024 0.074,-0.015 0.141,-0.032 0.133,-0.031 0.062,-0.016 0.125,-0.039 0.055,-0.015 0.054,-0.02 0.055,-0.023 0.051,-0.02 0.047,-0.019 0.047,-0.024 0.043,-0.019 0.043,-0.043 z"
         style="fill:#ffa500;fill-opacity:1;fill-rule:nonzero;stroke:none"
         transform="scale(1.3333333)"
         clip-path="url(#clipPath47)" />
      <path
         id="path48"
         d="m 51.875,91.406 h -3.797 v 0.219 h 2.277 v 0.652 h 1.52 z"
         style="fill:#ffa500;fill-opacity:1;fill-rule:nonzero;stroke:none"
         transform="scale(1.3333333)" />
      <path
         id="path49"
         d="m 51.949,63.516 h 7.598 v 3.238 h -3.039 v 29.168 h -1.52 V 66.754 h -3.039 z"
         style="fill:#ff0000;fill-opacity:1;fill-rule:nonzero;stroke:none"
         transform="scale(1.3333333)" />
      <path
         id="path50"
         d="m 59.621,93.473 h 7.594 v 0.246 H 64.18 v 2.203 h -1.52 v -2.203 h -3.039 z"
         style="fill:#ff0000;fill-opacity:1;fill-rule:nonzero;stroke:none"
         transform="scale(1.3333333)" />
      <path
         id="path51"
         d="m 67.215,85.566 -0.039,0.348 -0.043,0.344 -0.047,0.34 -0.051,0.332 -0.055,0.332 -0.058,0.324 -0.063,0.32 -0.062,0.313 -0.07,0.304 -0.075,0.301 -0.074,0.293 -0.078,0.285 -0.082,0.278 -0.086,0.269 -0.09,0.262 -0.09,0.254 -0.093,0.246 -0.098,0.234 -0.098,0.227 -0.101,0.219 -0.106,0.207 -0.105,0.195 -0.11,0.187 -0.113,0.176 -0.109,0.168 -0.117,0.156 -0.114,0.145 -0.121,0.133 -0.117,0.125 -0.121,0.109 -0.121,0.102 -0.125,0.086 -0.121,0.078 -0.125,0.066 -0.125,0.051 -0.125,0.043 -0.129,0.031 -0.125,0.016 -0.125,0.008 -0.156,-0.008 -0.157,-0.027 -0.156,-0.047 -0.156,-0.063 -0.153,-0.082 -0.152,-0.101 -0.152,-0.118 -0.149,-0.132 -0.148,-0.153 -0.145,-0.168 -0.144,-0.187 -0.137,-0.199 -0.141,-0.219 -0.132,-0.235 -0.129,-0.25 -0.129,-0.261 -0.121,-0.282 -0.121,-0.293 -0.114,-0.304 -0.113,-0.321 -0.105,-0.332 -0.102,-0.343 -0.094,-0.356 -0.093,-0.367 -0.086,-0.379 -0.082,-0.387 -0.075,-0.394 -0.07,-0.403 -0.062,-0.414 -0.059,-0.418 -0.055,-0.425 -0.043,-0.434 -0.043,-0.437 -0.035,-0.438 -0.027,-0.445 -0.02,-0.449 -0.015,-0.45 -0.012,-0.449 -0.004,-0.453 0.004,-0.453 0.012,-0.449 0.015,-0.45 0.02,-0.449 0.027,-0.445 0.035,-0.442 0.086,-0.867 0.055,-0.425 0.059,-0.418 0.062,-0.414 0.07,-0.403 0.075,-0.394 0.082,-0.387 0.086,-0.379 0.093,-0.367 0.094,-0.356 0.102,-0.343 0.105,-0.332 0.113,-0.321 0.114,-0.304 0.121,-0.293 0.121,-0.282 0.129,-0.261 0.129,-0.25 0.132,-0.235 0.141,-0.219 0.137,-0.203 0.144,-0.183 0.145,-0.168 0.148,-0.153 0.149,-0.132 0.152,-0.118 0.152,-0.101 0.153,-0.082 0.156,-0.063 0.156,-0.047 0.157,-0.027 0.156,-0.008 0.125,0.008 0.125,0.016 0.129,0.031 0.125,0.039 0.125,0.055 0.125,0.066 0.121,0.074 0.125,0.09 0.121,0.102 0.121,0.109 0.117,0.125 0.121,0.133 0.114,0.145 0.117,0.156 0.109,0.164 0.113,0.18 0.11,0.187 0.105,0.195 0.106,0.207 0.101,0.219 0.098,0.227 0.098,0.234 0.093,0.246 0.09,0.254 0.09,0.262 0.086,0.269 0.082,0.278 0.078,0.285 0.074,0.293 0.075,0.301 0.07,0.304 0.062,0.313 0.063,0.32 0.058,0.324 0.055,0.328 0.051,0.336 0.047,0.34 0.043,0.344 0.039,0.348 H 65.938 L 65.898,78.516 65.855,78.293 65.809,78.074 65.762,77.859 65.711,77.648 65.656,77.441 65.602,77.242 65.543,77.047 65.484,76.859 65.422,76.676 65.359,76.5 65.293,76.328 65.227,76.164 65.156,76.004 65.082,75.852 65.012,75.707 64.938,75.57 64.859,75.438 64.781,75.312 64.703,75.199 64.625,75.09 64.543,74.988 64.461,74.895 64.375,74.809 64.293,74.73 64.207,74.66 64.121,74.598 64.035,74.543 63.945,74.5 63.859,74.461 63.773,74.434 63.684,74.41 l -0.09,-0.012 -0.086,-0.003 -0.11,0.007 -0.109,0.016 -0.109,0.035 -0.11,0.043 -0.109,0.059 -0.106,0.066 -0.105,0.082 -0.105,0.094 -0.102,0.109 -0.102,0.117 -0.101,0.129 -0.098,0.141 -0.094,0.152 -0.093,0.164 -0.094,0.176 -0.09,0.184 -0.086,0.195 -0.082,0.207 -0.082,0.215 -0.074,0.223 -0.074,0.23 -0.075,0.242 -0.066,0.25 -0.062,0.258 -0.063,0.262 -0.055,0.269 -0.054,0.278 -0.047,0.285 -0.047,0.289 -0.039,0.293 -0.039,0.297 -0.031,0.3 -0.028,0.309 -0.023,0.309 -0.02,0.308 -0.015,0.317 -0.012,0.312 -0.008,0.317 v 0.632 l 0.008,0.317 0.012,0.312 0.015,0.317 0.02,0.308 0.023,0.309 0.028,0.305 0.031,0.304 0.039,0.297 0.039,0.293 0.047,0.289 0.047,0.285 0.109,0.547 0.063,0.262 0.062,0.258 0.066,0.25 0.075,0.242 0.074,0.23 0.074,0.223 0.082,0.215 0.082,0.207 0.086,0.195 0.09,0.184 0.094,0.176 0.093,0.164 0.094,0.152 0.098,0.141 0.101,0.129 0.102,0.117 0.102,0.105 0.105,0.098 0.105,0.082 0.106,0.066 0.109,0.059 0.11,0.043 0.109,0.031 0.109,0.02 0.11,0.007 0.086,-0.003 0.09,-0.012 0.089,-0.024 0.086,-0.027 0.086,-0.039 0.09,-0.043 0.086,-0.055 0.086,-0.062 0.086,-0.07 0.082,-0.079 0.086,-0.086 0.082,-0.093 0.082,-0.102 0.078,-0.109 0.078,-0.113 0.078,-0.126 0.079,-0.132 0.074,-0.137 0.07,-0.145 0.074,-0.152 0.071,-0.16 0.066,-0.164 0.066,-0.172 0.063,-0.176 0.062,-0.183 0.118,-0.383 0.109,-0.406 0.051,-0.211 0.047,-0.215 0.046,-0.219 0.043,-0.223 0.04,-0.418 z"
         style="fill:#ffa500;fill-opacity:1;fill-rule:nonzero;stroke:none"
         transform="scale(1.3333333)" />
      <path
         id="path52"
         d="m 67.215,84.496 h -3.797 v 2.242 h 2.281 v 6.735 h 1.516 z"
         style="fill:#ffa500;fill-opacity:1;fill-rule:nonzero;stroke:none"
         transform="scale(1.3333333)" />
      <path
         id="path53"
         d="m 67.293,95.922 3.039,-32.406 h 1.52 l 3.035,32.406 h -1.52 L 71.09,71.617 68.812,95.922 Z"
         style="fill:#00ff00;fill-opacity:1;fill-rule:nonzero;stroke:none"
         transform="scale(1.3333333)" />
      <path
         id="path54"
         d="m 68.965,86.199 0.305,-3.242 h 3.644 l 0.305,3.242 z"
         style="fill:#00ff00;fill-opacity:1;fill-rule:nonzero;stroke:none"
         transform="scale(1.3333333)" />
      <path
         id="path55"
         d="m 74.965,95.035 h 7.594 v 0.09 H 79.52 v 0.797 h -1.516 v -0.797 h -3.039 z"
         style="fill:#ff0000;fill-opacity:1;fill-rule:nonzero;stroke:none"
         transform="scale(1.3333333)" />
      <path
         id="path56"
         d="m 82.559,93.477 -0.039,0.07 -0.043,0.066 -0.047,0.067 -0.051,0.066 -0.055,0.066 -0.058,0.063 -0.063,0.063 -0.133,0.124 -0.074,0.059 -0.074,0.055 -0.082,0.058 -0.082,0.055 -0.086,0.055 -0.086,0.051 -0.09,0.05 -0.098,0.047 -0.093,0.047 -0.203,0.086 -0.106,0.043 -0.105,0.039 -0.219,0.07 -0.227,0.063 -0.234,0.055 -0.121,0.023 -0.117,0.023 -0.125,0.02 -0.121,0.019 -0.125,0.012 -0.125,0.016 -0.375,0.023 -0.125,0.004 H 78.691 L 78.379,95.02 78.227,95.008 78.07,94.992 77.918,94.973 77.77,94.949 77.617,94.922 77.473,94.891 77.324,94.859 77.184,94.824 77.043,94.781 76.906,94.738 76.773,94.695 76.641,94.645 76.516,94.594 76.391,94.539 76.273,94.48 76.156,94.418 76.047,94.355 75.941,94.289 75.84,94.223 75.742,94.152 75.652,94.082 75.566,94.008 75.484,93.93 75.41,93.852 75.34,93.773 75.273,93.691 75.219,93.609 75.164,93.523 75.117,93.441 75.078,93.355 75.043,93.266 75.016,93.18 l -0.024,-0.09 -0.015,-0.086 -0.008,-0.09 -0.004,-0.09 0.004,-0.09 0.008,-0.086 0.015,-0.089 0.024,-0.09 0.027,-0.086 0.035,-0.086 0.039,-0.086 0.047,-0.086 0.055,-0.086 0.054,-0.082 0.067,-0.082 0.07,-0.078 0.074,-0.078 0.082,-0.078 0.086,-0.075 0.09,-0.07 0.098,-0.07 0.101,-0.067 0.106,-0.066 0.109,-0.063 0.117,-0.062 0.118,-0.055 0.125,-0.058 0.125,-0.051 0.265,-0.094 0.137,-0.043 0.281,-0.078 0.149,-0.031 0.144,-0.031 0.153,-0.028 0.148,-0.023 0.152,-0.02 0.157,-0.015 0.152,-0.012 0.312,-0.016 h 0.286 l 0.125,0.004 0.375,0.024 0.25,0.031 0.121,0.016 0.125,0.019 0.117,0.023 0.121,0.024 0.234,0.055 0.227,0.062 0.109,0.035 0.11,0.039 0.211,0.078 0.203,0.086 0.093,0.047 0.098,0.051 0.09,0.047 0.086,0.055 0.086,0.05 0.082,0.055 0.082,0.059 0.074,0.054 0.074,0.063 0.067,0.058 0.066,0.063 0.063,0.062 0.058,0.063 0.055,0.066 0.051,0.067 0.047,0.066 0.043,0.067 0.039,0.07 H 81.281 L 81.238,92.09 81.195,92.043 81.152,92 81.102,91.961 81.051,91.918 81,91.879 80.945,91.84 l -0.058,-0.039 -0.063,-0.039 -0.058,-0.035 -0.133,-0.071 -0.067,-0.031 -0.14,-0.063 -0.223,-0.082 -0.156,-0.046 -0.246,-0.059 -0.082,-0.016 -0.086,-0.015 -0.082,-0.016 -0.086,-0.012 -0.09,-0.011 -0.172,-0.016 -0.09,-0.004 -0.086,-0.004 -0.089,-0.004 h -0.2 l -0.109,0.004 -0.109,0.008 -0.106,0.008 -0.109,0.012 -0.106,0.011 -0.105,0.016 -0.106,0.019 -0.105,0.024 -0.102,0.019 -0.195,0.055 -0.098,0.031 -0.093,0.032 -0.18,0.07 -0.086,0.039 -0.082,0.039 -0.082,0.043 -0.078,0.047 -0.075,0.043 -0.07,0.047 -0.133,0.101 -0.058,0.051 -0.059,0.055 -0.101,0.109 -0.086,0.117 -0.035,0.059 -0.063,0.117 -0.023,0.063 -0.02,0.062 -0.016,0.059 -0.011,0.062 -0.008,0.125 0.008,0.125 0.011,0.063 0.016,0.062 0.02,0.059 0.023,0.062 0.031,0.059 0.032,0.062 0.035,0.059 0.043,0.055 0.043,0.058 0.101,0.11 0.059,0.054 0.058,0.051 0.133,0.102 0.07,0.047 0.075,0.046 0.078,0.043 0.082,0.043 0.082,0.039 0.086,0.039 0.18,0.071 0.093,0.031 0.098,0.031 0.195,0.055 0.102,0.023 0.211,0.039 0.105,0.016 0.106,0.012 0.109,0.012 0.106,0.007 0.109,0.008 0.109,0.004 h 0.289 l 0.086,-0.008 0.09,-0.004 0.172,-0.015 0.09,-0.012 0.086,-0.012 0.082,-0.015 0.086,-0.016 0.082,-0.016 0.246,-0.058 0.156,-0.047 0.223,-0.082 0.14,-0.063 0.067,-0.031 0.133,-0.07 0.058,-0.035 0.063,-0.039 0.058,-0.036 0.055,-0.039 0.051,-0.043 0.051,-0.039 0.05,-0.043 0.043,-0.043 0.043,-0.046 0.043,-0.082 z"
         style="fill:#ffa500;fill-opacity:1;fill-rule:nonzero;stroke:none"
         transform="scale(1.3333333)" />
      <path
         id="path57"
         d="m 82.559,93.266 h -3.797 v 0.445 h 2.277 v 1.324 h 1.52 z"
         style="fill:#ffa500;fill-opacity:1;fill-rule:nonzero;stroke:none"
         transform="scale(1.3333333)" />
      <path
         id="path58"
         d="m 82.559,88.5 -0.039,0.094 -0.043,0.094 -0.047,0.089 -0.051,0.09 -0.055,0.086 -0.058,0.086 -0.063,0.086 -0.066,0.086 -0.067,0.082 -0.148,0.156 -0.082,0.078 -0.082,0.075 -0.172,0.14 -0.09,0.067 -0.098,0.066 -0.093,0.063 -0.102,0.062 -0.101,0.059 -0.106,0.054 -0.105,0.051 -0.11,0.051 -0.109,0.047 -0.227,0.086 -0.117,0.039 -0.117,0.035 -0.121,0.035 -0.117,0.027 -0.125,0.028 -0.121,0.023 -0.25,0.039 -0.25,0.024 -0.25,0.015 H 78.848 L 78.691,90.609 78.535,90.602 78.379,90.59 78.227,90.574 78.07,90.551 77.918,90.527 77.77,90.496 77.617,90.457 77.473,90.418 77.324,90.375 77.184,90.324 77.043,90.27 76.906,90.211 76.773,90.148 76.641,90.082 76.516,90.012 76.391,89.938 76.273,89.859 76.156,89.777 76.047,89.691 75.941,89.602 75.84,89.512 75.742,89.418 75.652,89.32 75.566,89.219 75.484,89.113 75.41,89.008 75.34,88.902 75.273,88.789 75.219,88.68 l -0.055,-0.114 -0.047,-0.117 -0.039,-0.117 -0.035,-0.117 -0.027,-0.117 -0.024,-0.121 -0.015,-0.122 -0.008,-0.121 -0.004,-0.117 0.004,-0.121 0.008,-0.121 0.015,-0.121 0.024,-0.121 0.027,-0.117 0.035,-0.118 0.039,-0.117 0.047,-0.113 0.055,-0.117 0.054,-0.11 0.067,-0.109 0.07,-0.109 0.074,-0.106 0.082,-0.105 0.086,-0.098 0.09,-0.098 0.098,-0.097 0.101,-0.09 0.106,-0.09 0.109,-0.086 0.117,-0.082 0.118,-0.078 0.125,-0.074 0.125,-0.071 0.132,-0.066 0.133,-0.062 0.137,-0.059 0.141,-0.055 0.14,-0.047 0.149,-0.047 0.144,-0.039 0.153,-0.035 0.148,-0.031 0.152,-0.027 0.157,-0.024 0.152,-0.015 0.156,-0.012 0.156,-0.008 0.157,-0.004 0.129,0.004 0.125,0.004 0.125,0.008 0.25,0.023 0.25,0.039 0.121,0.024 0.125,0.027 0.117,0.031 0.121,0.032 0.117,0.035 0.117,0.039 0.227,0.086 0.109,0.047 0.11,0.05 0.105,0.051 0.106,0.059 0.101,0.054 0.102,0.063 0.093,0.062 0.098,0.067 0.09,0.066 0.086,0.071 0.086,0.074 0.164,0.148 0.074,0.078 0.074,0.082 0.133,0.164 0.063,0.086 0.058,0.086 0.055,0.086 0.051,0.09 0.047,0.094 0.043,0.09 0.039,0.093 H 81.281 L 81.238,86.617 81.152,86.5 81.102,86.441 81,86.332 l -0.055,-0.055 -0.058,-0.05 -0.063,-0.051 -0.058,-0.051 -0.067,-0.047 -0.066,-0.043 -0.067,-0.047 -0.07,-0.039 -0.07,-0.043 -0.074,-0.039 -0.149,-0.07 -0.078,-0.035 -0.078,-0.032 -0.164,-0.054 -0.164,-0.047 -0.086,-0.024 -0.082,-0.015 -0.086,-0.02 -0.09,-0.011 -0.172,-0.024 -0.09,-0.008 -0.086,-0.004 -0.179,-0.007 -0.219,0.007 -0.109,0.008 -0.106,0.012 -0.109,0.016 -0.106,0.019 -0.211,0.047 -0.105,0.027 -0.102,0.032 -0.097,0.035 -0.196,0.078 -0.093,0.047 -0.18,0.094 -0.086,0.054 -0.164,0.11 -0.078,0.058 -0.075,0.063 -0.07,0.066 -0.133,0.133 -0.058,0.074 -0.059,0.07 -0.101,0.149 -0.086,0.156 -0.035,0.078 -0.063,0.164 -0.023,0.082 -0.02,0.082 -0.016,0.086 -0.011,0.082 -0.008,0.172 0.004,0.082 0.004,0.086 0.011,0.082 0.016,0.086 0.02,0.082 0.023,0.082 0.063,0.164 0.035,0.078 0.086,0.157 0.101,0.148 0.059,0.074 0.058,0.071 0.133,0.132 0.07,0.067 0.075,0.062 0.078,0.059 0.082,0.059 0.082,0.054 0.086,0.051 0.09,0.051 0.09,0.047 0.093,0.043 0.196,0.078 0.097,0.035 0.102,0.031 0.211,0.055 0.211,0.039 0.109,0.016 0.106,0.011 0.109,0.008 0.219,0.008 0.09,-0.004 h 0.089 l 0.086,-0.008 0.09,-0.008 0.086,-0.007 0.086,-0.012 0.09,-0.016 0.086,-0.015 0.082,-0.02 0.086,-0.023 0.082,-0.02 0.246,-0.082 0.078,-0.031 0.078,-0.035 0.149,-0.071 0.074,-0.039 0.07,-0.039 0.07,-0.043 0.067,-0.043 0.133,-0.094 0.058,-0.05 0.063,-0.051 0.058,-0.051 0.055,-0.055 0.102,-0.109 0.05,-0.059 0.086,-0.117 0.043,-0.113 z"
         style="fill:#0000ff;fill-opacity:1;fill-rule:nonzero;stroke:none"
         transform="scale(1.3333333)" />
      <path
         id="path59"
         d="m 90.23,95.629 -0.039,0.012 -0.043,0.015 -0.046,0.012 -0.051,0.012 -0.055,0.011 -0.058,0.012 -0.063,0.012 -0.066,0.012 -0.141,0.023 -0.078,0.012 -0.078,0.008 -0.082,0.011 -0.086,0.008 -0.086,0.012 -0.094,0.008 -0.094,0.011 -0.195,0.016 -0.102,0.008 -0.211,0.015 -0.109,0.004 -0.109,0.008 -0.114,0.008 -0.113,0.004 -0.117,0.008 -0.117,0.004 -0.485,0.015 -0.125,0.004 h -0.125 l -0.125,0.004 h -0.378 l -0.125,0.004 -0.157,-0.004 h -0.312 l -0.156,-0.004 -0.457,-0.012 -0.297,-0.007 -0.145,-0.008 -0.281,-0.016 -0.137,-0.008 -0.266,-0.015 -0.124,-0.012 -0.126,-0.008 -0.234,-0.023 -0.109,-0.012 -0.106,-0.012 -0.101,-0.011 -0.098,-0.016 -0.09,-0.012 -0.086,-0.015 -0.082,-0.012 -0.074,-0.016 -0.07,-0.015 -0.067,-0.016 -0.058,-0.016 -0.051,-0.015 -0.047,-0.016 -0.039,-0.016 -0.035,-0.015 -0.027,-0.016 -0.024,-0.015 -0.016,-0.02 -0.007,-0.016 -0.004,-0.015 0.004,-0.016 0.007,-0.019 0.016,-0.016 0.024,-0.016 0.027,-0.015 0.035,-0.016 0.039,-0.015 0.047,-0.02 0.051,-0.016 0.058,-0.011 0.067,-0.016 0.07,-0.016 0.074,-0.015 0.082,-0.016 0.086,-0.012 0.09,-0.015 0.098,-0.012 0.101,-0.012 0.106,-0.011 0.109,-0.012 0.234,-0.023 0.126,-0.012 0.124,-0.008 0.133,-0.008 0.133,-0.012 0.137,-0.007 0.14,-0.008 0.141,-0.004 0.145,-0.008 0.148,-0.004 0.149,-0.008 0.304,-0.007 h 0.153 l 0.156,-0.004 h 0.156 l 0.156,-0.004 h 0.282 l 0.128,0.004 h 0.25 l 0.125,0.004 h 0.125 l 0.125,0.003 0.485,0.016 0.117,0.004 0.117,0.008 0.113,0.004 0.114,0.008 0.109,0.003 0.109,0.008 0.211,0.016 0.102,0.008 0.195,0.015 0.094,0.012 0.094,0.008 0.086,0.008 0.086,0.011 0.082,0.012 0.078,0.008 0.078,0.012 0.141,0.023 0.066,0.012 0.063,0.011 0.058,0.012 0.055,0.012 0.051,0.012 0.046,0.011 0.043,0.012 0.039,0.016 h -1.277 l -0.043,-0.016 -0.043,-0.008 -0.094,-0.015 -0.05,-0.008 -0.164,-0.024 -0.125,-0.015 -0.063,-0.004 -0.066,-0.008 -0.067,-0.004 -0.07,-0.008 -0.07,-0.004 -0.075,-0.007 -0.148,-0.008 -0.156,-0.008 -0.328,-0.016 -0.172,-0.007 h -0.086 l -0.086,-0.004 h -0.176 l -0.086,-0.004 h -0.484 l -0.11,0.004 h -0.214 l -0.11,0.004 -0.105,0.003 -0.102,0.004 -0.105,0.004 -0.102,0.004 -0.195,0.008 -0.098,0.008 -0.094,0.004 -0.179,0.015 -0.172,0.016 -0.156,0.016 -0.075,0.007 -0.07,0.008 -0.066,0.008 -0.067,0.012 -0.058,0.008 -0.059,0.011 -0.051,0.012 -0.051,0.008 -0.085,0.023 -0.036,0.008 -0.035,0.012 -0.027,0.012 -0.024,0.011 -0.019,0.012 -0.016,0.012 -0.011,0.011 -0.008,0.024 0.008,0.023 0.011,0.012 0.016,0.012 0.019,0.011 0.024,0.012 0.027,0.008 0.071,0.023 0.085,0.024 0.051,0.008 0.051,0.011 0.059,0.008 0.058,0.012 0.067,0.008 0.066,0.011 0.07,0.008 0.075,0.008 0.156,0.016 0.172,0.015 0.09,0.008 0.089,0.004 0.094,0.008 0.098,0.004 0.097,0.008 0.098,0.003 0.102,0.004 0.105,0.004 0.102,0.004 0.105,0.004 h 0.11 l 0.105,0.004 h 0.109 l 0.11,0.004 h 0.394 l 0.09,-0.004 h 0.176 l 0.086,-0.004 h 0.086 l 0.086,-0.004 h 0.086 l 0.086,-0.004 0.328,-0.015 0.156,-0.008 0.074,-0.004 0.074,-0.008 0.075,-0.004 0.07,-0.004 0.07,-0.008 0.067,-0.003 0.066,-0.008 0.063,-0.008 0.062,-0.004 0.063,-0.008 0.164,-0.023 0.05,-0.008 0.094,-0.016 0.043,-0.007 0.043,-0.016 z"
         style="fill:#0000ff;fill-opacity:1;fill-rule:nonzero;stroke:none"
         transform="scale(1.3333333)" />
      <path
         id="path60"
         d="m 82.637,95.094 3.035,-1.028 h 1.519 l 3.039,1.028 h -1.519 l -2.277,-0.77 -2.278,0.77 z"
         style="fill:#00ff00;fill-opacity:1;fill-rule:nonzero;stroke:none"
         transform="scale(1.3333333)" />
      <path
         id="path61"
         d="m 84.305,94.785 0.304,-0.101 h 3.645 l 0.305,0.101 z"
         style="fill:#00ff00;fill-opacity:1;fill-rule:nonzero;stroke:none"
         transform="scale(1.3333333)" />
      <path
         id="path62"
         d="m 90.23,93.629 -0.039,0.019 -0.043,0.02 -0.046,0.02 -0.051,0.015 -0.055,0.02 -0.058,0.019 -0.063,0.016 -0.066,0.015 -0.071,0.02 -0.07,0.016 -0.156,0.031 -0.082,0.015 -0.172,0.032 -0.094,0.011 -0.094,0.016 -0.195,0.024 -0.102,0.011 -0.211,0.024 -0.109,0.011 -0.109,0.008 -0.114,0.008 -0.113,0.012 -0.234,0.015 -0.121,0.004 -0.121,0.008 -0.121,0.004 -0.122,0.008 -0.25,0.008 h -0.125 l -0.125,0.003 h -0.125 l -0.128,0.004 H 86.52 l -0.157,-0.004 h -0.156 l -0.156,-0.003 h -0.156 l -0.153,-0.008 -0.152,-0.004 -0.152,-0.008 -0.297,-0.016 -0.145,-0.007 -0.281,-0.024 -0.137,-0.012 -0.266,-0.023 -0.25,-0.031 -0.117,-0.016 -0.117,-0.019 -0.109,-0.016 -0.106,-0.02 -0.101,-0.019 -0.098,-0.02 -0.09,-0.019 -0.086,-0.02 -0.082,-0.023 -0.074,-0.02 -0.07,-0.023 -0.067,-0.023 -0.058,-0.024 -0.051,-0.023 -0.047,-0.024 -0.039,-0.023 -0.035,-0.024 -0.027,-0.023 -0.024,-0.027 -0.016,-0.024 -0.007,-0.023 -0.004,-0.028 0.004,-0.023 0.007,-0.027 0.016,-0.024 0.024,-0.023 0.027,-0.024 0.035,-0.027 0.039,-0.024 0.047,-0.023 0.051,-0.023 0.058,-0.024 0.067,-0.023 0.07,-0.02 0.074,-0.023 0.082,-0.02 0.086,-0.023 0.09,-0.02 0.098,-0.019 0.101,-0.02 0.106,-0.019 0.109,-0.016 0.117,-0.016 0.117,-0.019 0.126,-0.012 0.124,-0.015 0.133,-0.016 0.133,-0.012 0.137,-0.012 0.281,-0.023 0.145,-0.008 0.297,-0.015 0.152,-0.008 0.305,-0.008 0.312,-0.008 h 0.566 l 0.125,0.004 h 0.125 l 0.375,0.012 0.122,0.004 0.121,0.007 0.121,0.004 0.121,0.008 0.234,0.016 0.227,0.015 0.109,0.012 0.109,0.008 0.211,0.023 0.102,0.012 0.098,0.012 0.097,0.015 0.094,0.012 0.094,0.016 0.086,0.012 0.086,0.015 0.082,0.016 0.156,0.031 0.07,0.02 0.071,0.015 0.066,0.016 0.063,0.019 0.058,0.016 0.055,0.02 0.051,0.019 0.046,0.02 0.043,0.015 0.039,0.02 H 88.953 L 88.91,93.238 88.867,93.227 88.773,93.203 88.723,93.191 88.668,93.18 88.613,93.172 88.559,93.16 88.496,93.148 88.434,93.141 88.371,93.129 88.305,93.121 88.238,93.109 88.098,93.094 87.875,93.07 87.797,93.062 87.719,93.059 87.637,93.051 87.555,93.047 87.473,93.039 87.391,93.035 87.047,93.02 h -0.086 l -0.09,-0.004 H 86.695 L 86.609,93.012 H 86.41 l -0.109,0.004 h -0.11 l -0.109,0.004 -0.105,0.003 -0.11,0.004 -0.105,0.004 -0.102,0.004 -0.105,0.008 -0.102,0.004 -0.293,0.023 -0.094,0.008 -0.179,0.024 -0.086,0.007 -0.086,0.012 -0.156,0.024 -0.075,0.015 -0.07,0.012 -0.066,0.016 -0.067,0.011 -0.117,0.031 -0.102,0.032 -0.085,0.031 -0.071,0.031 -0.027,0.02 -0.024,0.015 -0.019,0.016 -0.016,0.02 -0.011,0.015 -0.004,0.02 -0.004,0.015 0.004,0.02 0.004,0.015 0.011,0.02 0.016,0.016 0.019,0.015 0.024,0.02 0.027,0.015 0.035,0.016 0.036,0.02 0.085,0.031 0.102,0.031 0.059,0.012 0.058,0.015 0.067,0.016 0.066,0.012 0.07,0.015 0.075,0.012 0.156,0.024 0.172,0.023 0.09,0.008 0.089,0.011 0.094,0.008 0.293,0.024 0.102,0.008 0.105,0.003 0.102,0.008 0.105,0.004 0.11,0.004 0.105,0.004 h 0.109 l 0.11,0.004 h 0.484 l 0.086,-0.004 h 0.09 l 0.43,-0.02 0.164,-0.007 0.082,-0.008 0.082,-0.004 0.156,-0.016 0.074,-0.004 0.149,-0.015 0.07,-0.012 0.07,-0.008 0.067,-0.008 0.066,-0.011 0.063,-0.008 0.062,-0.012 0.063,-0.008 0.164,-0.035 0.05,-0.011 0.094,-0.024 0.043,-0.012 0.043,-0.023 z"
         style="fill:#ffa500;fill-opacity:1;fill-rule:nonzero;stroke:none"
         transform="scale(1.3333333)" />
      <path
         id="path63"
         d="m 90.23,93.57 h -3.796 v 0.125 h 2.277 v 0.371 h 1.519 z"
         style="fill:#ffa500;fill-opacity:1;fill-rule:nonzero;stroke:none"
         transform="scale(1.3333333)" />
      <path
         id="path64"
         d="m 82.637,79.832 h 7.593 v 1.301 H 87.191 V 92.828 H 85.672 V 81.133 h -3.035 z"
         style="fill:#ff0000;fill-opacity:1;fill-rule:nonzero;stroke:none"
         transform="scale(1.3333333)" />
      <path
         id="path65"
         d="m 90.309,95.355 h 7.593 v 0.055 h -3.039 v 0.512 H 93.344 V 95.41 h -3.035 z"
         style="fill:#ff0000;fill-opacity:1;fill-rule:nonzero;stroke:none"
         transform="scale(1.3333333)" />
      <path
         id="path66"
         d="m 90.309,95.355 3.035,-2.664 h 1.519 l 3.039,2.664 h -1.519 l -2.278,-1.996 -2.281,1.996 z"
         style="fill:#00ff00;fill-opacity:1;fill-rule:nonzero;stroke:none"
         transform="scale(1.3333333)" />
      <path
         id="path67"
         d="m 91.977,94.555 0.304,-0.266 h 3.645 l 0.304,0.266 z"
         style="fill:#00ff00;fill-opacity:1;fill-rule:nonzero;stroke:none"
         transform="scale(1.3333333)" />
      <path
         id="path68"
         d="m 97.902,86.598 -0.039,0.265 -0.043,0.266 -0.05,0.262 -0.051,0.257 -0.055,0.254 -0.059,0.25 -0.058,0.246 -0.067,0.243 -0.14,0.468 -0.156,0.446 -0.082,0.215 -0.086,0.207 -0.09,0.203 -0.09,0.195 -0.094,0.187 -0.097,0.18 -0.098,0.176 -0.102,0.168 -0.105,0.16 -0.106,0.152 -0.109,0.145 -0.109,0.137 -0.114,0.129 -0.23,0.23 -0.117,0.102 -0.121,0.097 -0.122,0.086 -0.121,0.074 -0.121,0.071 -0.125,0.058 -0.125,0.051 -0.125,0.039 -0.125,0.035 -0.125,0.02 -0.129,0.016 -0.125,0.003 -0.156,-0.007 -0.156,-0.02 L 93.723,92.629 93.566,92.578 93.414,92.516 93.262,92.441 93.109,92.352 92.961,92.246 92.812,92.129 92.668,92 92.527,91.855 92.387,91.699 92.25,91.531 92.113,91.352 91.984,91.16 91.855,90.957 91.734,90.742 91.613,90.516 91.5,90.281 91.391,90.035 91.285,89.777 91.184,89.512 91.086,89.238 90.996,88.953 90.906,88.664 90.828,88.367 90.75,88.059 90.684,87.75 90.617,87.43 90.559,87.105 90.508,86.777 90.461,86.445 90.418,86.109 90.387,85.77 90.355,85.426 90.336,85.082 90.32,84.734 90.309,84.387 v -0.696 l 0.011,-0.347 0.016,-0.348 0.019,-0.344 0.032,-0.343 0.031,-0.34 0.043,-0.336 0.047,-0.336 0.051,-0.328 0.058,-0.321 0.067,-0.32 0.066,-0.308 0.078,-0.309 0.078,-0.297 0.09,-0.289 0.09,-0.285 0.098,-0.274 0.101,-0.265 0.106,-0.258 0.109,-0.246 0.113,-0.235 0.121,-0.226 0.121,-0.215 0.129,-0.203 0.129,-0.191 0.137,-0.18 0.137,-0.168 0.14,-0.156 0.141,-0.145 0.144,-0.129 0.149,-0.117 0.148,-0.105 0.153,-0.09 0.152,-0.075 0.152,-0.066 0.157,-0.047 0.156,-0.035 0.156,-0.019 0.156,-0.008 0.125,0.004 0.129,0.011 0.125,0.024 0.125,0.035 0.125,0.039 0.125,0.051 0.125,0.058 0.121,0.071 0.121,0.074 0.122,0.086 0.121,0.098 0.117,0.101 0.23,0.231 0.114,0.128 0.109,0.137 0.109,0.145 0.106,0.152 0.105,0.16 0.102,0.168 0.098,0.172 0.097,0.184 0.094,0.187 0.09,0.195 0.09,0.204 0.086,0.207 0.082,0.214 0.156,0.446 0.14,0.469 0.067,0.242 0.058,0.246 0.059,0.25 0.055,0.254 0.051,0.258 0.05,0.261 0.043,0.266 0.039,0.265 h -1.277 l -0.043,-0.32 -0.043,-0.172 -0.047,-0.172 -0.047,-0.164 -0.05,-0.16 -0.055,-0.16 -0.055,-0.152 -0.058,-0.153 -0.059,-0.144 -0.063,-0.141 -0.062,-0.137 -0.066,-0.132 -0.067,-0.129 -0.07,-0.121 -0.07,-0.118 -0.075,-0.113 -0.074,-0.105 -0.078,-0.102 -0.074,-0.094 -0.082,-0.089 -0.078,-0.086 -0.082,-0.078 -0.082,-0.071 -0.083,-0.066 -0.085,-0.059 -0.086,-0.054 -0.086,-0.051 -0.086,-0.039 -0.086,-0.036 -0.09,-0.031 -0.086,-0.019 -0.09,-0.016 -0.09,-0.012 -0.086,-0.004 -0.109,0.008 -0.109,0.012 -0.11,0.027 -0.109,0.032 -0.106,0.046 -0.109,0.051 -0.105,0.067 -0.106,0.07 -0.101,0.082 -0.102,0.09 -0.102,0.101 -0.097,0.11 -0.094,0.117 -0.094,0.125 -0.093,0.137 -0.086,0.14 -0.086,0.153 -0.086,0.156 -0.078,0.168 -0.079,0.172 -0.074,0.179 -0.07,0.184 -0.07,0.191 -0.063,0.2 -0.058,0.203 -0.059,0.211 -0.051,0.211 -0.051,0.218 -0.046,0.223 -0.04,0.227 -0.035,0.23 -0.035,0.234 -0.027,0.235 -0.024,0.238 -0.019,0.238 -0.016,0.243 -0.012,0.242 -0.007,0.246 v 0.484 l 0.007,0.246 0.012,0.243 0.016,0.242 0.019,0.238 0.024,0.238 0.027,0.235 0.035,0.234 0.035,0.231 0.04,0.226 0.046,0.223 0.051,0.218 0.051,0.211 0.059,0.211 0.058,0.203 0.063,0.2 0.07,0.191 0.07,0.184 0.074,0.179 0.079,0.172 0.078,0.168 0.086,0.156 0.086,0.153 0.086,0.14 0.093,0.137 0.094,0.125 0.094,0.117 0.097,0.11 0.102,0.101 0.102,0.09 0.101,0.082 0.106,0.07 0.105,0.067 0.109,0.051 0.106,0.047 0.109,0.031 0.11,0.027 0.109,0.012 0.109,0.008 0.086,-0.004 0.09,-0.012 0.09,-0.016 0.086,-0.023 0.09,-0.027 0.086,-0.036 0.086,-0.042 0.086,-0.047 0.086,-0.055 0.085,-0.059 0.083,-0.066 0.082,-0.07 0.082,-0.079 0.078,-0.085 0.082,-0.09 0.074,-0.094 0.078,-0.102 0.149,-0.218 0.07,-0.118 0.07,-0.121 0.067,-0.129 0.066,-0.132 0.062,-0.137 0.063,-0.141 0.059,-0.144 0.058,-0.153 0.055,-0.152 0.055,-0.16 0.05,-0.16 0.047,-0.164 0.047,-0.172 0.043,-0.172 0.043,-0.32 z"
         style="fill:#0000ff;fill-opacity:1;fill-rule:nonzero;stroke:none"
         transform="scale(1.3333333)" />
      <path
         id="path69"
         d="m 97.977,95.922 3.039,-32.406 h 1.519 l 3.035,32.406 h -1.515 l -2.282,-24.305 -2.277,24.305 z"
         style="fill:#00ff00;fill-opacity:1;fill-rule:nonzero;stroke:none"
         transform="scale(1.3333333)" />
      <path
         id="path70"
         d="m 99.648,86.199 0.305,-3.242 h 3.645 l 0.304,3.242 z"
         style="fill:#00ff00;fill-opacity:1;fill-rule:nonzero;stroke:none"
         transform="scale(1.3333333)" />
      <path
         id="path71"
         d="m 105.648,95.922 3.04,-0.195 h 1.519 l 3.035,0.195 h -1.519 l -2.278,-0.145 -2.277,0.145 z"
         style="fill:#00ff00;fill-opacity:1;fill-rule:nonzero;stroke:none"
         transform="scale(1.3333333)" />
      <path
         id="path72"
         d="m 107.32,95.863 0.305,-0.019 h 3.645 l 0.304,0.019 z"
         style="fill:#00ff00;fill-opacity:1;fill-rule:nonzero;stroke:none"
         transform="scale(1.3333333)" />
      <path
         id="path73"
         d="m 105.648,95.059 h 7.594 v 0.066 h -3.035 v 0.602 h -1.519 v -0.602 h -3.04 z"
         style="fill:#ff0000;fill-opacity:1;fill-rule:nonzero;stroke:none"
         transform="scale(1.3333333)" />
      <path
         id="path74"
         d="m 113.242,94.762 -0.039,0.011 -0.043,0.016 -0.047,0.012 -0.051,0.011 -0.054,0.012 -0.059,0.012 -0.062,0.016 -0.133,0.023 -0.074,0.008 -0.075,0.012 -0.078,0.011 -0.082,0.012 -0.086,0.008 -0.089,0.012 -0.09,0.007 -0.094,0.012 -0.098,0.008 -0.304,0.023 -0.11,0.008 -0.105,0.008 -0.114,0.008 -0.113,0.004 -0.113,0.007 -0.352,0.012 -0.121,0.008 -0.121,0.004 h -0.125 l -0.121,0.004 -0.125,0.004 h -0.125 l -0.129,0.004 h -0.691 l -0.153,-0.004 h -0.156 l -0.152,-0.004 -0.156,-0.004 -0.297,-0.008 -0.149,-0.008 -0.144,-0.004 -0.145,-0.007 -0.14,-0.008 -0.137,-0.008 -0.133,-0.012 -0.129,-0.008 -0.129,-0.011 -0.121,-0.008 -0.121,-0.012 -0.227,-0.023 -0.105,-0.012 -0.102,-0.016 -0.093,-0.011 -0.094,-0.016 -0.086,-0.012 -0.082,-0.015 -0.074,-0.016 -0.071,-0.016 -0.062,-0.015 -0.059,-0.016 -0.054,-0.015 -0.047,-0.016 -0.039,-0.016 -0.035,-0.015 -0.028,-0.02 -0.023,-0.015 -0.016,-0.016 -0.008,-0.02 -0.004,-0.015 0.004,-0.016 0.008,-0.019 0.016,-0.016 0.023,-0.016 0.028,-0.019 0.035,-0.016 0.039,-0.015 0.047,-0.016 0.054,-0.016 0.059,-0.015 0.062,-0.016 0.071,-0.016 0.074,-0.015 0.082,-0.016 0.086,-0.012 0.094,-0.015 0.093,-0.012 0.102,-0.016 0.105,-0.011 0.227,-0.024 0.121,-0.011 0.121,-0.008 0.129,-0.012 0.129,-0.008 0.133,-0.008 0.137,-0.011 0.14,-0.008 0.145,-0.004 0.144,-0.008 0.149,-0.004 0.148,-0.008 0.149,-0.003 0.156,-0.004 0.152,-0.004 h 0.156 l 0.153,-0.004 h 0.566 l 0.125,0.004 h 0.254 l 0.125,0.004 0.121,0.004 0.125,0.003 0.242,0.008 0.235,0.008 0.117,0.008 0.113,0.004 0.113,0.008 0.114,0.004 0.105,0.007 0.11,0.008 0.304,0.024 0.098,0.011 0.094,0.008 0.09,0.008 0.089,0.012 0.086,0.011 0.082,0.008 0.078,0.012 0.149,0.023 0.133,0.024 0.062,0.012 0.059,0.011 0.054,0.012 0.051,0.012 0.047,0.015 0.043,0.012 0.039,0.012 h -1.277 l -0.039,-0.016 -0.043,-0.008 -0.047,-0.008 -0.152,-0.023 -0.055,-0.008 -0.117,-0.015 -0.063,-0.008 -0.062,-0.004 -0.067,-0.008 -0.07,-0.008 -0.066,-0.004 -0.075,-0.004 -0.07,-0.007 -0.074,-0.004 -0.078,-0.004 -0.078,-0.008 -0.079,-0.004 -0.082,-0.004 -0.078,-0.004 -0.082,-0.004 -0.086,-0.004 h -0.082 l -0.172,-0.007 h -0.086 l -0.089,-0.004 h -0.352 l -0.09,-0.004 -0.109,0.004 h -0.324 l -0.11,0.004 -0.105,0.004 h -0.106 l -0.105,0.003 -0.102,0.004 -0.101,0.008 -0.102,0.004 -0.097,0.004 -0.098,0.008 -0.094,0.004 -0.18,0.015 -0.086,0.008 -0.082,0.004 -0.082,0.012 -0.078,0.008 -0.074,0.007 -0.07,0.008 -0.067,0.012 -0.062,0.008 -0.063,0.011 -0.054,0.008 -0.055,0.012 -0.047,0.012 -0.047,0.008 -0.078,0.023 -0.031,0.012 -0.055,0.023 -0.019,0.012 -0.016,0.012 -0.016,0.023 -0.004,0.012 0.004,0.011 0.016,0.024 0.016,0.012 0.019,0.011 0.055,0.024 0.031,0.011 0.078,0.024 0.047,0.012 0.047,0.007 0.109,0.024 0.063,0.008 0.062,0.011 0.067,0.008 0.07,0.008 0.074,0.012 0.078,0.008 0.164,0.015 0.086,0.008 0.09,0.004 0.09,0.008 0.094,0.008 0.195,0.007 0.102,0.008 0.203,0.008 0.211,0.008 h 0.105 l 0.11,0.004 h 0.214 l 0.11,0.004 h 0.289 l 0.086,-0.004 h 0.176 l 0.089,-0.004 h 0.086 l 0.086,-0.004 h 0.086 l 0.082,-0.004 0.086,-0.004 0.082,-0.004 0.078,-0.004 0.082,-0.004 0.157,-0.007 0.078,-0.008 0.074,-0.004 0.07,-0.004 0.075,-0.008 0.066,-0.004 0.07,-0.008 0.067,-0.007 0.062,-0.004 0.063,-0.008 0.117,-0.016 0.055,-0.008 0.152,-0.023 0.047,-0.008 0.043,-0.008 0.039,-0.015 z"
         style="fill:#0000ff;fill-opacity:1;fill-rule:nonzero;stroke:none"
         transform="scale(1.3333333)" />
      <path
         id="path75"
         d="m 113.242,93.91 -0.039,0.012 -0.043,0.016 -0.047,0.011 -0.051,0.012 -0.054,0.016 -0.059,0.011 -0.062,0.012 -0.133,0.023 -0.149,0.024 -0.078,0.012 -0.082,0.011 -0.086,0.008 -0.089,0.012 -0.09,0.008 -0.094,0.011 -0.098,0.008 -0.203,0.016 -0.101,0.012 -0.11,0.003 -0.105,0.008 -0.227,0.016 -0.113,0.004 -0.117,0.008 -0.235,0.007 -0.242,0.008 -0.125,0.004 -0.121,0.004 -0.125,0.004 h -0.125 l -0.129,0.004 h -0.691 l -0.153,-0.004 h -0.156 l -0.152,-0.004 -0.156,-0.004 -0.149,-0.004 -0.148,-0.008 -0.149,-0.003 -0.289,-0.016 -0.14,-0.008 -0.137,-0.008 -0.133,-0.008 -0.129,-0.011 -0.129,-0.008 -0.242,-0.024 -0.227,-0.023 -0.105,-0.012 -0.102,-0.015 -0.093,-0.012 -0.094,-0.016 -0.086,-0.015 -0.082,-0.012 -0.074,-0.016 -0.071,-0.015 -0.062,-0.016 -0.059,-0.019 -0.054,-0.016 -0.047,-0.016 -0.039,-0.015 -0.035,-0.02 -0.028,-0.015 -0.023,-0.02 -0.016,-0.016 -0.008,-0.015 -0.004,-0.02 0.004,-0.015 0.008,-0.02 0.016,-0.016 0.023,-0.019 0.028,-0.016 0.035,-0.015 0.039,-0.02 0.047,-0.015 0.054,-0.016 0.059,-0.016 0.062,-0.015 0.071,-0.016 0.074,-0.016 0.082,-0.015 0.086,-0.016 0.094,-0.015 0.093,-0.012 0.102,-0.016 0.105,-0.012 0.227,-0.023 0.242,-0.023 0.129,-0.008 0.129,-0.012 0.133,-0.008 0.137,-0.008 0.14,-0.007 0.289,-0.016 0.149,-0.004 0.148,-0.008 0.149,-0.004 0.156,-0.004 h 0.152 l 0.156,-0.003 0.153,-0.004 h 0.566 l 0.125,0.004 h 0.129 l 0.125,0.003 h 0.125 l 0.121,0.004 0.125,0.004 0.242,0.008 0.235,0.008 0.117,0.008 0.113,0.004 0.227,0.015 0.105,0.008 0.11,0.008 0.304,0.023 0.098,0.008 0.094,0.012 0.09,0.008 0.089,0.011 0.086,0.012 0.082,0.008 0.078,0.012 0.149,0.023 0.133,0.023 0.062,0.012 0.059,0.016 0.054,0.012 0.051,0.011 0.047,0.012 0.043,0.016 0.039,0.011 h -1.277 l -0.039,-0.015 -0.043,-0.008 -0.047,-0.008 -0.152,-0.023 -0.055,-0.008 -0.117,-0.016 -0.125,-0.015 -0.067,-0.004 -0.07,-0.008 -0.066,-0.008 -0.075,-0.004 -0.07,-0.008 -0.074,-0.004 -0.078,-0.003 -0.078,-0.008 -0.079,-0.004 -0.082,-0.004 -0.078,-0.004 -0.082,-0.004 -0.086,-0.004 h -0.082 l -0.172,-0.008 h -0.086 l -0.089,-0.004 h -0.262 l -0.09,-0.003 h -0.199 l -0.11,0.003 h -0.214 l -0.11,0.004 -0.105,0.004 h -0.106 l -0.105,0.004 -0.102,0.004 -0.101,0.008 -0.102,0.004 -0.097,0.004 -0.098,0.008 -0.094,0.003 -0.18,0.016 -0.086,0.008 -0.164,0.015 -0.078,0.008 -0.074,0.012 -0.07,0.008 -0.067,0.008 -0.125,0.023 -0.054,0.008 -0.055,0.012 -0.094,0.023 -0.039,0.012 -0.039,0.008 -0.031,0.011 -0.027,0.012 -0.028,0.016 -0.019,0.011 -0.016,0.012 -0.016,0.024 -0.004,0.011 0.004,0.012 0.016,0.023 0.016,0.016 0.019,0.012 0.055,0.023 0.031,0.012 0.078,0.023 0.047,0.008 0.047,0.012 0.109,0.023 0.063,0.008 0.062,0.012 0.067,0.008 0.07,0.011 0.074,0.008 0.078,0.008 0.164,0.016 0.086,0.007 0.18,0.016 0.094,0.004 0.098,0.008 0.097,0.004 0.102,0.007 0.203,0.008 0.211,0.008 h 0.105 l 0.11,0.004 h 0.109 l 0.105,0.004 h 0.399 l 0.086,-0.004 h 0.176 l 0.089,-0.004 h 0.086 l 0.172,-0.008 h 0.082 l 0.086,-0.004 0.082,-0.004 0.078,-0.003 0.082,-0.004 0.079,-0.004 0.078,-0.008 0.078,-0.004 0.074,-0.004 0.07,-0.008 0.075,-0.004 0.066,-0.007 0.07,-0.004 0.067,-0.008 0.125,-0.016 0.058,-0.004 0.059,-0.007 0.055,-0.008 0.101,-0.016 0.051,-0.012 0.047,-0.007 0.043,-0.008 0.039,-0.016 z"
         style="fill:#ffa500;fill-opacity:1;fill-rule:nonzero;stroke:none"
         transform="scale(1.3333333)" />
      <path
         id="path76"
         d="m 113.242,93.867 h -3.797 v 0.086 h 2.278 v 0.262 h 1.519 z"
         style="fill:#ffa500;fill-opacity:1;fill-rule:nonzero;stroke:none"
         transform="scale(1.3333333)" />
      <path
         id="path77"
         d="M 44.281,95.922 H 113.32"
         style="fill:none;stroke:#000000;stroke-width:1.5;stroke-linecap:round;stroke-linejoin:round;stroke-miterlimit:10;stroke-dasharray:none;stroke-opacity:1"
         transform="scale(1.3333333)"
         clip-path="url(#clipPath78)" />
    </g>
  </g>
</svg>
