<?xml version="1.0" encoding="UTF-8" standalone="no"?>
<svg
   version="1.1"
   viewBox="0 0 340.1575 228.66138"
   fill="none"
   stroke="none"
   stroke-linecap="square"
   stroke-miterlimit="10"
   id="svg881"
   sodipodi:docname="контекст.svg"
   width="90mm"
   height="60.5mm"
   inkscape:version="1.4.3 (0d15f75042, 2025-12-25)"
   xmlns:inkscape="http://www.inkscape.org/namespaces/inkscape"
   xmlns:sodipodi="http://sodipodi.sourceforge.net/DTD/sodipodi-0.dtd"
   xmlns="http://www.w3.org/2000/svg"
   xmlns:svg="http://www.w3.org/2000/svg">
  <defs
     id="defs881" />
  <sodipodi:namedview
     id="namedview881"
     pagecolor="#ffffff"
     bordercolor="#000000"
     borderopacity="0.25"
     inkscape:showpageshadow="2"
     inkscape:pageopacity="0.0"
     inkscape:pagecheckerboard="0"
     inkscape:deskcolor="#d1d1d1"
     inkscape:zoom="0.971875"
     inkscape:cx="178.5209"
     inkscape:cy="179.03537"
     inkscape:window-width="1908"
     inkscape:window-height="1028"
     inkscape:window-x="0"
     inkscape:window-y="0"
     inkscape:window-maximized="1"
     inkscape:current-layer="svg881"
     inkscape:document-units="mm" />
  <path
     fill="#000000"
     fill-opacity="0"
     d="M 252.79417,77.509692 H 411.0243 V 116.28461 H 252.79417 Z"
     fill-rule="evenodd"
     id="path421" />
  <path
     fill="#000000"
     fill-opacity="0"
     d="m 259.63421,487.23703 h 158.23013 v 38.7749 H 259.63421 Z"
     fill-rule="evenodd"
     id="path431" />
  <path
     fill="#ede32f"
     d="m 277.52199,95.153495 c 0,-1.52304 -0.76685,-2.53842 -1.78931,-3.04611 3.06739,-0.50769 3.323,-2.03076 3.323,-2.7923 0,0 0,0 0,0 0,-16.75375 0,-16.75375 0,-16.75375 0,-1.26923 -1.02246,-3.04615 -4.85675,-3.04615 -3.83423,0 -4.85675,1.77692 -4.85675,3.04615 0,16.75375 0,16.75375 0,16.75375 0,0 0,0 0,0 0,0.76154 0.25562,2.28461 3.32306,2.7923 -1.27808,0.50769 -1.78931,1.52307 -1.78931,3.04611 0,1.77692 1.27808,3.299985 3.323,3.299985 1.78937,0 3.32306,-1.523065 3.32306,-3.299985 z"
     fill-rule="evenodd"
     id="path440" />
  <path
     fill="#f5f6db"
     d="m 278.65693,72.561335 c 0,16.75375 0,16.75375 0,16.75375 0,0 0,0 0,0 0,0.76154 -0.25049,2.28461 -3.25659,2.7923 1.00201,0.50769 1.75354,1.52307 1.75354,3.04611 0,1.77692 -1.2525,3.046145 -3.00604,3.299985 0,0 0,0 0.25048,0 1.75354,0 3.2566,-1.523065 3.2566,-3.299985 0,-1.52304 -0.75153,-2.53842 -1.75354,-3.04611 3.00604,-0.50769 3.25659,-2.03076 3.25659,-2.7923 0,0 0,0 0,0 0,-16.75375 0,-16.75375 0,-16.75375 0,-1.26923 -1.00208,-3.04614 -4.75965,-3.04614 -0.25048,0 -0.25048,0 -0.25048,0 3.50708,0.25384 4.50909,2.03076 4.50909,3.04614 z"
     fill-rule="evenodd"
     id="path441" />
  <path
     fill="#f0e423"
     d="m 272.40959,95.153495 c 0,-1.52304 0.76685,-2.53842 1.78931,-3.04611 -3.06739,-0.50769 -3.323,-2.03076 -3.323,-2.7923 0,0 0,0 0,0 0,-16.75375 0,-16.75375 0,-16.75375 0,-1.01538 0.51123,-2.7923 4.0899,-2.7923 -0.25567,-0.25385 -0.51129,-0.25385 -0.7669,-0.25385 -3.83423,0 -4.85675,1.77692 -4.85675,3.04615 0,16.75375 0,16.75375 0,16.75375 0,0 0,0 0,0 0,0.76154 0.25561,2.28461 3.32306,2.7923 -1.27808,0.50769 -1.78931,1.52307 -1.78931,3.04611 0,1.77692 1.27807,3.299985 3.323,3.299985 0.25561,0 0.51123,0 0.7669,0 -1.53375,-0.507685 -2.55621,-1.776915 -2.55621,-3.299985 z"
     fill-rule="evenodd"
     id="path442" />
  <path
     fill="#000000"
     fill-opacity="0"
     d="m 277.52199,95.153495 c 0,-1.52304 -0.76685,-2.53842 -1.78931,-3.04611 3.06739,-0.50769 3.323,-2.03076 3.323,-2.7923 0,0 0,0 0,0 0,-16.75375 0,-16.75375 0,-16.75375 0,-1.26923 -1.02246,-3.04615 -4.85675,-3.04615 -3.83423,0 -4.85675,1.77692 -4.85675,3.04615 0,16.75375 0,16.75375 0,16.75375 0,0 0,0 0,0 0,0.76154 0.25562,2.28461 3.32306,2.7923 -1.27808,0.50769 -1.78931,1.52307 -1.78931,3.04611 0,1.77692 1.27808,3.299985 3.323,3.299985 1.78937,0 3.32306,-1.523065 3.32306,-3.299985 z"
     fill-rule="evenodd"
     id="path443" />
  <path
     stroke="#343434"
     stroke-width="1"
     stroke-miterlimit="800"
     stroke-linecap="butt"
     d="m 277.52199,95.153495 c 0,-1.52304 -0.76685,-2.53842 -1.78931,-3.04611 3.06739,-0.50769 3.323,-2.03076 3.323,-2.7923 0,0 0,0 0,0 0,-16.75375 0,-16.75375 0,-16.75375 0,-1.26923 -1.02246,-3.04615 -4.85675,-3.04615 -3.83423,0 -4.85675,1.77692 -4.85675,3.04615 0,16.75375 0,16.75375 0,16.75375 0,0 0,0 0,0 0,0.76154 0.25562,2.28461 3.32306,2.7923 -1.27808,0.50769 -1.78931,1.52307 -1.78931,3.04611 0,1.77692 1.27808,3.299985 3.323,3.299985 1.78937,0 3.32306,-1.523065 3.32306,-3.299985 z"
     fill-rule="evenodd"
     id="path444" />
  <path
     fill="#e3231e"
     d="m 249.81379,88.335265 c -4.80615,9.32596 -4.80615,9.32596 -4.80615,9.32596 -4.80615,-9.32596 -4.80615,-9.32596 -4.80615,-9.32596 0,0.25204 0,0.25204 0,0.25204 0,24.953285 0,24.953285 0,24.953285 0,1.26026 1.01184,3.02463 4.80615,3.02463 3.79431,0 4.80615,-1.76437 4.80615,-3.02463 0,0 0,0 0,0 0,-24.953285 0,-24.953285 0,-24.953285 z"
     fill-rule="evenodd"
     id="path445" />
  <path
     fill="#ea6440"
     d="m 249.81379,113.54059 c 0,-25.205325 0,-25.205325 0,-25.205325 -0.5011,1.26025 -0.5011,1.26025 -0.5011,1.26025 0,23.945075 0,23.945075 0,23.945075 0,1.26025 -1.00213,2.77258 -4.50958,3.02463 0,0 0.25055,0 0.25055,0 3.75799,0 4.76013,-1.76438 4.76013,-3.02463 z"
     fill-rule="evenodd"
     id="path446" />
  <path
     fill="#d0111c"
     d="m 245.72346,116.56521 c -3.51398,-0.25204 -4.01599,-2.01642 -4.01599,-3.02463 0,-22.432745 0,-22.432745 0,-22.432745 -1.50598,-2.77258 -1.50598,-2.77258 -1.50598,-2.77258 0,0.25204 0,0.25204 0,0.25204 0,24.953285 0,24.953285 0,24.953285 0,1.26026 1.00396,3.02463 4.76898,3.02463 0.25098,0 0.50195,0 0.75299,0 z"
     fill-rule="evenodd"
     id="path447" />
  <path
     fill="#000000"
     fill-opacity="0"
     d="m 249.81379,88.335265 c -4.80615,9.32596 -4.80615,9.32596 -4.80615,9.32596 -4.80615,-9.32596 -4.80615,-9.32596 -4.80615,-9.32596 0,0.25204 0,0.25204 0,0.25204 0,24.953285 0,24.953285 0,24.953285 0,1.26026 1.01184,3.02463 4.80615,3.02463 3.79431,0 4.80615,-1.76437 4.80615,-3.02463 0,0 0,0 0,0 0,-24.953285 0,-24.953285 0,-24.953285 z"
     fill-rule="evenodd"
     id="path448" />
  <path
     stroke="#343434"
     stroke-width="1"
     stroke-miterlimit="800"
     stroke-linecap="butt"
     d="m 249.81379,88.335265 c -4.80615,9.32596 -4.80615,9.32596 -4.80615,9.32596 -4.80615,-9.32596 -4.80615,-9.32596 -4.80615,-9.32596 0,0.25204 0,0.25204 0,0.25204 0,24.953285 0,24.953285 0,24.953285 0,1.26026 1.01184,3.02463 4.80615,3.02463 3.79431,0 4.80615,-1.76437 4.80615,-3.02463 0,0 0,0 0,0 0,-24.953285 0,-24.953285 0,-24.953285 z"
     fill-rule="evenodd"
     id="path449" />
  <path
     fill="#ea6440"
     d="m 247.56409,93.394365 -2.49561,4.664145 -1.69702,-3.671775 1.69702,4.167965 z"
     fill-rule="evenodd"
     id="path450" />
  <path
     fill="#ede32f"
     d="m 218.63355,95.153495 c 0,-1.52304 -0.76691,-2.53842 -1.78937,-3.04611 3.06745,-0.50769 3.32306,-2.03076 3.32306,-2.7923 0,0 0,0 0,0 0,-16.75375 0,-16.75375 0,-16.75375 0,-1.26923 -1.02246,-3.04615 -4.85675,-3.04615 -3.83429,0 -4.85675,1.77692 -4.85675,3.04615 0,16.75375 0,16.75375 0,16.75375 0,0 0,0 0,0 0,0.76154 0.25562,2.28461 3.32306,2.7923 -1.27814,0.50769 -1.78937,1.52307 -1.78937,3.04611 0,1.77692 1.27808,3.299985 3.32306,3.299985 1.78931,0 3.32306,-1.523065 3.32306,-3.299985 z"
     fill-rule="evenodd"
     id="path451" />
  <path
     fill="#f5f6db"
     d="m 219.76849,72.561335 c 0,16.75375 0,16.75375 0,16.75375 0,0 0,0 0,0 0,0.76154 -0.25055,2.28461 -3.25659,2.7923 1.00201,0.50769 1.75354,1.52307 1.75354,3.04611 0,1.77692 -1.25257,3.046145 -3.00611,3.299985 0,0 0,0 0.25055,0 1.75354,0 3.25653,-1.523065 3.25653,-3.299985 0,-1.52304 -0.75152,-2.53842 -1.75354,-3.04611 3.00611,-0.50769 3.2566,-2.03076 3.2566,-2.7923 0,0 0,0 0,0 0,-16.75375 0,-16.75375 0,-16.75375 0,-1.26923 -1.00202,-3.04614 -4.75959,-3.04614 -0.25055,0 -0.25055,0 -0.25055,0 3.50708,0.25384 4.50916,2.03076 4.50916,3.04614 z"
     fill-rule="evenodd"
     id="path452" />
  <path
     fill="#f0e423"
     d="m 213.52113,95.153495 c 0,-1.52304 0.76691,-2.53842 1.78937,-3.04611 -3.06745,-0.50769 -3.32306,-2.03076 -3.32306,-2.7923 0,0 0,0 0,0 0,-16.75375 0,-16.75375 0,-16.75375 0,-1.01538 0.51123,-2.7923 4.0899,-2.7923 -0.25561,-0.25385 -0.51123,-0.25385 -0.76684,-0.25385 -3.83429,0 -4.85675,1.77692 -4.85675,3.04615 0,16.75375 0,16.75375 0,16.75375 0,0 0,0 0,0 0,0.76154 0.25561,2.28461 3.32306,2.7923 -1.27814,0.50769 -1.78937,1.52307 -1.78937,3.04611 0,1.77692 1.27808,3.299985 3.32306,3.299985 0.25561,0 0.51123,0 0.76684,0 -1.53369,-0.507685 -2.55621,-1.776915 -2.55621,-3.299985 z"
     fill-rule="evenodd"
     id="path453" />
  <path
     fill="#000000"
     fill-opacity="0"
     d="m 218.63355,95.153495 c 0,-1.52304 -0.76691,-2.53842 -1.78937,-3.04611 3.06745,-0.50769 3.32306,-2.03076 3.32306,-2.7923 0,0 0,0 0,0 0,-16.75375 0,-16.75375 0,-16.75375 0,-1.26923 -1.02246,-3.04615 -4.85675,-3.04615 -3.83429,0 -4.85675,1.77692 -4.85675,3.04615 0,16.75375 0,16.75375 0,16.75375 0,0 0,0 0,0 0,0.76154 0.25562,2.28461 3.32306,2.7923 -1.27814,0.50769 -1.78937,1.52307 -1.78937,3.04611 0,1.77692 1.27808,3.299985 3.32306,3.299985 1.78931,0 3.32306,-1.523065 3.32306,-3.299985 z"
     fill-rule="evenodd"
     id="path454" />
  <path
     stroke="#343434"
     stroke-width="1"
     stroke-miterlimit="800"
     stroke-linecap="butt"
     d="m 218.63355,95.153495 c 0,-1.52304 -0.76691,-2.53842 -1.78937,-3.04611 3.06745,-0.50769 3.32306,-2.03076 3.32306,-2.7923 0,0 0,0 0,0 0,-16.75375 0,-16.75375 0,-16.75375 0,-1.26923 -1.02246,-3.04615 -4.85675,-3.04615 -3.83429,0 -4.85675,1.77692 -4.85675,3.04615 0,16.75375 0,16.75375 0,16.75375 0,0 0,0 0,0 0,0.76154 0.25562,2.28461 3.32306,2.7923 -1.27814,0.50769 -1.78937,1.52307 -1.78937,3.04611 0,1.77692 1.27808,3.299985 3.32306,3.299985 1.78931,0 3.32306,-1.523065 3.32306,-3.299985 z"
     fill-rule="evenodd"
     id="path455" />
  <path
     fill="#f7ad36"
     d="m 190.92529,112.81604 c 0,-25.087895 0,-25.087895 0,-25.087895 -0.25293,0.76025 -0.50592,2.28073 -3.28839,2.78754 1.01178,0.50683 1.77069,1.52047 1.77069,2.78756 0,2.02729 -1.51776,3.54776 -3.28845,3.54776 -2.02362,0 -3.28839,-1.52047 -3.28839,-3.54776 0,-1.26709 0.50592,-2.28073 1.77069,-2.78756 -3.03546,-0.50681 -3.28845,-2.02729 -3.28845,-2.78754 0,25.087895 0,25.087895 0,25.087895 0,1.77386 1.01184,3.04092 4.80615,3.04092 3.79431,0 4.80615,-1.26706 4.80615,-3.04092 z"
     fill-rule="evenodd"
     id="path456" />
  <path
     fill="#facf71"
     d="m 190.92529,112.81604 c 0,-25.087895 0,-25.087895 0,-25.087895 0,0.25342 -0.25055,1.26706 -0.75159,1.52048 0,23.567415 0,23.567415 0,23.567415 0,1.52045 -0.75158,3.04092 -4.25909,3.04092 0,0 0,0 0.25055,0 3.75799,0 4.76013,-1.26706 4.76013,-3.04092 z"
     fill-rule="evenodd"
     id="path457" />
  <path
     fill="#f08b37"
     d="m 187.63689,90.515665 c 1.01178,0.50684 1.77069,1.52048 1.77069,2.78757 0,1.77386 -1.01184,3.04095 -2.52954,3.54776 0,0 0.25293,0 0.50586,0 1.77069,-0.25342 2.78253,-1.52048 2.78253,-3.54776 0,-1.26709 -0.50592,-2.28073 -1.51776,-2.78757 1.51776,-0.25339 2.27661,-1.52048 2.27661,-2.53412 0,-0.25342 0,-0.25342 0,-0.25342 -0.25293,0.76026 -0.50592,2.28073 -3.28839,2.78754 z m -0.75885,25.341285 c -3.54138,-0.25339 -4.30029,-1.52048 -4.30029,-3.04093 0,-23.060575 0,-23.060575 0,-23.060575 -1.01178,-0.50684 -1.26477,-1.52048 -1.26477,-2.02732 0,25.087895 0,25.087895 0,25.087895 0,1.77387 1.01184,3.04093 4.80615,3.04093 0.25299,0 0.50592,0 0.75891,0 z"
     fill-rule="evenodd"
     id="path458" />
  <path
     fill="#000000"
     fill-opacity="0"
     d="m 190.92529,112.81604 c 0,-25.087895 0,-25.087895 0,-25.087895 -0.25293,0.76025 -0.50592,2.28073 -3.28839,2.78754 1.01178,0.50683 1.77069,1.52047 1.77069,2.78756 0,2.02729 -1.51776,3.54776 -3.28845,3.54776 -2.02362,0 -3.28839,-1.52047 -3.28839,-3.54776 0,-1.26709 0.50592,-2.28073 1.77069,-2.78756 -3.03546,-0.50681 -3.28845,-2.02729 -3.28845,-2.78754 0,25.087895 0,25.087895 0,25.087895 0,1.77386 1.01184,3.04092 4.80615,3.04092 3.79431,0 4.80615,-1.26706 4.80615,-3.04092 z"
     fill-rule="evenodd"
     id="path459" />
  <path
     stroke="#343434"
     stroke-width="1"
     stroke-miterlimit="800"
     stroke-linecap="butt"
     d="m 190.92529,112.81604 c 0,-25.087895 0,-25.087895 0,-25.087895 -0.25293,0.76025 -0.50592,2.28073 -3.28839,2.78754 1.01178,0.50683 1.77069,1.52047 1.77069,2.78756 0,2.02729 -1.51776,3.54776 -3.28845,3.54776 -2.02362,0 -3.28839,-1.52047 -3.28839,-3.54776 0,-1.26709 0.50592,-2.28073 1.77069,-2.78756 -3.03546,-0.50681 -3.28845,-2.02729 -3.28845,-2.78754 0,25.087895 0,25.087895 0,25.087895 0,1.77386 1.01184,3.04092 4.80615,3.04092 3.79431,0 4.80615,-1.26706 4.80615,-3.04092 z"
     fill-rule="evenodd"
     id="path460" />
  <path
     fill="#ede32f"
     d="m 159.13783,95.760615 c 0,-1.52307 -0.76685,-2.53845 -1.78931,-3.04614 3.06745,-0.50769 3.32306,-2.03076 3.32306,-2.7923 0,0 0,0 0,0 0,-16.75372 0,-16.75372 0,-16.75372 0,-1.26923 -1.02252,-3.04615 -4.85675,-3.04615 -3.83429,0 -4.85681,1.77692 -4.85681,3.04615 0,16.75372 0,16.75372 0,16.75372 0,0 0,0 0,0 0,0.76154 0.25568,2.28461 3.32306,2.7923 -1.27808,0.50769 -1.78931,1.52307 -1.78931,3.04614 0,1.77692 1.27808,3.299985 3.32306,3.299985 1.78931,0 3.323,-1.523065 3.323,-3.299985 z"
     fill-rule="evenodd"
     id="path461" />
  <path
     fill="#f5f6db"
     d="m 160.27279,73.168465 c 0,16.75372 0,16.75372 0,16.75372 0,0 0,0 0,0 0,0.76154 -0.25049,2.28461 -3.25659,2.7923 1.00207,0.50769 1.75354,1.52307 1.75354,3.04614 0,1.77692 -1.2525,3.046145 -3.00604,3.299985 0,0 0,0 0.25048,0 1.75354,0 3.2566,-1.523065 3.2566,-3.299985 0,-1.52307 -0.75153,-2.53845 -1.75354,-3.04614 3.0061,-0.50769 3.25659,-2.03076 3.25659,-2.7923 0,0 0,0 0,0 0,-16.75372 0,-16.75372 0,-16.75372 0,-1.26923 -1.00202,-3.04614 -4.75965,-3.04614 -0.25048,0 -0.25048,0 -0.25048,0 3.50708,0.25384 4.50909,2.03076 4.50909,3.04614 z"
     fill-rule="evenodd"
     id="path462" />
  <path
     fill="#f0e423"
     d="m 154.02549,95.760615 c 0,-1.52307 0.76685,-2.53845 1.78937,-3.04614 -3.06745,-0.50769 -3.32306,-2.03076 -3.32306,-2.7923 0,0 0,0 0,0 0,-16.75372 0,-16.75372 0,-16.75372 0,-1.01538 0.51123,-2.7923 4.0899,-2.7923 -0.25561,-0.25385 -0.51123,-0.25385 -0.76684,-0.25385 -3.83429,0 -4.85681,1.77692 -4.85681,3.04615 0,16.75372 0,16.75372 0,16.75372 0,0 0,0 0,0 0,0.76154 0.25567,2.28461 3.32306,2.7923 -1.27808,0.50769 -1.78931,1.52307 -1.78931,3.04614 0,1.77692 1.27808,3.299985 3.32306,3.299985 0.25561,0 0.51123,0 0.76684,0 -1.53375,-0.50769 -2.55621,-1.776915 -2.55621,-3.299985 z"
     fill-rule="evenodd"
     id="path463" />
  <path
     fill="#000000"
     fill-opacity="0"
     d="m 159.13783,95.760615 c 0,-1.52307 -0.76685,-2.53845 -1.78931,-3.04614 3.06745,-0.50769 3.32306,-2.03076 3.32306,-2.7923 0,0 0,0 0,0 0,-16.75372 0,-16.75372 0,-16.75372 0,-1.26923 -1.02252,-3.04615 -4.85675,-3.04615 -3.83429,0 -4.85681,1.77692 -4.85681,3.04615 0,16.75372 0,16.75372 0,16.75372 0,0 0,0 0,0 0,0.76154 0.25568,2.28461 3.32306,2.7923 -1.27808,0.50769 -1.78931,1.52307 -1.78931,3.04614 0,1.77692 1.27808,3.299985 3.32306,3.299985 1.78931,0 3.323,-1.523065 3.323,-3.299985 z"
     fill-rule="evenodd"
     id="path464" />
  <path
     stroke="#343434"
     stroke-width="1"
     stroke-miterlimit="800"
     stroke-linecap="butt"
     d="m 159.13783,95.760615 c 0,-1.52307 -0.76685,-2.53845 -1.78931,-3.04614 3.06745,-0.50769 3.32306,-2.03076 3.32306,-2.7923 0,0 0,0 0,0 0,-16.75372 0,-16.75372 0,-16.75372 0,-1.26923 -1.02252,-3.04615 -4.85675,-3.04615 -3.83429,0 -4.85681,1.77692 -4.85681,3.04615 0,16.75372 0,16.75372 0,16.75372 0,0 0,0 0,0 0,0.76154 0.25568,2.28461 3.32306,2.7923 -1.27808,0.50769 -1.78931,1.52307 -1.78931,3.04614 0,1.77692 1.27808,3.299985 3.32306,3.299985 1.78931,0 3.323,-1.523065 3.323,-3.299985 z"
     fill-rule="evenodd"
     id="path465" />
  <path
     fill="#e3231e"
     d="m 130.82259,88.942345 c -4.80615,9.325985 -4.80615,9.325985 -4.80615,9.325985 -4.80615,-9.325985 -4.80615,-9.325985 -4.80615,-9.325985 0,0.25204 0,0.25204 0,0.25204 0,24.953285 0,24.953285 0,24.953285 0,1.26029 1.01184,3.02466 4.80615,3.02466 3.79437,0 4.80615,-1.76437 4.80615,-3.02466 0,0 0,0 0,0 0,-24.953285 0,-24.953285 0,-24.953285 z"
     fill-rule="evenodd"
     id="path466" />
  <path
     fill="#ea6440"
     d="m 130.82259,114.14767 c 0,-25.205325 0,-25.205325 0,-25.205325 -0.50104,1.26025 -0.50104,1.26025 -0.50104,1.26025 0,23.945075 0,23.945075 0,23.945075 0,1.26028 -1.00213,2.77261 -4.50964,3.02466 0,0 0.25055,0 0.25055,0 3.75799,0 4.76013,-1.76438 4.76013,-3.02466 z"
     fill-rule="evenodd"
     id="path467" />
  <path
     fill="#d0111c"
     d="m 126.73225,117.17233 c -3.51398,-0.25204 -4.01593,-2.01642 -4.01593,-3.02466 0,-22.432745 0,-22.432745 0,-22.432745 -1.50604,-2.77258 -1.50604,-2.77258 -1.50604,-2.77258 0,0.25204 0,0.25204 0,0.25204 0,24.953285 0,24.953285 0,24.953285 0,1.26029 1.00403,3.02466 4.76898,3.02466 0.25098,0 0.50201,0 0.75299,0 z"
     fill-rule="evenodd"
     id="path468" />
  <path
     fill="#000000"
     fill-opacity="0"
     d="m 130.82259,88.942345 c -4.80615,9.325985 -4.80615,9.325985 -4.80615,9.325985 -4.80615,-9.325985 -4.80615,-9.325985 -4.80615,-9.325985 0,0.25204 0,0.25204 0,0.25204 0,24.953285 0,24.953285 0,24.953285 0,1.26029 1.01184,3.02466 4.80615,3.02466 3.79437,0 4.80615,-1.76437 4.80615,-3.02466 0,0 0,0 0,0 0,-24.953285 0,-24.953285 0,-24.953285 z"
     fill-rule="evenodd"
     id="path469" />
  <path
     stroke="#343434"
     stroke-width="1"
     stroke-miterlimit="800"
     stroke-linecap="butt"
     d="m 130.82259,88.942345 c -4.80615,9.325985 -4.80615,9.325985 -4.80615,9.325985 -4.80615,-9.325985 -4.80615,-9.325985 -4.80615,-9.325985 0,0.25204 0,0.25204 0,0.25204 0,24.953285 0,24.953285 0,24.953285 0,1.26029 1.01184,3.02466 4.80615,3.02466 3.79437,0 4.80615,-1.76437 4.80615,-3.02466 0,0 0,0 0,0 0,-24.953285 0,-24.953285 0,-24.953285 z"
     fill-rule="evenodd"
     id="path470" />
  <path
     fill="#ea6440"
     d="m 128.57289,94.001485 -2.49554,4.664115 -1.69703,-3.671745 1.69703,4.167935 z"
     fill-rule="evenodd"
     id="path471" />
  <path
     fill="#ede32f"
     d="m 101.46349,93.939325 c 0,-1.52307 -0.76685,-2.53845 -1.789309,-3.04614 3.067389,-0.50769 3.322999,-2.03076 3.322999,-2.7923 0,0 0,0 0,0 0,-16.75375 0,-16.75375 0,-16.75375 0,-1.2692 -1.02246,-3.04612 -4.856749,-3.04612 -3.83423,0 -4.85675,1.77692 -4.85675,3.04612 0,16.75375 0,16.75375 0,16.75375 0,0 0,0 0,0 0,0.76154 0.25562,2.28461 3.32306,2.7923 -1.27808,0.50769 -1.78931,1.52307 -1.78931,3.04614 0,1.77692 1.27808,3.29996 3.323,3.29996 1.78937,0 3.323059,-1.52304 3.323059,-3.29996 z"
     fill-rule="evenodd"
     id="path472" />
  <path
     fill="#f5f6db"
     d="m 102.59846,71.347135 c 0,16.75375 0,16.75375 0,16.75375 0,0 0,0 0,0 0,0.76154 -0.25049,2.28461 -3.256589,2.7923 1.002009,0.50769 1.753539,1.52307 1.753539,3.04614 0,1.77692 -1.252499,3.04612 -3.006039,3.29996 0,0 0,0 0.25048,0 1.753539,0 3.256599,-1.52304 3.256599,-3.29996 0,-1.52307 -0.75153,-2.53845 -1.753539,-3.04614 3.006039,-0.50769 3.256589,-2.03076 3.256589,-2.7923 0,0 0,0 0,0 0,-16.75375 0,-16.75375 0,-16.75375 0,-1.2692 -1.00208,-3.04611 -4.759649,-3.04611 -0.25048,0 -0.25048,0 -0.25048,0 3.507079,0.25384 4.509089,2.03076 4.509089,3.04611 z"
     fill-rule="evenodd"
     id="path473" />
  <path
     fill="#f0e423"
     d="m 96.351141,93.939325 c 0,-1.52307 0.76685,-2.53845 1.78931,-3.04614 -3.06739,-0.50769 -3.323,-2.03076 -3.323,-2.7923 0,0 0,0 0,0 0,-16.75375 0,-16.75375 0,-16.75375 0,-1.01535 0.51123,-2.79227 4.0899,-2.79227 -0.25567,-0.25385 -0.51129,-0.25385 -0.7669,-0.25385 -3.83423,0 -4.85675,1.77692 -4.85675,3.04612 0,16.75375 0,16.75375 0,16.75375 0,0 0,0 0,0 0,0.76154 0.25561,2.28461 3.32306,2.7923 -1.27808,0.50769 -1.78931,1.52307 -1.78931,3.04614 0,1.77692 1.27807,3.29996 3.323,3.29996 0.25561,0 0.51123,0 0.7669,0 -1.53375,-0.50769 -2.55621,-1.77689 -2.55621,-3.29996 z"
     fill-rule="evenodd"
     id="path474" />
  <path
     fill="#000000"
     fill-opacity="0"
     d="m 101.46349,93.939325 c 0,-1.52307 -0.76685,-2.53845 -1.789309,-3.04614 3.067389,-0.50769 3.322999,-2.03076 3.322999,-2.7923 0,0 0,0 0,0 0,-16.75375 0,-16.75375 0,-16.75375 0,-1.2692 -1.02246,-3.04612 -4.856749,-3.04612 -3.83423,0 -4.85675,1.77692 -4.85675,3.04612 0,16.75375 0,16.75375 0,16.75375 0,0 0,0 0,0 0,0.76154 0.25562,2.28461 3.32306,2.7923 -1.27808,0.50769 -1.78931,1.52307 -1.78931,3.04614 0,1.77692 1.27808,3.29996 3.323,3.29996 1.78937,0 3.323059,-1.52304 3.323059,-3.29996 z"
     fill-rule="evenodd"
     id="path475" />
  <path
     stroke="#343434"
     stroke-width="1"
     stroke-miterlimit="800"
     stroke-linecap="butt"
     d="m 101.46349,93.939325 c 0,-1.52307 -0.76685,-2.53845 -1.789309,-3.04614 3.067389,-0.50769 3.322999,-2.03076 3.322999,-2.7923 0,0 0,0 0,0 0,-16.75375 0,-16.75375 0,-16.75375 0,-1.2692 -1.02246,-3.04612 -4.856749,-3.04612 -3.83423,0 -4.85675,1.77692 -4.85675,3.04612 0,16.75375 0,16.75375 0,16.75375 0,0 0,0 0,0 0,0.76154 0.25562,2.28461 3.32306,2.7923 -1.27808,0.50769 -1.78931,1.52307 -1.78931,3.04614 0,1.77692 1.27808,3.29996 3.323,3.29996 1.78937,0 3.323059,-1.52304 3.323059,-3.29996 z"
     fill-rule="evenodd"
     id="path476" />
  <path
     fill="#f7ad36"
     d="m 73.755291,114.03021 c 0,-25.087865 0,-25.087865 0,-25.087865 -0.25299,0.76025 -0.50592,2.28073 -3.28845,2.78754 1.01184,0.50683 1.77069,1.52047 1.77069,2.78753 0,2.02732 -1.5177,3.547785 -3.28839,3.547785 -2.02368,0 -3.28845,-1.520465 -3.28845,-3.547785 0,-1.26706 0.50592,-2.2807 1.77069,-2.78753 -3.03546,-0.50681 -3.28839,-2.02729 -3.28839,-2.78754 0,25.087865 0,25.087865 0,25.087865 0,1.7739 1.01184,3.04095 4.80615,3.04095 3.79431,0 4.80615,-1.26705 4.80615,-3.04095 z"
     fill-rule="evenodd"
     id="path477" />
  <path
     fill="#facf71"
     d="m 73.755291,114.03021 c 0,-25.087865 0,-25.087865 0,-25.087865 0,0.25342 -0.25055,1.26706 -0.75165,1.52048 0,23.567385 0,23.567385 0,23.567385 0,1.52048 -0.75158,3.04095 -4.25903,3.04095 0,0 0,0 0.25055,0 3.75799,0 4.76013,-1.26705 4.76013,-3.04095 z"
     fill-rule="evenodd"
     id="path478" />
  <path
     fill="#f08b37"
     d="m 70.466891,91.729885 c 1.01184,0.50684 1.77069,1.52048 1.77069,2.78754 0,1.77389 -1.01178,3.04095 -2.52954,3.547785 0,0 0.25293,0 0.50592,0 1.77069,-0.253415 2.78247,-1.520475 2.78247,-3.547785 0,-1.26706 -0.50586,-2.2807 -1.5177,-2.78754 1.5177,-0.25342 2.27661,-1.52048 2.27661,-2.53412 0,-0.25342 0,-0.25342 0,-0.25342 -0.25299,0.76026 -0.50592,2.28073 -3.28845,2.78754 z m -0.75885,25.341285 c -3.54138,-0.25342 -4.30023,-1.52048 -4.30023,-3.04096 0,-23.060545 0,-23.060545 0,-23.060545 -1.01184,-0.50684 -1.26477,-1.52048 -1.26477,-2.02732 0,25.087865 0,25.087865 0,25.087865 0,1.7739 1.01184,3.04096 4.80615,3.04096 0.25293,0 0.50592,0 0.75885,0 z"
     fill-rule="evenodd"
     id="path479" />
  <path
     fill="#000000"
     fill-opacity="0"
     d="m 73.755291,114.03021 c 0,-25.087865 0,-25.087865 0,-25.087865 -0.25299,0.76025 -0.50592,2.28073 -3.28845,2.78754 1.01184,0.50683 1.77069,1.52047 1.77069,2.78753 0,2.02732 -1.5177,3.547785 -3.28839,3.547785 -2.02368,0 -3.28845,-1.520465 -3.28845,-3.547785 0,-1.26706 0.50592,-2.2807 1.77069,-2.78753 -3.03546,-0.50681 -3.28839,-2.02729 -3.28839,-2.78754 0,25.087865 0,25.087865 0,25.087865 0,1.7739 1.01184,3.04095 4.80615,3.04095 3.79431,0 4.80615,-1.26705 4.80615,-3.04095 z"
     fill-rule="evenodd"
     id="path480" />
  <path
     stroke="#343434"
     stroke-width="1"
     stroke-miterlimit="800"
     stroke-linecap="butt"
     d="m 73.755291,114.03021 c 0,-25.087865 0,-25.087865 0,-25.087865 -0.25299,0.76025 -0.50592,2.28073 -3.28845,2.78754 1.01184,0.50683 1.77069,1.52047 1.77069,2.78753 0,2.02732 -1.5177,3.547785 -3.28839,3.547785 -2.02368,0 -3.28845,-1.520465 -3.28845,-3.547785 0,-1.26706 0.50592,-2.2807 1.77069,-2.78753 -3.03546,-0.50681 -3.28839,-2.02729 -3.28839,-2.78754 0,25.087865 0,25.087865 0,25.087865 0,1.7739 1.01184,3.04095 4.80615,3.04095 3.79431,0 4.80615,-1.26705 4.80615,-3.04095 z"
     fill-rule="evenodd"
     id="path481" />
  <path
     fill="#113a8d"
     d="m 88.978521,64.759695 c -32.376251,0 -23.77631,56.965515 -56.658451,56.965515 -11.38226,0 -11.38226,0 -11.38226,0 33.13507,0 24.53513,-56.965515 56.911381,-56.965515 z"
     fill-rule="evenodd"
     id="path482" />
  <path
     fill="#000000"
     fill-opacity="0"
     d="m 88.978521,64.759695 c -32.376251,0 -23.77631,56.965515 -56.658451,56.965515 -11.38226,0 -11.38226,0 -11.38226,0 33.13507,0 24.53513,-56.965515 56.911381,-56.965515 z"
     fill-rule="evenodd"
     id="path483" />
  <path
     stroke="#343434"
     stroke-width="1"
     stroke-miterlimit="800"
     stroke-linecap="butt"
     d="m 88.978521,64.759695 c -32.376251,0 -23.77631,56.965515 -56.658451,56.965515 -11.38226,0 -11.38226,0 -11.38226,0 33.13507,0 24.53513,-56.965515 56.911381,-56.965515 z"
     fill-rule="evenodd"
     id="path484" />
  <path
     fill="#113a8d"
     d="m 142.84409,64.759695 c -32.32806,0 -23.74097,56.965515 -56.574099,56.965515 -11.36535,0 -11.36535,0 -11.36535,0 32.833189,0 24.24603,-56.965515 56.574089,-56.965515 z"
     fill-rule="evenodd"
     id="path485" />
  <path
     fill="#000000"
     fill-opacity="0"
     d="m 142.84409,64.759695 c -32.32806,0 -23.74097,56.965515 -56.574099,56.965515 -11.36535,0 -11.36535,0 -11.36535,0 32.833189,0 24.24603,-56.965515 56.574089,-56.965515 z"
     fill-rule="evenodd"
     id="path486" />
  <path
     stroke="#343434"
     stroke-width="1"
     stroke-miterlimit="800"
     stroke-linecap="butt"
     d="m 142.84409,64.759695 c -32.32806,0 -23.74097,56.965515 -56.574099,56.965515 -11.36535,0 -11.36535,0 -11.36535,0 32.833189,0 24.24603,-56.965515 56.574089,-56.965515 z"
     fill-rule="evenodd"
     id="path487" />
  <path
     fill="#113a8d"
     d="m 203.89839,64.759695 c -32.37622,0 -23.77631,56.965515 -56.91132,56.965515 -11.12933,0 -11.12933,0 -11.12933,0 32.88208,0 24.28217,-56.965515 56.65839,-56.965515 z"
     fill-rule="evenodd"
     id="path488" />
  <path
     fill="#000000"
     fill-opacity="0"
     d="m 203.89839,64.759695 c -32.37622,0 -23.77631,56.965515 -56.91132,56.965515 -11.12933,0 -11.12933,0 -11.12933,0 32.88208,0 24.28217,-56.965515 56.65839,-56.965515 z"
     fill-rule="evenodd"
     id="path489" />
  <path
     stroke="#343434"
     stroke-width="1"
     stroke-miterlimit="800"
     stroke-linecap="butt"
     d="m 203.89839,64.759695 c -32.37622,0 -23.77631,56.965515 -56.91132,56.965515 -11.12933,0 -11.12933,0 -11.12933,0 32.88208,0 24.28217,-56.965515 56.65839,-56.965515 z"
     fill-rule="evenodd"
     id="path490" />
  <path
     fill="#113a8d"
     d="m 263.63649,64.759695 c -32.37622,0 -23.77631,56.965515 -56.65839,56.965515 -11.38226,0 -11.38226,0 -11.38226,0 33.13501,0 24.5351,-56.965515 56.91132,-56.965515 z"
     fill-rule="evenodd"
     id="path491" />
  <path
     fill="#000000"
     fill-opacity="0"
     d="m 263.63649,64.759695 c -32.37622,0 -23.77631,56.965515 -56.65839,56.965515 -11.38226,0 -11.38226,0 -11.38226,0 33.13501,0 24.5351,-56.965515 56.91132,-56.965515 z"
     fill-rule="evenodd"
     id="path492" />
  <path
     stroke="#343434"
     stroke-width="1"
     stroke-miterlimit="800"
     stroke-linecap="butt"
     d="m 263.63649,64.759695 c -32.37622,0 -23.77631,56.965515 -56.65839,56.965515 -11.38226,0 -11.38226,0 -11.38226,0 33.13501,0 24.5351,-56.965515 56.91132,-56.965515 z"
     fill-rule="evenodd"
     id="path493" />
  <path
     fill="#113a8d"
     d="m 321.75459,64.759695 c -32.37622,0 -23.77631,56.965515 -56.91138,56.965515 -11.12933,0 -11.12933,0 -11.12933,0 32.88214,0 24.28223,-56.965515 56.65845,-56.965515 z"
     fill-rule="evenodd"
     id="path494" />
  <path
     fill="#000000"
     fill-opacity="0"
     d="m 321.75459,64.759695 c -32.37622,0 -23.77631,56.965515 -56.91138,56.965515 -11.12933,0 -11.12933,0 -11.12933,0 32.88214,0 24.28223,-56.965515 56.65845,-56.965515 z"
     fill-rule="evenodd"
     id="path495" />
  <path
     stroke="#343434"
     stroke-width="1"
     stroke-miterlimit="800"
     stroke-linecap="butt"
     d="m 321.75459,64.759695 c -32.37622,0 -23.77631,56.965515 -56.91138,56.965515 -11.12933,0 -11.12933,0 -11.12933,0 32.88214,0 24.28223,-56.965515 56.65845,-56.965515 z"
     fill-rule="evenodd"
     id="path496" />
  <path
     fill="#3b59a0"
     d="m 90.699791,121.72522 c -32.328061,0 -23.74091,-56.965515 -56.574101,-56.965515 -11.36532,0 -11.36532,0 -11.36532,0 33.08572,0 24.49859,56.965515 56.826631,56.965515 z"
     fill-rule="evenodd"
     id="path497" />
  <path
     fill="#5578b6"
     d="m 34.11719,64.759695 c -11.15436,0 -11.15436,0 -11.15436,0 11.15436,0 17.49207,6.56619 22.30872,14.90024 11.40787,0 11.40787,0 11.40787,0 -5.07016,-8.33405 -11.40787,-14.90024 -22.56223,-14.90024 z"
     fill-rule="evenodd"
     id="path498" />
  <path
     fill="#779dce"
     d="m 34.37147,65.517325 c 10.64734,0 16.98505,6.06113 21.8017,14.14261 0,0 0,0 0,0 -4.81665,-8.58658 -11.15436,-14.90024 -22.30872,-14.90024 -11.40787,0 -11.40787,0 -11.40787,0 2.5351,0 4.56314,0.25253 6.59122,0.75763 z"
     fill-rule="evenodd"
     id="path499" />
  <path
     fill="#33559e"
     d="m 67.328891,103.07457 c -11.358181,0 -11.358181,0 -11.358181,0 5.048061,10.36191 11.610561,18.95471 23.978421,18.95471 11.35815,0 11.35815,0 11.35815,0 -12.62018,0 -18.9303,-8.5928 -23.97839,-18.95471 z"
     fill-rule="evenodd"
     id="path500" />
  <path
     fill="#000000"
     fill-opacity="0"
     d="m 90.699791,121.72522 c -32.328061,0 -23.74091,-56.965515 -56.574101,-56.965515 -11.36532,0 -11.36532,0 -11.36532,0 33.08572,0 24.49859,56.965515 56.826631,56.965515 z"
     fill-rule="evenodd"
     id="path501" />
  <path
     stroke="#343434"
     stroke-width="1"
     stroke-miterlimit="800"
     stroke-linecap="butt"
     d="m 90.699791,121.72522 c -32.328061,0 -23.74091,-56.965515 -56.574101,-56.965515 -11.36532,0 -11.36532,0 -11.36532,0 33.08572,0 24.49859,56.965515 56.826631,56.965515 z"
     fill-rule="evenodd"
     id="path502" />
  <path
     fill="#5578b6"
     d="m 45.74433,80.470815 h 10.5347 l 0.50165,0.70953 h -10.5347 z"
     fill-rule="evenodd"
     id="path503" />
  <path
     fill="#5578b6"
     d="M 46.85807,81.889885 H 57.1876 l 0.20059,0.40546 H 46.85807 Z"
     fill-rule="evenodd"
     id="path504" />
  <path
     fill="#33559e"
     d="M 66.298291,102.4664 H 55.86564 l -0.19873,-0.70953 h 10.134551 z"
     fill-rule="evenodd"
     id="path505" />
  <path
     fill="#33559e"
     d="M 65.690741,101.14871 H 55.36124 l -0.20059,-0.40546 h 10.229251 z"
     fill-rule="evenodd"
     id="path506" />
  <path
     fill="#3b59a0"
     d="m 148.71662,121.72522 c -32.37628,0 -23.77631,-56.965515 -56.911379,-56.965515 -11.12933,0 -11.12933,0 -11.12933,0 32.882139,0 24.282169,56.965515 56.658449,56.965515 z"
     fill-rule="evenodd"
     id="path507" />
  <path
     fill="#5578b6"
     d="m 92.083791,64.759695 c -11.4079,0 -11.4079,0 -11.4079,0 11.15436,0 17.49207,6.56619 22.308719,14.90024 11.4079,0 11.4079,0 11.4079,0 -4.81665,-8.33405 -11.15436,-14.90024 -22.308719,-14.90024 z"
     fill-rule="evenodd"
     id="path508" />
  <path
     fill="#779dce"
     d="m 92.166021,65.517325 c 10.835389,0 17.135009,6.06113 21.670709,14.14261 0.25202,0 0.25202,0 0.25202,0 -4.78772,-8.58658 -11.33936,-14.90024 -22.426699,-14.90024 -11.0874,0 -11.0874,0 -11.0874,0 2.26788,0 4.53577,0.25253 6.55164,0.75763 z"
     fill-rule="evenodd"
     id="path509" />
  <path
     fill="#33559e"
     d="m 124.97579,103.07457 c -11.08954,0 -11.08954,0 -11.08954,0 5.04071,10.36191 11.34162,18.95471 23.9433,18.95471 11.08954,0 11.08954,0 11.08954,0 -12.34967,0 -18.90259,-8.5928 -23.9433,-18.95471 z"
     fill-rule="evenodd"
     id="path510" />
  <path
     fill="#000000"
     fill-opacity="0"
     d="m 148.71662,121.72522 c -32.37628,0 -23.77631,-56.965515 -56.911379,-56.965515 -11.12933,0 -11.12933,0 -11.12933,0 32.882139,0 24.282169,56.965515 56.658449,56.965515 z"
     fill-rule="evenodd"
     id="path511" />
  <path
     stroke="#343434"
     stroke-width="1"
     stroke-miterlimit="800"
     stroke-linecap="butt"
     d="m 148.71662,121.72522 c -32.37628,0 -23.77631,-56.965515 -56.911379,-56.965515 -11.12933,0 -11.12933,0 -11.12933,0 32.882139,0 24.282169,56.965515 56.658449,56.965515 z"
     fill-rule="evenodd"
     id="path512" />
  <path
     fill="#5578b6"
     d="m 103.76119,80.470815 h 10.13452 l 0.49683,0.70953 h -10.43268 z"
     fill-rule="evenodd"
     id="path513" />
  <path
     fill="#5578b6"
     d="m 104.46989,81.889885 h 10.53009 v 0.40546 h -10.22925 z"
     fill-rule="evenodd"
     id="path514" />
  <path
     fill="#33559e"
     d="m 124.01139,102.4664 h -10.13458 l -0.49677,-0.70953 h 10.43262 z"
     fill-rule="evenodd"
     id="path515" />
  <path
     fill="#33559e"
     d="m 123.50509,101.14871 h -10.43262 l -0.19873,-0.40546 h 10.43268 z"
     fill-rule="evenodd"
     id="path516" />
  <path
     fill="#3b59a0"
     d="m 206.42969,121.72522 c -32.37628,0 -23.77631,-56.965515 -56.65845,-56.965515 -11.38226,0 -11.38226,0 -11.38226,0 33.13507,0 24.53516,56.965515 56.91138,56.965515 z"
     fill-rule="evenodd"
     id="path517" />
  <path
     fill="#5578b6"
     d="m 149.78009,64.759695 c -11.08734,0 -11.08734,0 -11.08734,0 11.08734,0 17.38702,6.56619 22.17474,14.90024 11.33936,0 11.33936,0 11.33936,0 -5.03974,-8.33405 -11.33936,-14.90024 -22.42676,-14.90024 z"
     fill-rule="evenodd"
     id="path518" />
  <path
     fill="#779dce"
     d="m 150.02979,65.517325 c 10.58343,0 16.88306,6.06113 21.67078,14.14261 0,0 0,0 0,0 -4.78772,-8.58658 -11.08735,-14.90024 -22.17475,-14.90024 -11.33935,0 -11.33935,0 -11.33935,0 2.51989,0 4.53576,0.25253 6.55163,0.75763 z"
     fill-rule="evenodd"
     id="path519" />
  <path
     fill="#33559e"
     d="m 183.05879,103.07457 c -11.35822,0 -11.35822,0 -11.35822,0 5.0481,10.36191 11.6106,18.95471 23.9784,18.95471 11.35821,0 11.35821,0 11.35821,0 -12.62024,0 -18.93029,-8.5928 -23.97839,-18.95471 z"
     fill-rule="evenodd"
     id="path520" />
  <path
     fill="#000000"
     fill-opacity="0"
     d="m 206.42969,121.72522 c -32.37628,0 -23.77631,-56.965515 -56.65845,-56.965515 -11.38226,0 -11.38226,0 -11.38226,0 33.13507,0 24.53516,56.965515 56.91138,56.965515 z"
     fill-rule="evenodd"
     id="path521" />
  <path
     stroke="#343434"
     stroke-width="1"
     stroke-miterlimit="800"
     stroke-linecap="butt"
     d="m 206.42969,121.72522 c -32.37628,0 -23.77631,-56.965515 -56.65845,-56.965515 -11.38226,0 -11.38226,0 -11.38226,0 33.13507,0 24.53516,56.965515 56.91138,56.965515 z"
     fill-rule="evenodd"
     id="path522" />
  <path
     fill="#5578b6"
     d="m 161.47425,80.470815 h 10.53467 l 0.50165,0.70953 H 161.9759 Z"
     fill-rule="evenodd"
     id="path523" />
  <path
     fill="#5578b6"
     d="m 162.58799,81.889885 h 10.22925 l 0.3009,0.40546 h -10.53015 z"
     fill-rule="evenodd"
     id="path524" />
  <path
     fill="#33559e"
     d="m 182.23069,102.4664 h -10.63135 l -0.30371,-0.70953 h 10.42883 z"
     fill-rule="evenodd"
     id="path525" />
  <path
     fill="#33559e"
     d="m 181.31939,101.14871 h -10.22925 l -0.30084,-0.40546 h 10.32953 z"
     fill-rule="evenodd"
     id="path526" />
  <path
     fill="#3b59a0"
     d="m 264.34529,121.72522 c -32.32806,0 -23.74097,-56.965515 -56.82666,-56.965515 -11.11279,0 -11.11279,0 -11.11279,0 32.83319,0 24.24603,56.965515 56.57409,56.965515 z"
     fill-rule="evenodd"
     id="path527" />
  <path
     fill="#5578b6"
     d="m 207.74519,64.759695 c -11.33935,0 -11.33935,0 -11.33935,0 11.08734,0 17.38702,6.56619 22.17474,14.90024 11.33935,0 11.33935,0 11.33935,0 -4.78772,-8.33405 -11.0874,-14.90024 -22.17474,-14.90024 z"
     fill-rule="evenodd"
     id="path528" />
  <path
     fill="#779dce"
     d="m 207.76344,65.517325 c 10.90088,0 17.23859,6.06113 21.8017,14.14261 0.25354,0 0.25354,0 0.25354,0 -4.81665,-8.58658 -11.4079,-14.90024 -22.56226,-14.90024 -11.15436,0 -11.15436,0 -11.15436,0 2.28162,0 4.56317,0.25253 6.59125,0.75763 z"
     fill-rule="evenodd"
     id="path529" />
  <path
     fill="#33559e"
     d="m 240.63649,103.07457 c -11.12158,0 -11.12158,0 -11.12158,0 5.0553,10.36191 11.37433,18.95471 24.01251,18.95471 11.12158,0 11.12158,0 11.12158,0 -12.38537,0 -18.95721,-8.5928 -24.01251,-18.95471 z"
     fill-rule="evenodd"
     id="path530" />
  <path
     fill="#000000"
     fill-opacity="0"
     d="m 264.34529,121.72522 c -32.32806,0 -23.74097,-56.965515 -56.82666,-56.965515 -11.11279,0 -11.11279,0 -11.11279,0 32.83319,0 24.24603,56.965515 56.57409,56.965515 z"
     fill-rule="evenodd"
     id="path531" />
  <path
     stroke="#343434"
     stroke-width="1"
     stroke-miterlimit="800"
     stroke-linecap="butt"
     d="m 264.34529,121.72522 c -32.32806,0 -23.74097,-56.965515 -56.82666,-56.965515 -11.11279,0 -11.11279,0 -11.11279,0 32.83319,0 24.24603,56.965515 56.57409,56.965515 z"
     fill-rule="evenodd"
     id="path532" />
  <path
     fill="#5578b6"
     d="m 219.38979,80.470815 h 10.42889 l 0.50623,0.70953 h -10.63135 z"
     fill-rule="evenodd"
     id="path533" />
  <path
     fill="#5578b6"
     d="m 220.19984,81.889885 h 10.53009 v 0.40546 H 220.4004 Z"
     fill-rule="evenodd"
     id="path534" />
  <path
     fill="#33559e"
     d="m 240.14625,102.4664 h -10.53467 l -0.50165,-0.70953 h 10.53467 z"
     fill-rule="evenodd"
     id="path535" />
  <path
     fill="#33559e"
     d="m 239.43749,101.14871 h -10.63135 l -0.30377,-0.40546 h 10.63135 z"
     fill-rule="evenodd"
     id="path536" />
  <path
     fill="#3b59a0"
     d="m 322.15959,121.72522 c -32.37628,0 -23.77631,-56.965515 -56.65845,-56.965515 -11.38226,0 -11.38226,0 -11.38226,0 33.13507,0 24.53509,56.965515 56.91138,56.965515 z"
     fill-rule="evenodd"
     id="path537" />
  <path
     fill="#5578b6"
     d="m 265.47579,64.759695 c -11.15436,0 -11.15436,0 -11.15436,0 11.15436,0 17.49207,6.56619 22.30872,14.90024 11.40783,0 11.40783,0 11.40783,0 -5.07012,-8.33405 -11.40783,-14.90024 -22.56219,-14.90024 z"
     fill-rule="evenodd"
     id="path538" />
  <path
     fill="#779dce"
     d="m 265.73005,65.517325 c 10.64734,0 16.98505,6.06113 21.8017,14.14261 0,0 0,0 0,0 -4.81665,-8.58658 -11.15436,-14.90024 -22.30872,-14.90024 -11.4079,0 -11.4079,0 -11.4079,0 2.5351,0 4.56317,0.25253 6.59125,0.75763 z"
     fill-rule="evenodd"
     id="path539" />
  <path
     fill="#33559e"
     d="m 298.65125,103.07457 c -11.42328,0 -11.42328,0 -11.42328,0 5.07703,10.36191 11.67713,18.95471 24.11585,18.95471 11.42328,0 11.42328,0 11.42328,0 -12.69257,0 -19.03882,-8.5928 -24.11585,-18.95471 z"
     fill-rule="evenodd"
     id="path540" />
  <path
     fill="#000000"
     fill-opacity="0"
     d="m 322.15959,121.72522 c -32.37628,0 -23.77631,-56.965515 -56.65845,-56.965515 -11.38226,0 -11.38226,0 -11.38226,0 33.13507,0 24.53509,56.965515 56.91138,56.965515 z"
     fill-rule="evenodd"
     id="path541" />
  <path
     stroke="#343434"
     stroke-width="1"
     stroke-miterlimit="800"
     stroke-linecap="butt"
     d="m 322.15959,121.72522 c -32.37628,0 -23.77631,-56.965515 -56.65845,-56.965515 -11.38226,0 -11.38226,0 -11.38226,0 33.13507,0 24.53509,56.965515 56.91138,56.965515 z"
     fill-rule="evenodd"
     id="path542" />
  <path
     fill="#5578b6"
     d="m 277.10289,80.470815 h 10.53467 l 0.50165,0.70953 h -10.53467 z"
     fill-rule="evenodd"
     id="path543" />
  <path
     fill="#5578b6"
     d="m 278.11543,81.889885 h 10.32953 l 0.20056,0.40546 h -10.53009 z"
     fill-rule="evenodd"
     id="path544" />
  <path
     fill="#33559e"
     d="m 297.65689,102.4664 h -10.43268 l -0.19873,-0.70953 h 10.13458 z"
     fill-rule="evenodd"
     id="path545" />
  <path
     fill="#33559e"
     d="m 297.04932,101.14871 h -10.32953 l -0.20056,-0.40546 h 10.22925 z"
     fill-rule="evenodd"
     id="path546" />
  <path
     fill="#ede32f"
     d="m 72.322821,94.546415 c 0,-1.52307 -0.76691,-2.53845 -1.78937,-3.04614 3.06745,-0.50769 3.32306,-2.03076 3.32306,-2.7923 0,0 0,0 0,0 0,-16.75372 0,-16.75372 0,-16.75372 0,-1.26923 -1.02246,-3.04615 -4.85675,-3.04615 -3.83429,0 -4.85675,1.77692 -4.85675,3.04615 0,16.75372 0,16.75372 0,16.75372 0,0 0,0 0,0 0,0.76154 0.25562,2.28461 3.32306,2.7923 -1.27814,0.50769 -1.78937,1.52307 -1.78937,3.04614 0,1.77692 1.27808,3.29999 3.32306,3.29999 1.78931,0 3.32306,-1.52307 3.32306,-3.29999 z"
     fill-rule="evenodd"
     id="path547" />
  <path
     fill="#f5f6db"
     d="m 73.457791,71.954245 c 0,16.75372 0,16.75372 0,16.75372 0,0 0,0 0,0 0,0.76154 -0.25055,2.28461 -3.25659,2.7923 1.00201,0.50769 1.75354,1.52307 1.75354,3.04614 0,1.77692 -1.25257,3.04615 -3.00611,3.29999 0,0 0,0 0.25055,0 1.75354,0 3.25653,-1.52307 3.25653,-3.29999 0,-1.52307 -0.75146,-2.53845 -1.75354,-3.04614 3.00611,-0.50769 3.2566,-2.03076 3.2566,-2.7923 0,0 0,0 0,0 0,-16.75372 0,-16.75372 0,-16.75372 0,-1.26923 -1.00202,-3.04614 -4.75959,-3.04614 -0.25055,0 -0.25055,0 -0.25055,0 3.50708,0.25384 4.50916,2.03076 4.50916,3.04614 z"
     fill-rule="evenodd"
     id="path548" />
  <path
     fill="#f0e423"
     d="m 67.210461,94.546415 c 0,-1.52307 0.76685,-2.53845 1.78931,-3.04614 -3.06745,-0.50769 -3.32306,-2.03076 -3.32306,-2.7923 0,0 0,0 0,0 0,-16.75372 0,-16.75372 0,-16.75372 0,-1.01538 0.51123,-2.7923 4.0899,-2.7923 -0.25561,-0.25385 -0.51123,-0.25385 -0.76684,-0.25385 -3.83429,0 -4.85675,1.77692 -4.85675,3.04615 0,16.75372 0,16.75372 0,16.75372 0,0 0,0 0,0 0,0.76154 0.25561,2.28461 3.32306,2.7923 -1.27814,0.50769 -1.78937,1.52307 -1.78937,3.04614 0,1.77692 1.27807,3.29999 3.32306,3.29999 0.25561,0 0.51123,0 0.76684,0 -1.53369,-0.50769 -2.55615,-1.77692 -2.55615,-3.29999 z"
     fill-rule="evenodd"
     id="path549" />
  <path
     fill="#000000"
     fill-opacity="0"
     d="m 72.322821,94.546415 c 0,-1.52307 -0.76691,-2.53845 -1.78937,-3.04614 3.06745,-0.50769 3.32306,-2.03076 3.32306,-2.7923 0,0 0,0 0,0 0,-16.75372 0,-16.75372 0,-16.75372 0,-1.26923 -1.02246,-3.04615 -4.85675,-3.04615 -3.83429,0 -4.85675,1.77692 -4.85675,3.04615 0,16.75372 0,16.75372 0,16.75372 0,0 0,0 0,0 0,0.76154 0.25562,2.28461 3.32306,2.7923 -1.27814,0.50769 -1.78937,1.52307 -1.78937,3.04614 0,1.77692 1.27808,3.29999 3.32306,3.29999 1.78931,0 3.32306,-1.52307 3.32306,-3.29999 z"
     fill-rule="evenodd"
     id="path550" />
  <path
     stroke="#343434"
     stroke-width="1"
     stroke-miterlimit="800"
     stroke-linecap="butt"
     d="m 72.322821,94.546415 c 0,-1.52307 -0.76691,-2.53845 -1.78937,-3.04614 3.06745,-0.50769 3.32306,-2.03076 3.32306,-2.7923 0,0 0,0 0,0 0,-16.75372 0,-16.75372 0,-16.75372 0,-1.26923 -1.02246,-3.04615 -4.85675,-3.04615 -3.83429,0 -4.85675,1.77692 -4.85675,3.04615 0,16.75372 0,16.75372 0,16.75372 0,0 0,0 0,0 0,0.76154 0.25562,2.28461 3.32306,2.7923 -1.27814,0.50769 -1.78937,1.52307 -1.78937,3.04614 0,1.77692 1.27808,3.29999 3.32306,3.29999 1.78931,0 3.32306,-1.52307 3.32306,-3.29999 z"
     fill-rule="evenodd"
     id="path551" />
  <path
     fill="#ede32f"
     d="m 189.49279,93.332205 c 0,-1.52307 -0.76685,-2.53845 -1.78931,-3.04614 3.06739,-0.50766 3.323,-2.03073 3.323,-2.79227 0,0 0,0 0,0 0,-16.75375 0,-16.75375 0,-16.75375 0,-1.26923 -1.02246,-3.04615 -4.85675,-3.04615 -3.83423,0 -4.85675,1.77692 -4.85675,3.04615 0,16.75375 0,16.75375 0,16.75375 0,0 0,0 0,0 0,0.76154 0.25562,2.28461 3.32306,2.79227 -1.27808,0.50769 -1.78931,1.52307 -1.78931,3.04614 0,1.77692 1.27808,3.29999 3.323,3.29999 1.78937,0 3.32306,-1.52307 3.32306,-3.29999 z"
     fill-rule="evenodd"
     id="path552" />
  <path
     fill="#f5f6db"
     d="m 190.62775,70.740045 c 0,16.75375 0,16.75375 0,16.75375 0,0 0,0 0,0 0,0.76154 -0.25049,2.28461 -3.25659,2.79227 1.00201,0.50769 1.75354,1.52307 1.75354,3.04614 0,1.77692 -1.2525,3.04615 -3.00604,3.29999 0,0 0,0 0.25048,0 1.75354,0 3.2566,-1.52307 3.2566,-3.29999 0,-1.52307 -0.75153,-2.53845 -1.75354,-3.04614 3.00604,-0.50766 3.25659,-2.03073 3.25659,-2.79227 0,0 0,0 0,0 0,-16.75375 0,-16.75375 0,-16.75375 0,-1.26923 -1.00202,-3.04614 -4.75965,-3.04614 -0.25048,0 -0.25048,0 -0.25048,0 3.50708,0.25384 4.50909,2.03076 4.50909,3.04614 z"
     fill-rule="evenodd"
     id="path553" />
  <path
     fill="#f0e423"
     d="m 184.38044,93.332205 c 0,-1.52307 0.76685,-2.53845 1.78931,-3.04614 -3.06739,-0.50766 -3.323,-2.03073 -3.323,-2.79227 0,0 0,0 0,0 0,-16.75375 0,-16.75375 0,-16.75375 0,-1.01538 0.51123,-2.7923 4.0899,-2.7923 -0.25561,-0.25385 -0.51129,-0.25385 -0.7669,-0.25385 -3.83423,0 -4.85675,1.77692 -4.85675,3.04615 0,16.75375 0,16.75375 0,16.75375 0,0 0,0 0,0 0,0.76154 0.25561,2.28461 3.32306,2.79227 -1.27808,0.50769 -1.78931,1.52307 -1.78931,3.04614 0,1.77692 1.27807,3.29999 3.323,3.29999 0.25561,0 0.51129,0 0.7669,0 -1.53375,-0.50769 -2.55621,-1.77692 -2.55621,-3.29999 z"
     fill-rule="evenodd"
     id="path554" />
  <path
     fill="#000000"
     fill-opacity="0"
     d="m 189.49279,93.332205 c 0,-1.52307 -0.76685,-2.53845 -1.78931,-3.04614 3.06739,-0.50766 3.323,-2.03073 3.323,-2.79227 0,0 0,0 0,0 0,-16.75375 0,-16.75375 0,-16.75375 0,-1.26923 -1.02246,-3.04615 -4.85675,-3.04615 -3.83423,0 -4.85675,1.77692 -4.85675,3.04615 0,16.75375 0,16.75375 0,16.75375 0,0 0,0 0,0 0,0.76154 0.25562,2.28461 3.32306,2.79227 -1.27808,0.50769 -1.78931,1.52307 -1.78931,3.04614 0,1.77692 1.27808,3.29999 3.323,3.29999 1.78937,0 3.32306,-1.52307 3.32306,-3.29999 z"
     fill-rule="evenodd"
     id="path555" />
  <path
     stroke="#343434"
     stroke-width="1"
     stroke-miterlimit="800"
     stroke-linecap="butt"
     d="m 189.49279,93.332205 c 0,-1.52307 -0.76685,-2.53845 -1.78931,-3.04614 3.06739,-0.50766 3.323,-2.03073 3.323,-2.79227 0,0 0,0 0,0 0,-16.75375 0,-16.75375 0,-16.75375 0,-1.26923 -1.02246,-3.04615 -4.85675,-3.04615 -3.83423,0 -4.85675,1.77692 -4.85675,3.04615 0,16.75375 0,16.75375 0,16.75375 0,0 0,0 0,0 0,0.76154 0.25562,2.28461 3.32306,2.79227 -1.27808,0.50769 -1.78931,1.52307 -1.78931,3.04614 0,1.77692 1.27808,3.29999 3.323,3.29999 1.78937,0 3.32306,-1.52307 3.32306,-3.29999 z"
     fill-rule="evenodd"
     id="path556" />
  <path
     fill="#ede32f"
     d="m 143.87519,94.654015 c 0,-1.26675 -0.75885,-2.53351 -1.77063,-3.04019 3.0354,-0.25336 3.28839,-1.77344 3.28839,-2.53351 0,0 0,0 0,-0.25333 0,-20.52127 0,-20.52127 0,-20.52127 0,-1.26675 -1.01184,-3.04019 -4.80615,-3.04019 -3.79431,0 -4.80615,1.77344 -4.80615,3.04019 0,20.52127 0,20.52127 0,20.52127 0,0.25333 0,0.25333 0,0.25333 0,0.76007 0.25299,2.28015 3.28845,2.53351 -1.01184,0.50668 -1.77069,1.77344 -1.77069,3.04019 0,2.02679 1.5177,3.29352 3.28839,3.29352 1.77069,0 3.28839,-1.26673 3.28839,-3.29352 z"
     fill-rule="evenodd"
     id="path557" />
  <path
     fill="#f5f6db"
     d="m 144.89185,68.305715 c 0,20.52127 0,20.52127 0,20.52127 0,0.25333 0,0.25333 0,0.25333 0,0.76007 -0.25049,2.28015 -3.2569,2.5335 1.00214,0.50669 1.75373,1.77344 1.75373,3.0402 0,1.77343 -1.25269,3.29351 -3.00641,3.29351 0,0 0.25055,0 0.25055,0 1.75372,0 3.25695,-1.26672 3.25695,-3.29351 0,-1.26676 -0.75164,-2.53351 -1.75378,-3.0402 3.00641,-0.25335 3.25696,-1.77343 3.25696,-2.5335 0,0 0,0 0,-0.25333 0,-20.52127 0,-20.52127 0,-20.52127 0,-1.26675 -1.00214,-3.04019 -4.76013,-3.04019 0,0 -0.25055,0 -0.25055,0 3.5075,0 4.50958,1.77344 4.50958,3.04019 z"
     fill-rule="evenodd"
     id="path558" />
  <path
     fill="#f0e423"
     d="m 138.79259,94.654015 c 0,-1.26675 0.75299,-2.53351 1.75702,-3.04019 -3.01196,-0.25336 -3.263,-1.77344 -3.263,-2.53351 0,0 0,0 0,-0.25333 0,-20.52127 0,-20.52127 0,-20.52127 0,-1.26675 0.75299,-2.78686 4.01599,-3.04019 -0.25104,0 -0.50201,0 -0.75299,0 -3.76495,0 -4.76898,1.77344 -4.76898,3.04019 0,20.52127 0,20.52127 0,20.52127 0,0.25333 0,0.25333 0,0.25333 0,0.76007 0.25097,2.28015 3.263,2.53351 -1.00403,0.50668 -1.75702,1.77344 -1.75702,3.04019 0,2.02679 1.50598,3.29352 3.263,3.29352 0.25098,0 0.50195,0 0.75299,0 -1.50598,-0.25333 -2.51001,-1.77344 -2.51001,-3.29352 z"
     fill-rule="evenodd"
     id="path559" />
  <path
     fill="#000000"
     fill-opacity="0"
     d="m 143.87519,94.654015 c 0,-1.26675 -0.75885,-2.53351 -1.77063,-3.04019 3.0354,-0.25336 3.28839,-1.77344 3.28839,-2.53351 0,0 0,0 0,-0.25333 0,-20.52127 0,-20.52127 0,-20.52127 0,-1.26675 -1.01184,-3.04019 -4.80615,-3.04019 -3.79431,0 -4.80615,1.77344 -4.80615,3.04019 0,20.52127 0,20.52127 0,20.52127 0,0.25333 0,0.25333 0,0.25333 0,0.76007 0.25299,2.28015 3.28845,2.53351 -1.01184,0.50668 -1.77069,1.77344 -1.77069,3.04019 0,2.02679 1.5177,3.29352 3.28839,3.29352 1.77069,0 3.28839,-1.26673 3.28839,-3.29352 z"
     fill-rule="evenodd"
     id="path560" />
  <path
     stroke="#343434"
     stroke-width="1"
     stroke-miterlimit="800"
     stroke-linecap="butt"
     d="m 143.87519,94.654015 c 0,-1.26675 -0.75885,-2.53351 -1.77063,-3.04019 3.0354,-0.25336 3.28839,-1.77344 3.28839,-2.53351 0,0 0,0 0,-0.25333 0,-20.52127 0,-20.52127 0,-20.52127 0,-1.26675 -1.01184,-3.04019 -4.80615,-3.04019 -3.79431,0 -4.80615,1.77344 -4.80615,3.04019 0,20.52127 0,20.52127 0,20.52127 0,0.25333 0,0.25333 0,0.25333 0,0.76007 0.25299,2.28015 3.28845,2.53351 -1.01184,0.50668 -1.77069,1.77344 -1.77069,3.04019 0,2.02679 1.5177,3.29352 3.28839,3.29352 1.77069,0 3.28839,-1.26673 3.28839,-3.29352 z"
     fill-rule="evenodd"
     id="path561" />
  <path
     fill="#ede32f"
     d="m 262.86639,94.046895 c 0,-1.26672 -0.75885,-2.53348 -1.77069,-3.04019 3.03546,-0.25333 3.28839,-1.77344 3.28839,-2.53348 0,0 0,0 0,-0.25336 0,-20.52127 0,-20.52127 0,-20.52127 0,-1.26675 -1.01178,-3.04019 -4.80609,-3.04019 -3.79437,0 -4.80615,1.77344 -4.80615,3.04019 0,20.52127 0,20.52127 0,20.52127 0,0.25336 0,0.25336 0,0.25336 0,0.76004 0.25293,2.28015 3.28839,2.53348 -1.01184,0.50671 -1.77069,1.77347 -1.77069,3.04019 0,2.02679 1.51776,3.29355 3.28845,3.29355 1.77063,0 3.28839,-1.26676 3.28839,-3.29355 z"
     fill-rule="evenodd"
     id="path562" />
  <path
     fill="#f5f6db"
     d="m 263.88309,67.698605 c 0,20.52127 0,20.52127 0,20.52127 0,0.25336 0,0.25336 0,0.25336 0,0.76004 -0.25055,2.28015 -3.25696,2.53347 1.00214,0.50672 1.75379,1.77347 1.75379,3.0402 0,1.77343 -1.25269,3.29355 -3.00641,3.29355 0,0 0.25049,0 0.25049,0 1.75378,0 3.25695,-1.26676 3.25695,-3.29355 0,-1.26673 -0.75158,-2.53348 -1.75372,-3.0402 3.00641,-0.25332 3.2569,-1.77343 3.2569,-2.53347 0,0 0,0 0,-0.25336 0,-20.52127 0,-20.52127 0,-20.52127 0,-1.26675 -1.00214,-3.04019 -4.76013,-3.04019 0,0 -0.25049,0 -0.25049,0 3.50744,0 4.50958,1.77344 4.50958,3.04019 z"
     fill-rule="evenodd"
     id="path563" />
  <path
     fill="#f0e423"
     d="m 257.78382,94.046895 c 0,-1.26672 0.75299,-2.53348 1.75696,-3.04019 -3.01196,-0.25333 -3.26294,-1.77344 -3.26294,-2.53348 0,0 0,0 0,-0.25336 0,-20.52127 0,-20.52127 0,-20.52127 0,-1.26675 0.75299,-2.78683 4.01593,-3.04019 -0.25098,0 -0.50195,0 -0.75299,0 -3.76496,0 -4.76892,1.77344 -4.76892,3.04019 0,20.52127 0,20.52127 0,20.52127 0,0.25336 0,0.25336 0,0.25336 0,0.76004 0.25097,2.28015 3.26294,2.53348 -1.00397,0.50671 -1.75696,1.77347 -1.75696,3.04019 0,2.02679 1.50598,3.29355 3.26294,3.29355 0.25104,0 0.50201,0 0.75299,0 -1.50598,-0.25336 -2.50995,-1.77344 -2.50995,-3.29355 z"
     fill-rule="evenodd"
     id="path564" />
  <path
     fill="#000000"
     fill-opacity="0"
     d="m 262.86639,94.046895 c 0,-1.26672 -0.75885,-2.53348 -1.77069,-3.04019 3.03546,-0.25333 3.28839,-1.77344 3.28839,-2.53348 0,0 0,0 0,-0.25336 0,-20.52127 0,-20.52127 0,-20.52127 0,-1.26675 -1.01178,-3.04019 -4.80609,-3.04019 -3.79437,0 -4.80615,1.77344 -4.80615,3.04019 0,20.52127 0,20.52127 0,20.52127 0,0.25336 0,0.25336 0,0.25336 0,0.76004 0.25293,2.28015 3.28839,2.53348 -1.01184,0.50671 -1.77069,1.77347 -1.77069,3.04019 0,2.02679 1.51776,3.29355 3.28845,3.29355 1.77063,0 3.28839,-1.26676 3.28839,-3.29355 z"
     fill-rule="evenodd"
     id="path565" />
  <path
     stroke="#343434"
     stroke-width="1"
     stroke-miterlimit="800"
     stroke-linecap="butt"
     d="m 262.86639,94.046895 c 0,-1.26672 -0.75885,-2.53348 -1.77069,-3.04019 3.03546,-0.25333 3.28839,-1.77344 3.28839,-2.53348 0,0 0,0 0,-0.25336 0,-20.52127 0,-20.52127 0,-20.52127 0,-1.26675 -1.01178,-3.04019 -4.80609,-3.04019 -3.79437,0 -4.80615,1.77344 -4.80615,3.04019 0,20.52127 0,20.52127 0,20.52127 0,0.25336 0,0.25336 0,0.25336 0,0.76004 0.25293,2.28015 3.28839,2.53348 -1.01184,0.50671 -1.77069,1.77347 -1.77069,3.04019 0,2.02679 1.51776,3.29355 3.28845,3.29355 1.77063,0 3.28839,-1.26676 3.28839,-3.29355 z"
     fill-rule="evenodd"
     id="path566" />
  <path
     fill="#f7ad36"
     d="m 278.95449,114.63733 c 0,-25.087895 0,-25.087895 0,-25.087895 -0.25293,0.76025 -0.50592,2.28073 -3.28839,2.78757 1.01178,0.5068 1.77069,1.52047 1.77069,2.78753 0,2.02729 -1.51776,3.547755 -3.28845,3.547755 -2.02362,0 -3.28839,-1.520465 -3.28839,-3.547755 0,-1.26706 0.50592,-2.28073 1.77069,-2.78753 -3.03546,-0.50684 -3.28845,-2.02732 -3.28845,-2.78757 0,25.087895 0,25.087895 0,25.087895 0,1.7739 1.01184,3.04095 4.80615,3.04095 3.79431,0 4.80615,-1.26705 4.80615,-3.04095 z"
     fill-rule="evenodd"
     id="path567" />
  <path
     fill="#facf71"
     d="m 278.95449,114.63733 c 0,-25.087895 0,-25.087895 0,-25.087895 0,0.25342 -0.25055,1.26709 -0.75159,1.52048 0,23.567415 0,23.567415 0,23.567415 0,1.52048 -0.75158,3.04095 -4.25909,3.04095 0,0 0,0 0.25055,0 3.75799,0 4.76013,-1.26705 4.76013,-3.04095 z"
     fill-rule="evenodd"
     id="path568" />
  <path
     fill="#f08b37"
     d="m 275.66609,92.336995 c 1.01178,0.50681 1.77069,1.52048 1.77069,2.78754 0,1.77389 -1.01184,3.040945 -2.5296,3.547755 0,0 0.25299,0 0.50592,0 1.77069,-0.25339 2.78253,-1.520475 2.78253,-3.547755 0,-1.26706 -0.50592,-2.28073 -1.51776,-2.78754 1.51776,-0.25342 2.27661,-1.52048 2.27661,-2.53415 0,-0.25342 0,-0.25342 0,-0.25342 -0.25293,0.76026 -0.50592,2.28073 -3.28839,2.78757 z m -0.75891,25.341285 c -3.54132,-0.25342 -4.30023,-1.52048 -4.30023,-3.04096 0,-23.060575 0,-23.060575 0,-23.060575 -1.01178,-0.50684 -1.26477,-1.52048 -1.26477,-2.02732 0,25.087895 0,25.087895 0,25.087895 0,1.7739 1.01184,3.04096 4.80615,3.04096 0.25299,0 0.50592,0 0.75885,0 z"
     fill-rule="evenodd"
     id="path569" />
  <path
     fill="#000000"
     fill-opacity="0"
     d="m 278.95449,114.63733 c 0,-25.087895 0,-25.087895 0,-25.087895 -0.25293,0.76025 -0.50592,2.28073 -3.28839,2.78757 1.01178,0.5068 1.77069,1.52047 1.77069,2.78753 0,2.02729 -1.51776,3.547755 -3.28845,3.547755 -2.02362,0 -3.28839,-1.520465 -3.28839,-3.547755 0,-1.26706 0.50592,-2.28073 1.77069,-2.78753 -3.03546,-0.50684 -3.28845,-2.02732 -3.28845,-2.78757 0,25.087895 0,25.087895 0,25.087895 0,1.7739 1.01184,3.04095 4.80615,3.04095 3.79431,0 4.80615,-1.26705 4.80615,-3.04095 z"
     fill-rule="evenodd"
     id="path570" />
  <path
     stroke="#343434"
     stroke-width="1"
     stroke-miterlimit="800"
     stroke-linecap="butt"
     d="m 278.95449,114.63733 c 0,-25.087895 0,-25.087895 0,-25.087895 -0.25293,0.76025 -0.50592,2.28073 -3.28839,2.78757 1.01178,0.5068 1.77069,1.52047 1.77069,2.78753 0,2.02729 -1.51776,3.547755 -3.28845,3.547755 -2.02362,0 -3.28839,-1.520465 -3.28839,-3.547755 0,-1.26706 0.50592,-2.28073 1.77069,-2.78753 -3.03546,-0.50684 -3.28845,-2.02732 -3.28845,-2.78757 0,25.087895 0,25.087895 0,25.087895 0,1.7739 1.01184,3.04095 4.80615,3.04095 3.79431,0 4.80615,-1.26705 4.80615,-3.04095 z"
     fill-rule="evenodd"
     id="path571" />
  <path
     fill="#f7ad36"
     d="m 145.49415,117.77942 c 0,-28.837075 0,-28.837075 0,-28.837075 -0.25562,0.75888 -0.25562,2.02365 -3.323,2.52957 1.02246,0.50592 1.78931,1.7707 1.78931,3.0355 0,1.77069 -1.53369,3.28842 -3.32306,3.28842 -1.78931,0 -3.32306,-1.51773 -3.32306,-3.28842 0,-1.2648 0.76691,-2.52958 1.78937,-3.0355 -3.06745,-0.50592 -3.06745,-1.77069 -3.32306,-2.52957 0,28.837075 0,28.837075 0,28.837075 0,1.77072 1.02246,3.03549 4.85675,3.03549 3.83429,0 4.85675,-1.26477 4.85675,-3.03549 z"
     fill-rule="evenodd"
     id="path572" />
  <path
     fill="#facf71"
     d="m 145.49415,117.77942 c 0,-28.837075 0,-28.837075 0,-28.837075 0,0.25296 -0.25049,1.01184 -0.75153,1.51773 0,27.319345 0,27.319345 0,27.319345 0,1.77072 -0.75152,3.03549 -4.2586,3.03549 0,0 0.25055,0 0.25055,0 3.75757,0 4.75958,-1.26477 4.75958,-3.03549 z"
     fill-rule="evenodd"
     id="path573" />
  <path
     fill="#f08b37"
     d="m 142.17115,91.471915 c 1.02246,0.50592 1.78931,1.77069 1.78931,3.03549 0,1.51773 -1.02246,3.03546 -2.55622,3.28842 0.25562,0 0.25562,0 0.51123,0 1.78937,0 2.81183,-1.51773 2.81183,-3.28842 0,-1.2648 -0.51123,-2.52957 -1.53369,-3.03549 1.53369,-0.25296 2.30054,-1.51773 2.30054,-2.52957 0,0 0,0 0,0 -0.25562,0.75888 -0.25562,2.02365 -3.323,2.52957 z m -0.76691,29.342995 c -3.57861,0 -4.34552,-1.51773 -4.34552,-3.0355 0,-26.813415 0,-26.813415 0,-26.813415 -1.02246,-0.50592 -1.27807,-1.77069 -1.27807,-2.02365 0,28.837065 0,28.837065 0,28.837065 0,1.77073 1.02246,3.0355 4.85675,3.0355 0.25561,0 0.51123,0 0.76684,0 z"
     fill-rule="evenodd"
     id="path574" />
  <path
     fill="#000000"
     fill-opacity="0"
     d="m 145.49415,117.77942 c 0,-28.837075 0,-28.837075 0,-28.837075 -0.25562,0.75888 -0.25562,2.02365 -3.323,2.52957 1.02246,0.50592 1.78931,1.7707 1.78931,3.0355 0,1.77069 -1.53369,3.28842 -3.32306,3.28842 -1.78931,0 -3.32306,-1.51773 -3.32306,-3.28842 0,-1.2648 0.76691,-2.52958 1.78937,-3.0355 -3.06745,-0.50592 -3.06745,-1.77069 -3.32306,-2.52957 0,28.837075 0,28.837075 0,28.837075 0,1.77072 1.02246,3.03549 4.85675,3.03549 3.83429,0 4.85675,-1.26477 4.85675,-3.03549 z"
     fill-rule="evenodd"
     id="path575" />
  <path
     stroke="#343434"
     stroke-width="1"
     stroke-miterlimit="800"
     stroke-linecap="butt"
     d="m 145.49415,117.77942 c 0,-28.837075 0,-28.837075 0,-28.837075 -0.25562,0.75888 -0.25562,2.02365 -3.323,2.52957 1.02246,0.50592 1.78931,1.7707 1.78931,3.0355 0,1.77069 -1.53369,3.28842 -3.32306,3.28842 -1.78931,0 -3.32306,-1.51773 -3.32306,-3.28842 0,-1.2648 0.76691,-2.52958 1.78937,-3.0355 -3.06745,-0.50592 -3.06745,-1.77069 -3.32306,-2.52957 0,28.837075 0,28.837075 0,28.837075 0,1.77072 1.02246,3.03549 4.85675,3.03549 3.83429,0 4.85675,-1.26477 4.85675,-3.03549 z"
     fill-rule="evenodd"
     id="path576" />
  <path
     fill="#e43b8b"
     d="m 88.426891,89.007165 c 0,-20.71079 0,-20.71079 0,-20.71079 0,-1.26287 -1.02252,-3.03085 -4.85675,-3.03085 -3.83429,0 -4.85675,1.76798 -4.85675,3.03085 0,20.71079 0,20.71079 0,20.71079 4.85675,9.345115 4.85675,9.345115 4.85675,9.345115 z"
     fill-rule="evenodd"
     id="path577" />
  <path
     fill="#d33489"
     d="m 80.487131,89.007165 c 0,-20.71079 0,-20.71079 0,-20.71079 0,-1.26287 0.50677,-2.77828 3.80096,-3.03085 -0.25341,0 -0.50683,0 -0.76019,0 -3.80096,0 -4.81451,1.76798 -4.81451,3.03085 0,20.71079 0,20.71079 0,20.71079 4.81451,9.345115 4.81451,9.345115 4.81451,9.345115 1.01355,-1.010275 1.01355,-1.010275 1.01355,-1.010275 z"
     fill-rule="evenodd"
     id="path578" />
  <path
     fill="#e387b2"
     d="m 87.915661,68.296365 c 0,20.71078 0,20.71078 0,20.71078 -4.08991,9.345125 -4.08991,9.345125 -4.08991,9.345125 -0.25561,0 -0.25561,0 -0.25561,0 4.85675,-9.345125 4.85675,-9.345125 4.85675,-9.345125 0,-20.71078 0,-20.71078 0,-20.71078 0,-1.26288 -1.02252,-3.03085 -4.85675,-3.03085 0,0 0,0 -0.25562,0 3.83423,0 4.60114,1.76797 4.60114,3.03085 z"
     fill-rule="evenodd"
     id="path579" />
  <path
     fill="#000000"
     fill-opacity="0"
     d="m 88.426891,89.007165 c 0,-20.71079 0,-20.71079 0,-20.71079 0,-1.26287 -1.02252,-3.03085 -4.85675,-3.03085 -3.83429,0 -4.85675,1.76798 -4.85675,3.03085 0,20.71079 0,20.71079 0,20.71079 4.85675,9.345115 4.85675,9.345115 4.85675,9.345115 z"
     fill-rule="evenodd"
     id="path580" />
  <path
     stroke="#343434"
     stroke-width="1"
     stroke-miterlimit="800"
     stroke-linecap="butt"
     d="m 88.426891,89.007165 c 0,-20.71079 0,-20.71079 0,-20.71079 0,-1.26287 -1.02252,-3.03085 -4.85675,-3.03085 -3.83429,0 -4.85675,1.76798 -4.85675,3.03085 0,20.71079 0,20.71079 0,20.71079 4.85675,9.345115 4.85675,9.345115 4.85675,9.345115 z"
     fill-rule="evenodd"
     id="path581" />
  <path
     fill="#e43b8b"
     d="m 205.59689,88.400045 c 0,-20.71079 0,-20.71079 0,-20.71079 0,-1.26284 -1.02246,-3.03085 -4.85675,-3.03085 -3.83429,0 -4.85675,1.76801 -4.85675,3.03085 0,20.71079 0,20.71079 0,20.71079 4.85675,9.34512 4.85675,9.34512 4.85675,9.34512 z"
     fill-rule="evenodd"
     id="path582" />
  <path
     fill="#d33489"
     d="m 197.65719,88.400045 c 0,-20.71079 0,-20.71079 0,-20.71079 0,-1.26284 0.50677,-2.77825 3.8009,-3.03085 -0.25341,0 -0.50677,0 -0.76019,0 -3.8009,0 -4.81451,1.76801 -4.81451,3.03085 0,20.71079 0,20.71079 0,20.71079 4.81451,9.34512 4.81451,9.34512 4.81451,9.34512 1.01361,-1.01028 1.01361,-1.01028 1.01361,-1.01028 z"
     fill-rule="evenodd"
     id="path583" />
  <path
     fill="#e387b2"
     d="m 205.08564,67.689265 c 0,20.71078 0,20.71078 0,20.71078 -4.08991,9.34513 -4.08991,9.34513 -4.08991,9.34513 -0.25561,0 -0.25561,0 -0.25561,0 4.85675,-9.34513 4.85675,-9.34513 4.85675,-9.34513 0,-20.71078 0,-20.71078 0,-20.71078 0,-1.26285 -1.02246,-3.03085 -4.85675,-3.03085 0,0 0,0 -0.25562,0 3.83429,0 4.60114,1.768 4.60114,3.03085 z"
     fill-rule="evenodd"
     id="path584" />
  <path
     fill="#000000"
     fill-opacity="0"
     d="m 205.59689,88.400045 c 0,-20.71079 0,-20.71079 0,-20.71079 0,-1.26284 -1.02246,-3.03085 -4.85675,-3.03085 -3.83429,0 -4.85675,1.76801 -4.85675,3.03085 0,20.71079 0,20.71079 0,20.71079 4.85675,9.34512 4.85675,9.34512 4.85675,9.34512 z"
     fill-rule="evenodd"
     id="path585" />
  <path
     stroke="#343434"
     stroke-width="1"
     stroke-miterlimit="800"
     stroke-linecap="butt"
     d="m 205.59689,88.400045 c 0,-20.71079 0,-20.71079 0,-20.71079 0,-1.26284 -1.02246,-3.03085 -4.85675,-3.03085 -3.83429,0 -4.85675,1.76801 -4.85675,3.03085 0,20.71079 0,20.71079 0,20.71079 4.85675,9.34512 4.85675,9.34512 4.85675,9.34512 z"
     fill-rule="evenodd"
     id="path586" />
  <path
     fill="#e43b8b"
     d="m 130.92384,88.134565 c 0,-16.78226 0,-16.78226 0,-16.78226 0,-1.27136 -1.01184,-3.0513 -4.80621,-3.0513 -3.79444,0 -4.80622,1.77994 -4.80622,3.0513 0,16.78226 0,16.78226 0,16.78226 4.80622,9.40823 4.80622,9.40823 4.80622,9.40823 z"
     fill-rule="evenodd"
     id="path587" />
  <path
     fill="#d33489"
     d="m 122.81739,88.134565 c 0,-16.78226 0,-16.78226 0,-16.78226 0,-1.01709 0.75299,-2.79702 4.01605,-2.79702 -0.25104,-0.25428 -0.50201,-0.25428 -0.75305,-0.25428 -3.76501,0 -4.76898,1.77994 -4.76898,3.0513 0,16.78226 0,16.78226 0,16.78226 4.76898,9.40823 4.76898,9.40823 4.76898,9.40823 0.75305,-1.01712 0.75305,-1.01712 0.75305,-1.01712 z"
     fill-rule="evenodd"
     id="path588" />
  <path
     fill="#e387b2"
     d="m 130.42274,71.352315 c 0,16.78226 0,16.78226 0,16.78226 -4.25909,9.40823 -4.25909,9.40823 -4.25909,9.40823 0,0 0,0 0,0 4.76019,-9.40823 4.76019,-9.40823 4.76019,-9.40823 0,-16.78226 0,-16.78226 0,-16.78226 0,-1.27136 -1.0022,-3.0513 -4.76019,-3.0513 0,0 -0.25055,0 -0.25055,0 3.5075,0.25427 4.50964,2.03421 4.50964,3.0513 z"
     fill-rule="evenodd"
     id="path589" />
  <path
     fill="#000000"
     fill-opacity="0"
     d="m 130.92384,88.134565 c 0,-16.78226 0,-16.78226 0,-16.78226 0,-1.27136 -1.01184,-3.0513 -4.80621,-3.0513 -3.79444,0 -4.80622,1.77994 -4.80622,3.0513 0,16.78226 0,16.78226 0,16.78226 4.80622,9.40823 4.80622,9.40823 4.80622,9.40823 z"
     fill-rule="evenodd"
     id="path590" />
  <path
     stroke="#343434"
     stroke-width="1"
     stroke-miterlimit="800"
     stroke-linecap="butt"
     d="m 130.92384,88.134565 c 0,-16.78226 0,-16.78226 0,-16.78226 0,-1.27136 -1.01184,-3.0513 -4.80621,-3.0513 -3.79444,0 -4.80622,1.77994 -4.80622,3.0513 0,16.78226 0,16.78226 0,16.78226 4.80622,9.40823 4.80622,9.40823 4.80622,9.40823 z"
     fill-rule="evenodd"
     id="path591" />
  <path
     fill="#e43b8b"
     d="m 249.81379,87.527485 c 0,-16.78226 0,-16.78226 0,-16.78226 0,-1.27139 -1.01184,-3.05133 -4.80615,-3.05133 -3.79431,0 -4.80615,1.77994 -4.80615,3.05133 0,16.78226 0,16.78226 0,16.78226 4.80615,9.40823 4.80615,9.40823 4.80615,9.40823 z"
     fill-rule="evenodd"
     id="path592" />
  <path
     fill="#d33489"
     d="m 241.70749,87.527485 c 0,-16.78226 0,-16.78226 0,-16.78226 0,-1.01712 0.75299,-2.79706 4.01599,-2.79706 -0.25104,-0.25427 -0.50201,-0.25427 -0.75299,-0.25427 -3.76501,0 -4.76898,1.77994 -4.76898,3.05133 0,16.78226 0,16.78226 0,16.78226 4.76898,9.40823 4.76898,9.40823 4.76898,9.40823 0.75299,-1.01712 0.75299,-1.01712 0.75299,-1.01712 z"
     fill-rule="evenodd"
     id="path593" />
  <path
     fill="#e387b2"
     d="m 249.31269,70.745235 c 0,16.78226 0,16.78226 0,16.78226 -4.25903,9.40823 -4.25903,9.40823 -4.25903,9.40823 0,0 0,0 0,0 4.76013,-9.40823 4.76013,-9.40823 4.76013,-9.40823 0,-16.78226 0,-16.78226 0,-16.78226 0,-1.27139 -1.00214,-3.05133 -4.76013,-3.05133 0,0 -0.25055,0 -0.25055,0 3.50744,0.25427 4.50958,2.03421 4.50958,3.05133 z"
     fill-rule="evenodd"
     id="path594" />
  <path
     fill="#000000"
     fill-opacity="0"
     d="m 249.81379,87.527485 c 0,-16.78226 0,-16.78226 0,-16.78226 0,-1.27139 -1.01184,-3.05133 -4.80615,-3.05133 -3.79431,0 -4.80615,1.77994 -4.80615,3.05133 0,16.78226 0,16.78226 0,16.78226 4.80615,9.40823 4.80615,9.40823 4.80615,9.40823 z"
     fill-rule="evenodd"
     id="path595" />
  <path
     stroke="#343434"
     stroke-width="1"
     stroke-miterlimit="800"
     stroke-linecap="butt"
     d="m 249.81379,87.527485 c 0,-16.78226 0,-16.78226 0,-16.78226 0,-1.27139 -1.01184,-3.05133 -4.80615,-3.05133 -3.79431,0 -4.80615,1.77994 -4.80615,3.05133 0,16.78226 0,16.78226 0,16.78226 4.80615,9.40823 4.80615,9.40823 4.80615,9.40823 z"
     fill-rule="evenodd"
     id="path596" />
  <path
     fill="#e3231e"
     d="m 88.325631,88.942345 c -4.80615,9.374145 -4.80615,9.374145 -4.80615,9.374145 -4.80609,-9.374145 -4.80609,-9.374145 -4.80609,-9.374145 0,0 0,0 0,0 0,29.135865 0,29.135865 0,29.135865 0,1.26679 1.01178,3.04029 4.80609,3.04029 3.79437,0 4.80615,-1.7735 4.80615,-3.04029 0,0 0,0 0,0 z"
     fill-rule="evenodd"
     id="path597" />
  <path
     fill="#ea6440"
     d="m 88.325631,118.07821 c 0,-29.135865 0,-29.135865 0,-29.135865 -0.50104,1.01342 -0.50104,1.01342 -0.50104,1.01342 0,28.122445 0,28.122445 0,28.122445 0,1.26679 -1.00213,3.04028 -4.50958,3.04028 0,0 0.25049,0 0.25049,0 3.75799,0 4.76013,-1.77349 4.76013,-3.04028 z"
     fill-rule="evenodd"
     id="path598" />
  <path
     fill="#d0111c"
     d="m 84.235291,121.1185 c -3.26294,-0.25336 -4.01593,-1.7735 -4.01593,-3.04028 0,-26.348945 0,-26.348945 0,-26.348945 -1.50598,-2.78693 -1.50598,-2.78693 -1.50598,-2.78693 0,0 0,0 0,0 0,29.135875 0,29.135875 0,29.135875 0,1.26678 1.00397,3.04028 4.76892,3.04028 0.25104,0 0.50201,0 0.75299,0 z"
     fill-rule="evenodd"
     id="path599" />
  <path
     fill="#000000"
     fill-opacity="0"
     d="m 88.325631,88.942345 c -4.80615,9.374145 -4.80615,9.374145 -4.80615,9.374145 -4.80609,-9.374145 -4.80609,-9.374145 -4.80609,-9.374145 0,0 0,0 0,0 0,29.135865 0,29.135865 0,29.135865 0,1.26679 1.01178,3.04029 4.80609,3.04029 3.79437,0 4.80615,-1.7735 4.80615,-3.04029 0,0 0,0 0,0 z"
     fill-rule="evenodd"
     id="path600" />
  <path
     stroke="#343434"
     stroke-width="1"
     stroke-miterlimit="800"
     stroke-linecap="butt"
     d="m 88.325631,88.942345 c -4.80615,9.374145 -4.80615,9.374145 -4.80615,9.374145 -4.80609,-9.374145 -4.80609,-9.374145 -4.80609,-9.374145 0,0 0,0 0,0 0,29.135865 0,29.135865 0,29.135865 0,1.26679 1.01178,3.04029 4.80609,3.04029 3.79437,0 4.80615,-1.7735 4.80615,-3.04029 0,0 0,0 0,0 z"
     fill-rule="evenodd"
     id="path601" />
  <path
     fill="#ea6440"
     d="m 86.075991,93.814445 -2.49561,4.678855 -1.69702,-3.683345 1.69702,4.181095 z"
     fill-rule="evenodd"
     id="path602" />
  <path
     fill="#e3231e"
     d="m 205.49569,88.942345 c -4.80615,9.374145 -4.80615,9.374145 -4.80615,9.374145 -4.80615,-9.374145 -4.80615,-9.374145 -4.80615,-9.374145 0,0 0,0 0,0 0,29.135865 0,29.135865 0,29.135865 0,1.26679 1.01184,3.04029 4.80615,3.04029 3.79431,0 4.80615,-1.7735 4.80615,-3.04029 0,0 0,0 0,0 z"
     fill-rule="evenodd"
     id="path603" />
  <path
     fill="#ea6440"
     d="m 205.49569,118.07821 c 0,-29.135865 0,-29.135865 0,-29.135865 -0.5011,1.01342 -0.5011,1.01342 -0.5011,1.01342 0,28.122445 0,28.122445 0,28.122445 0,1.26679 -1.00213,3.04028 -4.50958,3.04028 0,0 0.25055,0 0.25055,0 3.75799,0 4.76013,-1.77349 4.76013,-3.04028 z"
     fill-rule="evenodd"
     id="path604" />
  <path
     fill="#d0111c"
     d="m 201.40534,121.1185 c -3.263,-0.25336 -4.01599,-1.7735 -4.01599,-3.04028 0,-26.348945 0,-26.348945 0,-26.348945 -1.50598,-2.78693 -1.50598,-2.78693 -1.50598,-2.78693 0,0 0,0 0,0 0,29.135875 0,29.135875 0,29.135875 0,1.26678 1.00396,3.04028 4.76898,3.04028 0.25098,0 0.50195,0 0.75299,0 z"
     fill-rule="evenodd"
     id="path605" />
  <path
     fill="#000000"
     fill-opacity="0"
     d="m 205.49569,88.942345 c -4.80615,9.374145 -4.80615,9.374145 -4.80615,9.374145 -4.80615,-9.374145 -4.80615,-9.374145 -4.80615,-9.374145 0,0 0,0 0,0 0,29.135865 0,29.135865 0,29.135865 0,1.26679 1.01184,3.04029 4.80615,3.04029 3.79431,0 4.80615,-1.7735 4.80615,-3.04029 0,0 0,0 0,0 z"
     fill-rule="evenodd"
     id="path606" />
  <path
     stroke="#343434"
     stroke-width="1"
     stroke-miterlimit="800"
     stroke-linecap="butt"
     d="m 205.49569,88.942345 c -4.80615,9.374145 -4.80615,9.374145 -4.80615,9.374145 -4.80615,-9.374145 -4.80615,-9.374145 -4.80615,-9.374145 0,0 0,0 0,0 0,29.135865 0,29.135865 0,29.135865 0,1.26679 1.01184,3.04029 4.80615,3.04029 3.79431,0 4.80615,-1.7735 4.80615,-3.04029 0,0 0,0 0,0 z"
     fill-rule="evenodd"
     id="path607" />
  <path
     fill="#ea6440"
     d="m 203.24599,93.814445 -2.49561,4.678855 -1.69696,-3.683345 1.69696,4.181095 z"
     fill-rule="evenodd"
     id="path608" />
  <path
     fill="#f7ad36"
     d="m 102.89599,113.22082 c 0,-25.087865 0,-25.087865 0,-25.087865 -0.25293,0.76022 -0.50592,2.2807 -3.288389,2.78754 1.011779,0.5068 1.770689,1.52047 1.770689,2.78753 0,2.02732 -1.517759,3.54779 -3.288449,3.54779 -2.02362,0 -3.28839,-1.52047 -3.28839,-3.54779 0,-1.26706 0.50592,-2.28073 1.77069,-2.78753 -3.03546,-0.50684 -3.28845,-2.02732 -3.28845,-2.78754 0,25.087865 0,25.087865 0,25.087865 0,1.7739 1.01184,3.04095 4.80615,3.04095 3.794309,0 4.806149,-1.26705 4.806149,-3.04095 z"
     fill-rule="evenodd"
     id="path609" />
  <path
     fill="#facf71"
     d="m 102.89599,113.22082 c 0,-25.087865 0,-25.087865 0,-25.087865 0,0.25339 -0.25055,1.26706 -0.75159,1.52048 0,23.567385 0,23.567385 0,23.567385 0,1.52048 -0.75158,3.04095 -4.259089,3.04095 0,0 0,0 0.25055,0 3.757989,0 4.760129,-1.26705 4.760129,-3.04095 z"
     fill-rule="evenodd"
     id="path610" />
  <path
     fill="#f08b37"
     d="m 99.607591,90.920495 c 1.011779,0.50681 1.770689,1.52048 1.770689,2.78754 0,1.77389 -1.01184,3.04095 -2.529599,3.54779 0,0 0.25299,0 0.50592,0 1.770689,-0.25342 2.782529,-1.52048 2.782529,-3.54779 0,-1.26706 -0.50592,-2.28073 -1.51776,-2.78754 1.51776,-0.25342 2.27661,-1.52048 2.27661,-2.53415 0,-0.25339 0,-0.25339 0,-0.25339 -0.25293,0.76023 -0.50592,2.2807 -3.288389,2.78754 z m -0.75891,25.341285 c -3.54132,-0.25342 -4.30023,-1.52048 -4.30023,-3.04096 0,-23.060575 0,-23.060575 0,-23.060575 -1.01178,-0.50681 -1.26477,-1.52048 -1.26477,-2.02729 0,25.087865 0,25.087865 0,25.087865 0,1.7739 1.01184,3.04096 4.80615,3.04096 0.25299,0 0.50592,0 0.75885,0 z"
     fill-rule="evenodd"
     id="path611" />
  <path
     fill="#000000"
     fill-opacity="0"
     d="m 102.89599,113.22082 c 0,-25.087865 0,-25.087865 0,-25.087865 -0.25293,0.76022 -0.50592,2.2807 -3.288389,2.78754 1.011779,0.5068 1.770689,1.52047 1.770689,2.78753 0,2.02732 -1.517759,3.54779 -3.288449,3.54779 -2.02362,0 -3.28839,-1.52047 -3.28839,-3.54779 0,-1.26706 0.50592,-2.28073 1.77069,-2.78753 -3.03546,-0.50684 -3.28845,-2.02732 -3.28845,-2.78754 0,25.087865 0,25.087865 0,25.087865 0,1.7739 1.01184,3.04095 4.80615,3.04095 3.794309,0 4.806149,-1.26705 4.806149,-3.04095 z"
     fill-rule="evenodd"
     id="path612" />
  <path
     stroke="#343434"
     stroke-width="1"
     stroke-miterlimit="800"
     stroke-linecap="butt"
     d="m 102.89599,113.22082 c 0,-25.087865 0,-25.087865 0,-25.087865 -0.25293,0.76022 -0.50592,2.2807 -3.288389,2.78754 1.011779,0.5068 1.770689,1.52047 1.770689,2.78753 0,2.02732 -1.517759,3.54779 -3.288449,3.54779 -2.02362,0 -3.28839,-1.52047 -3.28839,-3.54779 0,-1.26706 0.50592,-2.28073 1.77069,-2.78753 -3.03546,-0.50684 -3.28845,-2.02732 -3.28845,-2.78754 0,25.087865 0,25.087865 0,25.087865 0,1.7739 1.01184,3.04095 4.80615,3.04095 3.794309,0 4.806149,-1.26705 4.806149,-3.04095 z"
     fill-rule="evenodd"
     id="path613" />
  <path
     fill="#f7ad36"
     d="m 160.67164,114.83969 c 0,-25.087865 0,-25.087865 0,-25.087865 -0.25299,0.76022 -0.50592,2.2807 -3.28845,2.78754 1.01178,0.5068 1.77069,1.52047 1.77069,2.78753 0,2.02732 -1.51776,3.547785 -3.28845,3.547785 -2.02368,0 -3.28846,-1.520465 -3.28846,-3.547785 0,-1.26706 0.50593,-2.28073 1.7707,-2.78753 -3.03553,-0.50684 -3.28846,-2.02732 -3.28846,-2.78754 0,25.087865 0,25.087865 0,25.087865 0,1.7739 1.01184,3.04095 4.80622,3.04095 3.79437,0 4.80621,-1.26705 4.80621,-3.04095 z"
     fill-rule="evenodd"
     id="path614" />
  <path
     fill="#facf71"
     d="m 160.67164,114.83969 c 0,-25.087865 0,-25.087865 0,-25.087865 0,0.25339 -0.25055,1.26706 -0.75165,1.52048 0,23.567385 0,23.567385 0,23.567385 0,1.52048 -0.75158,3.04095 -4.25909,3.04095 0,0 0,0 0.25055,0 3.75799,0 4.76019,-1.26705 4.76019,-3.04095 z"
     fill-rule="evenodd"
     id="path615" />
  <path
     fill="#f08b37"
     d="m 157.38319,92.539365 c 1.01178,0.50681 1.77069,1.52048 1.77069,2.78754 0,1.77389 -1.01184,3.040945 -2.5296,3.547785 0,0 0.25299,0 0.50592,0 1.77069,-0.25342 2.78253,-1.520475 2.78253,-3.547785 0,-1.26706 -0.50592,-2.28073 -1.51776,-2.78754 1.51776,-0.25342 2.27667,-1.52048 2.27667,-2.53415 0,-0.25339 0,-0.25339 0,-0.25339 -0.25299,0.76023 -0.50592,2.2807 -3.28845,2.78754 z m -0.75891,25.341285 c -3.54138,-0.25342 -4.30029,-1.52048 -4.30029,-3.04096 0,-23.060575 0,-23.060575 0,-23.060575 -1.01184,-0.50681 -1.26477,-1.52048 -1.26477,-2.02729 0,25.087865 0,25.087865 0,25.087865 0,1.7739 1.01184,3.04096 4.80621,3.04096 0.25293,0 0.50592,0 0.75885,0 z"
     fill-rule="evenodd"
     id="path616" />
  <path
     fill="#000000"
     fill-opacity="0"
     d="m 160.67164,114.83969 c 0,-25.087865 0,-25.087865 0,-25.087865 -0.25299,0.76022 -0.50592,2.2807 -3.28845,2.78754 1.01178,0.5068 1.77069,1.52047 1.77069,2.78753 0,2.02732 -1.51776,3.547785 -3.28845,3.547785 -2.02368,0 -3.28846,-1.520465 -3.28846,-3.547785 0,-1.26706 0.50593,-2.28073 1.7707,-2.78753 -3.03553,-0.50684 -3.28846,-2.02732 -3.28846,-2.78754 0,25.087865 0,25.087865 0,25.087865 0,1.7739 1.01184,3.04095 4.80622,3.04095 3.79437,0 4.80621,-1.26705 4.80621,-3.04095 z"
     fill-rule="evenodd"
     id="path617" />
  <path
     stroke="#343434"
     stroke-width="1"
     stroke-miterlimit="800"
     stroke-linecap="butt"
     d="m 160.67164,114.83969 c 0,-25.087865 0,-25.087865 0,-25.087865 -0.25299,0.76022 -0.50592,2.2807 -3.28845,2.78754 1.01178,0.5068 1.77069,1.52047 1.77069,2.78753 0,2.02732 -1.51776,3.547785 -3.28845,3.547785 -2.02368,0 -3.28846,-1.520465 -3.28846,-3.547785 0,-1.26706 0.50593,-2.28073 1.7707,-2.78753 -3.03553,-0.50684 -3.28846,-2.02732 -3.28846,-2.78754 0,25.087865 0,25.087865 0,25.087865 0,1.7739 1.01184,3.04095 4.80622,3.04095 3.79437,0 4.80621,-1.26705 4.80621,-3.04095 z"
     fill-rule="evenodd"
     id="path618" />
  <path
     fill="#f7ad36"
     d="m 220.16724,114.53617 c 0,-25.087865 0,-25.087865 0,-25.087865 -0.25299,0.76022 -0.50592,2.2807 -3.28845,2.78754 1.01184,0.50683 1.77069,1.52047 1.77069,2.78753 0,2.02732 -1.51776,3.547785 -3.28845,3.547785 -2.02368,0 -3.28846,-1.520465 -3.28846,-3.547785 0,-1.26706 0.50593,-2.2807 1.7707,-2.78753 -3.03553,-0.50684 -3.28846,-2.02732 -3.28846,-2.78754 0,25.087865 0,25.087865 0,25.087865 0,1.7739 1.01184,3.04095 4.80622,3.04095 3.79437,0 4.80621,-1.26705 4.80621,-3.04095 z"
     fill-rule="evenodd"
     id="path619" />
  <path
     fill="#facf71"
     d="m 220.16724,114.53617 c 0,-25.087865 0,-25.087865 0,-25.087865 0,0.25342 -0.25055,1.26706 -0.75159,1.52048 0,23.567385 0,23.567385 0,23.567385 0,1.52048 -0.75164,3.04095 -4.25915,3.04095 0,0 0,0 0.25055,0 3.75805,0 4.76019,-1.26705 4.76019,-3.04095 z"
     fill-rule="evenodd"
     id="path620" />
  <path
     fill="#f08b37"
     d="m 216.87879,92.235835 c 1.01184,0.50684 1.77069,1.52048 1.77069,2.78754 0,1.77389 -1.01184,3.040945 -2.5296,3.547785 0,0 0.25299,0 0.50592,0 1.77075,-0.25342 2.78253,-1.520475 2.78253,-3.547785 0,-1.26706 -0.50586,-2.2807 -1.5177,-2.78754 1.5177,-0.25342 2.27661,-1.52048 2.27661,-2.53412 0,-0.25342 0,-0.25342 0,-0.25342 -0.25299,0.76023 -0.50592,2.2807 -3.28845,2.78754 z m -0.75891,25.341285 c -3.54138,-0.25342 -4.30029,-1.52048 -4.30029,-3.04096 0,-23.060545 0,-23.060545 0,-23.060545 -1.01184,-0.50684 -1.26477,-1.52048 -1.26477,-2.02732 0,25.087865 0,25.087865 0,25.087865 0,1.7739 1.01184,3.04096 4.80621,3.04096 0.25293,0 0.50592,0 0.75885,0 z"
     fill-rule="evenodd"
     id="path621" />
  <path
     fill="#000000"
     fill-opacity="0"
     d="m 220.16724,114.53617 c 0,-25.087865 0,-25.087865 0,-25.087865 -0.25299,0.76022 -0.50592,2.2807 -3.28845,2.78754 1.01184,0.50683 1.77069,1.52047 1.77069,2.78753 0,2.02732 -1.51776,3.547785 -3.28845,3.547785 -2.02368,0 -3.28846,-1.520465 -3.28846,-3.547785 0,-1.26706 0.50593,-2.2807 1.7707,-2.78753 -3.03553,-0.50684 -3.28846,-2.02732 -3.28846,-2.78754 0,25.087865 0,25.087865 0,25.087865 0,1.7739 1.01184,3.04095 4.80622,3.04095 3.79437,0 4.80621,-1.26705 4.80621,-3.04095 z"
     fill-rule="evenodd"
     id="path622" />
  <path
     stroke="#343434"
     stroke-width="1"
     stroke-miterlimit="800"
     stroke-linecap="butt"
     d="m 220.16724,114.53617 c 0,-25.087865 0,-25.087865 0,-25.087865 -0.25299,0.76022 -0.50592,2.2807 -3.28845,2.78754 1.01184,0.50683 1.77069,1.52047 1.77069,2.78753 0,2.02732 -1.51776,3.547785 -3.28845,3.547785 -2.02368,0 -3.28846,-1.520465 -3.28846,-3.547785 0,-1.26706 0.50593,-2.2807 1.7707,-2.78753 -3.03553,-0.50684 -3.28846,-2.02732 -3.28846,-2.78754 0,25.087865 0,25.087865 0,25.087865 0,1.7739 1.01184,3.04095 4.80622,3.04095 3.79437,0 4.80621,-1.26705 4.80621,-3.04095 z"
     fill-rule="evenodd"
     id="path623" />
  <path
     fill="#f7ad36"
     d="m 264.58649,117.47592 c 0,-28.837165 0,-28.837165 0,-28.837165 -0.25562,0.75888 -0.25562,2.02368 -3.32306,2.52957 1.02246,0.50592 1.78937,1.77072 1.78937,3.0355 0,1.77072 -1.53375,3.28845 -3.32306,3.28845 -1.78931,0 -3.32306,-1.51773 -3.32306,-3.28845 0,-1.26478 0.76685,-2.52958 1.78937,-3.0355 -3.06745,-0.50589 -3.06745,-1.77069 -3.32306,-2.52957 0,28.837165 0,28.837165 0,28.837165 0,1.77069 1.02246,3.03549 4.85675,3.03549 3.83429,0 4.85675,-1.2648 4.85675,-3.03549 z"
     fill-rule="evenodd"
     id="path624" />
  <path
     fill="#facf71"
     d="m 264.58649,117.47592 c 0,-28.837165 0,-28.837165 0,-28.837165 0,0.25296 -0.25049,1.01184 -0.75153,1.51776 0,27.319405 0,27.319405 0,27.319405 0,1.77069 -0.75152,3.03549 -4.2586,3.03549 0,0 0.25049,0 0.25049,0 3.75763,0 4.75964,-1.2648 4.75964,-3.03549 z"
     fill-rule="evenodd"
     id="path625" />
  <path
     fill="#f08b37"
     d="m 261.26344,91.168325 c 1.02246,0.50592 1.78937,1.77072 1.78937,3.03549 0,1.51776 -1.02252,3.03549 -2.55622,3.28845 0.25562,0 0.25562,0 0.51123,0 1.78937,0 2.81183,-1.51773 2.81183,-3.28845 0,-1.26477 -0.51123,-2.52957 -1.53375,-3.03549 1.53375,-0.25296 2.3006,-1.51773 2.3006,-2.52957 0,0 0,0 0,0 -0.25562,0.75888 -0.25562,2.02368 -3.32306,2.52957 z m -0.76685,29.343085 c -3.57867,0 -4.34552,-1.51776 -4.34552,-3.03549 0,-26.813485 0,-26.813485 0,-26.813485 -1.02246,-0.50592 -1.27807,-1.77072 -1.27807,-2.02368 0,28.837165 0,28.837165 0,28.837165 0,1.77069 1.02246,3.03549 4.85675,3.03549 0.25561,0 0.51123,0 0.76684,0 z"
     fill-rule="evenodd"
     id="path626" />
  <path
     fill="#000000"
     fill-opacity="0"
     d="m 264.58649,117.47592 c 0,-28.837165 0,-28.837165 0,-28.837165 -0.25562,0.75888 -0.25562,2.02368 -3.32306,2.52957 1.02246,0.50592 1.78937,1.77072 1.78937,3.0355 0,1.77072 -1.53375,3.28845 -3.32306,3.28845 -1.78931,0 -3.32306,-1.51773 -3.32306,-3.28845 0,-1.26478 0.76685,-2.52958 1.78937,-3.0355 -3.06745,-0.50589 -3.06745,-1.77069 -3.32306,-2.52957 0,28.837165 0,28.837165 0,28.837165 0,1.77069 1.02246,3.03549 4.85675,3.03549 3.83429,0 4.85675,-1.2648 4.85675,-3.03549 z"
     fill-rule="evenodd"
     id="path627" />
  <path
     stroke="#343434"
     stroke-width="1"
     stroke-miterlimit="800"
     stroke-linecap="butt"
     d="m 264.58649,117.47592 c 0,-28.837165 0,-28.837165 0,-28.837165 -0.25562,0.75888 -0.25562,2.02368 -3.32306,2.52957 1.02246,0.50592 1.78937,1.77072 1.78937,3.0355 0,1.77072 -1.53375,3.28845 -3.32306,3.28845 -1.78931,0 -3.32306,-1.51773 -3.32306,-3.28845 0,-1.26478 0.76685,-2.52958 1.78937,-3.0355 -3.06745,-0.50589 -3.06745,-1.77069 -3.32306,-2.52957 0,28.837165 0,28.837165 0,28.837165 0,1.77069 1.02246,3.03549 4.85675,3.03549 3.83429,0 4.85675,-1.2648 4.85675,-3.03549 z"
     fill-rule="evenodd"
     id="path628" />
  <path
     fill="#bcc4df"
     d="m 204.64989,76.939465 c -3.83942,17.8865 -24.15558,8.75568 -29.73236,3.66943 -3.45233,-3.54019 -5.62726,-7.66821 -10.50238,-9.82089 -4.23016,-2.12384 -9.42779,-4.29092 -14.12592,-5.62952 -11.33746,-3.08642 -15.95312,-8.45214 -20.82141,-18.50494 -2.85772,-6.09335 -8.90881,-10.71707 7.05854,-26.28799 15.96734,-15.5709599 22.40399,-7.70536 28.51806,0.14587 5.62097,7.34546 32.43732,19.34653 36.70471,31.62973 4.26111,11.96045 3.89399,17.90967 2.90076,24.79831 z"
     fill-rule="evenodd"
     id="path629" />
  <path
     fill="#dbdfee"
     d="m 197.91159,83.826985 c 4.73523,-4.9465 6.54987,-19.21207 0.51263,-31.41092 -6.03729,-12.19885 -17.86566,-15.79083 -25.38238,-21.28552 -7.51672,-5.49466 -12.10645,-9.56879 -13.94605,-13.03629 -1.83966,-3.46747 -7.4978,-4.52661 -8.78118,-4.26165 2.90814,0.45251 5.72131,4.28598 8.55981,9.41012 2.8385,5.12418 12.37817,15.22293 22.98633,22.30673 10.60815,7.08377 22.68286,23.26032 16.05084,38.27753 z"
     fill-rule="evenodd"
     id="path630" />
  <path
     fill="#99a8d0"
     d="m 187.07809,85.133045 c -3.71991,-0.64713 -8.26172,-2.13696 -14.86023,-10.17053 -6.7569,-7.87918 -11.90784,-7.45969 -18.56219,-9.84888 -6.81867,-2.55771 -17.19294,-5.59402 -22.26252,-18.078 -1.8623,-4.7605 -3.68231,-7.26038 -3.5783,-10.32123 0.23217,-4.82999 4.01995,-9.18137 10.1947,-15.20282 -3.29468,4.85702 -6.99799,13.72961 -1.97669,23.63007 4.69867,9.88632 20.68073,11.07113 30.67053,19.41473 9.82544,8.17508 12.08887,17.14792 20.3747,20.57666 z"
     fill-rule="evenodd"
     id="path631" />
  <path
     fill="#ffffff"
     d="m 202.13496,72.548605 c 0.53772,-5.12354 0.23352,-19.93832 -10.88599,-29.13394 2.32532,3.6456 11.28485,17.24713 10.88599,29.13394 z"
     fill-rule="evenodd"
     id="path632" />
  <path
     fill="#ffffff"
     d="m 161.37879,21.313165 c -1.69354,-3.25952 -4.03027,-6.87402 -7.68011,-7.57101"
     fill-rule="evenodd"
     id="path633" />
  <path
     fill="#000000"
     fill-opacity="0"
     d="m 204.64989,76.939465 c -3.83942,17.8865 -24.15558,8.75568 -29.73236,3.66943 -3.45233,-3.54019 -5.62726,-7.66821 -10.50238,-9.82089 -4.23016,-2.12384 -9.42779,-4.29092 -14.12592,-5.62952 -11.33746,-3.08642 -15.95312,-8.45214 -20.82141,-18.50494 -2.85772,-6.09335 -8.90881,-10.71707 7.05854,-26.28799 15.96734,-15.5709599 22.40399,-7.70536 28.51806,0.14587 5.62097,7.34546 32.43732,19.34653 36.70471,31.62973 4.26111,11.96045 3.89399,17.90967 2.90076,24.79831 z"
     fill-rule="evenodd"
     id="path634" />
  <path
     stroke="#333333"
     stroke-width="1"
     stroke-linejoin="round"
     stroke-linecap="round"
     d="m 204.64989,76.939465 c -3.83942,17.8865 -24.15558,8.75568 -29.73236,3.66943 -3.45233,-3.54019 -5.62726,-7.66821 -10.50238,-9.82089 -4.23016,-2.12384 -9.42779,-4.29092 -14.12592,-5.62952 -11.33746,-3.08642 -15.95312,-8.45214 -20.82141,-18.50494 -2.85772,-6.09335 -8.90881,-10.71707 7.05854,-26.28799 15.96734,-15.5709599 22.40399,-7.70536 28.51806,0.14587 5.62097,7.34546 32.43732,19.34653 36.70471,31.62973 4.26111,11.96045 3.89399,17.90967 2.90076,24.79831 z"
     fill-rule="evenodd"
     id="path635" />
  <path
     fill="#000000"
     fill-opacity="0"
     d="m 125.54603,137.09527 h 99.75098 v 38.7749 h -99.75098 z"
     fill-rule="evenodd"
     id="path636" />
  <path
     fill="#9cc2e5"
     d="m 125.87165,125.61432 h 98.27856 v 12.19916 h -98.27856 z"
     fill-rule="evenodd"
     id="path638" />
  <path
     stroke="#9cc2e5"
     stroke-width="1.33333"
     stroke-miterlimit="800"
     stroke-linecap="butt"
     d="m 125.87165,125.61432 h 98.27856 v 12.19916 h -98.27856 z"
     fill-rule="evenodd"
     id="path639" />
  <path
     fill="#c00000"
     d="m 24.60481,125.87417 h 98.2785 v 12.19916 h -98.2785 z"
     fill-rule="evenodd"
     id="path640" />
  <path
     stroke="#c00000"
     stroke-width="1.33333"
     stroke-miterlimit="800"
     stroke-linecap="butt"
     d="m 24.60481,125.87417 h 98.2785 v 12.19916 h -98.2785 z"
     fill-rule="evenodd"
     id="path641" />
  <path
     fill="#c00000"
     d="m 227.28579,125.44079 h 98.2785 v 12.19916 h -98.2785 z"
     fill-rule="evenodd"
     id="path642" />
  <path
     stroke="#c00000"
     stroke-width="1.33333"
     stroke-miterlimit="800"
     stroke-linecap="butt"
     d="m 227.28579,125.44079 h 98.2785 v 12.19916 h -98.2785 z"
     fill-rule="evenodd"
     id="path643" />
  <path
     fill="#000000"
     fill-opacity="0"
     d="M 114.87293,193.25979 71.694461,135.68896"
     fill-rule="evenodd"
     id="path648" />
  <path
     stroke="#000000"
     stroke-width="2.66667"
     stroke-miterlimit="800"
     stroke-linecap="butt"
     d="M 114.87293,193.25979 77.758431,143.77429"
     fill-rule="evenodd"
     id="path649" />
  <path
     fill="#000000"
     stroke="#000000"
     stroke-width="2.66667"
     stroke-linecap="butt"
     d="m 72.494451,136.75564 c 1.93811,-1.45361 4.68768,-1.06085 6.14136,0.87729 1.45361,1.93817 1.06079,4.68771 -0.87732,6.14136 -1.93817,1.45361 -4.68775,1.06082 -6.14136,-0.87732 -1.45361,-1.93814 -1.06085,-4.68772 0.87732,-6.14133 z"
     fill-rule="nonzero"
     id="path650" />
  <path
     fill="#000000"
     fill-opacity="0"
     d="M 94.176591,178.27657 H 252.40669 V 217.0515 H 94.176591 Z"
     fill-rule="evenodd"
     id="path651" />
  <path
     fill="#000000"
     fill-opacity="0"
     d="m 231.71019,193.25979 43.17847,-57.57083"
     fill-rule="evenodd"
     id="path653" />
  <path
     stroke="#000000"
     stroke-width="2.66667"
     stroke-miterlimit="800"
     stroke-linecap="butt"
     d="m 231.71019,193.25979 37.11438,-49.4855"
     fill-rule="evenodd"
     id="path654" />
  <path
     fill="#000000"
     stroke="#000000"
     stroke-width="2.66667"
     stroke-linecap="butt"
     d="m 274.08869,136.75564 c 1.93811,1.45361 2.33087,4.20319 0.87726,6.14133 -1.45362,1.93814 -4.20319,2.33093 -6.1413,0.87732 -1.93817,-1.45365 -2.33093,-4.20319 -0.87732,-6.14136 1.45362,-1.93814 4.20319,-2.3309 6.14136,-0.87729 z"
     fill-rule="nonzero"
     id="path655" />
  <path
     fill="#000000"
     fill-opacity="0"
     d="M 810.91517,114.27368 H 1223.6396 V 220.91936 H 810.91517 Z"
     fill-rule="evenodd"
     id="path656" />
  <text
     xml:space="preserve"
     style="font-weight:bold;font-size:24px;line-height:1;font-family:'Liberation Sans';-inkscape-font-specification:'Liberation Sans Bold';writing-mode:lr-tb;direction:ltr;fill:#c00000;fill-opacity:1;stroke-width:0.755906"
     x="139.14525"
     y="209.54008"
     id="text1"><tspan
       sodipodi:role="line"
       id="tspan1"
       x="139.14525"
       y="209.54008">Flanks</tspan></text>
  <text
     xml:space="preserve"
     style="font-weight:bold;font-size:24px;line-height:1;font-family:'Liberation Sans';-inkscape-font-specification:'Liberation Sans Bold';writing-mode:lr-tb;direction:ltr;fill:#9cc2e5;fill-opacity:1;stroke-width:0.755906"
     x="143.51068"
     y="165.88591"
     id="text2"><tspan
       sodipodi:role="line"
       id="tspan2"
       x="143.51068"
       y="165.88591">TFBS</tspan></text>
</svg>
