<?xml version="1.0" encoding="utf-8" standalone="no"?>
<!DOCTYPE svg PUBLIC "-//W3C//DTD SVG 1.1//EN"
  "http://www.w3.org/Graphics/SVG/1.1/DTD/svg11.dtd">
<svg xmlns:xlink="http://www.w3.org/1999/xlink" width="323.865838pt" height="237.6pt" viewBox="0 0 323.865838 237.6" xmlns="http://www.w3.org/2000/svg" version="1.1">
 <metadata>
  <rdf:RDF xmlns:dc="http://purl.org/dc/elements/1.1/" xmlns:cc="http://creativecommons.org/ns#" xmlns:rdf="http://www.w3.org/1999/02/22-rdf-syntax-ns#">
   <cc:Work>
    <dc:type rdf:resource="http://purl.org/dc/dcmitype/StillImage"/>
    <dc:date>2026-06-18T17:06:03.033115</dc:date>
    <dc:format>image/svg+xml</dc:format>
    <dc:creator>
     <cc:Agent>
      <dc:title>Matplotlib v3.11.0, https://matplotlib.org/</dc:title>
     </cc:Agent>
    </dc:creator>
   </cc:Work>
  </rdf:RDF>
 </metadata>
 <defs>
  <style type="text/css">*{stroke-linejoin: round; stroke-linecap: butt}</style>
 </defs>
 <g id="figure_1">
  <g id="patch_1">
   <path d="M 0 237.6 
L 323.865838 237.6 
L 323.865838 0 
L 0 0 
z
" style="fill: #ffffff"/>
  </g>
  <g id="axes_1">
   <g id="patch_2">
    <path d="M 1.44 236.16 
L 263.587335 236.16 
L 263.587335 1.44 
L 1.44 1.44 
z
" style="fill: #ffffff"/>
   </g>
   <g id="line2d_1">
    <path d="M 240.547902 24.479433 
L 24.479433 126.516539 
" clip-path="url(#pb4c4127e0a)" style="fill: none; stroke: #ffffff; stroke-opacity: 0.5; stroke-linecap: round"/>
   </g>
   <g id="line2d_2">
    <path d="M 240.547902 24.479433 
L 185.51894 162.07109 
" clip-path="url(#pb4c4127e0a)" style="fill: none; stroke: #ffffff; stroke-opacity: 0.5; stroke-linecap: round"/>
   </g>
   <g id="line2d_3">
    <path d="M 240.547902 24.479433 
L 81.407921 213.120567 
" clip-path="url(#pb4c4127e0a)" style="fill: none; stroke: #ffffff; stroke-opacity: 0.5; stroke-linecap: round"/>
   </g>
   <g id="line2d_4">
    <path d="M 240.547902 24.479433 
L 191.769775 110.965736 
" clip-path="url(#pb4c4127e0a)" style="fill: none; stroke: #7c2ca1; stroke-opacity: 0.606162; stroke-width: 2.791788; stroke-linecap: round"/>
   </g>
   <g id="line2d_5">
    <path d="M 24.479433 126.516539 
L 191.769775 110.965736 
" clip-path="url(#pb4c4127e0a)" style="fill: none; stroke: #ffffff; stroke-opacity: 0.5; stroke-linecap: round"/>
   </g>
   <g id="line2d_6">
    <path d="M 24.479433 126.516539 
L 185.51894 162.07109 
" clip-path="url(#pb4c4127e0a)" style="fill: none; stroke: #ffffff; stroke-opacity: 0.5; stroke-linecap: round"/>
   </g>
   <g id="line2d_7">
    <path d="M 24.479433 126.516539 
L 81.407921 213.120567 
" clip-path="url(#pb4c4127e0a)" style="fill: none; stroke: #51309b; stroke-opacity: 0.526284; stroke-width: 1.408986; stroke-linecap: round"/>
   </g>
   <g id="line2d_8">
    <path d="M 191.769775 110.965736 
L 185.51894 162.07109 
" clip-path="url(#pb4c4127e0a)" style="fill: none; stroke: #d64964; stroke-opacity: 0.80851; stroke-width: 7.073067; stroke-linecap: round"/>
   </g>
   <g id="line2d_9">
    <path d="M 191.769775 110.965736 
L 81.407921 213.120567 
" clip-path="url(#pb4c4127e0a)" style="fill: none; stroke: #ffffff; stroke-opacity: 0.5; stroke-linecap: round"/>
   </g>
   <g id="line2d_10">
    <path d="M 81.407921 213.120567 
L 185.51894 162.07109 
" clip-path="url(#pb4c4127e0a)" style="fill: none; stroke: #463199; stroke-opacity: 0.505141; stroke-width: 1.074838; stroke-linecap: round"/>
   </g>
   <g id="matplotlib.axis_1"/>
   <g id="matplotlib.axis_2"/>
   <g id="line2d_11">
    <defs>
     <path id="m7014d7f61b" d="M 0 19.039433 
C 5.049317 19.039433 9.892506 17.033318 13.462912 13.462912 
C 17.033318 9.892506 19.039433 5.049317 19.039433 0 
C 19.039433 -5.049317 17.033318 -9.892506 13.462912 -13.462912 
C 9.892506 -17.033318 5.049317 -19.039433 0 -19.039433 
C -5.049317 -19.039433 -9.892506 -17.033318 -13.462912 -13.462912 
C -17.033318 -9.892506 -19.039433 -5.049317 -19.039433 0 
C -19.039433 5.049317 -17.033318 9.892506 -13.462912 13.462912 
C -9.892506 17.033318 -5.049317 19.039433 0 19.039433 
z
" style="stroke: #000000; stroke-width: 0.7"/>
    </defs>
    <g clip-path="url(#pb4c4127e0a)">
     <use xlink:href="#m7014d7f61b" x="240.547902" y="24.479433" style="fill: #1581bf; stroke: #000000; stroke-width: 0.7"/>
    </g>
   </g>
   <g id="line2d_12">
    <defs>
     <path id="m0bb744012b" d="M 0 19.039433 
C 5.049317 19.039433 9.892506 17.033318 13.462912 13.462912 
C 17.033318 9.892506 19.039433 5.049317 19.039433 0 
C 19.039433 -5.049317 17.033318 -9.892506 13.462912 -13.462912 
C 9.892506 -17.033318 5.049317 -19.039433 0 -19.039433 
C -5.049317 -19.039433 -9.892506 -17.033318 -13.462912 -13.462912 
C -17.033318 -9.892506 -19.039433 -5.049317 -19.039433 0 
C -19.039433 5.049317 -17.033318 9.892506 -13.462912 13.462912 
C -9.892506 17.033318 -5.049317 19.039433 0 19.039433 
z
" style="stroke: #000000; stroke-width: 0.7"/>
    </defs>
    <g clip-path="url(#pb4c4127e0a)">
     <use xlink:href="#m0bb744012b" x="24.479433" y="126.516539" style="fill: #8cc0eb; stroke: #000000; stroke-width: 0.7"/>
    </g>
   </g>
   <g id="line2d_13">
    <defs>
     <path id="m98e16b189c" d="M 0 19.039433 
C 5.049317 19.039433 9.892506 17.033318 13.462912 13.462912 
C 17.033318 9.892506 19.039433 5.049317 19.039433 0 
C 19.039433 -5.049317 17.033318 -9.892506 13.462912 -13.462912 
C 9.892506 -17.033318 5.049317 -19.039433 0 -19.039433 
C -5.049317 -19.039433 -9.892506 -17.033318 -13.462912 -13.462912 
C -17.033318 -9.892506 -19.039433 -5.049317 -19.039433 0 
C -19.039433 5.049317 -17.033318 9.892506 -13.462912 13.462912 
C -9.892506 17.033318 -5.049317 19.039433 0 19.039433 
z
" style="stroke: #000000; stroke-width: 0.7"/>
    </defs>
    <g clip-path="url(#pb4c4127e0a)">
     <use xlink:href="#m98e16b189c" x="191.769775" y="110.965736" style="fill: #54c392; stroke: #000000; stroke-width: 0.7"/>
    </g>
   </g>
   <g id="line2d_14">
    <defs>
     <path id="m1b68c3f436" d="M 0 19.039433 
C 5.049317 19.039433 9.892506 17.033318 13.462912 13.462912 
C 17.033318 9.892506 19.039433 5.049317 19.039433 0 
C 19.039433 -5.049317 17.033318 -9.892506 13.462912 -13.462912 
C 9.892506 -17.033318 5.049317 -19.039433 0 -19.039433 
C -5.049317 -19.039433 -9.892506 -17.033318 -13.462912 -13.462912 
C -17.033318 -9.892506 -19.039433 -5.049317 -19.039433 0 
C -19.039433 5.049317 -17.033318 9.892506 -13.462912 13.462912 
C -9.892506 17.033318 -5.049317 19.039433 0 19.039433 
z
" style="stroke: #000000; stroke-width: 0.7"/>
    </defs>
    <g clip-path="url(#pb4c4127e0a)">
     <use xlink:href="#m1b68c3f436" x="81.407921" y="213.120567" style="fill: #ecf4e8; stroke: #000000; stroke-width: 0.7"/>
    </g>
   </g>
   <g id="line2d_15">
    <defs>
     <path id="m3adfe89036" d="M 0 19.039433 
C 5.049317 19.039433 9.892506 17.033318 13.462912 13.462912 
C 17.033318 9.892506 19.039433 5.049317 19.039433 0 
C 19.039433 -5.049317 17.033318 -9.892506 13.462912 -13.462912 
C 9.892506 -17.033318 5.049317 -19.039433 0 -19.039433 
C -5.049317 -19.039433 -9.892506 -17.033318 -13.462912 -13.462912 
C -17.033318 -9.892506 -19.039433 -5.049317 -19.039433 0 
C -19.039433 5.049317 -17.033318 9.892506 -13.462912 13.462912 
C -9.892506 17.033318 -5.049317 19.039433 0 19.039433 
z
" style="stroke: #000000; stroke-width: 0.7"/>
    </defs>
    <g clip-path="url(#pb4c4127e0a)">
     <use xlink:href="#m3adfe89036" x="185.51894" y="162.07109" style="fill: #cbf3bb; stroke: #000000; stroke-width: 0.7"/>
    </g>
   </g>
   <g id="patch_3">
    <path d="M 1.44 236.16 
L 1.44 1.44 
" style="fill: none; stroke: #000000; stroke-width: 0.8; stroke-linejoin: miter; stroke-linecap: square"/>
   </g>
   <g id="patch_4">
    <path d="M 263.587335 236.16 
L 263.587335 1.44 
" style="fill: none; stroke: #000000; stroke-width: 0.8; stroke-linejoin: miter; stroke-linecap: square"/>
   </g>
   <g id="patch_5">
    <path d="M 1.44 236.16 
L 263.587335 236.16 
" style="fill: none; stroke: #000000; stroke-width: 0.8; stroke-linejoin: miter; stroke-linecap: square"/>
   </g>
   <g id="patch_6">
    <path d="M 1.44 1.44 
L 263.587335 1.44 
" style="fill: none; stroke: #000000; stroke-width: 0.8; stroke-linejoin: miter; stroke-linecap: square"/>
   </g>
   <g id="text_1">
    <g clip-path="url(#pb4c4127e0a)">
     <text style="font-weight: 700; font-size: 11px; font-family: 'Arial', 'Helvetica', 'DejaVu Sans', sans-serif; text-anchor: middle" x="240.547902" y="27.326112" transform="rotate(-0 240.547902 27.326112)">PWM-1</text>
    </g>
   </g>
   <g id="text_2">
    <g clip-path="url(#pb4c4127e0a)">
     <text style="font-weight: 700; font-size: 11px; font-family: 'Arial', 'Helvetica', 'DejaVu Sans', sans-serif; text-anchor: middle" x="24.479433" y="129.363219" transform="rotate(-0 24.479433 129.363219)">PWM-2</text>
    </g>
   </g>
   <g id="text_3">
    <g clip-path="url(#pb4c4127e0a)">
     <text style="font-weight: 700; font-size: 11px; font-family: 'Arial', 'Helvetica', 'DejaVu Sans', sans-serif; text-anchor: middle" x="191.769775" y="113.812416" transform="rotate(-0 191.769775 113.812416)">BaMM</text>
    </g>
   </g>
   <g id="text_4">
    <g clip-path="url(#pb4c4127e0a)">
     <text style="font-weight: 700; font-size: 11px; font-family: 'Arial', 'Helvetica', 'DejaVu Sans', sans-serif; text-anchor: middle" x="81.407921" y="215.967247" transform="rotate(-0 81.407921 215.967247)">Dimont</text>
    </g>
   </g>
   <g id="text_5">
    <g clip-path="url(#pb4c4127e0a)">
     <text style="font-weight: 700; font-size: 11px; font-family: 'Arial', 'Helvetica', 'DejaVu Sans', sans-serif; text-anchor: middle" x="185.51894" y="164.917769" transform="rotate(-0 185.51894 164.917769)">Slim</text>
    </g>
   </g>
   <g id="text_6">
    <g id="patch_7">
     <path d="M 213.882003 78.768022 
L 233.34294 78.768022 
Q 235.14294 78.768022 235.14294 76.968022 
L 235.14294 67.583256 
Q 235.14294 65.783256 233.34294 65.783256 
L 213.882003 65.783256 
Q 212.082003 65.783256 212.082003 67.583256 
L 212.082003 76.968022 
Q 212.082003 78.768022 213.882003 78.768022 
z
" style="fill: #ffffff; opacity: 0.25"/>
    </g>
    <text style="font-size: 10px; font-family: 'Arial', 'Helvetica', 'DejaVu Sans', sans-serif; text-anchor: middle; opacity: 0.95" x="223.612471" y="74.86353" transform="rotate(-0 223.612471 74.86353)">0.77</text>
   </g>
   <g id="text_7">
    <g id="patch_8">
     <path d="M 36.079928 181.389465 
L 55.540866 181.389465 
Q 57.340866 181.389465 57.340866 179.589465 
L 57.340866 170.2047 
Q 57.340866 168.4047 55.540866 168.4047 
L 36.079928 168.4047 
Q 34.279928 168.4047 34.279928 170.2047 
L 34.279928 179.589465 
Q 34.279928 181.389465 36.079928 181.389465 
z
" style="fill: #ffffff; opacity: 0.25"/>
    </g>
    <text style="font-size: 10px; font-family: 'Arial', 'Helvetica', 'DejaVu Sans', sans-serif; text-anchor: middle; opacity: 0.95" x="45.810397" y="177.484973" transform="rotate(-0 45.810397 177.484973)">0.71</text>
   </g>
   <g id="text_8">
    <g id="patch_9">
     <path d="M 187.487447 144.146564 
L 206.948385 144.146564 
Q 208.748385 144.146564 208.748385 142.346564 
L 208.748385 132.961799 
Q 208.748385 131.161799 206.948385 131.161799 
L 187.487447 131.161799 
Q 185.687447 131.161799 185.687447 132.961799 
L 185.687447 142.346564 
Q 185.687447 144.146564 187.487447 144.146564 
z
" style="fill: #ffffff; opacity: 0.25"/>
    </g>
    <text style="font-size: 10px; font-family: 'Arial', 'Helvetica', 'DejaVu Sans', sans-serif; text-anchor: middle; opacity: 0.95" x="197.217916" y="140.242072" transform="rotate(-0 197.217916 140.242072)">0.89</text>
   </g>
   <g id="text_9">
    <g id="patch_10">
     <path d="M 127.416657 202.224873 
L 146.877595 202.224873 
Q 148.677595 202.224873 148.677595 200.424873 
L 148.677595 191.040107 
Q 148.677595 189.240107 146.877595 189.240107 
L 127.416657 189.240107 
Q 125.616657 189.240107 125.616657 191.040107 
L 125.616657 200.424873 
Q 125.616657 202.224873 127.416657 202.224873 
z
" style="fill: #ffffff; opacity: 0.25"/>
    </g>
    <text style="font-size: 10px; font-family: 'Arial', 'Helvetica', 'DejaVu Sans', sans-serif; text-anchor: middle; opacity: 0.95" x="137.147126" y="198.32038" transform="rotate(-0 137.147126 198.32038)">0.66</text>
   </g>
  </g>
  <g id="axes_2">
   <g id="patch_11">
    <path d="M 269.135427 215.891606 
L 278.844588 215.891606 
L 278.844588 21.708394 
L 269.135427 21.708394 
z
" style="fill: #ffffff"/>
   </g>
   <g id="QuadMesh_1">
    <path d="M 269.135427 215.891606 
L 278.844588 215.891606 
L 278.844588 215.133077 
L 269.135427 215.133077 
L 269.135427 215.891606 
" clip-path="url(#p39628a6285)" style="fill: #ffffff"/>
    <path d="M 269.135427 215.133077 
L 278.844588 215.133077 
L 278.844588 214.374549 
L 269.135427 214.374549 
L 269.135427 215.133077 
" clip-path="url(#p39628a6285)" style="fill: #ffffff"/>
    <path d="M 269.135427 214.374549 
L 278.844588 214.374549 
L 278.844588 213.616021 
L 269.135427 213.616021 
L 269.135427 214.374549 
" clip-path="url(#p39628a6285)" style="fill: #ffffff"/>
    <path d="M 269.135427 213.616021 
L 278.844588 213.616021 
L 278.844588 212.857493 
L 269.135427 212.857493 
L 269.135427 213.616021 
" clip-path="url(#p39628a6285)" style="fill: #ffffff"/>
    <path d="M 269.135427 212.857493 
L 278.844588 212.857493 
L 278.844588 212.098965 
L 269.135427 212.098965 
L 269.135427 212.857493 
" clip-path="url(#p39628a6285)" style="fill: #ffffff"/>
    <path d="M 269.135427 212.098965 
L 278.844588 212.098965 
L 278.844588 211.340437 
L 269.135427 211.340437 
L 269.135427 212.098965 
" clip-path="url(#p39628a6285)" style="fill: #ffffff"/>
    <path d="M 269.135427 211.340437 
L 278.844588 211.340437 
L 278.844588 210.581908 
L 269.135427 210.581908 
L 269.135427 211.340437 
" clip-path="url(#p39628a6285)" style="fill: #ffffff"/>
    <path d="M 269.135427 210.581908 
L 278.844588 210.581908 
L 278.844588 209.82338 
L 269.135427 209.82338 
L 269.135427 210.581908 
" clip-path="url(#p39628a6285)" style="fill: #ffffff"/>
    <path d="M 269.135427 209.82338 
L 278.844588 209.82338 
L 278.844588 209.064852 
L 269.135427 209.064852 
L 269.135427 209.82338 
" clip-path="url(#p39628a6285)" style="fill: #ffffff"/>
    <path d="M 269.135427 209.064852 
L 278.844588 209.064852 
L 278.844588 208.306324 
L 269.135427 208.306324 
L 269.135427 209.064852 
" clip-path="url(#p39628a6285)" style="fill: #ffffff"/>
    <path d="M 269.135427 208.306324 
L 278.844588 208.306324 
L 278.844588 207.547796 
L 269.135427 207.547796 
L 269.135427 208.306324 
" clip-path="url(#p39628a6285)" style="fill: #ffffff"/>
    <path d="M 269.135427 207.547796 
L 278.844588 207.547796 
L 278.844588 206.789268 
L 269.135427 206.789268 
L 269.135427 207.547796 
" clip-path="url(#p39628a6285)" style="fill: #ffffff"/>
    <path d="M 269.135427 206.789268 
L 278.844588 206.789268 
L 278.844588 206.030739 
L 269.135427 206.030739 
L 269.135427 206.789268 
" clip-path="url(#p39628a6285)" style="fill: #ffffff"/>
    <path d="M 269.135427 206.030739 
L 278.844588 206.030739 
L 278.844588 205.272211 
L 269.135427 205.272211 
L 269.135427 206.030739 
" clip-path="url(#p39628a6285)" style="fill: #443199"/>
    <path d="M 269.135427 205.272211 
L 278.844588 205.272211 
L 278.844588 204.513683 
L 269.135427 204.513683 
L 269.135427 205.272211 
" clip-path="url(#p39628a6285)" style="fill: #453199"/>
    <path d="M 269.135427 204.513683 
L 278.844588 204.513683 
L 278.844588 203.755155 
L 269.135427 203.755155 
L 269.135427 204.513683 
" clip-path="url(#p39628a6285)" style="fill: #463199"/>
    <path d="M 269.135427 203.755155 
L 278.844588 203.755155 
L 278.844588 202.996627 
L 269.135427 202.996627 
L 269.135427 203.755155 
" clip-path="url(#p39628a6285)" style="fill: #48319a"/>
    <path d="M 269.135427 202.996627 
L 278.844588 202.996627 
L 278.844588 202.238099 
L 269.135427 202.238099 
L 269.135427 202.996627 
" clip-path="url(#p39628a6285)" style="fill: #49319a"/>
    <path d="M 269.135427 202.238099 
L 278.844588 202.238099 
L 278.844588 201.47957 
L 269.135427 201.47957 
L 269.135427 202.238099 
" clip-path="url(#p39628a6285)" style="fill: #4a309a"/>
    <path d="M 269.135427 201.47957 
L 278.844588 201.47957 
L 278.844588 200.721042 
L 269.135427 200.721042 
L 269.135427 201.47957 
" clip-path="url(#p39628a6285)" style="fill: #4b309a"/>
    <path d="M 269.135427 200.721042 
L 278.844588 200.721042 
L 278.844588 199.962514 
L 269.135427 199.962514 
L 269.135427 200.721042 
" clip-path="url(#p39628a6285)" style="fill: #4c309a"/>
    <path d="M 269.135427 199.962514 
L 278.844588 199.962514 
L 278.844588 199.203986 
L 269.135427 199.203986 
L 269.135427 199.962514 
" clip-path="url(#p39628a6285)" style="fill: #4d309b"/>
    <path d="M 269.135427 199.203986 
L 278.844588 199.203986 
L 278.844588 198.445458 
L 269.135427 198.445458 
L 269.135427 199.203986 
" clip-path="url(#p39628a6285)" style="fill: #4e309b"/>
    <path d="M 269.135427 198.445458 
L 278.844588 198.445458 
L 278.844588 197.68693 
L 269.135427 197.68693 
L 269.135427 198.445458 
" clip-path="url(#p39628a6285)" style="fill: #4f309b"/>
    <path d="M 269.135427 197.68693 
L 278.844588 197.68693 
L 278.844588 196.928401 
L 269.135427 196.928401 
L 269.135427 197.68693 
" clip-path="url(#p39628a6285)" style="fill: #50309b"/>
    <path d="M 269.135427 196.928401 
L 278.844588 196.928401 
L 278.844588 196.169873 
L 269.135427 196.169873 
L 269.135427 196.928401 
" clip-path="url(#p39628a6285)" style="fill: #51309b"/>
    <path d="M 269.135427 196.169873 
L 278.844588 196.169873 
L 278.844588 195.411345 
L 269.135427 195.411345 
L 269.135427 196.169873 
" clip-path="url(#p39628a6285)" style="fill: #52309b"/>
    <path d="M 269.135427 195.411345 
L 278.844588 195.411345 
L 278.844588 194.652817 
L 269.135427 194.652817 
L 269.135427 195.411345 
" clip-path="url(#p39628a6285)" style="fill: #54309c"/>
    <path d="M 269.135427 194.652817 
L 278.844588 194.652817 
L 278.844588 193.894289 
L 269.135427 193.894289 
L 269.135427 194.652817 
" clip-path="url(#p39628a6285)" style="fill: #552f9c"/>
    <path d="M 269.135427 193.894289 
L 278.844588 193.894289 
L 278.844588 193.135761 
L 269.135427 193.135761 
L 269.135427 193.894289 
" clip-path="url(#p39628a6285)" style="fill: #562f9c"/>
    <path d="M 269.135427 193.135761 
L 278.844588 193.135761 
L 278.844588 192.377232 
L 269.135427 192.377232 
L 269.135427 193.135761 
" clip-path="url(#p39628a6285)" style="fill: #572f9c"/>
    <path d="M 269.135427 192.377232 
L 278.844588 192.377232 
L 278.844588 191.618704 
L 269.135427 191.618704 
L 269.135427 192.377232 
" clip-path="url(#p39628a6285)" style="fill: #582f9c"/>
    <path d="M 269.135427 191.618704 
L 278.844588 191.618704 
L 278.844588 190.860176 
L 269.135427 190.860176 
L 269.135427 191.618704 
" clip-path="url(#p39628a6285)" style="fill: #592f9d"/>
    <path d="M 269.135427 190.860176 
L 278.844588 190.860176 
L 278.844588 190.101648 
L 269.135427 190.101648 
L 269.135427 190.860176 
" clip-path="url(#p39628a6285)" style="fill: #5a2f9d"/>
    <path d="M 269.135427 190.101648 
L 278.844588 190.101648 
L 278.844588 189.34312 
L 269.135427 189.34312 
L 269.135427 190.101648 
" clip-path="url(#p39628a6285)" style="fill: #5b2f9d"/>
    <path d="M 269.135427 189.34312 
L 278.844588 189.34312 
L 278.844588 188.584592 
L 269.135427 188.584592 
L 269.135427 189.34312 
" clip-path="url(#p39628a6285)" style="fill: #5c2f9d"/>
    <path d="M 269.135427 188.584592 
L 278.844588 188.584592 
L 278.844588 187.826063 
L 269.135427 187.826063 
L 269.135427 188.584592 
" clip-path="url(#p39628a6285)" style="fill: #5d2f9d"/>
    <path d="M 269.135427 187.826063 
L 278.844588 187.826063 
L 278.844588 187.067535 
L 269.135427 187.067535 
L 269.135427 187.826063 
" clip-path="url(#p39628a6285)" style="fill: #5f2e9e"/>
    <path d="M 269.135427 187.067535 
L 278.844588 187.067535 
L 278.844588 186.309007 
L 269.135427 186.309007 
L 269.135427 187.067535 
" clip-path="url(#p39628a6285)" style="fill: #602e9e"/>
    <path d="M 269.135427 186.309007 
L 278.844588 186.309007 
L 278.844588 185.550479 
L 269.135427 185.550479 
L 269.135427 186.309007 
" clip-path="url(#p39628a6285)" style="fill: #612e9e"/>
    <path d="M 269.135427 185.550479 
L 278.844588 185.550479 
L 278.844588 184.791951 
L 269.135427 184.791951 
L 269.135427 185.550479 
" clip-path="url(#p39628a6285)" style="fill: #622e9e"/>
    <path d="M 269.135427 184.791951 
L 278.844588 184.791951 
L 278.844588 184.033423 
L 269.135427 184.033423 
L 269.135427 184.791951 
" clip-path="url(#p39628a6285)" style="fill: #632e9e"/>
    <path d="M 269.135427 184.033423 
L 278.844588 184.033423 
L 278.844588 183.274894 
L 269.135427 183.274894 
L 269.135427 184.033423 
" clip-path="url(#p39628a6285)" style="fill: #642e9e"/>
    <path d="M 269.135427 183.274894 
L 278.844588 183.274894 
L 278.844588 182.516366 
L 269.135427 182.516366 
L 269.135427 183.274894 
" clip-path="url(#p39628a6285)" style="fill: #652e9f"/>
    <path d="M 269.135427 182.516366 
L 278.844588 182.516366 
L 278.844588 181.757838 
L 269.135427 181.757838 
L 269.135427 182.516366 
" clip-path="url(#p39628a6285)" style="fill: #662e9f"/>
    <path d="M 269.135427 181.757838 
L 278.844588 181.757838 
L 278.844588 180.99931 
L 269.135427 180.99931 
L 269.135427 181.757838 
" clip-path="url(#p39628a6285)" style="fill: #672e9f"/>
    <path d="M 269.135427 180.99931 
L 278.844588 180.99931 
L 278.844588 180.240782 
L 269.135427 180.240782 
L 269.135427 180.99931 
" clip-path="url(#p39628a6285)" style="fill: #682e9f"/>
    <path d="M 269.135427 180.240782 
L 278.844588 180.240782 
L 278.844588 179.482254 
L 269.135427 179.482254 
L 269.135427 180.240782 
" clip-path="url(#p39628a6285)" style="fill: #692d9f"/>
    <path d="M 269.135427 179.482254 
L 278.844588 179.482254 
L 278.844588 178.723725 
L 269.135427 178.723725 
L 269.135427 179.482254 
" clip-path="url(#p39628a6285)" style="fill: #6b2da0"/>
    <path d="M 269.135427 178.723725 
L 278.844588 178.723725 
L 278.844588 177.965197 
L 269.135427 177.965197 
L 269.135427 178.723725 
" clip-path="url(#p39628a6285)" style="fill: #6c2da0"/>
    <path d="M 269.135427 177.965197 
L 278.844588 177.965197 
L 278.844588 177.206669 
L 269.135427 177.206669 
L 269.135427 177.965197 
" clip-path="url(#p39628a6285)" style="fill: #6d2da0"/>
    <path d="M 269.135427 177.206669 
L 278.844588 177.206669 
L 278.844588 176.448141 
L 269.135427 176.448141 
L 269.135427 177.206669 
" clip-path="url(#p39628a6285)" style="fill: #6e2da0"/>
    <path d="M 269.135427 176.448141 
L 278.844588 176.448141 
L 278.844588 175.689613 
L 269.135427 175.689613 
L 269.135427 176.448141 
" clip-path="url(#p39628a6285)" style="fill: #6f2da0"/>
    <path d="M 269.135427 175.689613 
L 278.844588 175.689613 
L 278.844588 174.931085 
L 269.135427 174.931085 
L 269.135427 175.689613 
" clip-path="url(#p39628a6285)" style="fill: #702da0"/>
    <path d="M 269.135427 174.931085 
L 278.844588 174.931085 
L 278.844588 174.172556 
L 269.135427 174.172556 
L 269.135427 174.931085 
" clip-path="url(#p39628a6285)" style="fill: #712da1"/>
    <path d="M 269.135427 174.172556 
L 278.844588 174.172556 
L 278.844588 173.414028 
L 269.135427 173.414028 
L 269.135427 174.172556 
" clip-path="url(#p39628a6285)" style="fill: #722da1"/>
    <path d="M 269.135427 173.414028 
L 278.844588 173.414028 
L 278.844588 172.6555 
L 269.135427 172.6555 
L 269.135427 173.414028 
" clip-path="url(#p39628a6285)" style="fill: #732da1"/>
    <path d="M 269.135427 172.6555 
L 278.844588 172.6555 
L 278.844588 171.896972 
L 269.135427 171.896972 
L 269.135427 172.6555 
" clip-path="url(#p39628a6285)" style="fill: #742ca1"/>
    <path d="M 269.135427 171.896972 
L 278.844588 171.896972 
L 278.844588 171.138444 
L 269.135427 171.138444 
L 269.135427 171.896972 
" clip-path="url(#p39628a6285)" style="fill: #752ca1"/>
    <path d="M 269.135427 171.138444 
L 278.844588 171.138444 
L 278.844588 170.379915 
L 269.135427 170.379915 
L 269.135427 171.138444 
" clip-path="url(#p39628a6285)" style="fill: #772ca2"/>
    <path d="M 269.135427 170.379915 
L 278.844588 170.379915 
L 278.844588 169.621387 
L 269.135427 169.621387 
L 269.135427 170.379915 
" clip-path="url(#p39628a6285)" style="fill: #782ca2"/>
    <path d="M 269.135427 169.621387 
L 278.844588 169.621387 
L 278.844588 168.862859 
L 269.135427 168.862859 
L 269.135427 169.621387 
" clip-path="url(#p39628a6285)" style="fill: #792ca2"/>
    <path d="M 269.135427 168.862859 
L 278.844588 168.862859 
L 278.844588 168.104331 
L 269.135427 168.104331 
L 269.135427 168.862859 
" clip-path="url(#p39628a6285)" style="fill: #7a2ca2"/>
    <path d="M 269.135427 168.104331 
L 278.844588 168.104331 
L 278.844588 167.345803 
L 269.135427 167.345803 
L 269.135427 168.104331 
" clip-path="url(#p39628a6285)" style="fill: #7b2ca1"/>
    <path d="M 269.135427 167.345803 
L 278.844588 167.345803 
L 278.844588 166.587275 
L 269.135427 166.587275 
L 269.135427 167.345803 
" clip-path="url(#p39628a6285)" style="fill: #7c2ca1"/>
    <path d="M 269.135427 166.587275 
L 278.844588 166.587275 
L 278.844588 165.828746 
L 269.135427 165.828746 
L 269.135427 166.587275 
" clip-path="url(#p39628a6285)" style="fill: #7e2ca0"/>
    <path d="M 269.135427 165.828746 
L 278.844588 165.828746 
L 278.844588 165.070218 
L 269.135427 165.070218 
L 269.135427 165.828746 
" clip-path="url(#p39628a6285)" style="fill: #7f2da0"/>
    <path d="M 269.135427 165.070218 
L 278.844588 165.070218 
L 278.844588 164.31169 
L 269.135427 164.31169 
L 269.135427 165.070218 
" clip-path="url(#p39628a6285)" style="fill: #802d9f"/>
    <path d="M 269.135427 164.31169 
L 278.844588 164.31169 
L 278.844588 163.553162 
L 269.135427 163.553162 
L 269.135427 164.31169 
" clip-path="url(#p39628a6285)" style="fill: #812d9f"/>
    <path d="M 269.135427 163.553162 
L 278.844588 163.553162 
L 278.844588 162.794634 
L 269.135427 162.794634 
L 269.135427 163.553162 
" clip-path="url(#p39628a6285)" style="fill: #822d9e"/>
    <path d="M 269.135427 162.794634 
L 278.844588 162.794634 
L 278.844588 162.036106 
L 269.135427 162.036106 
L 269.135427 162.794634 
" clip-path="url(#p39628a6285)" style="fill: #832d9d"/>
    <path d="M 269.135427 162.036106 
L 278.844588 162.036106 
L 278.844588 161.277577 
L 269.135427 161.277577 
L 269.135427 162.036106 
" clip-path="url(#p39628a6285)" style="fill: #852d9d"/>
    <path d="M 269.135427 161.277577 
L 278.844588 161.277577 
L 278.844588 160.519049 
L 269.135427 160.519049 
L 269.135427 161.277577 
" clip-path="url(#p39628a6285)" style="fill: #862d9c"/>
    <path d="M 269.135427 160.519049 
L 278.844588 160.519049 
L 278.844588 159.760521 
L 269.135427 159.760521 
L 269.135427 160.519049 
" clip-path="url(#p39628a6285)" style="fill: #872d9c"/>
    <path d="M 269.135427 159.760521 
L 278.844588 159.760521 
L 278.844588 159.001993 
L 269.135427 159.001993 
L 269.135427 159.760521 
" clip-path="url(#p39628a6285)" style="fill: #882d9b"/>
    <path d="M 269.135427 159.001993 
L 278.844588 159.001993 
L 278.844588 158.243465 
L 269.135427 158.243465 
L 269.135427 159.001993 
" clip-path="url(#p39628a6285)" style="fill: #892e9b"/>
    <path d="M 269.135427 158.243465 
L 278.844588 158.243465 
L 278.844588 157.484937 
L 269.135427 157.484937 
L 269.135427 158.243465 
" clip-path="url(#p39628a6285)" style="fill: #8b2e9a"/>
    <path d="M 269.135427 157.484937 
L 278.844588 157.484937 
L 278.844588 156.726408 
L 269.135427 156.726408 
L 269.135427 157.484937 
" clip-path="url(#p39628a6285)" style="fill: #8c2e9a"/>
    <path d="M 269.135427 156.726408 
L 278.844588 156.726408 
L 278.844588 155.96788 
L 269.135427 155.96788 
L 269.135427 156.726408 
" clip-path="url(#p39628a6285)" style="fill: #8d2e99"/>
    <path d="M 269.135427 155.96788 
L 278.844588 155.96788 
L 278.844588 155.209352 
L 269.135427 155.209352 
L 269.135427 155.96788 
" clip-path="url(#p39628a6285)" style="fill: #8e2e99"/>
    <path d="M 269.135427 155.209352 
L 278.844588 155.209352 
L 278.844588 154.450824 
L 269.135427 154.450824 
L 269.135427 155.209352 
" clip-path="url(#p39628a6285)" style="fill: #8f2e98"/>
    <path d="M 269.135427 154.450824 
L 278.844588 154.450824 
L 278.844588 153.692296 
L 269.135427 153.692296 
L 269.135427 154.450824 
" clip-path="url(#p39628a6285)" style="fill: #912e98"/>
    <path d="M 269.135427 153.692296 
L 278.844588 153.692296 
L 278.844588 152.933768 
L 269.135427 152.933768 
L 269.135427 153.692296 
" clip-path="url(#p39628a6285)" style="fill: #922e97"/>
    <path d="M 269.135427 152.933768 
L 278.844588 152.933768 
L 278.844588 152.175239 
L 269.135427 152.175239 
L 269.135427 152.933768 
" clip-path="url(#p39628a6285)" style="fill: #932f97"/>
    <path d="M 269.135427 152.175239 
L 278.844588 152.175239 
L 278.844588 151.416711 
L 269.135427 151.416711 
L 269.135427 152.175239 
" clip-path="url(#p39628a6285)" style="fill: #942f96"/>
    <path d="M 269.135427 151.416711 
L 278.844588 151.416711 
L 278.844588 150.658183 
L 269.135427 150.658183 
L 269.135427 151.416711 
" clip-path="url(#p39628a6285)" style="fill: #952f96"/>
    <path d="M 269.135427 150.658183 
L 278.844588 150.658183 
L 278.844588 149.899655 
L 269.135427 149.899655 
L 269.135427 150.658183 
" clip-path="url(#p39628a6285)" style="fill: #962f95"/>
    <path d="M 269.135427 149.899655 
L 278.844588 149.899655 
L 278.844588 149.141127 
L 269.135427 149.141127 
L 269.135427 149.899655 
" clip-path="url(#p39628a6285)" style="fill: #982f95"/>
    <path d="M 269.135427 149.141127 
L 278.844588 149.141127 
L 278.844588 148.382599 
L 269.135427 148.382599 
L 269.135427 149.141127 
" clip-path="url(#p39628a6285)" style="fill: #992f94"/>
    <path d="M 269.135427 148.382599 
L 278.844588 148.382599 
L 278.844588 147.62407 
L 269.135427 147.62407 
L 269.135427 148.382599 
" clip-path="url(#p39628a6285)" style="fill: #9a2f94"/>
    <path d="M 269.135427 147.62407 
L 278.844588 147.62407 
L 278.844588 146.865542 
L 269.135427 146.865542 
L 269.135427 147.62407 
" clip-path="url(#p39628a6285)" style="fill: #9b2f93"/>
    <path d="M 269.135427 146.865542 
L 278.844588 146.865542 
L 278.844588 146.107014 
L 269.135427 146.107014 
L 269.135427 146.865542 
" clip-path="url(#p39628a6285)" style="fill: #9c2f93"/>
    <path d="M 269.135427 146.107014 
L 278.844588 146.107014 
L 278.844588 145.348486 
L 269.135427 145.348486 
L 269.135427 146.107014 
" clip-path="url(#p39628a6285)" style="fill: #9e3092"/>
    <path d="M 269.135427 145.348486 
L 278.844588 145.348486 
L 278.844588 144.589958 
L 269.135427 144.589958 
L 269.135427 145.348486 
" clip-path="url(#p39628a6285)" style="fill: #9f3092"/>
    <path d="M 269.135427 144.589958 
L 278.844588 144.589958 
L 278.844588 143.83143 
L 269.135427 143.83143 
L 269.135427 144.589958 
" clip-path="url(#p39628a6285)" style="fill: #a03091"/>
    <path d="M 269.135427 143.83143 
L 278.844588 143.83143 
L 278.844588 143.072901 
L 269.135427 143.072901 
L 269.135427 143.83143 
" clip-path="url(#p39628a6285)" style="fill: #a13091"/>
    <path d="M 269.135427 143.072901 
L 278.844588 143.072901 
L 278.844588 142.314373 
L 269.135427 142.314373 
L 269.135427 143.072901 
" clip-path="url(#p39628a6285)" style="fill: #a23090"/>
    <path d="M 269.135427 142.314373 
L 278.844588 142.314373 
L 278.844588 141.555845 
L 269.135427 141.555845 
L 269.135427 142.314373 
" clip-path="url(#p39628a6285)" style="fill: #a43090"/>
    <path d="M 269.135427 141.555845 
L 278.844588 141.555845 
L 278.844588 140.797317 
L 269.135427 140.797317 
L 269.135427 141.555845 
" clip-path="url(#p39628a6285)" style="fill: #a5308f"/>
    <path d="M 269.135427 140.797317 
L 278.844588 140.797317 
L 278.844588 140.038789 
L 269.135427 140.038789 
L 269.135427 140.797317 
" clip-path="url(#p39628a6285)" style="fill: #a6308f"/>
    <path d="M 269.135427 140.038789 
L 278.844588 140.038789 
L 278.844588 139.280261 
L 269.135427 139.280261 
L 269.135427 140.038789 
" clip-path="url(#p39628a6285)" style="fill: #a7308e"/>
    <path d="M 269.135427 139.280261 
L 278.844588 139.280261 
L 278.844588 138.521732 
L 269.135427 138.521732 
L 269.135427 139.280261 
" clip-path="url(#p39628a6285)" style="fill: #a8318e"/>
    <path d="M 269.135427 138.521732 
L 278.844588 138.521732 
L 278.844588 137.763204 
L 269.135427 137.763204 
L 269.135427 138.521732 
" clip-path="url(#p39628a6285)" style="fill: #aa318d"/>
    <path d="M 269.135427 137.763204 
L 278.844588 137.763204 
L 278.844588 137.004676 
L 269.135427 137.004676 
L 269.135427 137.763204 
" clip-path="url(#p39628a6285)" style="fill: #ab318d"/>
    <path d="M 269.135427 137.004676 
L 278.844588 137.004676 
L 278.844588 136.246148 
L 269.135427 136.246148 
L 269.135427 137.004676 
" clip-path="url(#p39628a6285)" style="fill: #ac318c"/>
    <path d="M 269.135427 136.246148 
L 278.844588 136.246148 
L 278.844588 135.48762 
L 269.135427 135.48762 
L 269.135427 136.246148 
" clip-path="url(#p39628a6285)" style="fill: #ad318c"/>
    <path d="M 269.135427 135.48762 
L 278.844588 135.48762 
L 278.844588 134.729092 
L 269.135427 134.729092 
L 269.135427 135.48762 
" clip-path="url(#p39628a6285)" style="fill: #ae318b"/>
    <path d="M 269.135427 134.729092 
L 278.844588 134.729092 
L 278.844588 133.970563 
L 269.135427 133.970563 
L 269.135427 134.729092 
" clip-path="url(#p39628a6285)" style="fill: #af318b"/>
    <path d="M 269.135427 133.970563 
L 278.844588 133.970563 
L 278.844588 133.212035 
L 269.135427 133.212035 
L 269.135427 133.970563 
" clip-path="url(#p39628a6285)" style="fill: #b1318a"/>
    <path d="M 269.135427 133.212035 
L 278.844588 133.212035 
L 278.844588 132.453507 
L 269.135427 132.453507 
L 269.135427 133.212035 
" clip-path="url(#p39628a6285)" style="fill: #b2328a"/>
    <path d="M 269.135427 132.453507 
L 278.844588 132.453507 
L 278.844588 131.694979 
L 269.135427 131.694979 
L 269.135427 132.453507 
" clip-path="url(#p39628a6285)" style="fill: #b33289"/>
    <path d="M 269.135427 131.694979 
L 278.844588 131.694979 
L 278.844588 130.936451 
L 269.135427 130.936451 
L 269.135427 131.694979 
" clip-path="url(#p39628a6285)" style="fill: #b43289"/>
    <path d="M 269.135427 130.936451 
L 278.844588 130.936451 
L 278.844588 130.177923 
L 269.135427 130.177923 
L 269.135427 130.936451 
" clip-path="url(#p39628a6285)" style="fill: #b53288"/>
    <path d="M 269.135427 130.177923 
L 278.844588 130.177923 
L 278.844588 129.419394 
L 269.135427 129.419394 
L 269.135427 130.177923 
" clip-path="url(#p39628a6285)" style="fill: #b73287"/>
    <path d="M 269.135427 129.419394 
L 278.844588 129.419394 
L 278.844588 128.660866 
L 269.135427 128.660866 
L 269.135427 129.419394 
" clip-path="url(#p39628a6285)" style="fill: #b83287"/>
    <path d="M 269.135427 128.660866 
L 278.844588 128.660866 
L 278.844588 127.902338 
L 269.135427 127.902338 
L 269.135427 128.660866 
" clip-path="url(#p39628a6285)" style="fill: #b93286"/>
    <path d="M 269.135427 127.902338 
L 278.844588 127.902338 
L 278.844588 127.14381 
L 269.135427 127.14381 
L 269.135427 127.902338 
" clip-path="url(#p39628a6285)" style="fill: #ba3286"/>
    <path d="M 269.135427 127.14381 
L 278.844588 127.14381 
L 278.844588 126.385282 
L 269.135427 126.385282 
L 269.135427 127.14381 
" clip-path="url(#p39628a6285)" style="fill: #bb3285"/>
    <path d="M 269.135427 126.385282 
L 278.844588 126.385282 
L 278.844588 125.626754 
L 269.135427 125.626754 
L 269.135427 126.385282 
" clip-path="url(#p39628a6285)" style="fill: #bd3385"/>
    <path d="M 269.135427 125.626754 
L 278.844588 125.626754 
L 278.844588 124.868225 
L 269.135427 124.868225 
L 269.135427 125.626754 
" clip-path="url(#p39628a6285)" style="fill: #be3384"/>
    <path d="M 269.135427 124.868225 
L 278.844588 124.868225 
L 278.844588 124.109697 
L 269.135427 124.109697 
L 269.135427 124.868225 
" clip-path="url(#p39628a6285)" style="fill: #bf3384"/>
    <path d="M 269.135427 124.109697 
L 278.844588 124.109697 
L 278.844588 123.351169 
L 269.135427 123.351169 
L 269.135427 124.109697 
" clip-path="url(#p39628a6285)" style="fill: #c03383"/>
    <path d="M 269.135427 123.351169 
L 278.844588 123.351169 
L 278.844588 122.592641 
L 269.135427 122.592641 
L 269.135427 123.351169 
" clip-path="url(#p39628a6285)" style="fill: #c13383"/>
    <path d="M 269.135427 122.592641 
L 278.844588 122.592641 
L 278.844588 121.834113 
L 269.135427 121.834113 
L 269.135427 122.592641 
" clip-path="url(#p39628a6285)" style="fill: #c23482"/>
    <path d="M 269.135427 121.834113 
L 278.844588 121.834113 
L 278.844588 121.075585 
L 269.135427 121.075585 
L 269.135427 121.834113 
" clip-path="url(#p39628a6285)" style="fill: #c23481"/>
    <path d="M 269.135427 121.075585 
L 278.844588 121.075585 
L 278.844588 120.317056 
L 269.135427 120.317056 
L 269.135427 121.075585 
" clip-path="url(#p39628a6285)" style="fill: #c33580"/>
    <path d="M 269.135427 120.317056 
L 278.844588 120.317056 
L 278.844588 119.558528 
L 269.135427 119.558528 
L 269.135427 120.317056 
" clip-path="url(#p39628a6285)" style="fill: #c33580"/>
    <path d="M 269.135427 119.558528 
L 278.844588 119.558528 
L 278.844588 118.8 
L 269.135427 118.8 
L 269.135427 119.558528 
" clip-path="url(#p39628a6285)" style="fill: #c4367f"/>
    <path d="M 269.135427 118.8 
L 278.844588 118.8 
L 278.844588 118.041472 
L 269.135427 118.041472 
L 269.135427 118.8 
" clip-path="url(#p39628a6285)" style="fill: #c4367e"/>
    <path d="M 269.135427 118.041472 
L 278.844588 118.041472 
L 278.844588 117.282944 
L 269.135427 117.282944 
L 269.135427 118.041472 
" clip-path="url(#p39628a6285)" style="fill: #c5377d"/>
    <path d="M 269.135427 117.282944 
L 278.844588 117.282944 
L 278.844588 116.524415 
L 269.135427 116.524415 
L 269.135427 117.282944 
" clip-path="url(#p39628a6285)" style="fill: #c5377d"/>
    <path d="M 269.135427 116.524415 
L 278.844588 116.524415 
L 278.844588 115.765887 
L 269.135427 115.765887 
L 269.135427 116.524415 
" clip-path="url(#p39628a6285)" style="fill: #c6387c"/>
    <path d="M 269.135427 115.765887 
L 278.844588 115.765887 
L 278.844588 115.007359 
L 269.135427 115.007359 
L 269.135427 115.765887 
" clip-path="url(#p39628a6285)" style="fill: #c6397b"/>
    <path d="M 269.135427 115.007359 
L 278.844588 115.007359 
L 278.844588 114.248831 
L 269.135427 114.248831 
L 269.135427 115.007359 
" clip-path="url(#p39628a6285)" style="fill: #c7397a"/>
    <path d="M 269.135427 114.248831 
L 278.844588 114.248831 
L 278.844588 113.490303 
L 269.135427 113.490303 
L 269.135427 114.248831 
" clip-path="url(#p39628a6285)" style="fill: #c73a7a"/>
    <path d="M 269.135427 113.490303 
L 278.844588 113.490303 
L 278.844588 112.731775 
L 269.135427 112.731775 
L 269.135427 113.490303 
" clip-path="url(#p39628a6285)" style="fill: #c83a79"/>
    <path d="M 269.135427 112.731775 
L 278.844588 112.731775 
L 278.844588 111.973246 
L 269.135427 111.973246 
L 269.135427 112.731775 
" clip-path="url(#p39628a6285)" style="fill: #c83b78"/>
    <path d="M 269.135427 111.973246 
L 278.844588 111.973246 
L 278.844588 111.214718 
L 269.135427 111.214718 
L 269.135427 111.973246 
" clip-path="url(#p39628a6285)" style="fill: #c93b77"/>
    <path d="M 269.135427 111.214718 
L 278.844588 111.214718 
L 278.844588 110.45619 
L 269.135427 110.45619 
L 269.135427 111.214718 
" clip-path="url(#p39628a6285)" style="fill: #c93c76"/>
    <path d="M 269.135427 110.45619 
L 278.844588 110.45619 
L 278.844588 109.697662 
L 269.135427 109.697662 
L 269.135427 110.45619 
" clip-path="url(#p39628a6285)" style="fill: #ca3c76"/>
    <path d="M 269.135427 109.697662 
L 278.844588 109.697662 
L 278.844588 108.939134 
L 269.135427 108.939134 
L 269.135427 109.697662 
" clip-path="url(#p39628a6285)" style="fill: #ca3d75"/>
    <path d="M 269.135427 108.939134 
L 278.844588 108.939134 
L 278.844588 108.180606 
L 269.135427 108.180606 
L 269.135427 108.939134 
" clip-path="url(#p39628a6285)" style="fill: #cb3d74"/>
    <path d="M 269.135427 108.180606 
L 278.844588 108.180606 
L 278.844588 107.422077 
L 269.135427 107.422077 
L 269.135427 108.180606 
" clip-path="url(#p39628a6285)" style="fill: #cb3e73"/>
    <path d="M 269.135427 107.422077 
L 278.844588 107.422077 
L 278.844588 106.663549 
L 269.135427 106.663549 
L 269.135427 107.422077 
" clip-path="url(#p39628a6285)" style="fill: #cc3f73"/>
    <path d="M 269.135427 106.663549 
L 278.844588 106.663549 
L 278.844588 105.905021 
L 269.135427 105.905021 
L 269.135427 106.663549 
" clip-path="url(#p39628a6285)" style="fill: #cc3f72"/>
    <path d="M 269.135427 105.905021 
L 278.844588 105.905021 
L 278.844588 105.146493 
L 269.135427 105.146493 
L 269.135427 105.905021 
" clip-path="url(#p39628a6285)" style="fill: #cd4071"/>
    <path d="M 269.135427 105.146493 
L 278.844588 105.146493 
L 278.844588 104.387965 
L 269.135427 104.387965 
L 269.135427 105.146493 
" clip-path="url(#p39628a6285)" style="fill: #cd4070"/>
    <path d="M 269.135427 104.387965 
L 278.844588 104.387965 
L 278.844588 103.629437 
L 269.135427 103.629437 
L 269.135427 104.387965 
" clip-path="url(#p39628a6285)" style="fill: #ce416f"/>
    <path d="M 269.135427 103.629437 
L 278.844588 103.629437 
L 278.844588 102.870908 
L 269.135427 102.870908 
L 269.135427 103.629437 
" clip-path="url(#p39628a6285)" style="fill: #ce416f"/>
    <path d="M 269.135427 102.870908 
L 278.844588 102.870908 
L 278.844588 102.11238 
L 269.135427 102.11238 
L 269.135427 102.870908 
" clip-path="url(#p39628a6285)" style="fill: #cf426e"/>
    <path d="M 269.135427 102.11238 
L 278.844588 102.11238 
L 278.844588 101.353852 
L 269.135427 101.353852 
L 269.135427 102.11238 
" clip-path="url(#p39628a6285)" style="fill: #cf426d"/>
    <path d="M 269.135427 101.353852 
L 278.844588 101.353852 
L 278.844588 100.595324 
L 269.135427 100.595324 
L 269.135427 101.353852 
" clip-path="url(#p39628a6285)" style="fill: #d0436c"/>
    <path d="M 269.135427 100.595324 
L 278.844588 100.595324 
L 278.844588 99.836796 
L 269.135427 99.836796 
L 269.135427 100.595324 
" clip-path="url(#p39628a6285)" style="fill: #d0436c"/>
    <path d="M 269.135427 99.836796 
L 278.844588 99.836796 
L 278.844588 99.078268 
L 269.135427 99.078268 
L 269.135427 99.836796 
" clip-path="url(#p39628a6285)" style="fill: #d1446b"/>
    <path d="M 269.135427 99.078268 
L 278.844588 99.078268 
L 278.844588 98.319739 
L 269.135427 98.319739 
L 269.135427 99.078268 
" clip-path="url(#p39628a6285)" style="fill: #d2456a"/>
    <path d="M 269.135427 98.319739 
L 278.844588 98.319739 
L 278.844588 97.561211 
L 269.135427 97.561211 
L 269.135427 98.319739 
" clip-path="url(#p39628a6285)" style="fill: #d24569"/>
    <path d="M 269.135427 97.561211 
L 278.844588 97.561211 
L 278.844588 96.802683 
L 269.135427 96.802683 
L 269.135427 97.561211 
" clip-path="url(#p39628a6285)" style="fill: #d34668"/>
    <path d="M 269.135427 96.802683 
L 278.844588 96.802683 
L 278.844588 96.044155 
L 269.135427 96.044155 
L 269.135427 96.802683 
" clip-path="url(#p39628a6285)" style="fill: #d34668"/>
    <path d="M 269.135427 96.044155 
L 278.844588 96.044155 
L 278.844588 95.285627 
L 269.135427 95.285627 
L 269.135427 96.044155 
" clip-path="url(#p39628a6285)" style="fill: #d44767"/>
    <path d="M 269.135427 95.285627 
L 278.844588 95.285627 
L 278.844588 94.527099 
L 269.135427 94.527099 
L 269.135427 95.285627 
" clip-path="url(#p39628a6285)" style="fill: #d44766"/>
    <path d="M 269.135427 94.527099 
L 278.844588 94.527099 
L 278.844588 93.76857 
L 269.135427 93.76857 
L 269.135427 94.527099 
" clip-path="url(#p39628a6285)" style="fill: #d54865"/>
    <path d="M 269.135427 93.76857 
L 278.844588 93.76857 
L 278.844588 93.010042 
L 269.135427 93.010042 
L 269.135427 93.76857 
" clip-path="url(#p39628a6285)" style="fill: #d54865"/>
    <path d="M 269.135427 93.010042 
L 278.844588 93.010042 
L 278.844588 92.251514 
L 269.135427 92.251514 
L 269.135427 93.010042 
" clip-path="url(#p39628a6285)" style="fill: #d64964"/>
    <path d="M 269.135427 92.251514 
L 278.844588 92.251514 
L 278.844588 91.492986 
L 269.135427 91.492986 
L 269.135427 92.251514 
" clip-path="url(#p39628a6285)" style="fill: #d64963"/>
    <path d="M 269.135427 91.492986 
L 278.844588 91.492986 
L 278.844588 90.734458 
L 269.135427 90.734458 
L 269.135427 91.492986 
" clip-path="url(#p39628a6285)" style="fill: #d74a62"/>
    <path d="M 269.135427 90.734458 
L 278.844588 90.734458 
L 278.844588 89.97593 
L 269.135427 89.97593 
L 269.135427 90.734458 
" clip-path="url(#p39628a6285)" style="fill: #d74b61"/>
    <path d="M 269.135427 89.97593 
L 278.844588 89.97593 
L 278.844588 89.217401 
L 269.135427 89.217401 
L 269.135427 89.97593 
" clip-path="url(#p39628a6285)" style="fill: #d84b61"/>
    <path d="M 269.135427 89.217401 
L 278.844588 89.217401 
L 278.844588 88.458873 
L 269.135427 88.458873 
L 269.135427 89.217401 
" clip-path="url(#p39628a6285)" style="fill: #d84c60"/>
    <path d="M 269.135427 88.458873 
L 278.844588 88.458873 
L 278.844588 87.700345 
L 269.135427 87.700345 
L 269.135427 88.458873 
" clip-path="url(#p39628a6285)" style="fill: #d94c5f"/>
    <path d="M 269.135427 87.700345 
L 278.844588 87.700345 
L 278.844588 86.941817 
L 269.135427 86.941817 
L 269.135427 87.700345 
" clip-path="url(#p39628a6285)" style="fill: #d94d5e"/>
    <path d="M 269.135427 86.941817 
L 278.844588 86.941817 
L 278.844588 86.183289 
L 269.135427 86.183289 
L 269.135427 86.941817 
" clip-path="url(#p39628a6285)" style="fill: #da4d5e"/>
    <path d="M 269.135427 86.183289 
L 278.844588 86.183289 
L 278.844588 85.424761 
L 269.135427 85.424761 
L 269.135427 86.183289 
" clip-path="url(#p39628a6285)" style="fill: #da4e5d"/>
    <path d="M 269.135427 85.424761 
L 278.844588 85.424761 
L 278.844588 84.666232 
L 269.135427 84.666232 
L 269.135427 85.424761 
" clip-path="url(#p39628a6285)" style="fill: #db4e5c"/>
    <path d="M 269.135427 84.666232 
L 278.844588 84.666232 
L 278.844588 83.907704 
L 269.135427 83.907704 
L 269.135427 84.666232 
" clip-path="url(#p39628a6285)" style="fill: #db4f5b"/>
    <path d="M 269.135427 83.907704 
L 278.844588 83.907704 
L 278.844588 83.149176 
L 269.135427 83.149176 
L 269.135427 83.907704 
" clip-path="url(#p39628a6285)" style="fill: #dc4f5a"/>
    <path d="M 269.135427 83.149176 
L 278.844588 83.149176 
L 278.844588 82.390648 
L 269.135427 82.390648 
L 269.135427 83.149176 
" clip-path="url(#p39628a6285)" style="fill: #dc505a"/>
    <path d="M 269.135427 82.390648 
L 278.844588 82.390648 
L 278.844588 81.63212 
L 269.135427 81.63212 
L 269.135427 82.390648 
" clip-path="url(#p39628a6285)" style="fill: #dd5159"/>
    <path d="M 269.135427 81.63212 
L 278.844588 81.63212 
L 278.844588 80.873592 
L 269.135427 80.873592 
L 269.135427 81.63212 
" clip-path="url(#p39628a6285)" style="fill: #dd5158"/>
    <path d="M 269.135427 80.873592 
L 278.844588 80.873592 
L 278.844588 80.115063 
L 269.135427 80.115063 
L 269.135427 80.873592 
" clip-path="url(#p39628a6285)" style="fill: #de5257"/>
    <path d="M 269.135427 80.115063 
L 278.844588 80.115063 
L 278.844588 79.356535 
L 269.135427 79.356535 
L 269.135427 80.115063 
" clip-path="url(#p39628a6285)" style="fill: #de5257"/>
    <path d="M 269.135427 79.356535 
L 278.844588 79.356535 
L 278.844588 78.598007 
L 269.135427 78.598007 
L 269.135427 79.356535 
" clip-path="url(#p39628a6285)" style="fill: #df5356"/>
    <path d="M 269.135427 78.598007 
L 278.844588 78.598007 
L 278.844588 77.839479 
L 269.135427 77.839479 
L 269.135427 78.598007 
" clip-path="url(#p39628a6285)" style="fill: #df5355"/>
    <path d="M 269.135427 77.839479 
L 278.844588 77.839479 
L 278.844588 77.080951 
L 269.135427 77.080951 
L 269.135427 77.839479 
" clip-path="url(#p39628a6285)" style="fill: #e05454"/>
    <path d="M 269.135427 77.080951 
L 278.844588 77.080951 
L 278.844588 76.322423 
L 269.135427 76.322423 
L 269.135427 77.080951 
" clip-path="url(#p39628a6285)" style="fill: #e05454"/>
    <path d="M 269.135427 76.322423 
L 278.844588 76.322423 
L 278.844588 75.563894 
L 269.135427 75.563894 
L 269.135427 76.322423 
" clip-path="url(#p39628a6285)" style="fill: #e15353"/>
    <path d="M 269.135427 75.563894 
L 278.844588 75.563894 
L 278.844588 74.805366 
L 269.135427 74.805366 
L 269.135427 75.563894 
" clip-path="url(#p39628a6285)" style="fill: #e15353"/>
    <path d="M 269.135427 74.805366 
L 278.844588 74.805366 
L 278.844588 74.046838 
L 269.135427 74.046838 
L 269.135427 74.805366 
" clip-path="url(#p39628a6285)" style="fill: #e25353"/>
    <path d="M 269.135427 74.046838 
L 278.844588 74.046838 
L 278.844588 73.28831 
L 269.135427 73.28831 
L 269.135427 74.046838 
" clip-path="url(#p39628a6285)" style="fill: #e25252"/>
    <path d="M 269.135427 73.28831 
L 278.844588 73.28831 
L 278.844588 72.529782 
L 269.135427 72.529782 
L 269.135427 73.28831 
" clip-path="url(#p39628a6285)" style="fill: #e25252"/>
    <path d="M 269.135427 72.529782 
L 278.844588 72.529782 
L 278.844588 71.771254 
L 269.135427 71.771254 
L 269.135427 72.529782 
" clip-path="url(#p39628a6285)" style="fill: #e35151"/>
    <path d="M 269.135427 71.771254 
L 278.844588 71.771254 
L 278.844588 71.012725 
L 269.135427 71.012725 
L 269.135427 71.771254 
" clip-path="url(#p39628a6285)" style="fill: #e35151"/>
    <path d="M 269.135427 71.012725 
L 278.844588 71.012725 
L 278.844588 70.254197 
L 269.135427 70.254197 
L 269.135427 71.012725 
" clip-path="url(#p39628a6285)" style="fill: #e45151"/>
    <path d="M 269.135427 70.254197 
L 278.844588 70.254197 
L 278.844588 69.495669 
L 269.135427 69.495669 
L 269.135427 70.254197 
" clip-path="url(#p39628a6285)" style="fill: #e45050"/>
    <path d="M 269.135427 69.495669 
L 278.844588 69.495669 
L 278.844588 68.737141 
L 269.135427 68.737141 
L 269.135427 69.495669 
" clip-path="url(#p39628a6285)" style="fill: #e55050"/>
    <path d="M 269.135427 68.737141 
L 278.844588 68.737141 
L 278.844588 67.978613 
L 269.135427 67.978613 
L 269.135427 68.737141 
" clip-path="url(#p39628a6285)" style="fill: #e54f4f"/>
    <path d="M 269.135427 67.978613 
L 278.844588 67.978613 
L 278.844588 67.220085 
L 269.135427 67.220085 
L 269.135427 67.978613 
" clip-path="url(#p39628a6285)" style="fill: #e54f4f"/>
    <path d="M 269.135427 67.220085 
L 278.844588 67.220085 
L 278.844588 66.461556 
L 269.135427 66.461556 
L 269.135427 67.220085 
" clip-path="url(#p39628a6285)" style="fill: #e64f4f"/>
    <path d="M 269.135427 66.461556 
L 278.844588 66.461556 
L 278.844588 65.703028 
L 269.135427 65.703028 
L 269.135427 66.461556 
" clip-path="url(#p39628a6285)" style="fill: #e64e4e"/>
    <path d="M 269.135427 65.703028 
L 278.844588 65.703028 
L 278.844588 64.9445 
L 269.135427 64.9445 
L 269.135427 65.703028 
" clip-path="url(#p39628a6285)" style="fill: #e74e4e"/>
    <path d="M 269.135427 64.9445 
L 278.844588 64.9445 
L 278.844588 64.185972 
L 269.135427 64.185972 
L 269.135427 64.9445 
" clip-path="url(#p39628a6285)" style="fill: #e74d4d"/>
    <path d="M 269.135427 64.185972 
L 278.844588 64.185972 
L 278.844588 63.427444 
L 269.135427 63.427444 
L 269.135427 64.185972 
" clip-path="url(#p39628a6285)" style="fill: #e84d4d"/>
    <path d="M 269.135427 63.427444 
L 278.844588 63.427444 
L 278.844588 62.668915 
L 269.135427 62.668915 
L 269.135427 63.427444 
" clip-path="url(#p39628a6285)" style="fill: #e84d4d"/>
    <path d="M 269.135427 62.668915 
L 278.844588 62.668915 
L 278.844588 61.910387 
L 269.135427 61.910387 
L 269.135427 62.668915 
" clip-path="url(#p39628a6285)" style="fill: #e84c4c"/>
    <path d="M 269.135427 61.910387 
L 278.844588 61.910387 
L 278.844588 61.151859 
L 269.135427 61.151859 
L 269.135427 61.910387 
" clip-path="url(#p39628a6285)" style="fill: #e94c4c"/>
    <path d="M 269.135427 61.151859 
L 278.844588 61.151859 
L 278.844588 60.393331 
L 269.135427 60.393331 
L 269.135427 61.151859 
" clip-path="url(#p39628a6285)" style="fill: #e94b4b"/>
    <path d="M 269.135427 60.393331 
L 278.844588 60.393331 
L 278.844588 59.634803 
L 269.135427 59.634803 
L 269.135427 60.393331 
" clip-path="url(#p39628a6285)" style="fill: #ea4b4b"/>
    <path d="M 269.135427 59.634803 
L 278.844588 59.634803 
L 278.844588 58.876275 
L 269.135427 58.876275 
L 269.135427 59.634803 
" clip-path="url(#p39628a6285)" style="fill: #ea4b4b"/>
    <path d="M 269.135427 58.876275 
L 278.844588 58.876275 
L 278.844588 58.117746 
L 269.135427 58.117746 
L 269.135427 58.876275 
" clip-path="url(#p39628a6285)" style="fill: #eb4a4a"/>
    <path d="M 269.135427 58.117746 
L 278.844588 58.117746 
L 278.844588 57.359218 
L 269.135427 57.359218 
L 269.135427 58.117746 
" clip-path="url(#p39628a6285)" style="fill: #eb4a4a"/>
    <path d="M 269.135427 57.359218 
L 278.844588 57.359218 
L 278.844588 56.60069 
L 269.135427 56.60069 
L 269.135427 57.359218 
" clip-path="url(#p39628a6285)" style="fill: #eb4949"/>
    <path d="M 269.135427 56.60069 
L 278.844588 56.60069 
L 278.844588 55.842162 
L 269.135427 55.842162 
L 269.135427 56.60069 
" clip-path="url(#p39628a6285)" style="fill: #ec4949"/>
    <path d="M 269.135427 55.842162 
L 278.844588 55.842162 
L 278.844588 55.083634 
L 269.135427 55.083634 
L 269.135427 55.842162 
" clip-path="url(#p39628a6285)" style="fill: #ec4949"/>
    <path d="M 269.135427 55.083634 
L 278.844588 55.083634 
L 278.844588 54.325106 
L 269.135427 54.325106 
L 269.135427 55.083634 
" clip-path="url(#p39628a6285)" style="fill: #ed4848"/>
    <path d="M 269.135427 54.325106 
L 278.844588 54.325106 
L 278.844588 53.566577 
L 269.135427 53.566577 
L 269.135427 54.325106 
" clip-path="url(#p39628a6285)" style="fill: #ed4848"/>
    <path d="M 269.135427 53.566577 
L 278.844588 53.566577 
L 278.844588 52.808049 
L 269.135427 52.808049 
L 269.135427 53.566577 
" clip-path="url(#p39628a6285)" style="fill: #ee4747"/>
    <path d="M 269.135427 52.808049 
L 278.844588 52.808049 
L 278.844588 52.049521 
L 269.135427 52.049521 
L 269.135427 52.808049 
" clip-path="url(#p39628a6285)" style="fill: #ee4747"/>
    <path d="M 269.135427 52.049521 
L 278.844588 52.049521 
L 278.844588 51.290993 
L 269.135427 51.290993 
L 269.135427 52.049521 
" clip-path="url(#p39628a6285)" style="fill: #ee4747"/>
    <path d="M 269.135427 51.290993 
L 278.844588 51.290993 
L 278.844588 50.532465 
L 269.135427 50.532465 
L 269.135427 51.290993 
" clip-path="url(#p39628a6285)" style="fill: #ef4646"/>
    <path d="M 269.135427 50.532465 
L 278.844588 50.532465 
L 278.844588 49.773937 
L 269.135427 49.773937 
L 269.135427 50.532465 
" clip-path="url(#p39628a6285)" style="fill: #ef4646"/>
    <path d="M 269.135427 49.773937 
L 278.844588 49.773937 
L 278.844588 49.015408 
L 269.135427 49.015408 
L 269.135427 49.773937 
" clip-path="url(#p39628a6285)" style="fill: #f04545"/>
    <path d="M 269.135427 49.015408 
L 278.844588 49.015408 
L 278.844588 48.25688 
L 269.135427 48.25688 
L 269.135427 49.015408 
" clip-path="url(#p39628a6285)" style="fill: #f04545"/>
    <path d="M 269.135427 48.25688 
L 278.844588 48.25688 
L 278.844588 47.498352 
L 269.135427 47.498352 
L 269.135427 48.25688 
" clip-path="url(#p39628a6285)" style="fill: #f04545"/>
    <path d="M 269.135427 47.498352 
L 278.844588 47.498352 
L 278.844588 46.739824 
L 269.135427 46.739824 
L 269.135427 47.498352 
" clip-path="url(#p39628a6285)" style="fill: #f14444"/>
    <path d="M 269.135427 46.739824 
L 278.844588 46.739824 
L 278.844588 45.981296 
L 269.135427 45.981296 
L 269.135427 46.739824 
" clip-path="url(#p39628a6285)" style="fill: #f14444"/>
    <path d="M 269.135427 45.981296 
L 278.844588 45.981296 
L 278.844588 45.222768 
L 269.135427 45.222768 
L 269.135427 45.981296 
" clip-path="url(#p39628a6285)" style="fill: #f24343"/>
    <path d="M 269.135427 45.222768 
L 278.844588 45.222768 
L 278.844588 44.464239 
L 269.135427 44.464239 
L 269.135427 45.222768 
" clip-path="url(#p39628a6285)" style="fill: #f24343"/>
    <path d="M 269.135427 44.464239 
L 278.844588 44.464239 
L 278.844588 43.705711 
L 269.135427 43.705711 
L 269.135427 44.464239 
" clip-path="url(#p39628a6285)" style="fill: #f34343"/>
    <path d="M 269.135427 43.705711 
L 278.844588 43.705711 
L 278.844588 42.947183 
L 269.135427 42.947183 
L 269.135427 43.705711 
" clip-path="url(#p39628a6285)" style="fill: #f34242"/>
    <path d="M 269.135427 42.947183 
L 278.844588 42.947183 
L 278.844588 42.188655 
L 269.135427 42.188655 
L 269.135427 42.947183 
" clip-path="url(#p39628a6285)" style="fill: #f34242"/>
    <path d="M 269.135427 42.188655 
L 278.844588 42.188655 
L 278.844588 41.430127 
L 269.135427 41.430127 
L 269.135427 42.188655 
" clip-path="url(#p39628a6285)" style="fill: #f44141"/>
    <path d="M 269.135427 41.430127 
L 278.844588 41.430127 
L 278.844588 40.671599 
L 269.135427 40.671599 
L 269.135427 41.430127 
" clip-path="url(#p39628a6285)" style="fill: #f44141"/>
    <path d="M 269.135427 40.671599 
L 278.844588 40.671599 
L 278.844588 39.91307 
L 269.135427 39.91307 
L 269.135427 40.671599 
" clip-path="url(#p39628a6285)" style="fill: #f54141"/>
    <path d="M 269.135427 39.91307 
L 278.844588 39.91307 
L 278.844588 39.154542 
L 269.135427 39.154542 
L 269.135427 39.91307 
" clip-path="url(#p39628a6285)" style="fill: #f54040"/>
    <path d="M 269.135427 39.154542 
L 278.844588 39.154542 
L 278.844588 38.396014 
L 269.135427 38.396014 
L 269.135427 39.154542 
" clip-path="url(#p39628a6285)" style="fill: #f64040"/>
    <path d="M 269.135427 38.396014 
L 278.844588 38.396014 
L 278.844588 37.637486 
L 269.135427 37.637486 
L 269.135427 38.396014 
" clip-path="url(#p39628a6285)" style="fill: #f63f3f"/>
    <path d="M 269.135427 37.637486 
L 278.844588 37.637486 
L 278.844588 36.878958 
L 269.135427 36.878958 
L 269.135427 37.637486 
" clip-path="url(#p39628a6285)" style="fill: #f63f3f"/>
    <path d="M 269.135427 36.878958 
L 278.844588 36.878958 
L 278.844588 36.12043 
L 269.135427 36.12043 
L 269.135427 36.878958 
" clip-path="url(#p39628a6285)" style="fill: #f73f3f"/>
    <path d="M 269.135427 36.12043 
L 278.844588 36.12043 
L 278.844588 35.361901 
L 269.135427 35.361901 
L 269.135427 36.12043 
" clip-path="url(#p39628a6285)" style="fill: #f73e3e"/>
    <path d="M 269.135427 35.361901 
L 278.844588 35.361901 
L 278.844588 34.603373 
L 269.135427 34.603373 
L 269.135427 35.361901 
" clip-path="url(#p39628a6285)" style="fill: #f83e3e"/>
    <path d="M 269.135427 34.603373 
L 278.844588 34.603373 
L 278.844588 33.844845 
L 269.135427 33.844845 
L 269.135427 34.603373 
" clip-path="url(#p39628a6285)" style="fill: #f83d3d"/>
    <path d="M 269.135427 33.844845 
L 278.844588 33.844845 
L 278.844588 33.086317 
L 269.135427 33.086317 
L 269.135427 33.844845 
" clip-path="url(#p39628a6285)" style="fill: #f93d3d"/>
    <path d="M 269.135427 33.086317 
L 278.844588 33.086317 
L 278.844588 32.327789 
L 269.135427 32.327789 
L 269.135427 33.086317 
" clip-path="url(#p39628a6285)" style="fill: #f93d3d"/>
    <path d="M 269.135427 32.327789 
L 278.844588 32.327789 
L 278.844588 31.569261 
L 269.135427 31.569261 
L 269.135427 32.327789 
" clip-path="url(#p39628a6285)" style="fill: #f93c3c"/>
    <path d="M 269.135427 31.569261 
L 278.844588 31.569261 
L 278.844588 30.810732 
L 269.135427 30.810732 
L 269.135427 31.569261 
" clip-path="url(#p39628a6285)" style="fill: #fa3c3c"/>
    <path d="M 269.135427 30.810732 
L 278.844588 30.810732 
L 278.844588 30.052204 
L 269.135427 30.052204 
L 269.135427 30.810732 
" clip-path="url(#p39628a6285)" style="fill: #fa3b3b"/>
    <path d="M 269.135427 30.052204 
L 278.844588 30.052204 
L 278.844588 29.293676 
L 269.135427 29.293676 
L 269.135427 30.052204 
" clip-path="url(#p39628a6285)" style="fill: #fb3b3b"/>
    <path d="M 269.135427 29.293676 
L 278.844588 29.293676 
L 278.844588 28.535148 
L 269.135427 28.535148 
L 269.135427 29.293676 
" clip-path="url(#p39628a6285)" style="fill: #fb3b3b"/>
    <path d="M 269.135427 28.535148 
L 278.844588 28.535148 
L 278.844588 27.77662 
L 269.135427 27.77662 
L 269.135427 28.535148 
" clip-path="url(#p39628a6285)" style="fill: #fc3a3a"/>
    <path d="M 269.135427 27.77662 
L 278.844588 27.77662 
L 278.844588 27.018092 
L 269.135427 27.018092 
L 269.135427 27.77662 
" clip-path="url(#p39628a6285)" style="fill: #fc3a3a"/>
    <path d="M 269.135427 27.018092 
L 278.844588 27.018092 
L 278.844588 26.259563 
L 269.135427 26.259563 
L 269.135427 27.018092 
" clip-path="url(#p39628a6285)" style="fill: #fc3939"/>
    <path d="M 269.135427 26.259563 
L 278.844588 26.259563 
L 278.844588 25.501035 
L 269.135427 25.501035 
L 269.135427 26.259563 
" clip-path="url(#p39628a6285)" style="fill: #fd3939"/>
    <path d="M 269.135427 25.501035 
L 278.844588 25.501035 
L 278.844588 24.742507 
L 269.135427 24.742507 
L 269.135427 25.501035 
" clip-path="url(#p39628a6285)" style="fill: #fd3939"/>
    <path d="M 269.135427 24.742507 
L 278.844588 24.742507 
L 278.844588 23.983979 
L 269.135427 23.983979 
L 269.135427 24.742507 
" clip-path="url(#p39628a6285)" style="fill: #fe3838"/>
    <path d="M 269.135427 23.983979 
L 278.844588 23.983979 
L 278.844588 23.225451 
L 269.135427 23.225451 
L 269.135427 23.983979 
" clip-path="url(#p39628a6285)" style="fill: #fe3838"/>
    <path d="M 269.135427 23.225451 
L 278.844588 23.225451 
L 278.844588 22.466923 
L 269.135427 22.466923 
L 269.135427 23.225451 
" clip-path="url(#p39628a6285)" style="fill: #ff3737"/>
    <path d="M 269.135427 22.466923 
L 278.844588 22.466923 
L 278.844588 21.708394 
L 269.135427 21.708394 
L 269.135427 22.466923 
" clip-path="url(#p39628a6285)" style="fill: #ff3737"/>
   </g>
   <g id="matplotlib.axis_3"/>
   <g id="matplotlib.axis_4">
    <g id="ytick_1">
     <g id="line2d_16">
      <defs>
       <path id="mb204b17848" d="M 0 0 
L 3 0 
" style="stroke: #000000; stroke-width: 0.8"/>
      </defs>
      <g>
       <use xlink:href="#mb204b17848" x="278.844588" y="215.891606" style="stroke: #000000; stroke-width: 0.8"/>
      </g>
     </g>
     <g id="text_10">
      <text style="font-size: 10px; font-family: 'Arial', 'Helvetica', 'DejaVu Sans', sans-serif; text-anchor: start" x="285.344588" y="219.531742" transform="rotate(-0 285.344588 219.531742)">1</text>
     </g>
    </g>
    <g id="ytick_2">
     <g id="line2d_17">
      <g>
       <use xlink:href="#mb204b17848" x="278.844588" y="206.182445" style="stroke: #000000; stroke-width: 0.8"/>
      </g>
     </g>
     <g id="text_11">
      <text style="font-size: 10px; font-family: 'Arial', 'Helvetica', 'DejaVu Sans', sans-serif; text-anchor: start" x="285.344588" y="209.822582" transform="rotate(-0 285.344588 209.822582)">0.05</text>
     </g>
    </g>
    <g id="ytick_3">
     <g id="line2d_18">
      <g>
       <use xlink:href="#mb204b17848" x="278.844588" y="171.323598" style="stroke: #000000; stroke-width: 0.8"/>
      </g>
     </g>
     <g id="text_12">
      <text style="font-size: 10px; font-family: 'Arial', 'Helvetica', 'DejaVu Sans', sans-serif; text-anchor: start" x="285.344588" y="174.963735" transform="rotate(-0 285.344588 174.963735)">0.01</text>
     </g>
    </g>
    <g id="ytick_4">
     <g id="line2d_19">
      <g>
       <use xlink:href="#mb204b17848" x="278.844588" y="121.451864" style="stroke: #000000; stroke-width: 0.8"/>
      </g>
     </g>
     <g id="text_13">
      <text style="font-size: 10px; font-family: 'Arial', 'Helvetica', 'DejaVu Sans', sans-serif; text-anchor: start" x="285.344588" y="125.092" transform="rotate(-0 285.344588 125.092)">0.001</text>
     </g>
    </g>
    <g id="ytick_5">
     <g id="line2d_20">
      <g>
       <use xlink:href="#mb204b17848" x="278.844588" y="71.580129" style="stroke: #000000; stroke-width: 0.8"/>
      </g>
     </g>
     <g id="text_14">
      <text style="font-size: 10px; font-family: 'Arial', 'Helvetica', 'DejaVu Sans', sans-serif; text-anchor: start" x="285.344588" y="75.220266" transform="rotate(-0 285.344588 75.220266)">1e-04</text>
     </g>
    </g>
    <g id="ytick_6">
     <g id="line2d_21">
      <g>
       <use xlink:href="#mb204b17848" x="278.844588" y="21.708394" style="stroke: #000000; stroke-width: 0.8"/>
      </g>
     </g>
     <g id="text_15">
      <text style="font-size: 10px; font-family: 'Arial', 'Helvetica', 'DejaVu Sans', sans-serif; text-anchor: start" x="285.344588" y="25.348531" transform="rotate(-0 285.344588 25.348531)">1e-05</text>
     </g>
    </g>
    <g id="text_16">
     <text style="font-size: 8px; font-family: 'Arial', 'Helvetica', 'DejaVu Sans', sans-serif; text-anchor: middle" x="320.742244" y="118.8" transform="rotate(-90 320.742244 118.8)">p-value</text>
    </g>
   </g>
   <g id="LineCollection_1"/>
   <g id="patch_12">
    <path d="M 269.135427 215.891606 
L 273.990007 215.891606 
L 278.844588 215.891606 
L 278.844588 21.708394 
L 273.990007 21.708394 
L 269.135427 21.708394 
L 269.135427 215.891606 
z
" style="fill: none; stroke: #000000; stroke-width: 0.8; stroke-linejoin: miter; stroke-linecap: square"/>
   </g>
  </g>
 </g>
 <defs>
  <clipPath id="pb4c4127e0a">
   <rect x="1.44" y="1.44" width="262.147335" height="234.72"/>
  </clipPath>
  <clipPath id="p39628a6285">
   <rect x="269.135427" y="21.708394" width="9.709161" height="194.183211"/>
  </clipPath>
 </defs>
</svg>
