<?xml version="1.0" encoding="UTF-8" standalone="no"?>
<svg
   version="1.1"
   viewBox="0 0 377.95278 228.66138"
   fill="none"
   stroke="none"
   stroke-linecap="square"
   stroke-miterlimit="10"
   id="svg881"
   sodipodi:docname="конформация.svg"
   width="100mm"
   height="60.5mm"
   inkscape:version="1.4.3 (0d15f75042, 2025-12-25)"
   xmlns:inkscape="http://www.inkscape.org/namespaces/inkscape"
   xmlns:sodipodi="http://sodipodi.sourceforge.net/DTD/sodipodi-0.dtd"
   xmlns="http://www.w3.org/2000/svg"
   xmlns:svg="http://www.w3.org/2000/svg">
  <defs
     id="defs881" />
  <sodipodi:namedview
     id="namedview881"
     pagecolor="#ffffff"
     bordercolor="#000000"
     borderopacity="0.25"
     inkscape:showpageshadow="2"
     inkscape:pageopacity="0.0"
     inkscape:pagecheckerboard="0"
     inkscape:deskcolor="#d1d1d1"
     inkscape:zoom="1.3744388"
     inkscape:cx="205.90222"
     inkscape:cy="210.99521"
     inkscape:window-width="1908"
     inkscape:window-height="1028"
     inkscape:window-x="0"
     inkscape:window-y="0"
     inkscape:window-maximized="1"
     inkscape:current-layer="g881"
     inkscape:document-units="mm" />
  <clipPath
     id="p1.0">
    <path
       d="M 0,0 H 1280 V 720 H 0 Z"
       clip-rule="nonzero"
       id="path1" />
  </clipPath>
  <g
     clip-path="url(#p1.0)"
     id="g881">
    <path
       fill="#000000"
       fill-opacity="0"
       d="M -1.0525653,3.6830924 H 411.67186 V 110.32877 H -1.0525653 Z"
       fill-rule="evenodd"
       id="path656" />
    <path
       fill="#ede32f"
       d="m 286.50573,99.45617 c 0,-1.52307 -0.7668,-2.53845 -1.7893,-3.04614 3.0674,-0.50769 3.323,-2.03076 3.323,-2.7923 0,0 0,0 0,0 0,-16.75372 0,-16.75372 0,-16.75372 0,-1.26923 -1.0225,-3.04615 -4.8567,-3.04615 -3.8343,0 -4.8568,1.77692 -4.8568,3.04615 0,16.75372 0,16.75372 0,16.75372 0,0 0,0 0,0 0,0.76154 0.2556,2.28461 3.3231,2.7923 -1.2782,0.50769 -1.7894,1.52307 -1.7894,3.04614 0,1.77692 1.2782,3.29999 3.3231,3.29999 1.7893,0 3.323,-1.52307 3.323,-3.29999 z"
       fill-rule="evenodd"
       id="path661" />
    <path
       fill="#f5f6db"
       d="m 287.64073,76.86402 c 0,16.75372 0,16.75372 0,16.75372 0,0 0,0 0,0 0,0.76154 -0.2506,2.28461 -3.2566,2.7923 1.002,0.50769 1.7535,1.52307 1.7535,3.04614 0,1.77692 -1.2525,3.04615 -3.0061,3.29999 0,0 0,0 0.2505,0 1.7536,0 3.2566,-1.52307 3.2566,-3.29999 0,-1.52307 -0.7514,-2.53845 -1.7535,-3.04614 3.0061,-0.50769 3.2566,-2.03076 3.2566,-2.7923 0,0 0,0 0,0 0,-16.75372 0,-16.75372 0,-16.75372 0,-1.26923 -1.0021,-3.04614 -4.7597,-3.04614 -0.2505,0 -0.2505,0 -0.2505,0 3.5071,0.25384 4.5092,2.03076 4.5092,3.04614 z"
       fill-rule="evenodd"
       id="path662" />
    <path
       fill="#f0e423"
       d="m 281.39343,99.45617 c 0,-1.52307 0.7668,-2.53845 1.7893,-3.04614 -3.0675,-0.50769 -3.3231,-2.03076 -3.3231,-2.7923 0,0 0,0 0,0 0,-16.75372 0,-16.75372 0,-16.75372 0,-1.01538 0.5112,-2.7923 4.09,-2.7923 -0.2557,-0.25385 -0.5113,-0.25385 -0.7669,-0.25385 -3.8343,0 -4.8568,1.77692 -4.8568,3.04615 0,16.75372 0,16.75372 0,16.75372 0,0 0,0 0,0 0,0.76154 0.2556,2.28461 3.3231,2.7923 -1.2782,0.50769 -1.7894,1.52307 -1.7894,3.04614 0,1.77692 1.2782,3.29999 3.3231,3.29999 0.2556,0 0.5112,0 0.7669,0 -1.5337,-0.50769 -2.5562,-1.77692 -2.5562,-3.29999 z"
       fill-rule="evenodd"
       id="path663" />
    <path
       fill="#000000"
       fill-opacity="0"
       d="m 286.50573,99.45617 c 0,-1.52307 -0.7668,-2.53845 -1.7893,-3.04614 3.0674,-0.50769 3.323,-2.03076 3.323,-2.7923 0,0 0,0 0,0 0,-16.75372 0,-16.75372 0,-16.75372 0,-1.26923 -1.0225,-3.04615 -4.8567,-3.04615 -3.8343,0 -4.8568,1.77692 -4.8568,3.04615 0,16.75372 0,16.75372 0,16.75372 0,0 0,0 0,0 0,0.76154 0.2556,2.28461 3.3231,2.7923 -1.2782,0.50769 -1.7894,1.52307 -1.7894,3.04614 0,1.77692 1.2782,3.29999 3.3231,3.29999 1.7893,0 3.323,-1.52307 3.323,-3.29999 z"
       fill-rule="evenodd"
       id="path664" />
    <path
       stroke="#343434"
       stroke-width="1"
       stroke-miterlimit="800"
       stroke-linecap="butt"
       d="m 286.50573,99.45617 c 0,-1.52307 -0.7668,-2.53845 -1.7893,-3.04614 3.0674,-0.50769 3.323,-2.03076 3.323,-2.7923 0,0 0,0 0,0 0,-16.75372 0,-16.75372 0,-16.75372 0,-1.26923 -1.0225,-3.04615 -4.8567,-3.04615 -3.8343,0 -4.8568,1.77692 -4.8568,3.04615 0,16.75372 0,16.75372 0,16.75372 0,0 0,0 0,0 0,0.76154 0.2556,2.28461 3.3231,2.7923 -1.2782,0.50769 -1.7894,1.52307 -1.7894,3.04614 0,1.77692 1.2782,3.29999 3.3231,3.29999 1.7893,0 3.323,-1.52307 3.323,-3.29999 z"
       fill-rule="evenodd"
       id="path665" />
    <path
       fill="#e3231e"
       d="m 258.79743,92.6379 c -4.8062,9.32599 -4.8062,9.32599 -4.8062,9.32599 -4.806,-9.32599 -4.806,-9.32599 -4.806,-9.32599 0,0.25204 0,0.25204 0,0.25204 0,24.95328 0,24.95328 0,24.95328 0,1.26029 1.0117,3.02466 4.806,3.02466 3.7945,0 4.8062,-1.76437 4.8062,-3.02466 0,0 0,0 0,0 0,-24.95328 0,-24.95328 0,-24.95328 z"
       fill-rule="evenodd"
       id="path666" />
    <path
       fill="#ea6440"
       d="m 258.79743,117.84322 c 0,-25.20532 0,-25.20532 0,-25.20532 -0.501,1.26028 -0.501,1.26028 -0.501,1.26028 0,23.94504 0,23.94504 0,23.94504 0,1.26028 -1.0022,2.77261 -4.5096,3.02466 0,0 0.2505,0 0.2505,0 3.758,0 4.7601,-1.76438 4.7601,-3.02466 z"
       fill-rule="evenodd"
       id="path667" />
    <path
       fill="#d0111c"
       d="m 254.70713,120.86788 c -3.5139,-0.25204 -4.0159,-2.01642 -4.0159,-3.02466 0,-22.43274 0,-22.43274 0,-22.43274 -1.506,-2.77258 -1.506,-2.77258 -1.506,-2.77258 0,0.25204 0,0.25204 0,0.25204 0,24.95328 0,24.95328 0,24.95328 0,1.26029 1.004,3.02466 4.769,3.02466 0.2509,0 0.5019,0 0.7529,0 z"
       fill-rule="evenodd"
       id="path668" />
    <path
       fill="#000000"
       fill-opacity="0"
       d="m 258.79743,92.6379 c -4.8062,9.32599 -4.8062,9.32599 -4.8062,9.32599 -4.806,-9.32599 -4.806,-9.32599 -4.806,-9.32599 0,0.25204 0,0.25204 0,0.25204 0,24.95328 0,24.95328 0,24.95328 0,1.26029 1.0117,3.02466 4.806,3.02466 3.7945,0 4.8062,-1.76437 4.8062,-3.02466 0,0 0,0 0,0 0,-24.95328 0,-24.95328 0,-24.95328 z"
       fill-rule="evenodd"
       id="path669" />
    <path
       stroke="#343434"
       stroke-width="1"
       stroke-miterlimit="800"
       stroke-linecap="butt"
       d="m 258.79743,92.6379 c -4.8062,9.32599 -4.8062,9.32599 -4.8062,9.32599 -4.806,-9.32599 -4.806,-9.32599 -4.806,-9.32599 0,0.25204 0,0.25204 0,0.25204 0,24.95328 0,24.95328 0,24.95328 0,1.26029 1.0117,3.02466 4.806,3.02466 3.7945,0 4.8062,-1.76437 4.8062,-3.02466 0,0 0,0 0,0 0,-24.95328 0,-24.95328 0,-24.95328 z"
       fill-rule="evenodd"
       id="path670" />
    <path
       fill="#ea6440"
       d="m 256.54783,97.69704 -2.4956,4.66412 -1.697,-3.67175 1.697,4.16794 z"
       fill-rule="evenodd"
       id="path671" />
    <path
       fill="#ede32f"
       d="m 227.61733,99.45617 c 0,-1.52307 -0.7668,-2.53845 -1.7893,-3.04614 3.0674,-0.50769 3.323,-2.03076 3.323,-2.7923 0,0 0,0 0,0 0,-16.75372 0,-16.75372 0,-16.75372 0,-1.26923 -1.0225,-3.04615 -4.8567,-3.04615 -3.8343,0 -4.8568,1.77692 -4.8568,3.04615 0,16.75372 0,16.75372 0,16.75372 0,0 0,0 0,0 0,0.76154 0.2556,2.28461 3.323,2.7923 -1.2781,0.50769 -1.7893,1.52307 -1.7893,3.04614 0,1.77692 1.2781,3.29999 3.3231,3.29999 1.7893,0 3.323,-1.52307 3.323,-3.29999 z"
       fill-rule="evenodd"
       id="path672" />
    <path
       fill="#f5f6db"
       d="m 228.75213,76.86402 c 0,16.75372 0,16.75372 0,16.75372 0,0 0,0 0,0 0,0.76154 -0.2505,2.28461 -3.2566,2.7923 1.0021,0.50769 1.7535,1.52307 1.7535,3.04614 0,1.77692 -1.2524,3.04615 -3.0059,3.29999 0,0 0,0 0.2505,0 1.7535,0 3.2565,-1.52307 3.2565,-3.29999 0,-1.52307 -0.7515,-2.53845 -1.7535,-3.04614 3.006,-0.50769 3.2566,-2.03076 3.2566,-2.7923 0,0 0,0 0,0 0,-16.75372 0,-16.75372 0,-16.75372 0,-1.26923 -1.0021,-3.04614 -4.7596,-3.04614 -0.2505,0 -0.2505,0 -0.2505,0 3.507,0.25384 4.509,2.03076 4.509,3.04614 z"
       fill-rule="evenodd"
       id="path673" />
    <path
       fill="#f0e423"
       d="m 222.50483,99.45617 c 0,-1.52307 0.7668,-2.53845 1.7894,-3.04614 -3.0675,-0.50769 -3.3231,-2.03076 -3.3231,-2.7923 0,0 0,0 0,0 0,-16.75372 0,-16.75372 0,-16.75372 0,-1.01538 0.5112,-2.7923 4.09,-2.7923 -0.2556,-0.25385 -0.5113,-0.25385 -0.7669,-0.25385 -3.8343,0 -4.8568,1.77692 -4.8568,3.04615 0,16.75372 0,16.75372 0,16.75372 0,0 0,0 0,0 0,0.76154 0.2556,2.28461 3.323,2.7923 -1.2781,0.50769 -1.7893,1.52307 -1.7893,3.04614 0,1.77692 1.2781,3.29999 3.3231,3.29999 0.2556,0 0.5113,0 0.7669,0 -1.5338,-0.50769 -2.5563,-1.77692 -2.5563,-3.29999 z"
       fill-rule="evenodd"
       id="path674" />
    <path
       fill="#000000"
       fill-opacity="0"
       d="m 227.61733,99.45617 c 0,-1.52307 -0.7668,-2.53845 -1.7893,-3.04614 3.0674,-0.50769 3.323,-2.03076 3.323,-2.7923 0,0 0,0 0,0 0,-16.75372 0,-16.75372 0,-16.75372 0,-1.26923 -1.0225,-3.04615 -4.8567,-3.04615 -3.8343,0 -4.8568,1.77692 -4.8568,3.04615 0,16.75372 0,16.75372 0,16.75372 0,0 0,0 0,0 0,0.76154 0.2556,2.28461 3.323,2.7923 -1.2781,0.50769 -1.7893,1.52307 -1.7893,3.04614 0,1.77692 1.2781,3.29999 3.3231,3.29999 1.7893,0 3.323,-1.52307 3.323,-3.29999 z"
       fill-rule="evenodd"
       id="path675" />
    <path
       stroke="#343434"
       stroke-width="1"
       stroke-miterlimit="800"
       stroke-linecap="butt"
       d="m 227.61733,99.45617 c 0,-1.52307 -0.7668,-2.53845 -1.7893,-3.04614 3.0674,-0.50769 3.323,-2.03076 3.323,-2.7923 0,0 0,0 0,0 0,-16.75372 0,-16.75372 0,-16.75372 0,-1.26923 -1.0225,-3.04615 -4.8567,-3.04615 -3.8343,0 -4.8568,1.77692 -4.8568,3.04615 0,16.75372 0,16.75372 0,16.75372 0,0 0,0 0,0 0,0.76154 0.2556,2.28461 3.323,2.7923 -1.2781,0.50769 -1.7893,1.52307 -1.7893,3.04614 0,1.77692 1.2781,3.29999 3.3231,3.29999 1.7893,0 3.323,-1.52307 3.323,-3.29999 z"
       fill-rule="evenodd"
       id="path676" />
    <path
       fill="#f7ad36"
       d="m 199.90903,117.11867 c 0,-25.08786 0,-25.08786 0,-25.08786 -0.2529,0.76022 -0.5059,2.2807 -3.2885,2.78754 1.0119,0.50683 1.7708,1.52047 1.7708,2.78753 0,2.02732 -1.5177,3.54779 -3.2885,3.54779 -2.0235,0 -3.2883,-1.52047 -3.2883,-3.54779 0,-1.26706 0.5059,-2.2807 1.7706,-2.78753 -3.0355,-0.50684 -3.2884,-2.02732 -3.2884,-2.78754 0,25.08786 0,25.08786 0,25.08786 0,1.7739 1.0118,3.04095 4.8061,3.04095 3.7944,0 4.8062,-1.26705 4.8062,-3.04095 z"
       fill-rule="evenodd"
       id="path677" />
    <path
       fill="#facf71"
       d="m 199.90903,117.11867 c 0,-25.08786 0,-25.08786 0,-25.08786 0,0.25342 -0.2505,1.26706 -0.7516,1.52048 0,23.56738 0,23.56738 0,23.56738 0,1.52048 -0.7516,3.04095 -4.259,3.04095 0,0 0,0 0.2505,0 3.758,0 4.7601,-1.26705 4.7601,-3.04095 z"
       fill-rule="evenodd"
       id="path678" />
    <path
       fill="#f08b37"
       d="m 196.62063,94.81835 c 1.0118,0.50684 1.7708,1.52048 1.7708,2.78754 0,1.77389 -1.0119,3.04095 -2.5296,3.54779 0,0 0.2529,0 0.5059,0 1.7707,-0.25342 2.7826,-1.52048 2.7826,-3.54779 0,-1.26706 -0.506,-2.2807 -1.5179,-2.78754 1.5179,-0.25342 2.2767,-1.52048 2.2767,-2.53412 0,-0.25342 0,-0.25342 0,-0.25342 -0.253,0.76023 -0.5059,2.2807 -3.2885,2.78754 z m -0.7588,25.34128 c -3.5414,-0.25342 -4.3003,-1.52048 -4.3003,-3.04096 0,-23.06057 0,-23.06057 0,-23.06057 -1.0118,-0.50681 -1.2648,-1.52048 -1.2648,-2.02729 0,25.08786 0,25.08786 0,25.08786 0,1.7739 1.0119,3.04096 4.8062,3.04096 0.2529,0 0.506,0 0.7589,0 z"
       fill-rule="evenodd"
       id="path679" />
    <path
       fill="#000000"
       fill-opacity="0"
       d="m 199.90903,117.11867 c 0,-25.08786 0,-25.08786 0,-25.08786 -0.2529,0.76022 -0.5059,2.2807 -3.2885,2.78754 1.0119,0.50683 1.7708,1.52047 1.7708,2.78753 0,2.02732 -1.5177,3.54779 -3.2885,3.54779 -2.0235,0 -3.2883,-1.52047 -3.2883,-3.54779 0,-1.26706 0.5059,-2.2807 1.7706,-2.78753 -3.0355,-0.50684 -3.2884,-2.02732 -3.2884,-2.78754 0,25.08786 0,25.08786 0,25.08786 0,1.7739 1.0118,3.04095 4.8061,3.04095 3.7944,0 4.8062,-1.26705 4.8062,-3.04095 z"
       fill-rule="evenodd"
       id="path680" />
    <path
       stroke="#343434"
       stroke-width="1"
       stroke-miterlimit="800"
       stroke-linecap="butt"
       d="m 199.90903,117.11867 c 0,-25.08786 0,-25.08786 0,-25.08786 -0.2529,0.76022 -0.5059,2.2807 -3.2885,2.78754 1.0119,0.50683 1.7708,1.52047 1.7708,2.78753 0,2.02732 -1.5177,3.54779 -3.2885,3.54779 -2.0235,0 -3.2883,-1.52047 -3.2883,-3.54779 0,-1.26706 0.5059,-2.2807 1.7706,-2.78753 -3.0355,-0.50684 -3.2884,-2.02732 -3.2884,-2.78754 0,25.08786 0,25.08786 0,25.08786 0,1.7739 1.0118,3.04095 4.8061,3.04095 3.7944,0 4.8062,-1.26705 4.8062,-3.04095 z"
       fill-rule="evenodd"
       id="path681" />
    <path
       fill="#ede32f"
       d="m 168.12153,100.06325 c 0,-1.52307 -0.7668,-2.53845 -1.7893,-3.04611 3.0674,-0.50769 3.323,-2.03076 3.323,-2.7923 0,0 0,0 0,0 0,-16.75375 0,-16.75375 0,-16.75375 0,-1.26923 -1.0225,-3.04615 -4.8567,-3.04615 -3.83433,0 -4.85683,1.77692 -4.85683,3.04615 0,16.75375 0,16.75375 0,16.75375 0,0 0,0 0,0 0,0.76154 0.2556,2.28461 3.3231,2.7923 -1.2781,0.50766 -1.7894,1.52304 -1.7894,3.04611 0,1.77692 1.2782,3.29999 3.32313,3.29999 1.7893,0 3.323,-1.52307 3.323,-3.29999 z"
       fill-rule="evenodd"
       id="path682" />
    <path
       fill="#f5f6db"
       d="m 169.25663,77.47109 c 0,16.75375 0,16.75375 0,16.75375 0,0 0,0 0,0 0,0.76154 -0.2505,2.28461 -3.2566,2.7923 1.002,0.50766 1.7535,1.52304 1.7535,3.04611 0,1.77692 -1.2525,3.04615 -3.00613,3.29999 0,0 0,0 0.25053,0 1.7536,0 3.2566,-1.52307 3.2566,-3.29999 0,-1.52307 -0.7514,-2.53845 -1.7535,-3.04611 3.0061,-0.50769 3.2566,-2.03076 3.2566,-2.7923 0,0 0,0 0,0 0,-16.75375 0,-16.75375 0,-16.75375 0,-1.26923 -1.0021,-3.04614 -4.7597,-3.04614 -0.25053,0 -0.25053,0 -0.25053,0 3.50713,0.25384 4.50923,2.03076 4.50923,3.04614 z"
       fill-rule="evenodd"
       id="path683" />
    <path
       fill="#f0e423"
       d="m 163.0092,100.06325 c 0,-1.52307 0.7668,-2.53845 1.78933,-3.04611 -3.06743,-0.50769 -3.32313,-2.03076 -3.32313,-2.7923 0,0 0,0 0,0 0,-16.75375 0,-16.75375 0,-16.75375 0,-1.01538 0.5113,-2.7923 4.09003,-2.7923 -0.2557,-0.25385 -0.5113,-0.25385 -0.7669,-0.25385 -3.83433,0 -4.85683,1.77692 -4.85683,3.04615 0,16.75375 0,16.75375 0,16.75375 0,0 0,0 0,0 0,0.76154 0.2556,2.28461 3.3231,2.7923 -1.2781,0.50766 -1.7894,1.52304 -1.7894,3.04611 0,1.77692 1.2782,3.29999 3.32313,3.29999 0.2556,0 0.5112,0 0.7669,0 -1.53373,-0.50769 -2.55623,-1.77692 -2.55623,-3.29999 z"
       fill-rule="evenodd"
       id="path684" />
    <path
       fill="#000000"
       fill-opacity="0"
       d="m 168.12153,100.06325 c 0,-1.52307 -0.7668,-2.53845 -1.7893,-3.04611 3.0674,-0.50769 3.323,-2.03076 3.323,-2.7923 0,0 0,0 0,0 0,-16.75375 0,-16.75375 0,-16.75375 0,-1.26923 -1.0225,-3.04615 -4.8567,-3.04615 -3.83433,0 -4.85683,1.77692 -4.85683,3.04615 0,16.75375 0,16.75375 0,16.75375 0,0 0,0 0,0 0,0.76154 0.2556,2.28461 3.3231,2.7923 -1.2781,0.50766 -1.7894,1.52304 -1.7894,3.04611 0,1.77692 1.2782,3.29999 3.32313,3.29999 1.7893,0 3.323,-1.52307 3.323,-3.29999 z"
       fill-rule="evenodd"
       id="path685" />
    <path
       stroke="#343434"
       stroke-width="1"
       stroke-miterlimit="800"
       stroke-linecap="butt"
       d="m 168.12153,100.06325 c 0,-1.52307 -0.7668,-2.53845 -1.7893,-3.04611 3.0674,-0.50769 3.323,-2.03076 3.323,-2.7923 0,0 0,0 0,0 0,-16.75375 0,-16.75375 0,-16.75375 0,-1.26923 -1.0225,-3.04615 -4.8567,-3.04615 -3.83433,0 -4.85683,1.77692 -4.85683,3.04615 0,16.75375 0,16.75375 0,16.75375 0,0 0,0 0,0 0,0.76154 0.2556,2.28461 3.3231,2.7923 -1.2781,0.50766 -1.7894,1.52304 -1.7894,3.04611 0,1.77692 1.2782,3.29999 3.32313,3.29999 1.7893,0 3.323,-1.52307 3.323,-3.29999 z"
       fill-rule="evenodd"
       id="path686" />
    <path
       fill="#e3231e"
       d="m 139.8063,93.24502 c -4.8062,9.32596 -4.8062,9.32596 -4.8062,9.32596 -4.80604,-9.32596 -4.80604,-9.32596 -4.80604,-9.32596 0,0.25204 0,0.25204 0,0.25204 0,24.95328 0,24.95328 0,24.95328 0,1.26026 1.01178,3.02463 4.80604,3.02463 3.7944,0 4.8062,-1.76437 4.8062,-3.02463 0,0 0,0 0,0 0,-24.95328 0,-24.95328 0,-24.95328 z"
       fill-rule="evenodd"
       id="path687" />
    <path
       fill="#ea6440"
       d="m 139.8063,118.45034 c 0,-25.20532 0,-25.20532 0,-25.20532 -0.501,1.26025 -0.501,1.26025 -0.501,1.26025 0,23.94507 0,23.94507 0,23.94507 0,1.26025 -1.0022,2.77258 -4.5096,3.02463 0,0 0.2505,0 0.2505,0 3.758,0 4.7601,-1.76438 4.7601,-3.02463 z"
       fill-rule="evenodd"
       id="path688" />
    <path
       fill="#d0111c"
       d="m 135.716,121.47497 c -3.51402,-0.25204 -4.01597,-2.01642 -4.01597,-3.02463 0,-22.43274 0,-22.43274 0,-22.43274 -1.50598,-2.77258 -1.50598,-2.77258 -1.50598,-2.77258 0,0.25204 0,0.25204 0,0.25204 0,24.95328 0,24.95328 0,24.95328 0,1.26026 1.00397,3.02463 4.76895,3.02463 0.251,0 0.502,0 0.753,0 z"
       fill-rule="evenodd"
       id="path689" />
    <path
       fill="#000000"
       fill-opacity="0"
       d="m 139.8063,93.24502 c -4.8062,9.32596 -4.8062,9.32596 -4.8062,9.32596 -4.80604,-9.32596 -4.80604,-9.32596 -4.80604,-9.32596 0,0.25204 0,0.25204 0,0.25204 0,24.95328 0,24.95328 0,24.95328 0,1.26026 1.01178,3.02463 4.80604,3.02463 3.7944,0 4.8062,-1.76437 4.8062,-3.02463 0,0 0,0 0,0 0,-24.95328 0,-24.95328 0,-24.95328 z"
       fill-rule="evenodd"
       id="path690" />
    <path
       stroke="#343434"
       stroke-width="1"
       stroke-miterlimit="800"
       stroke-linecap="butt"
       d="m 139.8063,93.24502 c -4.8062,9.32596 -4.8062,9.32596 -4.8062,9.32596 -4.80604,-9.32596 -4.80604,-9.32596 -4.80604,-9.32596 0,0.25204 0,0.25204 0,0.25204 0,24.95328 0,24.95328 0,24.95328 0,1.26026 1.01178,3.02463 4.80604,3.02463 3.7944,0 4.8062,-1.76437 4.8062,-3.02463 0,0 0,0 0,0 0,-24.95328 0,-24.95328 0,-24.95328 z"
       fill-rule="evenodd"
       id="path691" />
    <path
       fill="#ea6440"
       d="m 137.5567,98.30412 -2.4956,4.66415 -1.69707,-3.67178 1.69707,4.16797 z"
       fill-rule="evenodd"
       id="path692" />
    <path
       fill="#ede32f"
       d="m 110.4472,98.24197 c 0,-1.52307 -0.76685,-2.53845 -1.78931,-3.04614 3.06745,-0.50769 3.32306,-2.03076 3.32306,-2.79227 0,0 0,0 0,0 0,-16.75375 0,-16.75375 0,-16.75375 0,-1.26923 -1.02252,-3.04615 -4.85675,-3.04615 -3.83429,0 -4.85681,1.77692 -4.85681,3.04615 0,16.75375 0,16.75375 0,16.75375 0,0 0,0 0,0 0,0.76151 0.25568,2.28458 3.32306,2.79227 -1.27808,0.50769 -1.78931,1.52307 -1.78931,3.04614 0,1.77692 1.27808,3.29999 3.32306,3.29999 1.78931,0 3.323,-1.52307 3.323,-3.29999 z"
       fill-rule="evenodd"
       id="path693" />
    <path
       fill="#f5f6db"
       d="m 111.5822,75.6498 c 0,16.75375 0,16.75375 0,16.75375 0,0 0,0 0,0 0,0.76151 -0.25049,2.28458 -3.25659,2.79227 1.00207,0.50769 1.75354,1.52307 1.75354,3.04614 0,1.77692 -1.2525,3.04615 -3.00604,3.29999 0,0 0,0 0.25048,0 1.75354,0 3.2566,-1.52307 3.2566,-3.29999 0,-1.52307 -0.75153,-2.53845 -1.75354,-3.04614 3.0061,-0.50769 3.25659,-2.03076 3.25659,-2.79227 0,0 0,0 0,0 0,-16.75375 0,-16.75375 0,-16.75375 0,-1.26923 -1.00202,-3.04614 -4.75965,-3.04614 -0.25048,0 -0.25048,0 -0.25048,0 3.50708,0.25384 4.50909,2.03076 4.50909,3.04614 z"
       fill-rule="evenodd"
       id="path694" />
    <path
       fill="#f0e423"
       d="m 105.33486,98.24197 c 0,-1.52307 0.76685,-2.53845 1.78937,-3.04614 -3.06745,-0.50769 -3.32306,-2.03076 -3.32306,-2.79227 0,0 0,0 0,0 0,-16.75375 0,-16.75375 0,-16.75375 0,-1.01538 0.51123,-2.7923 4.0899,-2.7923 -0.25561,-0.25385 -0.51123,-0.25385 -0.76684,-0.25385 -3.83429,0 -4.85681,1.77692 -4.85681,3.04615 0,16.75375 0,16.75375 0,16.75375 0,0 0,0 0,0 0,0.76151 0.25567,2.28458 3.32306,2.79227 -1.27808,0.50769 -1.78931,1.52307 -1.78931,3.04614 0,1.77692 1.27808,3.29999 3.32306,3.29999 0.25561,0 0.51123,0 0.76684,0 -1.53375,-0.50769 -2.55621,-1.77692 -2.55621,-3.29999 z"
       fill-rule="evenodd"
       id="path695" />
    <path
       fill="#000000"
       fill-opacity="0"
       d="m 110.4472,98.24197 c 0,-1.52307 -0.76685,-2.53845 -1.78931,-3.04614 3.06745,-0.50769 3.32306,-2.03076 3.32306,-2.79227 0,0 0,0 0,0 0,-16.75375 0,-16.75375 0,-16.75375 0,-1.26923 -1.02252,-3.04615 -4.85675,-3.04615 -3.83429,0 -4.85681,1.77692 -4.85681,3.04615 0,16.75375 0,16.75375 0,16.75375 0,0 0,0 0,0 0,0.76151 0.25568,2.28458 3.32306,2.79227 -1.27808,0.50769 -1.78931,1.52307 -1.78931,3.04614 0,1.77692 1.27808,3.29999 3.32306,3.29999 1.78931,0 3.323,-1.52307 3.323,-3.29999 z"
       fill-rule="evenodd"
       id="path696" />
    <path
       stroke="#343434"
       stroke-width="1"
       stroke-miterlimit="800"
       stroke-linecap="butt"
       d="m 110.4472,98.24197 c 0,-1.52307 -0.76685,-2.53845 -1.78931,-3.04614 3.06745,-0.50769 3.32306,-2.03076 3.32306,-2.79227 0,0 0,0 0,0 0,-16.75375 0,-16.75375 0,-16.75375 0,-1.26923 -1.02252,-3.04615 -4.85675,-3.04615 -3.83429,0 -4.85681,1.77692 -4.85681,3.04615 0,16.75375 0,16.75375 0,16.75375 0,0 0,0 0,0 0,0.76151 0.25568,2.28458 3.32306,2.79227 -1.27808,0.50769 -1.78931,1.52307 -1.78931,3.04614 0,1.77692 1.27808,3.29999 3.32306,3.29999 1.78931,0 3.323,-1.52307 3.323,-3.29999 z"
       fill-rule="evenodd"
       id="path697" />
    <path
       fill="#f7ad36"
       d="m 82.739041,118.33288 c 0,-25.08786 0,-25.08786 0,-25.08786 -0.25299,0.76022 -0.50592,2.2807 -3.28845,2.78754 1.01184,0.5068 1.77069,1.52047 1.77069,2.78753 0,2.02729 -1.5177,3.54776 -3.28839,3.54776 -2.023619,0 -3.288389,-1.52047 -3.288389,-3.54776 0,-1.26706 0.50586,-2.28073 1.77063,-2.78753 -3.035457,-0.50684 -3.288387,-2.02732 -3.288387,-2.78754 0,25.08786 0,25.08786 0,25.08786 0,1.7739 1.011837,3.04095 4.806146,3.04095 3.79431,0 4.80615,-1.26705 4.80615,-3.04095 z"
       fill-rule="evenodd"
       id="path698" />
    <path
       fill="#facf71"
       d="m 82.739041,118.33288 c 0,-25.08786 0,-25.08786 0,-25.08786 0,0.25339 -0.25055,1.26706 -0.75159,1.52048 0,23.56738 0,23.56738 0,23.56738 0,1.52048 -0.75164,3.04095 -4.25909,3.04095 0,0 0,0 0.25055,0 3.75799,0 4.76013,-1.26705 4.76013,-3.04095 z"
       fill-rule="evenodd"
       id="path699" />
    <path
       fill="#f08b37"
       d="m 79.450601,96.03255 c 1.01184,0.50681 1.77069,1.52048 1.77069,2.78754 0,1.77389 -1.01178,3.04095 -2.52954,3.54776 0,0 0.25299,0 0.50592,0 1.77069,-0.25339 2.78253,-1.52048 2.78253,-3.54776 0,-1.26706 -0.50592,-2.28073 -1.51776,-2.78754 1.51776,-0.25342 2.27661,-1.52048 2.27661,-2.53415 0,-0.25339 0,-0.25339 0,-0.25339 -0.25299,0.76023 -0.50592,2.2807 -3.28845,2.78754 z m -0.75885,25.34128 c -3.541379,-0.25342 -4.300229,-1.52048 -4.300229,-3.04096 0,-23.06057 0,-23.06057 0,-23.06057 -1.011837,-0.50681 -1.264767,-1.52048 -1.264767,-2.02729 0,25.08786 0,25.08786 0,25.08786 0,1.7739 1.011837,3.04096 4.806146,3.04096 0.25293,0 0.50592,0 0.75885,0 z"
       fill-rule="evenodd"
       id="path700" />
    <path
       fill="#000000"
       fill-opacity="0"
       d="m 82.739041,118.33288 c 0,-25.08786 0,-25.08786 0,-25.08786 -0.25299,0.76022 -0.50592,2.2807 -3.28845,2.78754 1.01184,0.5068 1.77069,1.52047 1.77069,2.78753 0,2.02729 -1.5177,3.54776 -3.28839,3.54776 -2.023619,0 -3.288389,-1.52047 -3.288389,-3.54776 0,-1.26706 0.50586,-2.28073 1.77063,-2.78753 -3.035457,-0.50684 -3.288387,-2.02732 -3.288387,-2.78754 0,25.08786 0,25.08786 0,25.08786 0,1.7739 1.011837,3.04095 4.806146,3.04095 3.79431,0 4.80615,-1.26705 4.80615,-3.04095 z"
       fill-rule="evenodd"
       id="path701" />
    <path
       stroke="#343434"
       stroke-width="1"
       stroke-miterlimit="800"
       stroke-linecap="butt"
       d="m 82.739041,118.33288 c 0,-25.08786 0,-25.08786 0,-25.08786 -0.25299,0.76022 -0.50592,2.2807 -3.28845,2.78754 1.01184,0.5068 1.77069,1.52047 1.77069,2.78753 0,2.02729 -1.5177,3.54776 -3.28839,3.54776 -2.023619,0 -3.288389,-1.52047 -3.288389,-3.54776 0,-1.26706 0.50586,-2.28073 1.77063,-2.78753 -3.035457,-0.50684 -3.288387,-2.02732 -3.288387,-2.78754 0,25.08786 0,25.08786 0,25.08786 0,1.7739 1.011837,3.04095 4.806146,3.04095 3.79431,0 4.80615,-1.26705 4.80615,-3.04095 z"
       fill-rule="evenodd"
       id="path702" />
    <path
       fill="#113a8d"
       d="m 97.962241,69.06234 c -32.376216,0 -23.776309,56.96551 -56.658446,56.96551 -11.38226,0 -11.38226,0 -11.38226,0 33.13507,0 24.53516,-56.96551 56.911376,-56.96551 z"
       fill-rule="evenodd"
       id="path703" />
    <path
       fill="#000000"
       fill-opacity="0"
       d="m 97.962241,69.06234 c -32.376216,0 -23.776309,56.96551 -56.658446,56.96551 -11.38226,0 -11.38226,0 -11.38226,0 33.13507,0 24.53516,-56.96551 56.911376,-56.96551 z"
       fill-rule="evenodd"
       id="path704" />
    <path
       stroke="#343434"
       stroke-width="1"
       stroke-miterlimit="800"
       stroke-linecap="butt"
       d="m 97.962241,69.06234 c -32.376216,0 -23.776309,56.96551 -56.658446,56.96551 -11.38226,0 -11.38226,0 -11.38226,0 33.13507,0 24.53516,-56.96551 56.911376,-56.96551 z"
       fill-rule="evenodd"
       id="path705" />
    <path
       fill="#113a8d"
       d="m 151.8278,69.06234 c -32.32806,0 -23.74091,56.96551 -56.574099,56.96551 -11.36535,0 -11.36535,0 -11.36535,0 32.833189,0 24.246029,-56.96551 56.574049,-56.96551 z"
       fill-rule="evenodd"
       id="path706" />
    <path
       fill="#000000"
       fill-opacity="0"
       d="m 151.8278,69.06234 c -32.32806,0 -23.74091,56.96551 -56.574099,56.96551 -11.36535,0 -11.36535,0 -11.36535,0 32.833189,0 24.246029,-56.96551 56.574049,-56.96551 z"
       fill-rule="evenodd"
       id="path707" />
    <path
       stroke="#343434"
       stroke-width="1"
       stroke-miterlimit="800"
       stroke-linecap="butt"
       d="m 151.8278,69.06234 c -32.32806,0 -23.74091,56.96551 -56.574099,56.96551 -11.36535,0 -11.36535,0 -11.36535,0 32.833189,0 24.246029,-56.96551 56.574049,-56.96551 z"
       fill-rule="evenodd"
       id="path708" />
    <path
       fill="#113a8d"
       d="m 212.88223,69.06234 c -32.3762,0 -23.7764,56.96551 -56.91143,56.96551 -11.1293,0 -11.1293,0 -11.1293,0 32.88213,0 24.28223,-56.96551 56.65843,-56.96551 z"
       fill-rule="evenodd"
       id="path709" />
    <path
       fill="#000000"
       fill-opacity="0"
       d="m 212.88223,69.06234 c -32.3762,0 -23.7764,56.96551 -56.91143,56.96551 -11.1293,0 -11.1293,0 -11.1293,0 32.88213,0 24.28223,-56.96551 56.65843,-56.96551 z"
       fill-rule="evenodd"
       id="path710" />
    <path
       stroke="#343434"
       stroke-width="1"
       stroke-miterlimit="800"
       stroke-linecap="butt"
       d="m 212.88223,69.06234 c -32.3762,0 -23.7764,56.96551 -56.91143,56.96551 -11.1293,0 -11.1293,0 -11.1293,0 32.88213,0 24.28223,-56.96551 56.65843,-56.96551 z"
       fill-rule="evenodd"
       id="path711" />
    <path
       fill="#113a8d"
       d="m 272.62023,69.06234 c -32.3762,0 -23.7762,56.96551 -56.6583,56.96551 -11.3823,0 -11.3823,0 -11.3823,0 33.135,0 24.5351,-56.96551 56.9113,-56.96551 z"
       fill-rule="evenodd"
       id="path712" />
    <path
       fill="#000000"
       fill-opacity="0"
       d="m 272.62023,69.06234 c -32.3762,0 -23.7762,56.96551 -56.6583,56.96551 -11.3823,0 -11.3823,0 -11.3823,0 33.135,0 24.5351,-56.96551 56.9113,-56.96551 z"
       fill-rule="evenodd"
       id="path713" />
    <path
       stroke="#343434"
       stroke-width="1"
       stroke-miterlimit="800"
       stroke-linecap="butt"
       d="m 272.62023,69.06234 c -32.3762,0 -23.7762,56.96551 -56.6583,56.96551 -11.3823,0 -11.3823,0 -11.3823,0 33.135,0 24.5351,-56.96551 56.9113,-56.96551 z"
       fill-rule="evenodd"
       id="path714" />
    <path
       fill="#113a8d"
       d="m 330.73843,69.06234 c -32.3763,0 -23.7764,56.96551 -56.9114,56.96551 -11.1294,0 -11.1294,0 -11.1294,0 32.8822,0 24.2823,-56.96551 56.6585,-56.96551 z"
       fill-rule="evenodd"
       id="path715" />
    <path
       fill="#000000"
       fill-opacity="0"
       d="m 330.73843,69.06234 c -32.3763,0 -23.7764,56.96551 -56.9114,56.96551 -11.1294,0 -11.1294,0 -11.1294,0 32.8822,0 24.2823,-56.96551 56.6585,-56.96551 z"
       fill-rule="evenodd"
       id="path716" />
    <path
       stroke="#343434"
       stroke-width="1"
       stroke-miterlimit="800"
       stroke-linecap="butt"
       d="m 330.73843,69.06234 c -32.3763,0 -23.7764,56.96551 -56.9114,56.96551 -11.1294,0 -11.1294,0 -11.1294,0 32.8822,0 24.2823,-56.96551 56.6585,-56.96551 z"
       fill-rule="evenodd"
       id="path717" />
    <path
       fill="#3b59a0"
       d="m 99.683501,126.02785 c -32.328056,0 -23.740909,-56.96552 -56.574096,-56.96552 -11.36535,0 -11.36535,0 -11.36535,0 33.08575,0 24.49865,56.96552 56.826656,56.96552 z"
       fill-rule="evenodd"
       id="path718" />
    <path
       fill="#5578b6"
       d="m 43.100905,69.06234 c -11.15436,0 -11.15436,0 -11.15436,0 11.15436,0 17.49207,6.56622 22.30872,14.90024 11.4079,0 11.4079,0 11.4079,0 -5.07019,-8.33402 -11.4079,-14.90024 -22.56226,-14.90024 z"
       fill-rule="evenodd"
       id="path719" />
    <path
       fill="#779dce"
       d="m 43.355205,69.82 c 10.64734,0 16.98505,6.0611 21.8017,14.14258 0,0 0,0 0,0 -4.81665,-8.58658 -11.15436,-14.90024 -22.30872,-14.90024 -11.40784,0 -11.40784,0 -11.40784,0 2.5351,0 4.56311,0.25256 6.59119,0.75766 z"
       fill-rule="evenodd"
       id="path720" />
    <path
       fill="#33559e"
       d="m 76.312602,107.37722 c -11.358147,0 -11.358147,0 -11.358147,0 5.04803,10.36194 11.610587,18.95474 23.978386,18.95474 11.358149,0 11.358149,0 11.358149,0 -12.620169,0 -18.930289,-8.5928 -23.978388,-18.95474 z"
       fill-rule="evenodd"
       id="path721" />
    <path
       fill="#000000"
       fill-opacity="0"
       d="m 99.683501,126.02785 c -32.328056,0 -23.740909,-56.96552 -56.574096,-56.96552 -11.36535,0 -11.36535,0 -11.36535,0 33.08575,0 24.49865,56.96552 56.826656,56.96552 z"
       fill-rule="evenodd"
       id="path722" />
    <path
       stroke="#343434"
       stroke-width="1"
       stroke-miterlimit="800"
       stroke-linecap="butt"
       d="m 99.683501,126.02785 c -32.328056,0 -23.740909,-56.96552 -56.574096,-56.96552 -11.36535,0 -11.36535,0 -11.36535,0 33.08575,0 24.49865,56.96552 56.826656,56.96552 z"
       fill-rule="evenodd"
       id="path723" />
    <path
       fill="#5578b6"
       d="m 54.728055,84.77349 h 10.53473 l 0.50165,0.70953 h -10.53473 z"
       fill-rule="evenodd"
       id="path724" />
    <path
       fill="#5578b6"
       d="m 55.841805,86.19256 h 10.32953 l 0.20056,0.40546 h -10.53009 z"
       fill-rule="evenodd"
       id="path725" />
    <path
       fill="#33559e"
       d="M 75.282002,106.76906 H 64.849385 l -0.19873,-0.70953 h 10.134587 z"
       fill-rule="evenodd"
       id="path726" />
    <path
       fill="#33559e"
       d="M 74.674502,105.45135 H 64.344975 l -0.20062,-0.40543 h 10.229247 z"
       fill-rule="evenodd"
       id="path727" />
    <path
       fill="#3b59a0"
       d="m 157.7003,126.02785 c -32.37618,0 -23.77627,-56.96552 -56.91134,-56.96552 -11.129329,0 -11.129329,0 -11.129329,0 32.882139,0 24.282169,56.96552 56.658469,56.96552 z"
       fill-rule="evenodd"
       id="path728" />
    <path
       fill="#5578b6"
       d="m 101.0675,69.06234 c -11.407899,0 -11.407899,0 -11.407899,0 11.154359,0 17.492069,6.56622 22.308719,14.90024 11.4079,0 11.4079,0 11.4079,0 -4.81665,-8.33402 -11.15436,-14.90024 -22.30872,-14.90024 z"
       fill-rule="evenodd"
       id="path729" />
    <path
       fill="#779dce"
       d="m 101.14974,69.82 c 10.83539,0 17.13501,6.0611 21.67078,14.14258 0.25195,0 0.25195,0 0.25195,0 -4.78772,-8.58658 -11.33936,-14.90024 -22.4267,-14.90024 -11.087399,0 -11.087399,0 -11.087399,0 2.26788,0 4.53577,0.25256 6.55164,0.75766 z"
       fill-rule="evenodd"
       id="path730" />
    <path
       fill="#33559e"
       d="m 133.9595,107.37722 c -11.08954,0 -11.08954,0 -11.08954,0 5.04071,10.36194 11.34164,18.95474 23.94334,18.95474 11.0896,0 11.0896,0 11.0896,0 -12.3498,0 -18.9027,-8.5928 -23.9434,-18.95474 z"
       fill-rule="evenodd"
       id="path731" />
    <path
       fill="#000000"
       fill-opacity="0"
       d="m 157.7003,126.02785 c -32.37618,0 -23.77627,-56.96552 -56.91134,-56.96552 -11.129329,0 -11.129329,0 -11.129329,0 32.882139,0 24.282169,56.96552 56.658469,56.96552 z"
       fill-rule="evenodd"
       id="path732" />
    <path
       stroke="#343434"
       stroke-width="1"
       stroke-miterlimit="800"
       stroke-linecap="butt"
       d="m 157.7003,126.02785 c -32.37618,0 -23.77627,-56.96552 -56.91134,-56.96552 -11.129329,0 -11.129329,0 -11.129329,0 32.882139,0 24.282169,56.96552 56.658469,56.96552 z"
       fill-rule="evenodd"
       id="path733" />
    <path
       fill="#5578b6"
       d="m 112.7449,84.77349 h 10.13452 l 0.49683,0.70953 h -10.43262 z"
       fill-rule="evenodd"
       id="path734" />
    <path
       fill="#5578b6"
       d="m 113.45364,86.19256 h 10.53009 v 0.40546 h -10.22925 z"
       fill-rule="evenodd"
       id="path735" />
    <path
       fill="#33559e"
       d="m 132.9951,106.76906 h -10.13458 l -0.49677,-0.70953 h 10.43262 z"
       fill-rule="evenodd"
       id="path736" />
    <path
       fill="#33559e"
       d="m 132.48885,105.45135 h -10.43268 l -0.19873,-0.40543 h 10.43268 z"
       fill-rule="evenodd"
       id="path737" />
    <path
       fill="#3b59a0"
       d="m 215.41343,126.02785 c -32.3762,0 -23.7762,-56.96552 -56.65843,-56.96552 -11.3823,0 -11.3823,0 -11.3823,0 33.13513,0 24.53513,56.96552 56.91133,56.96552 z"
       fill-rule="evenodd"
       id="path738" />
    <path
       fill="#5578b6"
       d="m 158.7639,69.06234 c -11.0874,0 -11.0874,0 -11.0874,0 11.0874,0 17.38703,6.56622 22.17473,14.90024 11.3393,0 11.3393,0 11.3393,0 -5.0396,-8.33402 -11.3393,-14.90024 -22.42663,-14.90024 z"
       fill-rule="evenodd"
       id="path739" />
    <path
       fill="#779dce"
       d="m 159.0135,69.82 c 10.58343,0 16.88313,6.0611 21.67083,14.14258 0,0 0,0 0,0 -4.7877,-8.58658 -11.0874,-14.90024 -22.17473,-14.90024 -11.3394,0 -11.3394,0 -11.3394,0 2.5199,0 4.5357,0.25256 6.5516,0.75766 z"
       fill-rule="evenodd"
       id="path740" />
    <path
       fill="#33559e"
       d="m 192.04263,107.37722 c -11.3583,0 -11.3583,0 -11.3583,0 5.0481,10.36194 11.6106,18.95474 23.9784,18.95474 11.3583,0 11.3583,0 11.3583,0 -12.6202,0 -18.9304,-8.5928 -23.9784,-18.95474 z"
       fill-rule="evenodd"
       id="path741" />
    <path
       fill="#000000"
       fill-opacity="0"
       d="m 215.41343,126.02785 c -32.3762,0 -23.7762,-56.96552 -56.65843,-56.96552 -11.3823,0 -11.3823,0 -11.3823,0 33.13513,0 24.53513,56.96552 56.91133,56.96552 z"
       fill-rule="evenodd"
       id="path742" />
    <path
       stroke="#343434"
       stroke-width="1"
       stroke-miterlimit="800"
       stroke-linecap="butt"
       d="m 215.41343,126.02785 c -32.3762,0 -23.7762,-56.96552 -56.65843,-56.96552 -11.3823,0 -11.3823,0 -11.3823,0 33.13513,0 24.53513,56.96552 56.91133,56.96552 z"
       fill-rule="evenodd"
       id="path743" />
    <path
       fill="#5578b6"
       d="m 170.45803,84.77349 h 10.5347 l 0.5017,0.70953 h -10.5348 z"
       fill-rule="evenodd"
       id="path744" />
    <path
       fill="#5578b6"
       d="m 171.57173,86.19256 h 10.2292 l 0.3008,0.40546 h -10.53 z"
       fill-rule="evenodd"
       id="path745" />
    <path
       fill="#33559e"
       d="m 191.21443,106.76906 h -10.6313 l -0.3039,-0.70953 h 10.429 z"
       fill-rule="evenodd"
       id="path746" />
    <path
       fill="#33559e"
       d="m 190.30323,105.45135 h -10.2292 l -0.301,-0.40543 h 10.3296 z"
       fill-rule="evenodd"
       id="path747" />
    <path
       fill="#3b59a0"
       d="m 273.32893,126.02785 c -32.328,0 -23.7408,-56.96552 -56.8267,-56.96552 -11.1126,0 -11.1126,0 -11.1126,0 32.8331,0 24.2459,56.96552 56.5741,56.96552 z"
       fill-rule="evenodd"
       id="path748" />
    <path
       fill="#5578b6"
       d="m 216.72903,69.06234 c -11.3394,0 -11.3394,0 -11.3394,0 11.0873,0 17.387,6.56622 22.1747,14.90024 11.3394,0 11.3394,0 11.3394,0 -4.7877,-8.33402 -11.0874,-14.90024 -22.1747,-14.90024 z"
       fill-rule="evenodd"
       id="path749" />
    <path
       fill="#779dce"
       d="m 216.74713,69.82 c 10.9009,0 17.2385,6.0611 21.8018,14.14258 0.2535,0 0.2535,0 0.2535,0 -4.8168,-8.58658 -11.408,-14.90024 -22.5623,-14.90024 -11.1544,0 -11.1544,0 -11.1544,0 2.2816,0 4.5633,0.25256 6.5912,0.75766 z"
       fill-rule="evenodd"
       id="path750" />
    <path
       fill="#33559e"
       d="m 249.62023,107.37722 c -11.1216,0 -11.1216,0 -11.1216,0 5.0553,10.36194 11.3744,18.95474 24.0126,18.95474 11.1216,0 11.1216,0 11.1216,0 -12.3854,0 -18.9573,-8.5928 -24.0126,-18.95474 z"
       fill-rule="evenodd"
       id="path751" />
    <path
       fill="#000000"
       fill-opacity="0"
       d="m 273.32893,126.02785 c -32.328,0 -23.7408,-56.96552 -56.8267,-56.96552 -11.1126,0 -11.1126,0 -11.1126,0 32.8331,0 24.2459,56.96552 56.5741,56.96552 z"
       fill-rule="evenodd"
       id="path752" />
    <path
       stroke="#343434"
       stroke-width="1"
       stroke-miterlimit="800"
       stroke-linecap="butt"
       d="m 273.32893,126.02785 c -32.328,0 -23.7408,-56.96552 -56.8267,-56.96552 -11.1126,0 -11.1126,0 -11.1126,0 32.8331,0 24.2459,56.96552 56.5741,56.96552 z"
       fill-rule="evenodd"
       id="path753" />
    <path
       fill="#5578b6"
       d="m 228.37353,84.77349 h 10.429 l 0.5062,0.70953 h -10.6314 z"
       fill-rule="evenodd"
       id="path754" />
    <path
       fill="#5578b6"
       d="m 229.18363,86.19256 h 10.5302 v 0.40546 h -10.3296 z"
       fill-rule="evenodd"
       id="path755" />
    <path
       fill="#33559e"
       d="m 249.13003,106.76906 h -10.5347 l -0.5017,-0.70953 h 10.5348 z"
       fill-rule="evenodd"
       id="path756" />
    <path
       fill="#33559e"
       d="m 248.42123,105.45135 h -10.6313 l -0.3038,-0.40543 h 10.6314 z"
       fill-rule="evenodd"
       id="path757" />
    <path
       fill="#3b59a0"
       d="m 331.14333,126.02785 c -32.3762,0 -23.7762,-56.96552 -56.6583,-56.96552 -11.3823,0 -11.3823,0 -11.3823,0 33.135,0 24.5351,56.96552 56.9113,56.96552 z"
       fill-rule="evenodd"
       id="path758" />
    <path
       fill="#5578b6"
       d="m 274.45963,69.06234 c -11.1544,0 -11.1544,0 -11.1544,0 11.1544,0 17.492,6.56622 22.3087,14.90024 11.4078,0 11.4078,0 11.4078,0 -5.07,-8.33402 -11.4078,-14.90024 -22.5621,-14.90024 z"
       fill-rule="evenodd"
       id="path759" />
    <path
       fill="#779dce"
       d="m 274.71373,69.82 c 10.6475,0 16.9851,6.0611 21.8018,14.14258 0,0 0,0 0,0 -4.8167,-8.58658 -11.1543,-14.90024 -22.3088,-14.90024 -11.4078,0 -11.4078,0 -11.4078,0 2.535,0 4.5631,0.25256 6.5912,0.75766 z"
       fill-rule="evenodd"
       id="path760" />
    <path
       fill="#33559e"
       d="m 307.63503,107.37722 c -11.4232,0 -11.4232,0 -11.4232,0 5.077,10.36194 11.6771,18.95474 24.1158,18.95474 11.4232,0 11.4232,0 11.4232,0 -12.6925,0 -19.0388,-8.5928 -24.1158,-18.95474 z"
       fill-rule="evenodd"
       id="path761" />
    <path
       fill="#000000"
       fill-opacity="0"
       d="m 331.14333,126.02785 c -32.3762,0 -23.7762,-56.96552 -56.6583,-56.96552 -11.3823,0 -11.3823,0 -11.3823,0 33.135,0 24.5351,56.96552 56.9113,56.96552 z"
       fill-rule="evenodd"
       id="path762" />
    <path
       stroke="#343434"
       stroke-width="1"
       stroke-miterlimit="800"
       stroke-linecap="butt"
       d="m 331.14333,126.02785 c -32.3762,0 -23.7762,-56.96552 -56.6583,-56.96552 -11.3823,0 -11.3823,0 -11.3823,0 33.135,0 24.5351,56.96552 56.9113,56.96552 z"
       fill-rule="evenodd"
       id="path763" />
    <path
       fill="#5578b6"
       d="m 286.08663,84.77349 h 10.5347 l 0.5017,0.70953 h -10.5348 z"
       fill-rule="evenodd"
       id="path764" />
    <path
       fill="#5578b6"
       d="m 287.09913,86.19256 h 10.3296 l 0.2006,0.40546 h -10.5302 z"
       fill-rule="evenodd"
       id="path765" />
    <path
       fill="#33559e"
       d="m 306.64063,106.76906 h -10.4326 l -0.1987,-0.70953 h 10.1345 z"
       fill-rule="evenodd"
       id="path766" />
    <path
       fill="#33559e"
       d="m 306.03313,105.45135 h -10.3295 l -0.2005,-0.40543 h 10.2292 z"
       fill-rule="evenodd"
       id="path767" />
    <path
       fill="#ede32f"
       d="m 81.306541,98.84905 c 0,-1.52304 -0.76685,-2.53842 -1.78937,-3.04611 3.06745,-0.50769 3.32306,-2.03076 3.32306,-2.7923 0,0 0,0 0,0 0,-16.75375 0,-16.75375 0,-16.75375 0,-1.26923 -1.02246,-3.04612 -4.85675,-3.04612 -3.834289,0 -4.856746,1.77689 -4.856746,3.04612 0,16.75375 0,16.75375 0,16.75375 0,0 0,0 0,0 0,0.76154 0.25562,2.28461 3.323057,2.7923 -1.27814,0.50769 -1.78937,1.52307 -1.78937,3.04611 0,1.77692 1.27814,3.29999 3.323059,3.29999 1.78931,0 3.32306,-1.52307 3.32306,-3.29999 z"
       fill-rule="evenodd"
       id="path768" />
    <path
       fill="#f5f6db"
       d="m 82.441501,76.25689 c 0,16.75375 0,16.75375 0,16.75375 0,0 0,0 0,0 0,0.76154 -0.25055,2.28461 -3.25659,2.7923 1.00201,0.50769 1.75354,1.52307 1.75354,3.04611 0,1.77692 -1.2525,3.04615 -3.00611,3.29999 0,0 0,0 0.25055,0 1.75354,0 3.2566,-1.52307 3.2566,-3.29999 0,-1.52304 -0.75153,-2.53842 -1.75354,-3.04611 3.00604,-0.50769 3.25653,-2.03076 3.25653,-2.7923 0,0 0,0 0,0 0,-16.75375 0,-16.75375 0,-16.75375 0,-1.26923 -1.00202,-3.04611 -4.75959,-3.04611 -0.25055,0 -0.25055,0 -0.25055,0 3.50715,0.25381 4.50916,2.03073 4.50916,3.04611 z"
       fill-rule="evenodd"
       id="path769" />
    <path
       fill="#f0e423"
       d="m 76.194202,98.84905 c 0,-1.52304 0.766849,-2.53842 1.789309,-3.04611 -3.067449,-0.50769 -3.323059,-2.03076 -3.323059,-2.7923 0,0 0,0 0,0 0,-16.75375 0,-16.75375 0,-16.75375 0,-1.01538 0.51123,-2.7923 4.089899,-2.7923 -0.25561,-0.25382 -0.51123,-0.25382 -0.76684,-0.25382 -3.834289,0 -4.856746,1.77689 -4.856746,3.04612 0,16.75375 0,16.75375 0,16.75375 0,0 0,0 0,0 0,0.76154 0.25561,2.28461 3.323057,2.7923 -1.27814,0.50769 -1.78937,1.52307 -1.78937,3.04611 0,1.77692 1.27813,3.29999 3.323059,3.29999 0.25561,0 0.51123,0 0.76684,0 -1.53369,-0.50769 -2.556149,-1.77692 -2.556149,-3.29999 z"
       fill-rule="evenodd"
       id="path770" />
    <path
       fill="#000000"
       fill-opacity="0"
       d="m 81.306541,98.84905 c 0,-1.52304 -0.76685,-2.53842 -1.78937,-3.04611 3.06745,-0.50769 3.32306,-2.03076 3.32306,-2.7923 0,0 0,0 0,0 0,-16.75375 0,-16.75375 0,-16.75375 0,-1.26923 -1.02246,-3.04612 -4.85675,-3.04612 -3.834289,0 -4.856746,1.77689 -4.856746,3.04612 0,16.75375 0,16.75375 0,16.75375 0,0 0,0 0,0 0,0.76154 0.25562,2.28461 3.323057,2.7923 -1.27814,0.50769 -1.78937,1.52307 -1.78937,3.04611 0,1.77692 1.27814,3.29999 3.323059,3.29999 1.78931,0 3.32306,-1.52307 3.32306,-3.29999 z"
       fill-rule="evenodd"
       id="path771" />
    <path
       stroke="#343434"
       stroke-width="1"
       stroke-miterlimit="800"
       stroke-linecap="butt"
       d="m 81.306541,98.84905 c 0,-1.52304 -0.76685,-2.53842 -1.78937,-3.04611 3.06745,-0.50769 3.32306,-2.03076 3.32306,-2.7923 0,0 0,0 0,0 0,-16.75375 0,-16.75375 0,-16.75375 0,-1.26923 -1.02246,-3.04612 -4.85675,-3.04612 -3.834289,0 -4.856746,1.77689 -4.856746,3.04612 0,16.75375 0,16.75375 0,16.75375 0,0 0,0 0,0 0,0.76154 0.25562,2.28461 3.323057,2.7923 -1.27814,0.50769 -1.78937,1.52307 -1.78937,3.04611 0,1.77692 1.27814,3.29999 3.323059,3.29999 1.78931,0 3.32306,-1.52307 3.32306,-3.29999 z"
       fill-rule="evenodd"
       id="path772" />
    <path
       fill="#ede32f"
       d="m 198.47653,97.63488 c 0,-1.52307 -0.7668,-2.53845 -1.7893,-3.04614 3.0674,-0.50769 3.323,-2.03076 3.323,-2.7923 0,0 0,0 0,0 0,-16.75375 0,-16.75375 0,-16.75375 0,-1.2692 -1.0225,-3.04612 -4.8567,-3.04612 -3.8343,0 -4.8568,1.77692 -4.8568,3.04612 0,16.75375 0,16.75375 0,16.75375 0,0 0,0 0,0 0,0.76154 0.2556,2.28461 3.3231,2.7923 -1.2782,0.50769 -1.7894,1.52307 -1.7894,3.04614 0,1.77692 1.2782,3.29996 3.3231,3.29996 1.7893,0 3.323,-1.52304 3.323,-3.29996 z"
       fill-rule="evenodd"
       id="path773" />
    <path
       fill="#f5f6db"
       d="m 199.61153,75.04269 c 0,16.75375 0,16.75375 0,16.75375 0,0 0,0 0,0 0,0.76154 -0.2506,2.28461 -3.2566,2.7923 1.002,0.50769 1.7535,1.52307 1.7535,3.04614 0,1.77692 -1.2525,3.04612 -3.0061,3.29996 0,0 0,0 0.2505,0 1.7536,0 3.2566,-1.52304 3.2566,-3.29996 0,-1.52307 -0.7514,-2.53845 -1.7535,-3.04614 3.0061,-0.50769 3.2566,-2.03076 3.2566,-2.7923 0,0 0,0 0,0 0,-16.75375 0,-16.75375 0,-16.75375 0,-1.2692 -1.0021,-3.04611 -4.7597,-3.04611 -0.2505,0 -0.2505,0 -0.2505,0 3.5071,0.25384 4.5092,2.03076 4.5092,3.04611 z"
       fill-rule="evenodd"
       id="path774" />
    <path
       fill="#f0e423"
       d="m 193.36423,97.63488 c 0,-1.52307 0.7668,-2.53845 1.7893,-3.04614 -3.0675,-0.50769 -3.3231,-2.03076 -3.3231,-2.7923 0,0 0,0 0,0 0,-16.75375 0,-16.75375 0,-16.75375 0,-1.01535 0.5112,-2.79227 4.09,-2.79227 -0.2557,-0.25385 -0.5113,-0.25385 -0.7669,-0.25385 -3.8343,0 -4.8568,1.77692 -4.8568,3.04612 0,16.75375 0,16.75375 0,16.75375 0,0 0,0 0,0 0,0.76154 0.2556,2.28461 3.3231,2.7923 -1.2782,0.50769 -1.7894,1.52307 -1.7894,3.04614 0,1.77692 1.2782,3.29996 3.3231,3.29996 0.2556,0 0.5112,0 0.7669,0 -1.5337,-0.50769 -2.5562,-1.77689 -2.5562,-3.29996 z"
       fill-rule="evenodd"
       id="path775" />
    <path
       fill="#000000"
       fill-opacity="0"
       d="m 198.47653,97.63488 c 0,-1.52307 -0.7668,-2.53845 -1.7893,-3.04614 3.0674,-0.50769 3.323,-2.03076 3.323,-2.7923 0,0 0,0 0,0 0,-16.75375 0,-16.75375 0,-16.75375 0,-1.2692 -1.0225,-3.04612 -4.8567,-3.04612 -3.8343,0 -4.8568,1.77692 -4.8568,3.04612 0,16.75375 0,16.75375 0,16.75375 0,0 0,0 0,0 0,0.76154 0.2556,2.28461 3.3231,2.7923 -1.2782,0.50769 -1.7894,1.52307 -1.7894,3.04614 0,1.77692 1.2782,3.29996 3.3231,3.29996 1.7893,0 3.323,-1.52304 3.323,-3.29996 z"
       fill-rule="evenodd"
       id="path776" />
    <path
       stroke="#343434"
       stroke-width="1"
       stroke-miterlimit="800"
       stroke-linecap="butt"
       d="m 198.47653,97.63488 c 0,-1.52307 -0.7668,-2.53845 -1.7893,-3.04614 3.0674,-0.50769 3.323,-2.03076 3.323,-2.7923 0,0 0,0 0,0 0,-16.75375 0,-16.75375 0,-16.75375 0,-1.2692 -1.0225,-3.04612 -4.8567,-3.04612 -3.8343,0 -4.8568,1.77692 -4.8568,3.04612 0,16.75375 0,16.75375 0,16.75375 0,0 0,0 0,0 0,0.76154 0.2556,2.28461 3.3231,2.7923 -1.2782,0.50769 -1.7894,1.52307 -1.7894,3.04614 0,1.77692 1.2782,3.29996 3.3231,3.29996 1.7893,0 3.323,-1.52304 3.323,-3.29996 z"
       fill-rule="evenodd"
       id="path777" />
    <path
       fill="#ede32f"
       d="m 152.859,98.95666 c 0,-1.26675 -0.7589,-2.53348 -1.7707,-3.04019 3.0355,-0.25336 3.2884,-1.77344 3.2884,-2.53348 0,0 0,0 0,-0.25336 0,-20.52127 0,-20.52127 0,-20.52127 0,-1.26675 -1.0118,-3.04019 -4.8062,-3.04019 -3.7943,0 -4.8061,1.77344 -4.8061,3.04019 0,20.52127 0,20.52127 0,20.52127 0,0.25336 0,0.25336 0,0.25336 0,0.76004 0.253,2.28012 3.2884,2.53348 -1.0118,0.50671 -1.7706,1.77344 -1.7706,3.04019 0,2.02679 1.5177,3.29355 3.2883,3.29355 1.7707,0 3.2885,-1.26676 3.2885,-3.29355 z"
       fill-rule="evenodd"
       id="path778" />
    <path
       fill="#f5f6db"
       d="m 153.8756,72.60836 c 0,20.52127 0,20.52127 0,20.52127 0,0.25336 0,0.25336 0,0.25336 0,0.76004 -0.2505,2.28012 -3.2569,2.53347 1.0021,0.50672 1.7537,1.77344 1.7537,3.0402 0,1.77343 -1.2526,3.29355 -3.0064,3.29355 0,0 0.2505,0 0.2505,0 1.7538,0 3.257,-1.26676 3.257,-3.29355 0,-1.26676 -0.7517,-2.53348 -1.7537,-3.0402 3.0063,-0.25335 3.2569,-1.77343 3.2569,-2.53347 0,0 0,0 0,-0.25336 0,-20.52127 0,-20.52127 0,-20.52127 0,-1.26675 -1.0022,-3.04019 -4.7602,-3.04019 0,0 -0.2505,0 -0.2505,0 3.5075,0 4.5096,1.77344 4.5096,3.04019 z"
       fill-rule="evenodd"
       id="path779" />
    <path
       fill="#f0e423"
       d="m 147.7763,98.95666 c 0,-1.26675 0.7531,-2.53348 1.757,-3.04019 -3.0119,-0.25336 -3.263,-1.77344 -3.263,-2.53348 0,0 0,0 0,-0.25336 0,-20.52127 0,-20.52127 0,-20.52127 0,-1.26675 0.753,-2.78683 4.016,-3.04019 -0.251,0 -0.502,0 -0.753,0 -3.7649,0 -4.769,1.77344 -4.769,3.04019 0,20.52127 0,20.52127 0,20.52127 0,0.25336 0,0.25336 0,0.25336 0,0.76004 0.2511,2.28012 3.263,2.53348 -1.004,0.50671 -1.757,1.77344 -1.757,3.04019 0,2.02679 1.506,3.29355 3.263,3.29355 0.251,0 0.502,0 0.753,0 -1.506,-0.25336 -2.51,-1.77344 -2.51,-3.29355 z"
       fill-rule="evenodd"
       id="path780" />
    <path
       fill="#000000"
       fill-opacity="0"
       d="m 152.859,98.95666 c 0,-1.26675 -0.7589,-2.53348 -1.7707,-3.04019 3.0355,-0.25336 3.2884,-1.77344 3.2884,-2.53348 0,0 0,0 0,-0.25336 0,-20.52127 0,-20.52127 0,-20.52127 0,-1.26675 -1.0118,-3.04019 -4.8062,-3.04019 -3.7943,0 -4.8061,1.77344 -4.8061,3.04019 0,20.52127 0,20.52127 0,20.52127 0,0.25336 0,0.25336 0,0.25336 0,0.76004 0.253,2.28012 3.2884,2.53348 -1.0118,0.50671 -1.7706,1.77344 -1.7706,3.04019 0,2.02679 1.5177,3.29355 3.2883,3.29355 1.7707,0 3.2885,-1.26676 3.2885,-3.29355 z"
       fill-rule="evenodd"
       id="path781" />
    <path
       stroke="#343434"
       stroke-width="1"
       stroke-miterlimit="800"
       stroke-linecap="butt"
       d="m 152.859,98.95666 c 0,-1.26675 -0.7589,-2.53348 -1.7707,-3.04019 3.0355,-0.25336 3.2884,-1.77344 3.2884,-2.53348 0,0 0,0 0,-0.25336 0,-20.52127 0,-20.52127 0,-20.52127 0,-1.26675 -1.0118,-3.04019 -4.8062,-3.04019 -3.7943,0 -4.8061,1.77344 -4.8061,3.04019 0,20.52127 0,20.52127 0,20.52127 0,0.25336 0,0.25336 0,0.25336 0,0.76004 0.253,2.28012 3.2884,2.53348 -1.0118,0.50671 -1.7706,1.77344 -1.7706,3.04019 0,2.02679 1.5177,3.29355 3.2883,3.29355 1.7707,0 3.2885,-1.26676 3.2885,-3.29355 z"
       fill-rule="evenodd"
       id="path782" />
    <path
       fill="#ede32f"
       d="m 271.85023,98.34957 c 0,-1.26675 -0.7589,-2.53351 -1.7708,-3.04019 3.0356,-0.25336 3.2885,-1.77344 3.2885,-2.53351 0,0 0,0 0,-0.25333 0,-20.52127 0,-20.52127 0,-20.52127 0,-1.26675 -1.0118,-3.04019 -4.8062,-3.04019 -3.7943,0 -4.8061,1.77344 -4.8061,3.04019 0,20.52127 0,20.52127 0,20.52127 0,0.25333 0,0.25333 0,0.25333 0,0.76007 0.2529,2.28015 3.2884,2.53351 -1.0118,0.50668 -1.7707,1.77344 -1.7707,3.04019 0,2.02679 1.5177,3.29352 3.2884,3.29352 1.7707,0 3.2885,-1.26673 3.2885,-3.29352 z"
       fill-rule="evenodd"
       id="path783" />
    <path
       fill="#f5f6db"
       d="m 272.86683,72.00127 c 0,20.52127 0,20.52127 0,20.52127 0,0.25333 0,0.25333 0,0.25333 0,0.76007 -0.2505,2.28015 -3.257,2.5335 1.0022,0.50669 1.7538,1.77344 1.7538,3.0402 0,1.77343 -1.2527,3.29351 -3.0064,3.29351 0,0 0.2506,0 0.2506,0 1.7536,0 3.2569,-1.26672 3.2569,-3.29351 0,-1.26676 -0.7517,-2.53351 -1.7538,-3.0402 3.0064,-0.25335 3.257,-1.77343 3.257,-2.5335 0,0 0,0 0,-0.25333 0,-20.52127 0,-20.52127 0,-20.52127 0,-1.26675 -1.0022,-3.04019 -4.7601,-3.04019 0,0 -0.2506,0 -0.2506,0 3.5075,0 4.5096,1.77344 4.5096,3.04019 z"
       fill-rule="evenodd"
       id="path784" />
    <path
       fill="#f0e423"
       d="m 266.76753,98.34957 c 0,-1.26675 0.7531,-2.53351 1.757,-3.04019 -3.012,-0.25336 -3.263,-1.77344 -3.263,-2.53351 0,0 0,0 0,-0.25333 0,-20.52127 0,-20.52127 0,-20.52127 0,-1.26675 0.7529,-2.78686 4.016,-3.04019 -0.251,0 -0.5021,0 -0.753,0 -3.7649,0 -4.769,1.77344 -4.769,3.04019 0,20.52127 0,20.52127 0,20.52127 0,0.25333 0,0.25333 0,0.25333 0,0.76007 0.251,2.28015 3.263,2.53351 -1.0041,0.50668 -1.757,1.77344 -1.757,3.04019 0,2.02679 1.506,3.29352 3.263,3.29352 0.2509,0 0.502,0 0.753,0 -1.506,-0.25333 -2.51,-1.77344 -2.51,-3.29352 z"
       fill-rule="evenodd"
       id="path785" />
    <path
       fill="#000000"
       fill-opacity="0"
       d="m 271.85023,98.34957 c 0,-1.26675 -0.7589,-2.53351 -1.7708,-3.04019 3.0356,-0.25336 3.2885,-1.77344 3.2885,-2.53351 0,0 0,0 0,-0.25333 0,-20.52127 0,-20.52127 0,-20.52127 0,-1.26675 -1.0118,-3.04019 -4.8062,-3.04019 -3.7943,0 -4.8061,1.77344 -4.8061,3.04019 0,20.52127 0,20.52127 0,20.52127 0,0.25333 0,0.25333 0,0.25333 0,0.76007 0.2529,2.28015 3.2884,2.53351 -1.0118,0.50668 -1.7707,1.77344 -1.7707,3.04019 0,2.02679 1.5177,3.29352 3.2884,3.29352 1.7707,0 3.2885,-1.26673 3.2885,-3.29352 z"
       fill-rule="evenodd"
       id="path786" />
    <path
       stroke="#343434"
       stroke-width="1"
       stroke-miterlimit="800"
       stroke-linecap="butt"
       d="m 271.85023,98.34957 c 0,-1.26675 -0.7589,-2.53351 -1.7708,-3.04019 3.0356,-0.25336 3.2885,-1.77344 3.2885,-2.53351 0,0 0,0 0,-0.25333 0,-20.52127 0,-20.52127 0,-20.52127 0,-1.26675 -1.0118,-3.04019 -4.8062,-3.04019 -3.7943,0 -4.8061,1.77344 -4.8061,3.04019 0,20.52127 0,20.52127 0,20.52127 0,0.25333 0,0.25333 0,0.25333 0,0.76007 0.2529,2.28015 3.2884,2.53351 -1.0118,0.50668 -1.7707,1.77344 -1.7707,3.04019 0,2.02679 1.5177,3.29352 3.2884,3.29352 1.7707,0 3.2885,-1.26673 3.2885,-3.29352 z"
       fill-rule="evenodd"
       id="path787" />
    <path
       fill="#f7ad36"
       d="m 287.93823,118.93996 c 0,-25.08786 0,-25.08786 0,-25.08786 -0.2529,0.76022 -0.5059,2.2807 -3.2885,2.78754 1.0119,0.50683 1.7708,1.52047 1.7708,2.78753 0,2.02732 -1.5177,3.54779 -3.2885,3.54779 -2.0235,0 -3.2884,-1.52047 -3.2884,-3.54779 0,-1.26706 0.506,-2.2807 1.7707,-2.78753 -3.0355,-0.50684 -3.2884,-2.02732 -3.2884,-2.78754 0,25.08786 0,25.08786 0,25.08786 0,1.7739 1.0118,3.04095 4.8061,3.04095 3.7944,0 4.8062,-1.26705 4.8062,-3.04095 z"
       fill-rule="evenodd"
       id="path788" />
    <path
       fill="#facf71"
       d="m 287.93823,118.93996 c 0,-25.08786 0,-25.08786 0,-25.08786 0,0.25342 -0.2505,1.26706 -0.7516,1.52048 0,23.56738 0,23.56738 0,23.56738 0,1.52048 -0.7516,3.04095 -4.259,3.04095 0,0 0,0 0.2505,0 3.758,0 4.7601,-1.26705 4.7601,-3.04095 z"
       fill-rule="evenodd"
       id="path789" />
    <path
       fill="#f08b37"
       d="m 284.64973,96.63964 c 1.0118,0.50684 1.7708,1.52048 1.7708,2.78754 0,1.77389 -1.0119,3.04095 -2.5296,3.54779 0,0 0.2529,0 0.5059,0 1.7707,-0.25342 2.7826,-1.52048 2.7826,-3.54779 0,-1.26706 -0.506,-2.2807 -1.5179,-2.78754 1.5179,-0.25342 2.2767,-1.52048 2.2767,-2.53412 0,-0.25342 0,-0.25342 0,-0.25342 -0.253,0.76023 -0.5059,2.2807 -3.2885,2.78754 z m -0.7588,25.34128 c -3.5414,-0.25342 -4.3003,-1.52048 -4.3003,-3.04096 0,-23.06054 0,-23.06054 0,-23.06054 -1.0118,-0.50684 -1.2648,-1.52048 -1.2648,-2.02732 0,25.08786 0,25.08786 0,25.08786 0,1.7739 1.0119,3.04096 4.8062,3.04096 0.2529,0 0.506,0 0.7589,0 z"
       fill-rule="evenodd"
       id="path790" />
    <path
       fill="#000000"
       fill-opacity="0"
       d="m 287.93823,118.93996 c 0,-25.08786 0,-25.08786 0,-25.08786 -0.2529,0.76022 -0.5059,2.2807 -3.2885,2.78754 1.0119,0.50683 1.7708,1.52047 1.7708,2.78753 0,2.02732 -1.5177,3.54779 -3.2885,3.54779 -2.0235,0 -3.2884,-1.52047 -3.2884,-3.54779 0,-1.26706 0.506,-2.2807 1.7707,-2.78753 -3.0355,-0.50684 -3.2884,-2.02732 -3.2884,-2.78754 0,25.08786 0,25.08786 0,25.08786 0,1.7739 1.0118,3.04095 4.8061,3.04095 3.7944,0 4.8062,-1.26705 4.8062,-3.04095 z"
       fill-rule="evenodd"
       id="path791" />
    <path
       stroke="#343434"
       stroke-width="1"
       stroke-miterlimit="800"
       stroke-linecap="butt"
       d="m 287.93823,118.93996 c 0,-25.08786 0,-25.08786 0,-25.08786 -0.2529,0.76022 -0.5059,2.2807 -3.2885,2.78754 1.0119,0.50683 1.7708,1.52047 1.7708,2.78753 0,2.02732 -1.5177,3.54779 -3.2885,3.54779 -2.0235,0 -3.2884,-1.52047 -3.2884,-3.54779 0,-1.26706 0.506,-2.2807 1.7707,-2.78753 -3.0355,-0.50684 -3.2884,-2.02732 -3.2884,-2.78754 0,25.08786 0,25.08786 0,25.08786 0,1.7739 1.0118,3.04095 4.8061,3.04095 3.7944,0 4.8062,-1.26705 4.8062,-3.04095 z"
       fill-rule="evenodd"
       id="path792" />
    <path
       fill="#f7ad36"
       d="m 154.4779,122.08208 c 0,-28.83707 0,-28.83707 0,-28.83707 -0.2556,0.75885 -0.2556,2.02365 -3.323,2.52954 1.0224,0.50592 1.7893,1.77073 1.7893,3.0355 0,1.77069 -1.5337,3.28845 -3.3231,3.28845 -1.7893,0 -3.323,-1.51776 -3.323,-3.28845 0,-1.26477 0.7669,-2.52958 1.7893,-3.0355 -3.0674,-0.50589 -3.0674,-1.77069 -3.323,-2.52954 0,28.83707 0,28.83707 0,28.83707 0,1.77069 1.0225,3.03549 4.8567,3.03549 3.8343,0 4.8568,-1.2648 4.8568,-3.03549 z"
       fill-rule="evenodd"
       id="path793" />
    <path
       fill="#facf71"
       d="m 154.4779,122.08208 c 0,-28.83707 0,-28.83707 0,-28.83707 0,0.25293 -0.2505,1.01181 -0.7515,1.51773 0,27.31934 0,27.31934 0,27.31934 0,1.77069 -0.7515,3.03549 -4.2586,3.03549 0,0 0.2505,0 0.2505,0 3.7576,0 4.7596,-1.2648 4.7596,-3.03549 z"
       fill-rule="evenodd"
       id="path794" />
    <path
       fill="#f08b37"
       d="m 151.1549,95.77456 c 1.0224,0.50592 1.7893,1.77072 1.7893,3.03549 0,1.51773 -1.0225,3.03549 -2.5562,3.28845 0.2556,0 0.2556,0 0.5113,0 1.7893,0 2.8117,-1.51776 2.8117,-3.28845 0,-1.26477 -0.5112,-2.52957 -1.5337,-3.03549 1.5337,-0.25293 2.3006,-1.51773 2.3006,-2.52954 0,0 0,0 0,0 -0.2556,0.75885 -0.2556,2.02365 -3.323,2.52954 z m -0.7669,29.34302 c -3.5786,0 -4.3455,-1.51776 -4.3455,-3.03549 0,-26.81342 0,-26.81342 0,-26.81342 -1.0225,-0.50592 -1.2781,-1.77072 -1.2781,-2.02365 0,28.83707 0,28.83707 0,28.83707 0,1.77069 1.0225,3.03549 4.8567,3.03549 0.2556,0 0.5112,0 0.7669,0 z"
       fill-rule="evenodd"
       id="path795" />
    <path
       fill="#000000"
       fill-opacity="0"
       d="m 154.4779,122.08208 c 0,-28.83707 0,-28.83707 0,-28.83707 -0.2556,0.75885 -0.2556,2.02365 -3.323,2.52954 1.0224,0.50592 1.7893,1.77073 1.7893,3.0355 0,1.77069 -1.5337,3.28845 -3.3231,3.28845 -1.7893,0 -3.323,-1.51776 -3.323,-3.28845 0,-1.26477 0.7669,-2.52958 1.7893,-3.0355 -3.0674,-0.50589 -3.0674,-1.77069 -3.323,-2.52954 0,28.83707 0,28.83707 0,28.83707 0,1.77069 1.0225,3.03549 4.8567,3.03549 3.8343,0 4.8568,-1.2648 4.8568,-3.03549 z"
       fill-rule="evenodd"
       id="path796" />
    <path
       stroke="#343434"
       stroke-width="1"
       stroke-miterlimit="800"
       stroke-linecap="butt"
       d="m 154.4779,122.08208 c 0,-28.83707 0,-28.83707 0,-28.83707 -0.2556,0.75885 -0.2556,2.02365 -3.323,2.52954 1.0224,0.50592 1.7893,1.77073 1.7893,3.0355 0,1.77069 -1.5337,3.28845 -3.3231,3.28845 -1.7893,0 -3.323,-1.51776 -3.323,-3.28845 0,-1.26477 0.7669,-2.52958 1.7893,-3.0355 -3.0674,-0.50589 -3.0674,-1.77069 -3.323,-2.52954 0,28.83707 0,28.83707 0,28.83707 0,1.77069 1.0225,3.03549 4.8567,3.03549 3.8343,0 4.8568,-1.2648 4.8568,-3.03549 z"
       fill-rule="evenodd"
       id="path797" />
    <path
       fill="#e43b8b"
       d="m 97.410601,93.30982 c 0,-20.71079 0,-20.71079 0,-20.71079 0,-1.26284 -1.02246,-3.03085 -4.85675,-3.03085 -3.83429,0 -4.85675,1.76801 -4.85675,3.03085 0,20.71079 0,20.71079 0,20.71079 4.85675,9.34512 4.85675,9.34512 4.85675,9.34512 z"
       fill-rule="evenodd"
       id="path798" />
    <path
       fill="#d33489"
       d="m 89.470851,93.30982 c 0,-20.71079 0,-20.71079 0,-20.71079 0,-1.26284 0.50684,-2.77828 3.80096,-3.03085 -0.25341,0 -0.50677,0 -0.76019,0 -3.80096,0 -4.81451,1.76801 -4.81451,3.03085 0,20.71079 0,20.71079 0,20.71079 4.81451,9.34512 4.81451,9.34512 4.81451,9.34512 1.01355,-1.01028 1.01355,-1.01028 1.01355,-1.01028 z"
       fill-rule="evenodd"
       id="path799" />
    <path
       fill="#e387b2"
       d="m 96.899401,72.59902 c 0,20.71078 0,20.71078 0,20.71078 -4.08991,9.34513 -4.08991,9.34513 -4.08991,9.34513 -0.25561,0 -0.25561,0 -0.25561,0 4.85675,-9.34513 4.85675,-9.34513 4.85675,-9.34513 0,-20.71078 0,-20.71078 0,-20.71078 0,-1.26285 -1.02246,-3.03085 -4.85675,-3.03085 0,0 0,0 -0.25562,0 3.83429,0 4.60114,1.768 4.60114,3.03085 z"
       fill-rule="evenodd"
       id="path800" />
    <path
       fill="#000000"
       fill-opacity="0"
       d="m 97.410601,93.30982 c 0,-20.71079 0,-20.71079 0,-20.71079 0,-1.26284 -1.02246,-3.03085 -4.85675,-3.03085 -3.83429,0 -4.85675,1.76801 -4.85675,3.03085 0,20.71079 0,20.71079 0,20.71079 4.85675,9.34512 4.85675,9.34512 4.85675,9.34512 z"
       fill-rule="evenodd"
       id="path801" />
    <path
       stroke="#343434"
       stroke-width="1"
       stroke-miterlimit="800"
       stroke-linecap="butt"
       d="m 97.410601,93.30982 c 0,-20.71079 0,-20.71079 0,-20.71079 0,-1.26284 -1.02246,-3.03085 -4.85675,-3.03085 -3.83429,0 -4.85675,1.76801 -4.85675,3.03085 0,20.71079 0,20.71079 0,20.71079 4.85675,9.34512 4.85675,9.34512 4.85675,9.34512 z"
       fill-rule="evenodd"
       id="path802" />
    <path
       fill="#e43b8b"
       d="m 214.58063,92.70272 c 0,-20.71079 0,-20.71079 0,-20.71079 0,-1.26287 -1.0225,-3.03085 -4.8568,-3.03085 -3.8342,0 -4.8567,1.76798 -4.8567,3.03085 0,20.71079 0,20.71079 0,20.71079 4.8567,9.34512 4.8567,9.34512 4.8567,9.34512 z"
       fill-rule="evenodd"
       id="path803" />
    <path
       fill="#d33489"
       d="m 206.64083,92.70272 c 0,-20.71079 0,-20.71079 0,-20.71079 0,-1.26287 0.5068,-2.77828 3.801,-3.03085 -0.2534,0 -0.5068,0 -0.7602,0 -3.8009,0 -4.8145,1.76798 -4.8145,3.03085 0,20.71079 0,20.71079 0,20.71079 4.8145,9.34512 4.8145,9.34512 4.8145,9.34512 1.0135,-1.01028 1.0135,-1.01028 1.0135,-1.01028 z"
       fill-rule="evenodd"
       id="path804" />
    <path
       fill="#e387b2"
       d="m 214.06943,71.99192 c 0,20.71078 0,20.71078 0,20.71078 -4.09,9.34513 -4.09,9.34513 -4.09,9.34513 -0.2556,0 -0.2556,0 -0.2556,0 4.8568,-9.34513 4.8568,-9.34513 4.8568,-9.34513 0,-20.71078 0,-20.71078 0,-20.71078 0,-1.26288 -1.0224,-3.03085 -4.8568,-3.03085 0,0 0,0 -0.2556,0 3.8344,0 4.6012,1.76797 4.6012,3.03085 z"
       fill-rule="evenodd"
       id="path805" />
    <path
       fill="#000000"
       fill-opacity="0"
       d="m 214.58063,92.70272 c 0,-20.71079 0,-20.71079 0,-20.71079 0,-1.26287 -1.0225,-3.03085 -4.8568,-3.03085 -3.8342,0 -4.8567,1.76798 -4.8567,3.03085 0,20.71079 0,20.71079 0,20.71079 4.8567,9.34512 4.8567,9.34512 4.8567,9.34512 z"
       fill-rule="evenodd"
       id="path806" />
    <path
       stroke="#343434"
       stroke-width="1"
       stroke-miterlimit="800"
       stroke-linecap="butt"
       d="m 214.58063,92.70272 c 0,-20.71079 0,-20.71079 0,-20.71079 0,-1.26287 -1.0225,-3.03085 -4.8568,-3.03085 -3.8342,0 -4.8567,1.76798 -4.8567,3.03085 0,20.71079 0,20.71079 0,20.71079 4.8567,9.34512 4.8567,9.34512 4.8567,9.34512 z"
       fill-rule="evenodd"
       id="path807" />
    <path
       fill="#e43b8b"
       d="m 139.9076,92.43725 c 0,-16.78226 0,-16.78226 0,-16.78226 0,-1.27139 -1.0119,-3.05133 -4.8063,-3.05133 -3.79434,0 -4.80618,1.77994 -4.80618,3.05133 0,16.78226 0,16.78226 0,16.78226 4.80618,9.4082 4.80618,9.4082 4.80618,9.4082 z"
       fill-rule="evenodd"
       id="path808" />
    <path
       fill="#d33489"
       d="m 131.8011,92.43725 c 0,-16.78226 0,-16.78226 0,-16.78226 0,-1.01712 0.75299,-2.79706 4.0161,-2.79706 -0.2511,-0.25427 -0.5021,-0.25427 -0.7531,-0.25427 -3.76501,0 -4.76898,1.77994 -4.76898,3.05133 0,16.78226 0,16.78226 0,16.78226 4.76898,9.4082 4.76898,9.4082 4.76898,9.4082 0.7531,-1.01709 0.7531,-1.01709 0.7531,-1.01709 z"
       fill-rule="evenodd"
       id="path809" />
    <path
       fill="#e387b2"
       d="m 139.4065,75.65499 c 0,16.78226 0,16.78226 0,16.78226 -4.2591,9.4082 -4.2591,9.4082 -4.2591,9.4082 0,0 0,0 0,0 4.7602,-9.4082 4.7602,-9.4082 4.7602,-9.4082 0,-16.78226 0,-16.78226 0,-16.78226 0,-1.27139 -1.0022,-3.05133 -4.7602,-3.05133 0,0 -0.2506,0 -0.2506,0 3.5075,0.25427 4.5097,2.03421 4.5097,3.05133 z"
       fill-rule="evenodd"
       id="path810" />
    <path
       fill="#000000"
       fill-opacity="0"
       d="m 139.9076,92.43725 c 0,-16.78226 0,-16.78226 0,-16.78226 0,-1.27139 -1.0119,-3.05133 -4.8063,-3.05133 -3.79434,0 -4.80618,1.77994 -4.80618,3.05133 0,16.78226 0,16.78226 0,16.78226 4.80618,9.4082 4.80618,9.4082 4.80618,9.4082 z"
       fill-rule="evenodd"
       id="path811" />
    <path
       stroke="#343434"
       stroke-width="1"
       stroke-miterlimit="800"
       stroke-linecap="butt"
       d="m 139.9076,92.43725 c 0,-16.78226 0,-16.78226 0,-16.78226 0,-1.27139 -1.0119,-3.05133 -4.8063,-3.05133 -3.79434,0 -4.80618,1.77994 -4.80618,3.05133 0,16.78226 0,16.78226 0,16.78226 4.80618,9.4082 4.80618,9.4082 4.80618,9.4082 z"
       fill-rule="evenodd"
       id="path812" />
    <path
       fill="#e43b8b"
       d="m 258.79743,91.83012 c 0,-16.78226 0,-16.78226 0,-16.78226 0,-1.27136 -1.0117,-3.0513 -4.8062,-3.0513 -3.7943,0 -4.806,1.77994 -4.806,3.0513 0,16.78226 0,16.78226 0,16.78226 4.806,9.40823 4.806,9.40823 4.806,9.40823 z"
       fill-rule="evenodd"
       id="path813" />
    <path
       fill="#d33489"
       d="m 250.69123,91.83012 c 0,-16.78226 0,-16.78226 0,-16.78226 0,-1.01709 0.7529,-2.79702 4.0159,-2.79702 -0.251,-0.25428 -0.502,-0.25428 -0.753,-0.25428 -3.765,0 -4.7689,1.77994 -4.7689,3.0513 0,16.78226 0,16.78226 0,16.78226 4.7689,9.40823 4.7689,9.40823 4.7689,9.40823 0.753,-1.01709 0.753,-1.01709 0.753,-1.01709 z"
       fill-rule="evenodd"
       id="path814" />
    <path
       fill="#e387b2"
       d="m 258.29653,75.04787 c 0,16.78226 0,16.78226 0,16.78226 -4.2592,9.40823 -4.2592,9.40823 -4.2592,9.40823 0,0 0,0 0,0 4.7602,-9.40823 4.7602,-9.40823 4.7602,-9.40823 0,-16.78226 0,-16.78226 0,-16.78226 0,-1.27136 -1.0021,-3.0513 -4.7602,-3.0513 0,0 -0.2504,0 -0.2504,0 3.5074,0.25427 4.5096,2.03421 4.5096,3.0513 z"
       fill-rule="evenodd"
       id="path815" />
    <path
       fill="#000000"
       fill-opacity="0"
       d="m 258.79743,91.83012 c 0,-16.78226 0,-16.78226 0,-16.78226 0,-1.27136 -1.0117,-3.0513 -4.8062,-3.0513 -3.7943,0 -4.806,1.77994 -4.806,3.0513 0,16.78226 0,16.78226 0,16.78226 4.806,9.40823 4.806,9.40823 4.806,9.40823 z"
       fill-rule="evenodd"
       id="path816" />
    <path
       stroke="#343434"
       stroke-width="1"
       stroke-miterlimit="800"
       stroke-linecap="butt"
       d="m 258.79743,91.83012 c 0,-16.78226 0,-16.78226 0,-16.78226 0,-1.27136 -1.0117,-3.0513 -4.8062,-3.0513 -3.7943,0 -4.806,1.77994 -4.806,3.0513 0,16.78226 0,16.78226 0,16.78226 4.806,9.40823 4.806,9.40823 4.806,9.40823 z"
       fill-rule="evenodd"
       id="path817" />
    <path
       fill="#e3231e"
       d="m 97.309401,93.24502 c -4.80615,9.37415 -4.80615,9.37415 -4.80615,9.37415 -4.80615,-9.37415 -4.80615,-9.37415 -4.80615,-9.37415 0,0 0,0 0,0 0,29.13586 0,29.13586 0,29.13586 0,1.26679 1.01178,3.04026 4.80615,3.04026 3.79431,0 4.80615,-1.77347 4.80615,-3.04026 0,0 0,0 0,0 z"
       fill-rule="evenodd"
       id="path818" />
    <path
       fill="#ea6440"
       d="m 97.309401,122.38088 c 0,-29.13586 0,-29.13586 0,-29.13586 -0.5011,1.01339 -0.5011,1.01339 -0.5011,1.01339 0,28.12247 0,28.12247 0,28.12247 0,1.26678 -1.00213,3.04025 -4.50958,3.04025 0,0 0.25055,0 0.25055,0 3.75799,0 4.76013,-1.77347 4.76013,-3.04025 z"
       fill-rule="evenodd"
       id="path819" />
    <path
       fill="#d0111c"
       d="m 93.219001,125.42112 c -3.26294,-0.25336 -4.01593,-1.77347 -4.01593,-3.04025 0,-26.34897 0,-26.34897 0,-26.34897 -1.50598,-2.7869 -1.50598,-2.7869 -1.50598,-2.7869 0,0 0,0 0,0 0,29.13587 0,29.13587 0,29.13587 0,1.26678 1.00397,3.04025 4.76892,3.04025 0.25104,0 0.50201,0 0.75299,0 z"
       fill-rule="evenodd"
       id="path820" />
    <path
       fill="#000000"
       fill-opacity="0"
       d="m 97.309401,93.24502 c -4.80615,9.37415 -4.80615,9.37415 -4.80615,9.37415 -4.80615,-9.37415 -4.80615,-9.37415 -4.80615,-9.37415 0,0 0,0 0,0 0,29.13586 0,29.13586 0,29.13586 0,1.26679 1.01178,3.04026 4.80615,3.04026 3.79431,0 4.80615,-1.77347 4.80615,-3.04026 0,0 0,0 0,0 z"
       fill-rule="evenodd"
       id="path821" />
    <path
       stroke="#343434"
       stroke-width="1"
       stroke-miterlimit="800"
       stroke-linecap="butt"
       d="m 97.309401,93.24502 c -4.80615,9.37415 -4.80615,9.37415 -4.80615,9.37415 -4.80615,-9.37415 -4.80615,-9.37415 -4.80615,-9.37415 0,0 0,0 0,0 0,29.13586 0,29.13586 0,29.13586 0,1.26679 1.01178,3.04026 4.80615,3.04026 3.79431,0 4.80615,-1.77347 4.80615,-3.04026 0,0 0,0 0,0 z"
       fill-rule="evenodd"
       id="path822" />
    <path
       fill="#ea6440"
       d="m 95.059701,98.11709 -2.49561,4.67886 -1.69702,-3.68335 1.69702,4.1811 z"
       fill-rule="evenodd"
       id="path823" />
    <path
       fill="#e3231e"
       d="m 214.47953,93.24502 c -4.8062,9.37415 -4.8062,9.37415 -4.8062,9.37415 -4.8061,-9.37415 -4.8061,-9.37415 -4.8061,-9.37415 0,0 0,0 0,0 0,29.13586 0,29.13586 0,29.13586 0,1.26679 1.0117,3.04026 4.8061,3.04026 3.7944,0 4.8062,-1.77347 4.8062,-3.04026 0,0 0,0 0,0 z"
       fill-rule="evenodd"
       id="path824" />
    <path
       fill="#ea6440"
       d="m 214.47953,122.38088 c 0,-29.13586 0,-29.13586 0,-29.13586 -0.5011,1.01339 -0.5011,1.01339 -0.5011,1.01339 0,28.12247 0,28.12247 0,28.12247 0,1.26678 -1.0022,3.04025 -4.5096,3.04025 0,0 0.2506,0 0.2506,0 3.7579,0 4.7601,-1.77347 4.7601,-3.04025 z"
       fill-rule="evenodd"
       id="path825" />
    <path
       fill="#d0111c"
       d="m 210.38903,125.42112 c -3.2629,-0.25336 -4.0159,-1.77347 -4.0159,-3.04025 0,-26.34897 0,-26.34897 0,-26.34897 -1.506,-2.7869 -1.506,-2.7869 -1.506,-2.7869 0,0 0,0 0,0 0,29.13587 0,29.13587 0,29.13587 0,1.26678 1.004,3.04025 4.769,3.04025 0.2509,0 0.5019,0 0.7529,0 z"
       fill-rule="evenodd"
       id="path826" />
    <path
       fill="#000000"
       fill-opacity="0"
       d="m 214.47953,93.24502 c -4.8062,9.37415 -4.8062,9.37415 -4.8062,9.37415 -4.8061,-9.37415 -4.8061,-9.37415 -4.8061,-9.37415 0,0 0,0 0,0 0,29.13586 0,29.13586 0,29.13586 0,1.26679 1.0117,3.04026 4.8061,3.04026 3.7944,0 4.8062,-1.77347 4.8062,-3.04026 0,0 0,0 0,0 z"
       fill-rule="evenodd"
       id="path827" />
    <path
       stroke="#343434"
       stroke-width="1"
       stroke-miterlimit="800"
       stroke-linecap="butt"
       d="m 214.47953,93.24502 c -4.8062,9.37415 -4.8062,9.37415 -4.8062,9.37415 -4.8061,-9.37415 -4.8061,-9.37415 -4.8061,-9.37415 0,0 0,0 0,0 0,29.13586 0,29.13586 0,29.13586 0,1.26679 1.0117,3.04026 4.8061,3.04026 3.7944,0 4.8062,-1.77347 4.8062,-3.04026 0,0 0,0 0,0 z"
       fill-rule="evenodd"
       id="path828" />
    <path
       fill="#ea6440"
       d="m 212.22973,98.11709 -2.4956,4.67886 -1.697,-3.68335 1.697,4.1811 z"
       fill-rule="evenodd"
       id="path829" />
    <path
       fill="#f7ad36"
       d="m 111.8797,117.52346 c 0,-25.08786 0,-25.08786 0,-25.08786 -0.25293,0.76025 -0.50592,2.28073 -3.28839,2.78754 1.01184,0.50683 1.77069,1.52047 1.77069,2.78753 0,2.02732 -1.51776,3.54779 -3.28845,3.54779 -2.02362,0 -3.28839,-1.52047 -3.28839,-3.54779 0,-1.26706 0.50592,-2.2807 1.77069,-2.78753 -3.03546,-0.50681 -3.28845,-2.02729 -3.28845,-2.78754 0,25.08786 0,25.08786 0,25.08786 0,1.7739 1.01184,3.04095 4.80615,3.04095 3.79437,0 4.80615,-1.26705 4.80615,-3.04095 z"
       fill-rule="evenodd"
       id="path830" />
    <path
       fill="#facf71"
       d="m 111.8797,117.52346 c 0,-25.08786 0,-25.08786 0,-25.08786 0,0.25342 -0.25049,1.26706 -0.75159,1.52048 0,23.56738 0,23.56738 0,23.56738 0,1.52048 -0.75158,3.04095 -4.25903,3.04095 0,0 0,0 0.25049,0 3.75799,0 4.76013,-1.26705 4.76013,-3.04095 z"
       fill-rule="evenodd"
       id="path831" />
    <path
       fill="#f08b37"
       d="m 108.59133,95.22314 c 1.01184,0.50684 1.77069,1.52048 1.77069,2.78754 0,1.77389 -1.01184,3.04095 -2.52954,3.54779 0,0 0.25293,0 0.50586,0 1.77069,-0.25342 2.78253,-1.52048 2.78253,-3.54779 0,-1.26706 -0.50592,-2.2807 -1.5177,-2.78754 1.5177,-0.25342 2.27655,-1.52048 2.27655,-2.53412 0,-0.25342 0,-0.25342 0,-0.25342 -0.25293,0.76026 -0.50592,2.28073 -3.28839,2.78754 z m -0.75885,25.34128 c -3.54138,-0.25342 -4.30023,-1.52048 -4.30023,-3.04096 0,-23.06054 0,-23.06054 0,-23.06054 -1.01184,-0.50684 -1.26483,-1.52048 -1.26483,-2.02732 0,25.08786 0,25.08786 0,25.08786 0,1.7739 1.01184,3.04096 4.80615,3.04096 0.25299,0 0.50592,0 0.75891,0 z"
       fill-rule="evenodd"
       id="path832" />
    <path
       fill="#000000"
       fill-opacity="0"
       d="m 111.8797,117.52346 c 0,-25.08786 0,-25.08786 0,-25.08786 -0.25293,0.76025 -0.50592,2.28073 -3.28839,2.78754 1.01184,0.50683 1.77069,1.52047 1.77069,2.78753 0,2.02732 -1.51776,3.54779 -3.28845,3.54779 -2.02362,0 -3.28839,-1.52047 -3.28839,-3.54779 0,-1.26706 0.50592,-2.2807 1.77069,-2.78753 -3.03546,-0.50681 -3.28845,-2.02729 -3.28845,-2.78754 0,25.08786 0,25.08786 0,25.08786 0,1.7739 1.01184,3.04095 4.80615,3.04095 3.79437,0 4.80615,-1.26705 4.80615,-3.04095 z"
       fill-rule="evenodd"
       id="path833" />
    <path
       stroke="#343434"
       stroke-width="1"
       stroke-miterlimit="800"
       stroke-linecap="butt"
       d="m 111.8797,117.52346 c 0,-25.08786 0,-25.08786 0,-25.08786 -0.25293,0.76025 -0.50592,2.28073 -3.28839,2.78754 1.01184,0.50683 1.77069,1.52047 1.77069,2.78753 0,2.02732 -1.51776,3.54779 -3.28845,3.54779 -2.02362,0 -3.28839,-1.52047 -3.28839,-3.54779 0,-1.26706 0.50592,-2.2807 1.77069,-2.78753 -3.03546,-0.50681 -3.28845,-2.02729 -3.28845,-2.78754 0,25.08786 0,25.08786 0,25.08786 0,1.7739 1.01184,3.04095 4.80615,3.04095 3.79437,0 4.80615,-1.26705 4.80615,-3.04095 z"
       fill-rule="evenodd"
       id="path834" />
    <path
       fill="#f7ad36"
       d="m 169.65543,119.14232 c 0,-25.08786 0,-25.08786 0,-25.08786 -0.2529,0.76025 -0.506,2.28073 -3.2885,2.78754 1.0119,0.50683 1.7707,1.52047 1.7707,2.78753 0,2.02732 -1.5177,3.54779 -3.2885,3.54779 -2.02353,0 -3.28843,-1.52047 -3.28843,-3.54779 0,-1.26706 0.506,-2.2807 1.7707,-2.78753 -3.0355,-0.50681 -3.2884,-2.02729 -3.2884,-2.78754 0,25.08786 0,25.08786 0,25.08786 0,1.7739 1.0118,3.04095 4.80613,3.04095 3.7945,0 4.8063,-1.26705 4.8063,-3.04095 z"
       fill-rule="evenodd"
       id="path835" />
    <path
       fill="#facf71"
       d="m 169.65543,119.14232 c 0,-25.08786 0,-25.08786 0,-25.08786 0,0.25342 -0.2505,1.26706 -0.7516,1.52048 0,23.56738 0,23.56738 0,23.56738 0,1.52048 -0.7516,3.04095 -4.25913,3.04095 0,0 0,0 0.25043,0 3.7581,0 4.7603,-1.26705 4.7603,-3.04095 z"
       fill-rule="evenodd"
       id="path836" />
    <path
       fill="#f08b37"
       d="m 166.36693,96.842 c 1.0118,0.50684 1.7706,1.52048 1.7706,2.78754 0,1.77389 -1.0117,3.04095 -2.5295,3.54779 0,0 0.2529,0 0.506,0 1.7706,-0.25342 2.7824,-1.52048 2.7824,-3.54779 0,-1.26706 -0.5058,-2.2807 -1.5177,-2.78754 1.5177,-0.25342 2.2767,-1.52048 2.2767,-2.53412 0,-0.25342 0,-0.25342 0,-0.25342 -0.253,0.76026 -0.506,2.28073 -3.2885,2.78754 z m -0.7589,25.34128 c -3.54143,-0.25342 -4.30033,-1.52048 -4.30033,-3.04096 0,-23.06054 0,-23.06054 0,-23.06054 -1.0118,-0.50684 -1.2648,-1.52048 -1.2648,-2.02732 0,25.08786 0,25.08786 0,25.08786 0,1.7739 1.0119,3.04096 4.80623,3.04096 0.253,0 0.506,0 0.7589,0 z"
       fill-rule="evenodd"
       id="path837" />
    <path
       fill="#000000"
       fill-opacity="0"
       d="m 169.65543,119.14232 c 0,-25.08786 0,-25.08786 0,-25.08786 -0.2529,0.76025 -0.506,2.28073 -3.2885,2.78754 1.0119,0.50683 1.7707,1.52047 1.7707,2.78753 0,2.02732 -1.5177,3.54779 -3.2885,3.54779 -2.02353,0 -3.28843,-1.52047 -3.28843,-3.54779 0,-1.26706 0.506,-2.2807 1.7707,-2.78753 -3.0355,-0.50681 -3.2884,-2.02729 -3.2884,-2.78754 0,25.08786 0,25.08786 0,25.08786 0,1.7739 1.0118,3.04095 4.80613,3.04095 3.7945,0 4.8063,-1.26705 4.8063,-3.04095 z"
       fill-rule="evenodd"
       id="path838" />
    <path
       stroke="#343434"
       stroke-width="1"
       stroke-miterlimit="800"
       stroke-linecap="butt"
       d="m 169.65543,119.14232 c 0,-25.08786 0,-25.08786 0,-25.08786 -0.2529,0.76025 -0.506,2.28073 -3.2885,2.78754 1.0119,0.50683 1.7707,1.52047 1.7707,2.78753 0,2.02732 -1.5177,3.54779 -3.2885,3.54779 -2.02353,0 -3.28843,-1.52047 -3.28843,-3.54779 0,-1.26706 0.506,-2.2807 1.7707,-2.78753 -3.0355,-0.50681 -3.2884,-2.02729 -3.2884,-2.78754 0,25.08786 0,25.08786 0,25.08786 0,1.7739 1.0118,3.04095 4.80613,3.04095 3.7945,0 4.8063,-1.26705 4.8063,-3.04095 z"
       fill-rule="evenodd"
       id="path839" />
    <path
       fill="#f7ad36"
       d="m 229.15103,118.83882 c 0,-25.08789 0,-25.08789 0,-25.08789 -0.2529,0.76025 -0.5059,2.28073 -3.2885,2.78757 1.0119,0.5068 1.7708,1.52047 1.7708,2.78753 0,2.02729 -1.5178,3.54776 -3.2885,3.54776 -2.0236,0 -3.2884,-1.52047 -3.2884,-3.54776 0,-1.26706 0.5059,-2.28073 1.7706,-2.78753 -3.0355,-0.50684 -3.2884,-2.02732 -3.2884,-2.78757 0,25.08789 0,25.08789 0,25.08789 0,1.77386 1.0118,3.04095 4.8062,3.04095 3.7944,0 4.8062,-1.26709 4.8062,-3.04095 z"
       fill-rule="evenodd"
       id="path840" />
    <path
       fill="#facf71"
       d="m 229.15103,118.83882 c 0,-25.08789 0,-25.08789 0,-25.08789 0,0.25342 -0.2505,1.26709 -0.7516,1.52048 0,23.56741 0,23.56741 0,23.56741 0,1.52048 -0.7516,3.04095 -4.2591,3.04095 0,0 0,0 0.2506,0 3.7579,0 4.7601,-1.26708 4.7601,-3.04095 z"
       fill-rule="evenodd"
       id="path841" />
    <path
       fill="#f08b37"
       d="m 225.86253,96.5385 c 1.0118,0.50681 1.7708,1.52048 1.7708,2.78754 0,1.77386 -1.0119,3.04095 -2.5297,3.54776 0,0 0.253,0 0.506,0 1.7706,-0.25342 2.7824,-1.52048 2.7824,-3.54776 0,-1.26706 -0.5058,-2.28073 -1.5177,-2.78754 1.5177,-0.25342 2.2767,-1.52048 2.2767,-2.53415 0,-0.25342 0,-0.25342 0,-0.25342 -0.253,0.76026 -0.5059,2.28073 -3.2885,2.78757 z m -0.7589,25.34128 c -3.5414,-0.25342 -4.3003,-1.52048 -4.3003,-3.04096 0,-23.06057 0,-23.06057 0,-23.06057 -1.0118,-0.50684 -1.2648,-1.52048 -1.2648,-2.02732 0,25.08789 0,25.08789 0,25.08789 0,1.77387 1.0119,3.04096 4.8063,3.04096 0.2529,0 0.5059,0 0.7588,0 z"
       fill-rule="evenodd"
       id="path842" />
    <path
       fill="#000000"
       fill-opacity="0"
       d="m 229.15103,118.83882 c 0,-25.08789 0,-25.08789 0,-25.08789 -0.2529,0.76025 -0.5059,2.28073 -3.2885,2.78757 1.0119,0.5068 1.7708,1.52047 1.7708,2.78753 0,2.02729 -1.5178,3.54776 -3.2885,3.54776 -2.0236,0 -3.2884,-1.52047 -3.2884,-3.54776 0,-1.26706 0.5059,-2.28073 1.7706,-2.78753 -3.0355,-0.50684 -3.2884,-2.02732 -3.2884,-2.78757 0,25.08789 0,25.08789 0,25.08789 0,1.77386 1.0118,3.04095 4.8062,3.04095 3.7944,0 4.8062,-1.26709 4.8062,-3.04095 z"
       fill-rule="evenodd"
       id="path843" />
    <path
       stroke="#343434"
       stroke-width="1"
       stroke-miterlimit="800"
       stroke-linecap="butt"
       d="m 229.15103,118.83882 c 0,-25.08789 0,-25.08789 0,-25.08789 -0.2529,0.76025 -0.5059,2.28073 -3.2885,2.78757 1.0119,0.5068 1.7708,1.52047 1.7708,2.78753 0,2.02729 -1.5178,3.54776 -3.2885,3.54776 -2.0236,0 -3.2884,-1.52047 -3.2884,-3.54776 0,-1.26706 0.5059,-2.28073 1.7706,-2.78753 -3.0355,-0.50684 -3.2884,-2.02732 -3.2884,-2.78757 0,25.08789 0,25.08789 0,25.08789 0,1.77386 1.0118,3.04095 4.8062,3.04095 3.7944,0 4.8062,-1.26709 4.8062,-3.04095 z"
       fill-rule="evenodd"
       id="path844" />
    <path
       fill="#f7ad36"
       d="m 273.57033,121.77856 c 0,-28.83713 0,-28.83713 0,-28.83713 -0.2556,0.75885 -0.2556,2.02365 -3.3231,2.52957 1.0224,0.50592 1.7893,1.77069 1.7893,3.0355 0,1.77069 -1.5337,3.28842 -3.323,3.28842 -1.7893,0 -3.323,-1.51773 -3.323,-3.28842 0,-1.26481 0.7668,-2.52958 1.7893,-3.0355 -3.0674,-0.50592 -3.0674,-1.77072 -3.323,-2.52957 0,28.83713 0,28.83713 0,28.83713 0,1.77069 1.0225,3.03549 4.8567,3.03549 3.8342,0 4.8568,-1.2648 4.8568,-3.03549 z"
       fill-rule="evenodd"
       id="path845" />
    <path
       fill="#facf71"
       d="m 273.57033,121.77856 c 0,-28.83713 0,-28.83713 0,-28.83713 0,0.25296 -0.2506,1.01181 -0.7516,1.51773 0,27.3194 0,27.3194 0,27.3194 0,1.77069 -0.7515,3.03549 -4.2585,3.03549 0,0 0.2505,0 0.2505,0 3.7575,0 4.7596,-1.2648 4.7596,-3.03549 z"
       fill-rule="evenodd"
       id="path846" />
    <path
       fill="#f08b37"
       d="m 270.24713,95.471 c 1.0225,0.50592 1.7893,1.77069 1.7893,3.03549 0,1.51773 -1.0225,3.03549 -2.5561,3.28842 0.2556,0 0.2556,0 0.5112,0 1.7893,0 2.8118,-1.51773 2.8118,-3.28842 0,-1.2648 -0.5113,-2.52957 -1.5337,-3.03549 1.5337,-0.25296 2.3006,-1.51776 2.3006,-2.52957 0,0 0,0 0,0 -0.2556,0.75885 -0.2556,2.02365 -3.3231,2.52957 z m -0.7668,29.34305 c -3.5787,0 -4.3455,-1.51773 -4.3455,-3.03549 0,-26.81348 0,-26.81348 0,-26.81348 -1.0225,-0.50592 -1.2781,-1.77069 -1.2781,-2.02365 0,28.83713 0,28.83713 0,28.83713 0,1.77069 1.0225,3.03549 4.8567,3.03549 0.2556,0 0.5112,0 0.7669,0 z"
       fill-rule="evenodd"
       id="path847" />
    <path
       fill="#000000"
       fill-opacity="0"
       d="m 273.57033,121.77856 c 0,-28.83713 0,-28.83713 0,-28.83713 -0.2556,0.75885 -0.2556,2.02365 -3.3231,2.52957 1.0224,0.50592 1.7893,1.77069 1.7893,3.0355 0,1.77069 -1.5337,3.28842 -3.323,3.28842 -1.7893,0 -3.323,-1.51773 -3.323,-3.28842 0,-1.26481 0.7668,-2.52958 1.7893,-3.0355 -3.0674,-0.50592 -3.0674,-1.77072 -3.323,-2.52957 0,28.83713 0,28.83713 0,28.83713 0,1.77069 1.0225,3.03549 4.8567,3.03549 3.8342,0 4.8568,-1.2648 4.8568,-3.03549 z"
       fill-rule="evenodd"
       id="path848" />
    <path
       stroke="#343434"
       stroke-width="1"
       stroke-miterlimit="800"
       stroke-linecap="butt"
       d="m 273.57033,121.77856 c 0,-28.83713 0,-28.83713 0,-28.83713 -0.2556,0.75885 -0.2556,2.02365 -3.3231,2.52957 1.0224,0.50592 1.7893,1.77069 1.7893,3.0355 0,1.77069 -1.5337,3.28842 -3.323,3.28842 -1.7893,0 -3.323,-1.51773 -3.323,-3.28842 0,-1.26481 0.7668,-2.52958 1.7893,-3.0355 -3.0674,-0.50592 -3.0674,-1.77072 -3.323,-2.52957 0,28.83713 0,28.83713 0,28.83713 0,1.77069 1.0225,3.03549 4.8567,3.03549 3.8342,0 4.8568,-1.2648 4.8568,-3.03549 z"
       fill-rule="evenodd"
       id="path849" />
    <path
       fill="#000000"
       fill-opacity="0"
       d="m 134.5298,141.39792 h 99.75093 v 38.77493 H 134.5297 Z"
       fill-rule="evenodd"
       id="path850" />
    <path
       fill="#70ad47"
       d="m 162.9912,162.12542 3.37503,1.0625 q -0.7812,2.8125 -2.57813,4.1875 -1.7969,1.35938 -4.5625,1.35938 -3.4219,0 -5.625,-2.34375 -2.2032,-2.34375 -2.2032,-6.39063 0,-4.29687 2.2032,-6.65625 2.2187,-2.375 5.8281,-2.375 3.1563,0 5.125,1.85938 1.17193,1.09375 1.76563,3.15625 l -3.43753,0.82812 q -0.3125,-1.34375 -1.2812,-2.10937 -0.9531,-0.78125 -2.3438,-0.78125 -1.9062,0 -3.0937,1.375 -1.1875,1.375 -1.1875,4.4375 0,3.26562 1.1718,4.65625 1.1719,1.375 3.0469,1.375 1.375,0 2.375,-0.875 1,-0.89063 1.4219,-2.76563 z m 17.33203,0 3.375,1.0625 q -0.7812,2.8125 -2.5781,4.1875 -1.7969,1.35938 -4.5625,1.35938 -3.4219,0 -5.625,-2.34375 -2.2031,-2.34375 -2.2031,-6.39063 0,-4.29687 2.2031,-6.65625 2.2188,-2.375 5.8281,-2.375 3.1563,0 5.125,1.85938 1.1719,1.09375 1.7657,3.15625 l -3.4375,0.82812 q -0.3125,-1.34375 -1.2813,-2.10937 -0.9531,-0.78125 -2.3437,-0.78125 -1.9063,0 -3.0938,1.375 -1.1875,1.375 -1.1875,4.4375 0,3.26562 1.1719,4.65625 1.1719,1.375 3.0469,1.375 1.375,0 2.375,-0.875 1,-0.89063 1.4218,-2.76563 z m 9.6094,6.3125 v -14.28125 h -5.0937 v -2.90625 h 13.6562 v 2.90625 h -5.0937 v 14.28125 z m 20.0742,-2 v 2 h -3.3906 v -2 q -4.1094,-0.15625 -5.8125,-2.03125 -1.6875,-1.89062 -1.6875,-4.71875 0,-2.96875 1.7656,-4.76562 1.7657,-1.79688 5.7344,-1.95313 v -1.70312 h 3.3906 v 1.70312 q 4.0938,0.15625 5.7969,2.01563 1.7031,1.85937 1.7031,4.71875 0,2.84375 -1.7031,4.71875 -1.6875,1.85937 -5.7969,2.01562 z m 0,-2.90625 q 1.3594,0 2.3438,-0.45312 0.9844,-0.45313 1.3906,-1.21875 0.4063,-0.78125 0.4063,-2.26563 0,-3.73437 -4.1407,-3.73437 z m -3.3906,0 v -7.67187 q -2.1875,0 -3.1719,0.98437 -0.9687,0.96875 -0.9687,2.95313 0,3.73437 4.1406,3.73437 z"
       fill-rule="nonzero"
       id="path851" />
    <path
       fill="#70ad47"
       d="m 134.8554,129.91698 h 98.27863 v 12.19916 H 134.8554 Z"
       fill-rule="evenodd"
       id="path852" />
    <path
       stroke="#70ad47"
       stroke-width="1.33333"
       stroke-miterlimit="800"
       stroke-linecap="butt"
       d="m 134.8554,129.91698 h 98.27863 v 12.19916 H 134.8554 Z"
       fill-rule="evenodd"
       id="path853" />
    <path
       fill="#000000"
       fill-opacity="0"
       d="M 134.5298,160.78539 81.175441,186.61214"
       fill-rule="evenodd"
       id="path854" />
    <path
       stroke="#000000"
       stroke-width="2.66667"
       stroke-miterlimit="800"
       stroke-linecap="butt"
       d="M 134.5297,160.78536 90.272311,182.20867"
       fill-rule="evenodd"
       id="path855" />
    <path
       fill="#000000"
       stroke="#000000"
       stroke-width="2.66667"
       stroke-linecap="butt"
       d="m 82.375501,186.03122 c -1.0556,-2.18066 -0.14355,-4.80411 2.03711,-5.85968 2.18066,-1.05557 4.80414,-0.14352 5.85968,2.03714 1.05554,2.18063 0.14349,4.80411 -2.03711,5.85965 -2.18066,1.05557 -4.80414,0.14352 -5.85968,-2.03711 z"
       fill-rule="nonzero"
       id="path856" />
    <path
       fill="#bbe278"
       d="m 127.62106,58.74462 c 6.04321,12.40845 20.43174,10.5202 26.18724,11.05969 11.79863,1.07901 20.71963,8.63199 31.94263,10.78998 15.5397,2.69748 23.3096,-2.96725 37.1226,-6.47403 6.0432,-1.6185 13.5253,-3.237 18.4175,-7.82272 4.3165,-4.04627 6.6186,-10.25049 4.6042,-20.50098 -2.0144,-11.59924 -18.4173,-16.45471 -29.3526,-17.53369 -23.5973,-2.15799 -36.8349,2.69751 -53.52573,0.53952 -26.1872,-3.23697 -41.72683,17.53375 -35.39584,29.94223 z"
       fill-rule="evenodd"
       id="path857" />
    <path
       fill="#91cd35"
       d="m 161.8524,30.64205 c -9.7856,-1.34921 -17.2687,0.80954 -23.6005,4.85718 5.7562,-2.69843 15.5418,-2.69843 24.4639,-1.61908 16.98103,2.42859 27.05433,0 50.36713,2.15872 10.9367,1.07935 27.6297,2.96823 29.6445,14.57144 0.8634,4.85718 2.3025,8.09528 -0.2878,12.68259 2.3024,-3.50794 3.7415,-8.90479 2.5903,-15.65085 -2.0148,-11.60321 -18.7078,-16.46036 -29.6445,-17.5397 -23.3128,-2.15872 -36.5522,2.69842 -53.53303,0.5397 z"
       fill-rule="evenodd"
       id="path858" />
    <path
       fill="#e5f5c7"
       d="m 222.57693,70.20892 c -13.8104,3.228 -18.9894,4.57297 -34.5261,1.883 -11.221,-1.88297 -21.0033,-7.80091 -32.79983,-8.8769 -4.6034,-0.53799 -19.8524,3.228 -26.18222,-5.11093 6.61752,10.75989 20.14022,9.14591 25.60682,9.6839 11.50873,0.80698 20.71563,8.60791 31.93663,10.49088 15.5367,2.95898 23.0174,-2.95899 36.8279,-6.45597 4.6034,-1.07599 9.4946,-2.15197 14.0981,-4.57296 -5.7544,1.345 -11.5088,1.88299 -14.9613,2.95898 z"
       fill-rule="evenodd"
       id="path859" />
    <path
       fill="#ffffff"
       d="m 129.06875,58.26549 c 6.60975,10.78137 22.12815,6.73834 25.86405,7.2774 11.49533,1.61722 20.40403,10.78138 31.61173,12.6681 -11.2077,-1.88672 -20.4039,-9.70322 -31.89903,-10.51181 -5.4602,-0.53907 -18.967,1.07815 -25.57675,-9.70322"
       fill-rule="evenodd"
       id="path860" />
    <path
       fill="#000000"
       fill-opacity="0"
       d="m 127.62106,58.74462 c 6.04321,12.40845 20.43174,10.5202 26.18724,11.05969 11.79863,1.07901 20.71963,8.63199 31.94263,10.78998 15.5397,2.69748 23.3096,-2.96725 37.1226,-6.47403 6.0432,-1.6185 13.5253,-3.237 18.4175,-7.82272 4.3165,-4.04627 6.6186,-10.25049 4.6042,-20.50098 -2.0144,-11.59924 -18.4173,-16.45471 -29.3526,-17.53369 -23.5973,-2.15799 -36.8349,2.69751 -53.52573,0.53952 -26.1872,-3.23697 -41.72683,17.53375 -35.39584,29.94223 z"
       fill-rule="evenodd"
       id="path861" />
    <path
       stroke="#333333"
       stroke-width="1"
       stroke-linejoin="round"
       stroke-linecap="round"
       d="m 127.62106,58.74462 c 6.04321,12.40845 20.43174,10.5202 26.18724,11.05969 11.79863,1.07901 20.71963,8.63199 31.94263,10.78998 15.5397,2.69748 23.3096,-2.96725 37.1226,-6.47403 6.0432,-1.6185 13.5253,-3.237 18.4175,-7.82272 4.3165,-4.04627 6.6186,-10.25049 4.6042,-20.50098 -2.0144,-11.59924 -18.4173,-16.45471 -29.3526,-17.53369 -23.5973,-2.15799 -36.8349,2.69751 -53.52573,0.53952 -26.1872,-3.23697 -41.72683,17.53375 -35.39584,29.94223 z"
       fill-rule="evenodd"
       id="path862" />
    <path
       fill="#000000"
       fill-opacity="0"
       d="m 234.28073,160.78539 66.2992,23.81101"
       fill-rule="evenodd"
       id="path863" />
    <path
       stroke="#000000"
       stroke-width="2.66667"
       stroke-miterlimit="800"
       stroke-linecap="butt"
       d="m 234.28073,160.78536 56.7874,20.3949"
       fill-rule="evenodd"
       id="path864" />
    <path
       fill="#000000"
       stroke="#000000"
       stroke-width="2.66667"
       stroke-linecap="butt"
       d="m 299.32503,184.14572 c -0.8188,2.28009 -3.3311,3.46463 -5.6112,2.64575 -2.2802,-0.81888 -3.4646,-3.33111 -2.6458,-5.6112 0.8189,-2.28009 3.3311,-3.46463 5.6112,-2.64576 2.2802,0.81888 3.4646,3.33112 2.6458,5.61121 z"
       fill-rule="nonzero"
       id="path865" />
    <path
       fill="#000000"
       fill-opacity="0"
       d="M 2.8277047,186.60558 H 159.5432 v 38.7749 H 2.8277047 Z"
       fill-rule="evenodd"
       id="path866" />
    <path
       fill="#5b9bd5"
       d="m 24.562105,207.33309 3.375,1.0625 q -0.78125,2.8125 -2.57813,4.1875 -1.79687,1.35938 -4.5625,1.35938 -3.42187,0 -5.625,-2.34375 -2.20312,-2.34375 -2.20312,-6.39063 0,-4.29687 2.20312,-6.65625 2.21875,-2.375 5.82813,-2.375 3.15625,0 5.125,1.85938 1.17187,1.09375 1.76562,3.15625 l -3.4375,0.82812 q -0.3125,-1.34375 -1.28125,-2.10937 -0.95312,-0.78125 -2.34375,-0.78125 -1.90625,0 -3.09375,1.375 -1.1875,1.375 -1.1875,4.4375 0,3.26562 1.17188,4.65625 1.17187,1.375 3.04687,1.375 1.375,0 2.375,-0.875 1,-0.89063 1.42188,-2.76563 z"
       fill-rule="nonzero"
       id="path867" />
    <path
       fill="#c00000"
       d="m 46.394105,213.64559 h -3.76563 l -1.5,-3.90625 h -6.875 l -1.40625,3.90625 h -3.6875 l 6.6875,-17.1875 h 3.67188 z m -6.375,-6.79687 -2.375,-6.375 -2.3125,6.375 z m 23.70703,6.79687 h -3.76562 l -1.5,-3.90625 h -6.875 l -1.40625,3.90625 h -3.6875 l 6.6875,-17.1875 h 3.67187 z m -6.375,-6.79687 -2.375,-6.375 -2.3125,6.375 z"
       fill-rule="nonzero"
       id="path868" />
    <path
       fill="#00b050"
       d="m 69.433205,213.64559 v -14.28125 h -5.09375 v -2.90625 h 13.656246 v 2.90625 h -5.093746 v 14.28125 z"
       fill-rule="nonzero"
       id="path869" />
    <path
       fill="#c00000"
       d="m 95.718351,213.64559 h -3.76563 l -1.5,-3.90625 h -6.875 l -1.40625,3.90625 h -3.6875 l 6.6875,-17.1875 h 3.67188 z m -6.375,-6.79687 -2.375,-6.375 -2.3125,6.375 z m 23.707029,6.79687 h -3.76562 l -1.5,-3.90625 h -6.875 l -1.406249,3.90625 h -3.6875 l 6.687499,-17.1875 h 3.67187 z m -6.375,-6.79687 -2.375,-6.375 -2.3125,6.375 z m 23.70703,6.79687 h -3.76562 l -1.5,-3.90625 h -6.875 l -1.40625,3.90625 h -3.6875 l 6.6875,-17.1875 h 3.67187 z m -6.375,-6.79687 -2.375,-6.375 -2.3125,6.375 z m 23.70699,6.79687 h -3.7656 l -1.5,-3.90625 h -6.875 l -1.40623,3.90625 h -3.6875 l 6.68753,-17.1875 h 3.6718 z m -6.375,-6.79687 -2.375,-6.375 -2.3125,6.375 z"
       fill-rule="nonzero"
       id="path870" />
    <path
       fill="#000000"
       fill-opacity="0"
       d="m 222.89103,184.59594 h 155.369 v 38.7749 h -155.369 z"
       fill-rule="evenodd"
       id="path871" />
    <path
       fill="#00b050"
       d="m 237.50033,211.63592 v -14.28125 h -5.0937 v -2.90625 h 13.6562 v 2.90625 h -5.0937 v 14.28125 z"
       fill-rule="nonzero"
       id="path872" />
    <path
       fill="#5b9bd5"
       d="m 259.28553,205.32342 3.375,1.0625 q -0.7812,2.8125 -2.5781,4.1875 -1.7969,1.35937 -4.5625,1.35937 -3.4219,0 -5.625,-2.34375 -2.2031,-2.34375 -2.2031,-6.39062 0,-4.29688 2.2031,-6.65625 2.2187,-2.375 5.8281,-2.375 3.1563,0 5.125,1.85937 1.1719,1.09375 1.7656,3.15625 l -3.4375,0.82813 q -0.3125,-1.34375 -1.2812,-2.10938 -0.9531,-0.78125 -2.3438,-0.78125 -1.9062,0 -3.0937,1.375 -1.1875,1.375 -1.1875,4.4375 0,3.26563 1.1719,4.65625 1.1718,1.375 3.0468,1.375 1.375,0 2.375,-0.875 1,-0.89062 1.4219,-2.76562 z"
       fill-rule="nonzero"
       id="path873" />
    <path
       fill="#ffc000"
       d="m 273.61753,205.32342 v -2.90625 h 7.4844 v 6.84375 q -1.0938,1.0625 -3.1719,1.875 -2.0625,0.79687 -4.1719,0.79687 -2.7031,0 -4.7031,-1.125 -2,-1.14062 -3.0156,-3.23437 -1,-2.10938 -1,-4.59375 0,-2.67188 1.125,-4.75 1.125,-2.09375 3.2812,-3.21875 1.6563,-0.84375 4.125,-0.84375 3.1875,0 4.9844,1.34375 1.8125,1.32812 2.3281,3.70312 l -3.4531,0.64063 q -0.3594,-1.26563 -1.3594,-2 -1,-0.73438 -2.5,-0.73438 -2.2812,0 -3.625,1.45313 -1.3437,1.4375 -1.3437,4.26562 0,3.0625 1.3594,4.59375 1.3593,1.53125 3.5625,1.53125 1.0937,0 2.1875,-0.42187 1.0937,-0.4375 1.8906,-1.04688 v -2.17187 z"
       fill-rule="nonzero"
       id="path874" />
    <path
       fill="#00b050"
       d="m 288.16053,211.63592 v -14.28125 h -5.0937 v -2.90625 h 13.6562 v 2.90625 h -5.0937 v 14.28125 z"
       fill-rule="nonzero"
       id="path875" />
    <path
       fill="#c00000"
       d="m 314.44563,211.63592 h -3.7656 l -1.5,-3.90625 h -6.875 l -1.4063,3.90625 h -3.6875 l 6.6875,-17.1875 h 3.6719 z m -6.375,-6.79688 -2.375,-6.375 -2.3125,6.375 z m 23.707,6.79688 h -3.7656 l -1.5,-3.90625 h -6.875 l -1.4062,3.90625 h -3.6875 l 6.6875,-17.1875 h 3.6718 z m -6.375,-6.79688 -2.375,-6.375 -2.3125,6.375 z m 23.7071,6.79688 h -3.7657 l -1.5,-3.90625 h -6.875 l -1.4062,3.90625 h -3.6875 l 6.6875,-17.1875 h 3.6719 z m -6.375,-6.79688 -2.375,-6.375 -2.3125,6.375 z m 23.707,6.79688 h -3.7656 l -1.5,-3.90625 h -6.875 l -1.4063,3.90625 h -3.6875 l 6.6875,-17.1875 h 3.6719 z m -6.375,-6.79688 -2.375,-6.375 -2.3125,6.375 z"
       fill-rule="nonzero"
       id="path876" />
    <path
       fill="#000000"
       fill-opacity="0"
       d="m 275.63383,29.49828 -71.1713,26.11539"
       fill-rule="evenodd"
       id="path877" />
    <path
       stroke="#000000"
       stroke-width="2.66667"
       stroke-miterlimit="800"
       stroke-linecap="butt"
       d="m 275.63383,29.49828 -61.6832,22.63385"
       fill-rule="evenodd"
       id="path878" />
    <path
       fill="#000000"
       stroke="#000000"
       stroke-width="2.66667"
       stroke-linecap="butt"
       d="m 205.71423,55.15438 c -0.8346,-2.27441 0.3326,-4.79471 2.6071,-5.62927 2.2744,-0.83457 4.7946,0.33264 5.6292,2.60705 0.8346,2.27442 -0.3326,4.79474 -2.607,5.62931 -2.2744,0.83453 -4.7947,-0.33268 -5.6293,-2.60709 z"
       fill-rule="nonzero"
       id="path879" />
    <path
       fill="#000000"
       fill-opacity="0"
       d="m 258.55293,3.3226505 h 158.2301 V 42.09755 h -158.2301 z"
       fill-rule="evenodd"
       id="path880" />
    <path
       fill="#000000"
       d="M 280.59342,26.724812 V 9.5373118 h 2.2813 v 7.0625002 h 8.9218 V 9.5373118 h 2.2813 V 26.724812 h -2.2813 v -8.09375 h -8.9218 v 8.09375 z m 16.5664,-8.375 q 0,-4.26563 2.2969,-6.6875 2.2969,-2.4218802 5.9375,-2.4218802 2.375,0 4.2812,1.1406302 1.9219,1.125 2.9219,3.17187 1,2.03125 1,4.60938 0,2.60937 -1.0625,4.67187 -1.0469,2.0625 -2.9844,3.125 -1.9375,1.0625 -4.1718,1.0625 -2.4219,0 -4.3438,-1.17187 -1.9062,-1.17188 -2.8906,-3.20313 -0.9844,-2.03125 -0.9844,-4.29687 z m 2.3438,0.0469 q 0,3.09375 1.6718,4.89063 1.6719,1.78125 4.1875,1.78125 2.5782,0 4.2344,-1.79688 1.6563,-1.8125 1.6563,-5.125 0,-2.09375 -0.7188,-3.65625 -0.7031,-1.57812 -2.0781,-2.4375 -1.3594,-0.85937 -3.0469,-0.85937 -2.4219,0 -4.1719,1.65625 -1.7343,1.65625 -1.7343,5.54687 z m 15.2773,8.32813 6.6406,-8.95313 -5.8593,-8.2343702 h 2.7031 l 3.125,4.4062502 q 0.9687,1.375 1.375,2.10937 0.5781,-0.9375 1.3594,-1.95312 l 3.4687,-4.5625002 h 2.4688 l -6.0313,8.1093702 6.5,9.07813 h -2.8125 l -4.3281,-6.125 q -0.3594,-0.53125 -0.75,-1.15625 -0.5781,0.9375 -0.8125,1.29687 l -4.3125,5.98438 z m 17.6641,0 V 9.5373418 h 6.4375 q 1.9687,0 3.1562,0.5312502 1.1875,0.51562 1.8594,1.60937 0.6875,1.07813 0.6875,2.26563 0,1.09375 -0.6094,2.07812 -0.5937,0.96875 -1.7969,1.5625 1.5625,0.45313 2.3907,1.5625 0.8437,1.09375 0.8437,2.59375 0,1.20313 -0.5156,2.25 -0.5,1.03125 -1.25,1.59375 -0.75,0.5625 -1.8906,0.85938 -1.125,0.28125 -2.7657,0.28125 z m 2.2656,-9.96875 h 3.7187 q 1.5157,0 2.1719,-0.1875 0.8594,-0.26563 1.2969,-0.85938 0.4375,-0.59375 0.4375,-1.5 0,-0.85937 -0.4063,-1.5 -0.4062,-0.65625 -1.1718,-0.89062 -0.7657,-0.25 -2.6094,-0.25 h -3.4375 z m 0,7.9375 h 4.2812 q 1.0938,0 1.5469,-0.0781 0.7813,-0.14062 1.3125,-0.46875 0.5313,-0.32812 0.8594,-0.95312 0.3437,-0.625 0.3437,-1.45313 0,-0.95312 -0.5,-1.65625 -0.4843,-0.71875 -1.3593,-1 -0.875,-0.29687 -2.5157,-0.29687 h -3.9687 z m 20.914,2.03125 h -2.1093 v -13.4375 q -0.75,0.71875 -2,1.45312 -1.2344,0.71875 -2.2188,1.07813 v -2.03125 q 1.7813,-0.82813 3.0938,-2.01563 1.3281,-1.1875 1.875,-2.2968702 h 1.3593 z m 5.4258,-4.53125 2.1094,-0.28125 q 0.3594,1.78125 1.2344,2.57812 0.875,0.79688 2.125,0.79688 1.4844,0 2.5,-1.03125 1.0312,-1.03125 1.0312,-2.5625 0,-1.45313 -0.9531,-2.39063 -0.9375,-0.95312 -2.4062,-0.95312 -0.5938,0 -1.4844,0.23437 l 0.2344,-1.84375 q 0.2031,0.0156 0.3437,0.0156 1.3438,0 2.4219,-0.70313 1.0781,-0.70312 1.0781,-2.15625 0,-1.17187 -0.7969,-1.92187 -0.7812,-0.76563 -2.0156,-0.76563 -1.2344,0 -2.0625,0.78125 -0.8125,0.76563 -1.0469,2.3125 l -2.1093,-0.375 q 0.3906,-2.125 1.75,-3.28125 1.375,-1.1718702 3.4218,-1.1718702 1.4063,0 2.5782,0.6093702 1.1875,0.59375 1.8125,1.64063 0.6406,1.04687 0.6406,2.21875 0,1.10937 -0.6094,2.03125 -0.5937,0.90625 -1.7656,1.4375 1.5312,0.35937 2.375,1.46875 0.8437,1.10937 0.8437,2.76562 0,2.25 -1.6406,3.82813 -1.6406,1.5625 -4.1562,1.5625 -2.2657,0 -3.7657,-1.34375 -1.4843,-1.35938 -1.6875,-3.5 z"
       fill-rule="nonzero"
       id="path881" />
  </g>
</svg>
